<svg width="480" height="357" viewBox="0 0 480 357" fill="none" xmlns="http://www.w3.org/2000/svg">
<path d="M56.2451 214.705C61.7916 226.124 65.0543 237.543 65.7068 249.941C66.0331 258.424 66.6856 266.581 67.0119 275.064C60.1603 270.496 19.7031 259.403 19.7031 221.556C19.7031 207.527 33.0801 180.446 35.364 179.468C37.6478 178.489 47.4358 196.107 56.2451 214.705Z" fill="#00875A"/>
<mask id="mask0" mask-type="alpha" maskUnits="userSpaceOnUse" x="35" y="197" width="38" height="83">
<path d="M71.9095 279.305C58.2063 272.78 51.6809 247.657 46.4606 227.103C42.8717 213.726 39.9353 202.306 36.0201 198.391C35.6938 198.065 35.6938 198.065 36.0201 197.739C36.3464 197.412 36.3464 197.412 36.6726 197.739C40.9141 201.654 43.8505 213.399 47.4394 226.776C52.6597 247.005 59.1851 272.128 72.2358 278.327C72.562 278.327 72.562 278.653 72.562 278.979C72.2358 278.979 72.2358 279.305 71.9095 279.305Z" fill="url(#paint0_linear)"/>
</mask>
<g mask="url(#mask0)">
<path opacity="0.5" d="M71.9095 279.305C58.2063 272.78 51.6809 247.657 46.4606 227.103C42.8717 213.726 39.9353 202.306 36.0201 198.391C35.6938 198.065 35.6938 198.065 36.0201 197.739C36.3464 197.412 36.3464 197.412 36.6726 197.739C40.9141 201.654 43.8505 213.399 47.4394 226.776C52.6597 247.005 59.1851 272.128 72.2358 278.327C72.562 278.327 72.562 278.653 72.562 278.979C72.2358 278.979 72.2358 279.305 71.9095 279.305Z" fill="#172B4D"/>
</g>
<path d="M4.3695 206.874C6.65337 205.569 11.5474 219.598 36.0174 233.628C54.2884 244.068 60.8137 286.483 60.8137 286.483C60.8137 286.483 60.4875 297.25 60.1612 300.513C43.1953 294.313 17.7465 292.682 5.67457 268.538C-5.09225 246.678 2.4119 208.505 4.3695 206.874Z" fill="#57D9A3"/>
<mask id="mask1" mask-type="alpha" maskUnits="userSpaceOnUse" x="13" y="226" width="50" height="69">
<path d="M62.1181 294.314C47.7623 287.462 36.6693 266.255 27.5338 249.289C22.3135 239.501 18.072 231.344 14.1568 227.755C13.8305 227.429 13.8305 227.429 14.1568 227.103C14.4831 226.776 14.4831 226.776 14.8093 227.103C18.7246 230.692 22.966 239.175 28.1863 248.963C36.9955 265.928 48.4149 287.136 62.1181 293.661C62.4444 293.661 62.4444 293.987 62.4444 294.314C62.4444 294.314 62.4444 294.314 62.1181 294.314Z" fill="url(#paint1_linear)"/>
</mask>
<g mask="url(#mask1)">
<path opacity="0.5" d="M62.1181 294.314C47.7623 287.462 36.6693 266.255 27.5338 249.289C22.3135 239.501 18.072 231.344 14.1568 227.755C13.8305 227.429 13.8305 227.429 14.1568 227.103C14.4831 226.776 14.4831 226.776 14.8093 227.103C18.7246 230.692 22.966 239.175 28.1863 248.963C36.9955 265.928 48.4149 287.136 62.1181 293.661C62.4444 293.661 62.4444 293.987 62.4444 294.314C62.4444 294.314 62.4444 294.314 62.1181 294.314Z" fill="#172B4D"/>
<path d="M9.26719 255.488C11.8773 252.551 51.3557 293.335 54.2921 300.839V329.55C50.0506 327.919 16.4451 316.173 16.4451 290.072C16.4451 272.127 7.30959 257.772 9.26719 255.488Z" fill="#79F2C0"/>
<mask id="mask2" mask-type="alpha" maskUnits="userSpaceOnUse" x="20" y="270" width="44" height="51">
<path d="M63.427 320.741C42.8722 312.911 34.063 295.619 27.8639 283.22C25.2538 278.326 23.2961 274.085 21.0123 271.801C20.686 271.475 20.686 271.475 21.0123 271.149C21.3385 270.822 21.3385 270.822 21.6648 271.149C23.9487 273.432 25.9063 277.348 28.5164 282.568C34.7155 294.966 43.1985 311.932 63.427 319.762C63.7533 319.762 63.7533 320.089 63.7533 320.415C63.7533 320.741 63.7533 320.741 63.427 320.741Z" fill="url(#paint2_linear)"/>
</mask>
<g mask="url(#mask2)">
<path opacity="0.5" d="M63.427 320.741C42.8722 312.911 34.063 295.619 27.8639 283.22C25.2538 278.326 23.2961 274.085 21.0123 271.801C20.686 271.475 20.686 271.475 21.0123 271.149C21.3385 270.822 21.3385 270.822 21.6648 271.149C23.9487 273.432 25.9063 277.348 28.5164 282.568C34.7155 294.966 43.1985 311.932 63.427 319.762C63.7533 319.762 63.7533 320.089 63.7533 320.415C63.7533 320.741 63.7533 320.741 63.427 320.741Z" fill="#172B4D"/>
</g>
</g>
<path d="M417.423 328.571C417.423 338.359 408.94 346.19 398.499 346.19H73.2106C62.7701 346.19 54.2871 338.359 54.2871 328.571V146.188C54.2871 136.4 62.7701 128.57 73.2106 128.57H398.499C408.94 128.57 417.423 136.4 417.423 146.188V328.571Z" fill="#172B4D"/>
<path d="M80.3867 172.29V159.24H84.3019C85.607 159.24 86.5858 159.566 87.5646 160.219C88.2171 160.871 88.5434 161.524 88.5434 162.829C88.5434 163.481 88.2171 164.134 87.8909 164.46C87.5646 165.113 86.9121 165.439 86.2595 165.439C86.9121 165.439 87.5646 166.091 88.2171 166.418C88.5434 167.07 88.8697 167.723 88.8697 168.375C88.8697 169.354 88.5434 170.333 87.8909 170.985C87.2383 171.638 86.2595 171.964 84.9545 171.964H80.3867V172.29ZM81.3655 165.113H84.3019C85.2807 165.113 85.9333 164.786 86.2595 164.46C86.9121 164.134 86.9121 163.481 86.9121 162.502C86.9121 161.524 86.5858 161.197 86.2595 160.545C85.607 160.219 84.9545 159.892 83.9757 159.892H81.3655V165.113ZM81.3655 166.091V171.312H84.6282C85.607 171.312 86.2595 170.985 86.9121 170.659C87.5646 170.333 87.8909 169.68 87.8909 168.702C87.8909 168.049 87.5646 167.396 87.2383 166.744C86.5858 166.418 85.9333 166.091 84.9545 166.091H81.3655Z" fill="white"/>
<path d="M97.3516 172.29C97.3516 171.964 97.0253 171.638 97.0253 170.985C96.6991 171.311 96.0465 171.964 95.7203 171.964C95.0677 172.29 94.4152 172.29 93.7627 172.29C92.7839 172.29 92.1313 171.964 91.4788 171.638C90.8263 170.985 90.5 170.332 90.5 169.68C90.5 168.701 90.8263 168.049 91.8051 167.396C92.4576 166.744 93.7627 166.417 95.0677 166.417H97.0253V165.438C97.0253 164.786 96.6991 164.133 96.3728 163.807C96.0465 163.481 95.394 163.155 94.4152 163.155C93.7627 163.155 93.1101 163.481 92.4576 163.807C92.1313 164.133 91.8051 164.786 91.8051 165.112H90.8263C90.8263 164.46 91.1525 163.807 91.8051 163.155C92.4576 162.502 93.4364 162.176 94.4152 162.176C95.394 162.176 96.3728 162.502 97.0253 162.828C97.6779 163.481 98.0041 164.133 98.0041 165.112V169.68C98.0041 170.659 98.0041 171.311 98.3304 171.638H97.3516V172.29ZM93.7627 171.638C94.4152 171.638 95.0677 171.311 95.7203 170.985C96.3728 170.659 96.6991 170.332 97.0253 169.68V167.722H95.0677C94.0889 167.722 93.1101 168.049 92.4576 168.375C91.8051 168.701 91.4788 169.354 91.4788 170.006C91.4788 170.659 91.8051 170.985 92.1313 171.311C92.7839 171.311 93.4364 171.638 93.7627 171.638Z" fill="white"/>
<path d="M101.924 162.828V164.459C102.25 163.807 102.577 163.481 103.229 163.154C103.882 162.828 104.208 162.828 104.861 162.828C105.839 162.828 106.818 163.154 107.144 163.807C107.797 164.459 107.797 165.112 107.797 166.417V172.616H106.818V166.417C106.818 165.438 106.492 164.786 106.166 164.459C105.839 164.133 105.187 163.807 104.534 163.807C103.882 163.807 103.229 164.133 102.903 164.459C102.25 164.786 101.924 165.438 101.924 166.091V172.616H100.945V163.154H101.924V162.828Z" fill="white"/>
<path d="M113.341 167.396L112.035 168.701V172.29H111.057V158.587H112.035V167.396L113.014 166.417L116.603 162.828H117.908L113.993 166.743L118.561 172.29H117.256L113.341 167.396Z" fill="white"/>
<path d="M129.977 172.29V159.24H133.892C135.197 159.24 136.176 159.566 137.154 160.219C137.807 160.871 138.133 161.524 138.133 162.829C138.133 163.481 137.807 164.134 137.481 164.46C137.154 165.113 136.502 165.439 135.849 165.439C136.502 165.439 137.154 166.091 137.807 166.418C138.133 167.07 138.46 167.723 138.46 168.375C138.46 169.354 138.133 170.333 137.481 170.985C136.828 171.638 135.849 171.964 134.544 171.964H129.977V172.29ZM131.282 165.113H134.218C135.197 165.113 135.849 164.786 136.176 164.46C136.828 164.134 136.828 163.481 136.828 162.502C136.828 161.524 136.502 161.197 136.176 160.545C135.523 160.219 134.871 159.892 133.892 159.892H131.282V165.113ZM131.282 166.091V171.312H134.544C135.523 171.312 136.176 170.985 136.828 170.659C137.481 170.333 137.807 169.68 137.807 168.702C137.807 168.049 137.481 167.396 137.154 166.744C136.502 166.418 135.849 166.091 134.871 166.091H131.282Z" fill="white"/>
<path d="M146.941 172.29C146.941 171.964 146.615 171.638 146.615 170.985C146.289 171.311 145.636 171.964 145.31 171.964C144.657 172.29 144.005 172.29 143.352 172.29C142.374 172.29 141.721 171.964 141.069 171.638C140.742 171.311 140.416 170.659 140.416 169.68C140.416 168.701 140.742 168.049 141.721 167.396C142.374 166.744 143.679 166.417 144.984 166.417H146.941V165.438C146.941 164.786 146.615 164.133 146.289 163.807C145.963 163.481 145.31 163.155 144.331 163.155C143.679 163.155 143.026 163.481 142.374 163.807C142.047 164.133 141.721 164.786 141.721 165.112H140.742C140.742 164.46 141.069 163.807 141.721 163.155C142.374 162.502 143.352 162.176 144.331 162.176C145.31 162.176 146.289 162.502 146.941 162.828C147.594 163.481 147.92 164.133 147.92 165.112V169.68C147.92 170.659 147.92 171.311 148.246 171.638H146.941V172.29ZM143.679 171.638C144.331 171.638 144.984 171.311 145.636 170.985C146.289 170.659 146.615 170.332 146.941 169.68V167.722H144.984C144.005 167.722 143.026 168.049 142.374 168.375C141.721 168.701 141.395 169.354 141.395 170.006C141.395 170.659 141.721 170.985 142.047 171.311C142.7 171.311 143.026 171.638 143.679 171.638Z" fill="white"/>
<path d="M151.838 162.828V164.459C152.164 163.807 152.491 163.481 153.143 163.154C153.796 162.828 154.122 162.828 154.775 162.828C155.753 162.828 156.732 163.154 157.058 163.807C157.711 164.459 157.711 165.112 157.711 166.417V172.616H156.732V166.417C156.732 165.438 156.406 164.786 156.08 164.459C155.753 164.133 155.101 163.807 154.448 163.807C153.796 163.807 153.143 164.133 152.817 164.459C152.164 164.786 151.838 165.438 151.838 166.091V172.616H150.859V163.154H151.838V162.828Z" fill="white"/>
<path d="M162.93 167.396L161.625 168.701V172.29H160.646V158.587H161.625V167.396L162.604 166.417L166.193 162.828H167.498L163.583 166.743L168.151 172.29H166.846L162.93 167.396Z" fill="white"/>
<path d="M125.736 167.396C125.736 168.375 125.083 169.354 123.778 169.354C122.799 169.354 121.82 168.701 121.82 167.396C121.82 166.418 122.473 165.439 123.778 165.439C125.083 165.439 125.736 166.418 125.736 167.396Z" fill="white"/>
<path d="M116.604 223.514C113.015 220.251 110.731 216.01 110.731 212.421C110.731 208.832 113.015 204.591 116.604 201.328C118.235 199.697 120.519 198.391 122.477 197.086C122.15 197.086 121.498 197.086 121.172 197.086H87.5661C86.9135 197.086 86.261 197.086 85.6085 197.413C87.8923 198.718 89.8499 200.023 91.8076 201.654C95.3965 204.917 97.6804 209.158 97.6804 212.747C97.6804 216.336 95.3965 220.578 91.8076 223.84C89.1974 226.45 85.6085 228.408 82.0195 229.713C83.6509 231.018 85.6085 231.671 87.8923 231.671H121.498C123.782 231.671 125.413 231.018 127.044 229.713C122.803 228.408 119.214 226.124 116.604 223.514Z" fill="#C1C7D0"/>
<path d="M95.7201 213.726C95.7201 213.399 95.7201 213.073 95.7201 212.747C95.7201 209.484 93.7625 205.895 90.4998 202.959C88.5422 201.001 85.9321 199.696 83.3219 198.391C80.0593 200.022 77.7754 203.285 77.7754 206.874V214.052H95.7201V213.726Z" fill="#C1C7D0"/>
<path d="M78.0996 215.031V222.209C78.0996 224.493 79.0784 226.777 80.3835 228.408C84.2987 227.103 87.5614 225.146 90.4978 222.536C93.1079 220.252 94.7392 217.642 95.3918 215.031H78.0996Z" fill="#C1C7D0"/>
<path d="M112.684 215.03C113.336 217.641 114.967 219.924 117.578 222.208C120.514 224.818 124.103 227.102 128.344 228.407C129.976 226.776 130.955 224.492 130.955 221.882V214.704H112.684V215.03Z" fill="#C1C7D0"/>
<path d="M130.63 213.726V206.548C130.63 202.633 128.347 199.044 124.758 197.739C122.147 199.044 119.537 200.675 117.58 202.307C113.991 205.569 112.033 209.158 112.033 212.421C112.033 212.747 112.033 213.073 112.033 213.4H130.63V213.726Z" fill="#C1C7D0"/>
<path d="M92.4548 254.835C92.4548 257.772 91.8023 260.056 90.8235 261.361C89.8447 262.666 88.2133 263.645 86.2557 263.645C84.2981 263.645 82.6668 262.992 81.688 261.687C80.7092 260.382 80.0566 258.098 80.0566 255.488V252.225C80.0566 249.289 80.7092 247.005 81.688 245.7C82.6668 244.395 84.2981 243.416 86.582 243.416C88.8659 243.416 90.1709 244.069 91.1497 245.374C92.1285 246.679 92.7811 248.963 92.7811 251.573V254.835H92.4548ZM90.1709 251.246C90.1709 248.963 89.8447 247.657 89.1921 246.679C88.5396 245.7 87.5608 245.374 86.2557 245.374C84.9506 245.374 83.9718 246.026 83.3193 246.679C82.6668 247.657 82.3405 249.289 82.3405 251.246V255.162C82.3405 257.446 82.6668 258.751 83.3193 260.056C83.9718 261.034 84.9506 261.687 86.2557 261.687C87.5608 261.687 88.5396 261.361 88.8659 260.382C89.5184 259.403 89.8447 257.772 89.8447 255.814V251.246H90.1709Z" fill="white"/>
<path d="M104.2 263.319H101.589V246.679L96.3691 248.637V246.353L103.547 243.743H103.873V263.319H104.2Z" fill="white"/>
<path d="M124.428 263.318H111.377V261.361L118.229 253.857C119.207 252.878 119.86 251.899 120.186 250.92C120.513 250.268 120.839 249.289 120.839 248.636C120.839 247.658 120.513 246.679 119.86 246.026C119.207 245.374 118.229 245.048 117.25 245.048C115.945 245.048 114.966 245.374 114.313 246.026C113.661 246.679 113.335 247.658 113.335 248.963H111.051C111.051 247.005 111.703 245.7 112.682 244.395C113.987 243.416 115.292 242.764 117.25 242.764C119.207 242.764 120.513 243.09 121.491 244.069C122.47 245.048 123.123 246.353 123.123 247.984C123.123 249.942 121.818 252.225 119.534 254.836L114.313 261.035H124.101V263.318H124.428Z" fill="white"/>
<path d="M130.626 252.226H132.584C133.889 252.226 134.868 251.899 135.52 251.247C136.173 250.594 136.499 249.942 136.499 248.637C136.499 246.353 135.194 245.048 132.91 245.048C131.931 245.048 130.953 245.374 130.3 246.026C129.647 246.679 129.321 247.332 129.321 248.637H126.711C126.711 247.005 127.364 245.7 128.342 244.721C129.647 243.743 130.953 243.09 132.584 243.09C134.541 243.09 135.847 243.743 136.825 244.721C137.804 245.7 138.457 247.005 138.457 248.963C138.457 249.942 138.13 250.594 137.478 251.573C136.825 252.226 136.173 252.878 135.194 253.531C136.173 253.857 137.152 254.509 137.804 255.162C138.457 255.815 138.783 256.793 138.783 258.098C138.783 259.73 138.13 261.361 137.152 262.34C135.847 263.319 134.541 263.971 132.584 263.971C130.626 263.971 129.321 263.319 128.016 262.34C126.711 261.361 126.385 260.056 126.385 258.425H128.995C128.995 259.403 129.321 260.382 129.974 261.035C130.626 261.687 131.605 262.014 132.584 262.014C133.889 262.014 134.868 261.687 135.52 261.035C136.173 260.382 136.499 259.403 136.499 258.425C136.499 257.12 136.173 256.467 135.52 255.815C134.868 255.162 133.889 254.836 132.584 254.836H130.626V252.226Z" fill="white"/>
<path d="M167.169 256.467H169.78V258.425H167.169V262.992H164.559V258.425H155.424V256.793L164.233 243.09H166.843V256.467H167.169ZM158.36 256.467H164.559V246.679L164.233 247.332L158.36 256.467Z" fill="white"/>
<path d="M173.371 253.204L174.35 243.416H184.464V245.7H176.308L175.655 251.246C176.634 250.594 177.613 250.268 178.918 250.268C180.876 250.268 182.181 250.92 183.159 251.899C184.138 253.204 184.791 254.835 184.791 256.793C184.791 258.751 184.138 260.382 183.159 261.687C182.181 262.992 180.549 263.318 178.592 263.318C176.96 263.318 175.329 262.992 174.35 262.013C173.371 261.034 172.719 259.729 172.393 258.098H174.676C174.676 259.077 175.329 260.056 175.982 260.708C176.634 261.361 177.613 261.687 178.592 261.687C179.897 261.687 180.549 261.361 181.202 260.382C181.854 259.729 182.181 258.424 182.181 257.119C182.181 255.814 181.854 254.835 181.202 253.857C180.549 253.204 179.57 252.552 178.265 252.552C177.287 252.552 176.308 252.878 175.655 253.204L175.003 253.857L173.371 253.204Z" fill="white"/>
<path d="M197.51 243.416V245.7H197.184C195.227 245.7 193.595 246.352 192.616 247.331C191.311 248.31 190.659 249.941 190.659 252.225C191.638 250.92 193.269 250.268 194.9 250.268C196.532 250.268 198.163 250.92 199.142 252.225C200.121 253.53 200.773 255.162 200.773 256.793C200.773 258.751 200.121 260.382 199.142 261.687C198.163 262.992 196.532 263.645 194.574 263.645C192.616 263.645 190.985 262.992 190.006 261.361C188.701 260.056 188.375 258.098 188.375 255.814V254.835C188.375 251.246 189.028 248.31 190.659 246.352C192.29 244.395 194.574 243.416 197.51 243.416ZM194.248 252.225C193.269 252.225 192.616 252.552 191.964 252.878C191.311 253.53 190.659 254.183 190.333 254.835V255.814C190.333 257.446 190.659 258.751 191.311 259.729C191.964 260.708 192.943 261.361 193.922 261.361C194.9 261.361 195.879 261.034 196.532 260.056C197.184 259.077 197.51 258.098 197.51 256.793C197.51 255.488 197.184 254.183 196.532 253.53C196.205 252.878 195.227 252.225 194.248 252.225Z" fill="white"/>
<path d="M216.109 244.721L207.953 262.992H205.343L213.499 245.374H202.732V243.416H216.109V244.721Z" fill="white"/>
<path d="M244.822 248.636C244.822 249.615 244.496 250.594 244.169 251.246C243.517 251.899 242.864 252.551 241.885 253.204C242.864 253.53 243.843 254.183 244.496 255.162C245.148 256.14 245.474 257.119 245.474 258.098C245.474 259.729 244.822 261.034 243.843 262.34C242.538 263.318 241.233 263.971 239.275 263.971C237.318 263.971 235.686 263.318 234.708 262.34C233.402 261.361 233.076 260.056 233.076 258.098C233.076 257.119 233.402 256.14 234.055 255.162C234.707 254.183 235.36 253.53 236.339 253.204C235.36 252.878 234.708 252.225 234.381 251.246C233.729 250.594 233.729 249.615 233.729 248.636C233.729 247.005 234.381 245.7 235.36 244.721C236.339 243.742 237.97 243.416 239.602 243.416C241.233 243.416 242.864 244.069 243.843 244.721C244.169 245.7 244.822 247.005 244.822 248.636ZM242.864 257.772C242.864 256.793 242.538 255.814 241.885 255.162C241.233 254.509 240.254 254.183 239.275 254.183C237.97 254.183 237.318 254.509 236.665 255.162C235.36 255.814 235.034 256.793 235.034 257.772C235.034 258.751 235.36 259.729 236.013 260.382C236.665 261.034 237.644 261.361 238.949 261.361C240.254 261.361 240.907 261.034 241.885 260.382C242.538 259.729 242.864 259.077 242.864 257.772ZM238.949 245.047C237.97 245.047 237.318 245.374 236.665 246.026C236.013 246.679 235.686 247.331 235.686 248.636C235.686 249.615 236.013 250.594 236.665 251.246C237.318 251.899 237.97 252.225 238.949 252.225C239.928 252.225 240.907 251.899 241.233 251.246C241.885 250.594 242.212 249.941 242.212 248.636C242.212 247.657 241.885 246.679 241.233 246.026C240.58 245.374 239.928 245.047 238.949 245.047Z" fill="white"/>
<path d="M258.198 254.509C257.546 255.162 256.893 255.488 256.241 256.14C255.588 256.467 254.609 256.793 253.957 256.793C252.978 256.793 251.673 256.467 251.02 255.814C250.042 255.162 249.389 254.509 249.063 253.53C248.736 252.551 248.41 251.246 248.41 250.268C248.41 248.963 248.736 247.657 249.063 246.679C249.715 245.7 250.368 244.721 251.347 244.395C252.325 243.742 253.304 243.416 254.609 243.416C256.567 243.416 258.198 244.069 259.177 245.7C260.156 247.005 260.808 249.289 260.808 251.573V252.225C260.808 256.14 260.156 258.751 258.524 260.708C256.893 262.34 254.609 263.318 251.673 263.318H251.347V261.034C253.304 261.034 254.936 260.382 256.241 259.403C257.219 258.424 257.872 256.793 258.198 254.509ZM254.283 254.509C255.262 254.509 255.914 254.183 256.567 253.857C257.219 253.204 257.872 252.551 258.198 251.899V250.92C258.198 249.289 257.872 247.984 257.219 247.005C256.567 246.026 255.588 245.374 254.609 245.374C253.63 245.374 252.652 245.7 251.999 246.679C251.347 247.657 251.02 248.636 251.02 249.941C251.02 251.246 251.347 252.551 251.999 253.204C252.325 254.183 252.978 254.509 254.283 254.509Z" fill="white"/>
<path d="M272.229 263.319H269.619V246.679L264.398 248.637V246.353L271.576 243.743H271.903V263.319H272.229Z" fill="white"/>
<path d="M292.129 254.835C292.129 257.772 291.476 260.056 290.497 261.361C289.518 262.666 287.887 263.645 285.93 263.645C283.972 263.645 282.341 262.992 281.362 261.687C280.383 260.382 279.73 258.098 279.73 255.488V252.225C279.73 249.289 280.383 247.005 281.362 245.7C282.341 244.395 283.972 243.416 286.256 243.416C288.54 243.416 289.845 244.069 290.824 245.374C291.802 246.679 292.455 248.963 292.455 251.573V254.835H292.129ZM289.518 251.246C289.518 248.963 289.192 247.657 288.54 246.679C287.887 245.7 286.908 245.374 285.603 245.374C284.298 245.374 283.319 246.026 282.667 246.679C282.014 247.657 281.688 249.289 281.688 251.246V255.162C281.688 257.446 282.014 258.751 282.667 260.056C283.319 261.034 284.298 261.687 285.603 261.687C286.908 261.687 287.887 261.361 288.213 260.382C288.866 259.403 289.192 257.772 289.192 255.814V251.246H289.518Z" fill="white"/>
<path d="M317.254 263.319H314.644V246.679L309.424 248.637V246.353L316.602 243.743H316.928V263.319H317.254Z" fill="white"/>
<path d="M332.912 263.319H330.302V246.679L325.082 248.637V246.353L332.26 243.743H332.586V263.319H332.912Z" fill="white"/>
<path d="M348.577 263.319H345.966V246.679L340.746 248.637V246.353L347.924 243.743H348.25V263.319H348.577Z" fill="white"/>
<path d="M369.129 263.318H356.078V261.361L362.93 253.857C363.909 252.878 364.561 251.899 364.887 250.92C365.214 250.268 365.54 249.289 365.54 248.636C365.54 247.658 365.214 246.679 364.561 246.026C363.909 245.374 363.256 245.048 361.951 245.048C360.646 245.048 359.667 245.374 359.015 246.026C358.362 246.679 358.036 247.658 358.036 248.963H355.752C355.752 247.005 356.404 245.7 357.383 244.395C358.688 243.416 359.993 242.764 361.951 242.764C363.909 242.764 365.214 243.09 366.192 244.069C367.171 245.048 367.824 246.353 367.824 247.984C367.824 249.942 366.519 252.225 364.235 254.836L359.015 261.035H368.803V263.318H369.129Z" fill="white"/>
<path d="M223.296 353.041H193.605C190.016 353.041 187.406 350.105 187.406 346.842V345.211C187.406 341.622 190.343 339.012 193.605 339.012H223.296C226.885 339.012 229.495 341.948 229.495 345.211V346.842C229.495 350.431 226.558 353.041 223.296 353.041Z" fill="#FFC400"/>
<path d="M223.296 339.012H193.605C190.016 339.012 187.406 336.075 187.406 332.813V331.181C187.406 327.592 190.343 324.982 193.605 324.982H223.296C226.885 324.982 229.495 327.919 229.495 331.181V332.813C229.495 336.075 226.558 339.012 223.296 339.012Z" fill="#FFC400"/>
<path d="M223.296 324.33H193.605C190.016 324.33 187.406 321.393 187.406 318.13V316.499C187.406 312.91 190.343 310.3 193.605 310.3H223.296C226.885 310.3 229.495 313.236 229.495 316.499V318.13C229.495 321.719 226.558 324.33 223.296 324.33Z" fill="#FFC400"/>
<path d="M173.708 353.041H144.017C140.428 353.041 137.818 350.105 137.818 346.842V345.211C137.818 341.622 140.755 339.012 144.017 339.012H173.708C177.297 339.012 179.907 341.948 179.907 345.211V346.842C179.907 350.431 177.297 353.041 173.708 353.041Z" fill="#FFC400"/>
<path d="M173.708 339.012H144.017C140.428 339.012 137.818 336.075 137.818 332.813V331.181C137.818 327.592 140.755 324.982 144.017 324.982H173.708C177.297 324.982 179.907 327.919 179.907 331.181V332.813C179.907 336.075 177.297 339.012 173.708 339.012Z" fill="#FFC400"/>
<path d="M173.708 324.33H144.017C140.428 324.33 137.818 321.393 137.818 318.13V316.499C137.818 312.91 140.755 310.3 144.017 310.3H173.708C177.297 310.3 179.907 313.236 179.907 316.499V318.13C179.907 321.719 177.297 324.33 173.708 324.33Z" fill="#FFC400"/>
<path d="M173.708 309.974H144.017C140.428 309.974 137.818 307.038 137.818 303.775V302.144C137.818 298.555 140.755 295.945 144.017 295.945H173.708C177.297 295.945 179.907 298.881 179.907 302.144V303.775C179.907 307.364 177.297 309.974 173.708 309.974Z" fill="#FFC400"/>
<path d="M126.722 353.041H94.4214C91.8112 353.041 89.5273 350.757 89.5273 348.147V343.906C89.5273 341.296 91.8112 339.012 94.4214 339.012H126.722C129.332 339.012 131.616 341.296 131.616 343.906V348.147C131.616 350.757 129.332 353.041 126.722 353.041Z" fill="#FFC400"/>
<path d="M127.374 339.012H93.7688C91.485 339.012 89.5273 337.054 89.5273 334.77V329.224C89.5273 326.94 91.485 324.982 93.7688 324.982H127.374C129.658 324.982 131.616 326.94 131.616 329.224V334.77C131.616 337.054 129.658 339.012 127.374 339.012Z" fill="#FFC400"/>
<path opacity="0.2" d="M101.599 339.012H98.0098V353.041H101.599V339.012Z" fill="white"/>
<path opacity="0.2" d="M95.2378 353.178H96.8691V339.149H95.2378V353.178Z" fill="white"/>
<path opacity="0.2" d="M114.324 339.012H102.578V353.041H114.324V339.012Z" fill="white"/>
<path opacity="0.2" d="M148.257 339.012H144.668V353.041H148.257V339.012Z" fill="white"/>
<path opacity="0.2" d="M141.998 353.178H143.629V339.149H141.998V353.178Z" fill="white"/>
<path opacity="0.2" d="M160.982 339.012H149.236V353.041H160.982V339.012Z" fill="white"/>
<path opacity="0.2" d="M148.257 324.982H144.668V339.012H148.257V324.982Z" fill="white"/>
<path opacity="0.2" d="M141.998 338.976H143.629V324.946H141.998V338.976Z" fill="white"/>
<path opacity="0.2" d="M160.982 324.982H149.236V339.012H160.982V324.982Z" fill="white"/>
<path opacity="0.2" d="M101.599 324.982H98.0098V339.012H101.599V324.982Z" fill="white"/>
<path opacity="0.2" d="M95.2378 338.976H96.8691V324.946H95.2378V338.976Z" fill="white"/>
<path opacity="0.2" d="M114.324 324.982H102.578V339.012H114.324V324.982Z" fill="white"/>
<path d="M129.338 337.38C129.338 337.707 129.012 337.707 129.012 337.707C128.686 337.707 128.686 337.38 128.686 337.38V326.287C128.686 325.961 129.012 325.961 129.012 325.961C129.338 325.961 129.338 326.287 129.338 326.287V337.38Z" fill="#FFDB61"/>
<path d="M124.768 337.38C124.768 337.707 124.441 337.707 124.441 337.707C124.115 337.707 124.115 337.38 124.115 337.38V326.287C124.115 325.961 124.441 325.961 124.441 325.961C124.768 325.961 124.768 326.287 124.768 326.287V337.38Z" fill="#FFDB61"/>
<path d="M119.875 337.38C119.875 337.707 119.549 337.707 119.549 337.707C119.223 337.707 119.223 337.38 119.223 337.38V326.287C119.223 325.961 119.549 325.961 119.549 325.961C119.875 325.961 119.875 326.287 119.875 326.287V337.38Z" fill="#FFDB61"/>
<path d="M115.305 337.38C115.305 337.707 114.979 337.707 114.979 337.707C114.652 337.707 114.652 337.38 114.652 337.38V326.287C114.652 325.961 114.979 325.961 114.979 325.961C115.305 325.961 115.305 326.287 115.305 326.287V337.38Z" fill="#FFDB61"/>
<path d="M110.737 337.38C110.737 337.707 110.41 337.707 110.41 337.707C110.084 337.707 110.084 337.38 110.084 337.38V326.287C110.084 325.961 110.41 325.961 110.41 325.961C110.737 325.961 110.737 326.287 110.737 326.287V337.38Z" fill="#FFDB61"/>
<path d="M106.166 337.38C106.166 337.707 105.84 337.707 105.84 337.707C105.514 337.707 105.514 337.38 105.514 337.38V326.287C105.514 325.961 105.84 325.961 105.84 325.961C106.166 325.961 106.166 326.287 106.166 326.287V337.38Z" fill="#FFDB61"/>
<path d="M101.604 337.38C101.604 337.707 101.277 337.707 101.277 337.707C100.951 337.707 100.951 337.38 100.951 337.38V326.287C100.951 325.961 101.277 325.961 101.277 325.961C101.604 325.961 101.604 326.287 101.604 326.287V337.38Z" fill="#FFDB61"/>
<path d="M97.0353 337.38C97.0353 337.707 96.7091 337.707 96.7091 337.707C96.3828 337.707 96.3828 337.38 96.3828 337.38V326.287C96.3828 325.961 96.7091 325.961 96.7091 325.961C97.0353 325.961 97.0353 326.287 97.0353 326.287V337.38Z" fill="#FFDB61"/>
<path d="M92.467 337.38C92.467 337.707 92.1407 337.707 92.1407 337.707C91.8145 337.707 91.8145 337.38 91.8145 337.38V326.287C91.8145 325.961 92.1407 325.961 92.1407 325.961C92.467 325.961 92.467 326.287 92.467 326.287V337.38Z" fill="#FFDB61"/>
<path d="M129.338 351.41C129.338 351.736 129.012 351.736 129.012 351.736C128.686 351.736 128.686 351.41 128.686 351.41V340.317C128.686 339.991 129.012 339.991 129.012 339.991C129.338 339.991 129.338 340.317 129.338 340.317V351.41Z" fill="#FFDB61"/>
<path d="M124.768 351.41C124.768 351.736 124.441 351.736 124.441 351.736C124.115 351.736 124.115 351.41 124.115 351.41V340.317C124.115 339.991 124.441 339.991 124.441 339.991C124.768 339.991 124.768 340.317 124.768 340.317V351.41Z" fill="#FFDB61"/>
<path d="M119.875 351.41C119.875 351.736 119.549 351.736 119.549 351.736C119.223 351.736 119.223 351.41 119.223 351.41V340.317C119.223 339.991 119.549 339.991 119.549 339.991C119.875 339.991 119.875 340.317 119.875 340.317V351.41Z" fill="#FFDB61"/>
<path d="M115.305 351.41C115.305 351.736 114.979 351.736 114.979 351.736C114.652 351.736 114.652 351.41 114.652 351.41V340.317C114.652 339.991 114.979 339.991 114.979 339.991C115.305 339.991 115.305 340.317 115.305 340.317V351.41Z" fill="#FFDB61"/>
<path d="M110.737 351.41C110.737 351.736 110.41 351.736 110.41 351.736C110.084 351.736 110.084 351.41 110.084 351.41V340.317C110.084 339.991 110.41 339.991 110.41 339.991C110.737 339.991 110.737 340.317 110.737 340.317V351.41Z" fill="#FFDB61"/>
<path d="M106.166 351.41C106.166 351.736 105.84 351.736 105.84 351.736C105.514 351.736 105.514 351.41 105.514 351.41V340.317C105.514 339.991 105.84 339.991 105.84 339.991C106.166 339.991 106.166 340.317 106.166 340.317V351.41Z" fill="#FFDB61"/>
<path d="M101.604 351.41C101.604 351.736 101.277 351.736 101.277 351.736C100.951 351.736 100.951 351.41 100.951 351.41V340.317C100.951 339.991 101.277 339.991 101.277 339.991C101.604 339.991 101.604 340.317 101.604 340.317V351.41Z" fill="#FFDB61"/>
<path d="M97.0353 351.41C97.0353 351.736 96.7091 351.736 96.7091 351.736C96.3828 351.736 96.3828 351.41 96.3828 351.41V340.317C96.3828 339.991 96.7091 339.991 96.7091 339.991C97.0353 339.991 97.0353 340.317 97.0353 340.317V351.41Z" fill="#FFDB61"/>
<path d="M92.467 351.41C92.467 351.736 92.1407 351.736 92.1407 351.736C91.8145 351.736 91.8145 351.41 91.8145 351.41V340.317C91.8145 339.991 92.1407 339.991 92.1407 339.991C92.467 339.991 92.467 340.317 92.467 340.317V351.41Z" fill="#FFDB61"/>
<path d="M76.4779 353.041H42.8723C40.5885 353.041 38.6309 351.084 38.6309 348.8V343.253C38.6309 340.969 40.5885 339.012 42.8723 339.012H76.4779C78.7617 339.012 80.7193 340.969 80.7193 343.253V348.8C81.0456 351.084 79.088 353.041 76.4779 353.041Z" fill="#FFC400"/>
<path opacity="0.2" d="M47.4386 339.012H43.8496V353.041H47.4386V339.012Z" fill="white"/>
<path opacity="0.2" d="M41.3257 353.178H42.957V339.149H41.3257V353.178Z" fill="white"/>
<path opacity="0.2" d="M60.1636 339.012H48.418V353.041H60.1636V339.012Z" fill="white"/>
<path d="M77.7795 351.41C77.7795 351.736 77.4532 351.736 77.4532 351.736C77.127 351.736 77.127 351.41 77.127 351.41V340.317C77.127 339.991 77.4532 339.991 77.4532 339.991C77.7795 339.991 77.7795 340.317 77.7795 340.317V351.41Z" fill="#FFDB61"/>
<path d="M73.217 351.41C73.217 351.736 72.8907 351.736 72.8907 351.736C72.5644 351.736 72.5645 351.41 72.5645 351.41V340.317C72.5645 339.991 72.8907 339.991 72.8907 339.991C73.217 339.991 73.217 340.317 73.217 340.317V351.41Z" fill="#FFDB61"/>
<path d="M68.6486 351.41C68.6486 351.736 68.3224 351.736 68.3224 351.736C67.9961 351.736 67.9961 351.41 67.9961 351.41V340.317C67.9961 339.991 68.3224 339.991 68.3224 339.991C68.6486 339.991 68.6486 340.317 68.6486 340.317V351.41Z" fill="#FFDB61"/>
<path d="M64.0803 351.41C64.0803 351.736 63.754 351.736 63.754 351.736C63.4277 351.736 63.4277 351.41 63.4277 351.41V340.317C63.4277 339.991 63.754 339.991 63.754 339.991C64.0803 339.991 64.0803 340.317 64.0803 340.317V351.41Z" fill="#FFDB61"/>
<path d="M59.51 351.41C59.51 351.736 59.1837 351.736 59.1837 351.736C58.8574 351.736 58.8574 351.41 58.8574 351.41V340.317C58.8574 339.991 59.1837 339.991 59.1837 339.991C59.51 339.991 59.51 340.317 59.51 340.317V351.41Z" fill="#FFDB61"/>
<path d="M54.9416 351.41C54.9416 351.736 54.6153 351.736 54.6153 351.736C54.2891 351.736 54.2891 351.41 54.2891 351.41V340.317C54.2891 339.991 54.6153 339.991 54.6153 339.991C54.9416 339.991 54.9416 340.317 54.9416 340.317V351.41Z" fill="#FFDB61"/>
<path d="M50.3791 351.41C50.3791 351.736 50.0528 351.736 50.0528 351.736C49.7266 351.736 49.7266 351.41 49.7266 351.41V340.317C49.7266 339.991 50.0528 339.991 50.0528 339.991C50.3791 339.991 50.3791 340.317 50.3791 340.317V351.41Z" fill="#FFDB61"/>
<path d="M45.8088 351.41C45.8088 351.736 45.4825 351.736 45.4825 351.736C45.1562 351.736 45.1562 351.41 45.1562 351.41V340.317C45.1562 339.991 45.4825 339.991 45.4825 339.991C45.8088 339.991 45.8088 340.317 45.8088 340.317V351.41Z" fill="#FFDB61"/>
<path d="M41.2404 351.41C41.2404 351.736 40.9142 351.736 40.9142 351.736C40.5879 351.736 40.5879 351.41 40.5879 351.41V340.317C40.5879 339.991 40.9142 339.991 40.9142 339.991C41.2404 339.991 41.2404 340.317 41.2404 340.317V351.41Z" fill="#FFDB61"/>
<path d="M177.615 351.41C177.615 351.736 177.289 351.736 177.289 351.736C176.963 351.736 176.963 351.41 176.963 351.41V340.317C176.963 339.991 177.289 339.991 177.289 339.991C177.615 339.991 177.615 340.317 177.615 340.317V351.41Z" fill="#FFDB61"/>
<path d="M173.053 351.41C173.053 351.736 172.727 351.736 172.727 351.736C172.4 351.736 172.4 351.41 172.4 351.41V340.317C172.4 339.991 172.727 339.991 172.727 339.991C173.053 339.991 173.053 340.317 173.053 340.317V351.41Z" fill="#FFDB61"/>
<path d="M168.485 351.41C168.485 351.736 168.158 351.736 168.158 351.736C167.832 351.736 167.832 351.41 167.832 351.41V340.317C167.832 339.991 168.158 339.991 168.158 339.991C168.485 339.991 168.485 340.317 168.485 340.317V351.41Z" fill="#FFDB61"/>
<path d="M163.916 351.41C163.916 351.736 163.59 351.736 163.59 351.736C163.264 351.736 163.264 351.41 163.264 351.41V340.317C163.264 339.991 163.59 339.991 163.59 339.991C163.916 339.991 163.916 340.317 163.916 340.317V351.41Z" fill="#FFDB61"/>
<path d="M159.346 351.41C159.346 351.736 159.02 351.736 159.02 351.736C158.693 351.736 158.693 351.41 158.693 351.41V340.317C158.693 339.991 159.02 339.991 159.02 339.991C159.346 339.991 159.346 340.317 159.346 340.317V351.41Z" fill="#FFDB61"/>
<path d="M154.778 351.41C154.778 351.736 154.451 351.736 154.451 351.736C154.125 351.736 154.125 351.41 154.125 351.41V340.317C154.125 339.991 154.451 339.991 154.451 339.991C154.778 339.991 154.778 340.317 154.778 340.317V351.41Z" fill="#FFDB61"/>
<path d="M150.215 351.41C150.215 351.736 149.889 351.736 149.889 351.736C149.563 351.736 149.562 351.41 149.562 351.41V340.317C149.562 339.991 149.889 339.991 149.889 339.991C150.215 339.991 150.215 340.317 150.215 340.317V351.41Z" fill="#FFDB61"/>
<path d="M145.647 351.41C145.647 351.736 145.32 351.736 145.32 351.736C144.994 351.736 144.994 351.41 144.994 351.41V340.317C144.994 339.991 145.32 339.991 145.32 339.991C145.647 339.991 145.647 340.317 145.647 340.317V351.41Z" fill="#FFDB61"/>
<path d="M141.076 351.41C141.076 351.736 140.75 351.736 140.75 351.736C140.424 351.736 140.424 351.41 140.424 351.41V340.317C140.424 339.991 140.75 339.991 140.75 339.991C141.076 339.991 141.076 340.317 141.076 340.317V351.41Z" fill="#FFDB61"/>
<path d="M177.615 337.38C177.615 337.707 177.289 337.707 177.289 337.707C176.963 337.707 176.963 337.38 176.963 337.38V326.287C176.963 325.961 177.289 325.961 177.289 325.961C177.615 325.961 177.615 326.287 177.615 326.287V337.38Z" fill="#FFDB61"/>
<path d="M173.053 337.38C173.053 337.707 172.727 337.707 172.727 337.707C172.4 337.707 172.4 337.38 172.4 337.38V326.287C172.4 325.961 172.727 325.961 172.727 325.961C173.053 325.961 173.053 326.287 173.053 326.287V337.38Z" fill="#FFDB61"/>
<path d="M168.485 337.38C168.485 337.707 168.158 337.707 168.158 337.707C167.832 337.707 167.832 337.38 167.832 337.38V326.287C167.832 325.961 168.158 325.961 168.158 325.961C168.485 325.961 168.485 326.287 168.485 326.287V337.38Z" fill="#FFDB61"/>
<path d="M163.916 337.38C163.916 337.707 163.59 337.707 163.59 337.707C163.264 337.707 163.264 337.38 163.264 337.38V326.287C163.264 325.961 163.59 325.961 163.59 325.961C163.916 325.961 163.916 326.287 163.916 326.287V337.38Z" fill="#FFDB61"/>
<path d="M159.346 337.38C159.346 337.707 159.02 337.707 159.02 337.707C158.693 337.707 158.693 337.38 158.693 337.38V326.287C158.693 325.961 159.02 325.961 159.02 325.961C159.346 325.961 159.346 326.287 159.346 326.287V337.38Z" fill="#FFDB61"/>
<path d="M154.778 337.38C154.778 337.707 154.451 337.707 154.451 337.707C154.125 337.707 154.125 337.38 154.125 337.38V326.287C154.125 325.961 154.451 325.961 154.451 325.961C154.778 325.961 154.778 326.287 154.778 326.287V337.38Z" fill="#FFDB61"/>
<path d="M150.215 337.38C150.215 337.707 149.889 337.707 149.889 337.707C149.563 337.707 149.562 337.38 149.562 337.38V326.287C149.562 325.961 149.889 325.961 149.889 325.961C150.215 325.961 150.215 326.287 150.215 326.287V337.38Z" fill="#FFDB61"/>
<path d="M145.647 337.38C145.647 337.707 145.32 337.707 145.32 337.707C144.994 337.707 144.994 337.38 144.994 337.38V326.287C144.994 325.961 145.32 325.961 145.32 325.961C145.647 325.961 145.647 326.287 145.647 326.287V337.38Z" fill="#FFDB61"/>
<path d="M141.076 337.38C141.076 337.707 140.75 337.707 140.75 337.707C140.424 337.707 140.424 337.38 140.424 337.38V326.287C140.424 325.961 140.75 325.961 140.75 325.961C141.076 325.961 141.076 326.287 141.076 326.287V337.38Z" fill="#FFDB61"/>
<path opacity="0.2" d="M148.257 295.945H144.668V309.974H148.257V295.945Z" fill="white"/>
<path opacity="0.2" d="M141.998 310.177H143.629V296.147H141.998V310.177Z" fill="white"/>
<path opacity="0.2" d="M160.982 295.945H149.236V309.974H160.982V295.945Z" fill="white"/>
<g opacity="0.2">
<path opacity="0.2" d="M148.257 310.3H144.668V324.33H148.257V310.3Z" fill="white"/>
<path opacity="0.2" d="M141.998 324.491H143.629V310.462H141.998V324.491Z" fill="white"/>
<path opacity="0.2" d="M160.982 310.3H149.236V324.33H160.982V310.3Z" fill="white"/>
</g>
<g opacity="0.2">
<path opacity="0.2" d="M196.87 310.3H193.281V324.33H196.87V310.3Z" fill="white"/>
<path opacity="0.2" d="M190.459 324.491H192.09V310.462H190.459V324.491Z" fill="white"/>
<path opacity="0.2" d="M209.597 310.3H197.852V324.33H209.597V310.3Z" fill="white"/>
</g>
<path opacity="0.2" d="M196.87 324.982H193.281V339.012H196.87V324.982Z" fill="white"/>
<path opacity="0.2" d="M190.459 338.976H192.09V324.947H190.459V338.976Z" fill="white"/>
<path opacity="0.2" d="M209.597 324.982H197.852V339.012H209.597V324.982Z" fill="white"/>
<g opacity="0.2">
<path opacity="0.2" d="M196.87 339.012H193.281V353.041H196.87V339.012Z" fill="white"/>
<path opacity="0.2" d="M190.459 353.039H192.09V339.01H190.459V353.039Z" fill="white"/>
<path opacity="0.2" d="M209.597 339.012H197.852V353.041H209.597V339.012Z" fill="white"/>
</g>
<path d="M177.615 308.669C177.615 308.995 177.289 308.995 177.289 308.995C176.963 308.995 176.963 308.669 176.963 308.669V297.576C176.963 297.25 177.289 297.25 177.289 297.25C177.615 297.25 177.615 297.576 177.615 297.576V308.669Z" fill="#FFDB61"/>
<path d="M173.053 308.669C173.053 308.995 172.727 308.995 172.727 308.995C172.4 308.995 172.4 308.669 172.4 308.669V297.576C172.4 297.25 172.727 297.25 172.727 297.25C173.053 297.25 173.053 297.576 173.053 297.576V308.669Z" fill="#FFDB61"/>
<path d="M168.485 308.669C168.485 308.995 168.158 308.995 168.158 308.995C167.832 308.995 167.832 308.669 167.832 308.669V297.576C167.832 297.25 168.158 297.25 168.158 297.25C168.485 297.25 168.485 297.576 168.485 297.576V308.669Z" fill="#FFDB61"/>
<path d="M163.916 308.669C163.916 308.995 163.59 308.995 163.59 308.995C163.264 308.995 163.264 308.669 163.264 308.669V297.576C163.264 297.25 163.59 297.25 163.59 297.25C163.916 297.25 163.916 297.576 163.916 297.576V308.669Z" fill="#FFDB61"/>
<path d="M159.346 308.669C159.346 308.995 159.02 308.995 159.02 308.995C158.693 308.995 158.693 308.669 158.693 308.669V297.576C158.693 297.25 159.02 297.25 159.02 297.25C159.346 297.25 159.346 297.576 159.346 297.576V308.669Z" fill="#FFDB61"/>
<g opacity="0.8">
<g opacity="0.8">
<path opacity="0.8" d="M154.778 308.669C154.778 308.995 154.451 308.995 154.451 308.995C154.125 308.995 154.125 308.669 154.125 308.669V297.576C154.125 297.25 154.451 297.25 154.451 297.25C154.778 297.25 154.778 297.576 154.778 297.576V308.669Z" fill="#FFDB61"/>
</g>
</g>
<path d="M150.215 308.669C150.215 308.995 149.889 308.995 149.889 308.995C149.563 308.995 149.562 308.669 149.562 308.669V297.576C149.562 297.25 149.889 297.25 149.889 297.25C150.215 297.25 150.215 297.576 150.215 297.576V308.669Z" fill="#FFDB61"/>
<path d="M145.647 308.669C145.647 308.995 145.32 308.995 145.32 308.995C144.994 308.995 144.994 308.669 144.994 308.669V297.576C144.994 297.25 145.32 297.25 145.32 297.25C145.647 297.25 145.647 297.576 145.647 297.576V308.669Z" fill="#FFDB61"/>
<path d="M141.076 308.669C141.076 308.995 140.75 308.995 140.75 308.995C140.424 308.995 140.424 308.669 140.424 308.669V297.576C140.424 297.25 140.75 297.25 140.75 297.25C141.076 297.25 141.076 297.576 141.076 297.576V308.669Z" fill="#FFDB61"/>
<path d="M177.615 323.024C177.615 323.351 177.289 323.351 177.289 323.351C176.963 323.351 176.963 323.024 176.963 323.024V312.257C176.963 311.931 177.289 311.931 177.289 311.931C177.615 311.931 177.615 312.257 177.615 312.257V323.024Z" fill="#FFDB61"/>
<path d="M173.053 323.024C173.053 323.351 172.727 323.351 172.727 323.351C172.4 323.351 172.4 323.024 172.4 323.024V312.257C172.4 311.931 172.727 311.931 172.727 311.931C173.053 311.931 173.053 312.257 173.053 312.257V323.024Z" fill="#FFDB61"/>
<path d="M168.485 323.024C168.485 323.351 168.158 323.351 168.158 323.351C167.832 323.351 167.832 323.024 167.832 323.024V312.257C167.832 311.931 168.158 311.931 168.158 311.931C168.485 311.931 168.485 312.257 168.485 312.257V323.024Z" fill="#FFDB61"/>
<path d="M163.916 323.024C163.916 323.351 163.59 323.351 163.59 323.351C163.264 323.351 163.264 323.024 163.264 323.024V312.257C163.264 311.931 163.59 311.931 163.59 311.931C163.916 311.931 163.916 312.257 163.916 312.257V323.024Z" fill="#FFDB61"/>
<path d="M159.346 323.024C159.346 323.351 159.02 323.351 159.02 323.351C158.693 323.351 158.693 323.024 158.693 323.024V312.257C158.693 311.931 159.02 311.931 159.02 311.931C159.346 311.931 159.346 312.257 159.346 312.257V323.024Z" fill="#FFDB61"/>
<path d="M154.778 323.024C154.778 323.351 154.451 323.351 154.451 323.351C154.125 323.351 154.125 323.024 154.125 323.024V312.257C154.125 311.931 154.451 311.931 154.451 311.931C154.778 311.931 154.778 312.257 154.778 312.257V323.024Z" fill="#FFDB61"/>
<path d="M150.215 323.024C150.215 323.351 149.889 323.351 149.889 323.351C149.563 323.351 149.562 323.024 149.562 323.024V312.257C149.562 311.931 149.889 311.931 149.889 311.931C150.215 311.931 150.215 312.257 150.215 312.257V323.024Z" fill="#FFDB61"/>
<path d="M145.647 323.024C145.647 323.351 145.32 323.351 145.32 323.351C144.994 323.351 144.994 323.024 144.994 323.024V312.257C144.994 311.931 145.32 311.931 145.32 311.931C145.647 311.931 145.647 312.257 145.647 312.257V323.024Z" fill="#FFDB61"/>
<path d="M141.076 323.024C141.076 323.351 140.75 323.351 140.75 323.351C140.424 323.351 140.424 323.024 140.424 323.024V312.258C140.424 311.931 140.75 311.931 140.75 311.931C141.076 311.931 141.076 312.258 141.076 312.258V323.024Z" fill="#FFDB61"/>
<path d="M227.213 323.024C227.213 323.351 226.887 323.351 226.887 323.351C226.561 323.351 226.561 323.024 226.561 323.024V312.257C226.561 311.931 226.887 311.931 226.887 311.931C227.213 311.931 227.213 312.257 227.213 312.257V323.024Z" fill="#FFDB61"/>
<path d="M222.651 323.024C222.651 323.351 222.324 323.351 222.324 323.351C221.998 323.351 221.998 323.024 221.998 323.024V312.257C221.998 311.931 222.324 311.931 222.324 311.931C222.651 311.931 222.651 312.257 222.651 312.257V323.024Z" fill="#FFDB61"/>
<path d="M218.082 323.024C218.082 323.351 217.756 323.351 217.756 323.351C217.43 323.351 217.43 323.024 217.43 323.024V312.257C217.43 311.931 217.756 311.931 217.756 311.931C218.082 311.931 218.082 312.257 218.082 312.257V323.024Z" fill="#FFDB61"/>
<path d="M213.514 323.024C213.514 323.351 213.188 323.351 213.188 323.351C212.861 323.351 212.861 323.024 212.861 323.024V312.257C212.861 311.931 213.188 311.931 213.188 311.931C213.514 311.931 213.514 312.257 213.514 312.257V323.024Z" fill="#FFDB61"/>
<path d="M208.944 323.024C208.944 323.351 208.617 323.351 208.617 323.351C208.291 323.351 208.291 323.024 208.291 323.024V312.257C208.291 311.931 208.617 311.931 208.617 311.931C208.944 311.931 208.944 312.257 208.944 312.257V323.024Z" fill="#FFDB61"/>
<path d="M204.375 323.024C204.375 323.351 204.049 323.351 204.049 323.351C203.723 323.351 203.723 323.024 203.723 323.024V312.257C203.723 311.931 204.049 311.931 204.049 311.931C204.375 311.931 204.375 312.257 204.375 312.257V323.024Z" fill="#FFDB61"/>
<path d="M199.813 323.024C199.813 323.351 199.486 323.351 199.486 323.351C199.16 323.351 199.16 323.024 199.16 323.024V312.257C199.16 311.931 199.486 311.931 199.486 311.931C199.813 311.931 199.813 312.257 199.813 312.257V323.024Z" fill="#FFDB61"/>
<path d="M195.242 323.024C195.242 323.351 194.916 323.351 194.916 323.351C194.59 323.351 194.59 323.024 194.59 323.024V312.257C194.59 311.931 194.916 311.931 194.916 311.931C195.242 311.931 195.242 312.257 195.242 312.257V323.024Z" fill="#FFDB61"/>
<path d="M190.674 323.024C190.674 323.351 190.348 323.351 190.348 323.351C190.021 323.351 190.021 323.024 190.021 323.024V312.258C190.021 311.931 190.348 311.931 190.348 311.931C190.674 311.931 190.674 312.258 190.674 312.258V323.024Z" fill="#FFDB61"/>
<path d="M227.213 337.38C227.213 337.707 226.887 337.707 226.887 337.707C226.561 337.707 226.561 337.38 226.561 337.38V326.287C226.561 325.961 226.887 325.961 226.887 325.961C227.213 325.961 227.213 326.287 227.213 326.287V337.38Z" fill="#FFDB61"/>
<path d="M222.651 337.38C222.651 337.707 222.324 337.707 222.324 337.707C221.998 337.707 221.998 337.38 221.998 337.38V326.287C221.998 325.961 222.324 325.961 222.324 325.961C222.651 325.961 222.651 326.287 222.651 326.287V337.38Z" fill="#FFDB61"/>
<path d="M218.082 337.38C218.082 337.707 217.756 337.707 217.756 337.707C217.43 337.707 217.43 337.38 217.43 337.38V326.287C217.43 325.961 217.756 325.961 217.756 325.961C218.082 325.961 218.082 326.287 218.082 326.287V337.38Z" fill="#FFDB61"/>
<path d="M213.514 337.38C213.514 337.707 213.188 337.707 213.188 337.707C212.861 337.707 212.861 337.38 212.861 337.38V326.287C212.861 325.961 213.188 325.961 213.188 325.961C213.514 325.961 213.514 326.287 213.514 326.287V337.38Z" fill="#FFDB61"/>
<path d="M208.944 337.38C208.944 337.707 208.617 337.707 208.617 337.707C208.291 337.707 208.291 337.38 208.291 337.38V326.287C208.291 325.961 208.617 325.961 208.617 325.961C208.944 325.961 208.944 326.287 208.944 326.287V337.38Z" fill="#FFDB61"/>
<path d="M204.375 337.38C204.375 337.707 204.049 337.707 204.049 337.707C203.723 337.707 203.723 337.38 203.723 337.38V326.287C203.723 325.961 204.049 325.961 204.049 325.961C204.375 325.961 204.375 326.287 204.375 326.287V337.38Z" fill="#FFDB61"/>
<path d="M199.813 337.38C199.813 337.707 199.486 337.707 199.486 337.707C199.16 337.707 199.16 337.38 199.16 337.38V326.287C199.16 325.961 199.486 325.961 199.486 325.961C199.813 325.961 199.813 326.287 199.813 326.287V337.38Z" fill="#FFDB61"/>
<path d="M195.242 337.38C195.242 337.707 194.916 337.707 194.916 337.707C194.59 337.707 194.59 337.38 194.59 337.38V326.287C194.59 325.961 194.916 325.961 194.916 325.961C195.242 325.961 195.242 326.287 195.242 326.287V337.38Z" fill="#FFDB61"/>
<path d="M190.674 337.38C190.674 337.707 190.348 337.707 190.348 337.707C190.021 337.707 190.021 337.38 190.021 337.38V326.287C190.021 325.961 190.348 325.961 190.348 325.961C190.674 325.961 190.674 326.287 190.674 326.287V337.38Z" fill="#FFDB61"/>
<path d="M227.213 351.41C227.213 351.736 226.887 351.736 226.887 351.736C226.561 351.736 226.561 351.41 226.561 351.41V340.317C226.561 339.991 226.887 339.991 226.887 339.991C227.213 339.991 227.213 340.317 227.213 340.317V351.41Z" fill="#FFDB61"/>
<path d="M222.651 351.41C222.651 351.736 222.324 351.736 222.324 351.736C221.998 351.736 221.998 351.41 221.998 351.41V340.317C221.998 339.991 222.324 339.991 222.324 339.991C222.651 339.991 222.651 340.317 222.651 340.317V351.41Z" fill="#FFDB61"/>
<path d="M218.082 351.41C218.082 351.736 217.756 351.736 217.756 351.736C217.43 351.736 217.43 351.41 217.43 351.41V340.317C217.43 339.991 217.756 339.991 217.756 339.991C218.082 339.991 218.082 340.317 218.082 340.317V351.41Z" fill="#FFDB61"/>
<path d="M213.514 351.41C213.514 351.736 213.188 351.736 213.188 351.736C212.861 351.736 212.861 351.41 212.861 351.41V340.317C212.861 339.991 213.188 339.991 213.188 339.991C213.514 339.991 213.514 340.317 213.514 340.317V351.41Z" fill="#FFDB61"/>
<path d="M208.944 351.41C208.944 351.736 208.617 351.736 208.617 351.736C208.291 351.736 208.291 351.41 208.291 351.41V340.317C208.291 339.991 208.617 339.991 208.617 339.991C208.944 339.991 208.944 340.317 208.944 340.317V351.41Z" fill="#FFDB61"/>
<path d="M204.375 351.41C204.375 351.736 204.049 351.736 204.049 351.736C203.723 351.736 203.723 351.41 203.723 351.41V340.317C203.723 339.991 204.049 339.991 204.049 339.991C204.375 339.991 204.375 340.317 204.375 340.317V351.41Z" fill="#FFDB61"/>
<path d="M199.813 351.41C199.813 351.736 199.486 351.736 199.486 351.736C199.16 351.736 199.16 351.41 199.16 351.41V340.317C199.16 339.991 199.486 339.991 199.486 339.991C199.813 339.991 199.813 340.317 199.813 340.317V351.41Z" fill="#FFDB61"/>
<path d="M195.242 351.41C195.242 351.736 194.916 351.736 194.916 351.736C194.59 351.736 194.59 351.41 194.59 351.41V340.317C194.59 339.991 194.916 339.991 194.916 339.991C195.242 339.991 195.242 340.317 195.242 340.317V351.41Z" fill="#FFDB61"/>
<path d="M190.674 351.41C190.674 351.736 190.348 351.736 190.348 351.736C190.021 351.736 190.021 351.41 190.021 351.41V340.317C190.021 339.991 190.348 339.991 190.348 339.991C190.674 339.991 190.674 340.317 190.674 340.317V351.41Z" fill="#FFDB61"/>
<path d="M272.237 353.041H242.547C238.958 353.041 236.348 350.105 236.348 346.842V345.211C236.348 341.622 239.284 339.012 242.547 339.012H272.237C275.826 339.012 278.436 341.948 278.436 345.211V346.842C278.436 350.431 275.826 353.041 272.237 353.041Z" fill="#FFC400"/>
<path d="M272.237 339.012H242.547C238.958 339.012 236.348 336.075 236.348 332.813V331.181C236.348 327.592 239.284 324.982 242.547 324.982H272.237C275.826 324.982 278.436 327.919 278.436 331.181V332.813C278.436 336.075 275.826 339.012 272.237 339.012Z" fill="#FFC400"/>
<path opacity="0.2" d="M245.806 324.982H242.217V339.012H245.806V324.982Z" fill="white"/>
<path opacity="0.2" d="M239.828 338.976H241.459V324.947H239.828V338.976Z" fill="white"/>
<path opacity="0.2" d="M258.533 324.982H246.787V339.012H258.533V324.982Z" fill="white"/>
<g opacity="0.2">
<path opacity="0.2" d="M245.806 339.012H242.217V353.041H245.806V339.012Z" fill="white"/>
<path opacity="0.2" d="M239.828 353.039H241.459V339.01H239.828V353.039Z" fill="white"/>
<path opacity="0.2" d="M258.533 339.012H246.787V353.041H258.533V339.012Z" fill="white"/>
</g>
<path d="M276.485 337.38C276.485 337.707 276.158 337.707 276.158 337.707C275.832 337.707 275.832 337.38 275.832 337.38V326.287C275.832 325.961 276.158 325.961 276.158 325.961C276.485 325.961 276.485 326.287 276.485 326.287V337.38Z" fill="#FFDB61"/>
<path d="M271.916 337.38C271.916 337.707 271.59 337.707 271.59 337.707C271.264 337.707 271.264 337.38 271.264 337.38V326.287C271.264 325.961 271.59 325.961 271.59 325.961C271.916 325.961 271.916 326.287 271.916 326.287V337.38Z" fill="#FFDB61"/>
<path d="M267.02 337.38C267.02 337.707 266.693 337.707 266.693 337.707C266.367 337.707 266.367 337.38 266.367 337.38V326.287C266.367 325.961 266.693 325.961 266.693 325.961C267.02 325.961 267.02 326.287 267.02 326.287V337.38Z" fill="#FFDB61"/>
<path d="M262.451 337.38C262.451 337.707 262.125 337.707 262.125 337.707C261.799 337.707 261.799 337.38 261.799 337.38V326.287C261.799 325.961 262.125 325.961 262.125 325.961C262.451 325.961 262.451 326.287 262.451 326.287V337.38Z" fill="#FFDB61"/>
<path d="M257.883 337.38C257.883 337.707 257.557 337.707 257.557 337.707C257.23 337.707 257.23 337.38 257.23 337.38V326.287C257.23 325.961 257.557 325.961 257.557 325.961C257.883 325.961 257.883 326.287 257.883 326.287V337.38Z" fill="#FFDB61"/>
<path d="M253.315 337.38C253.315 337.707 252.988 337.707 252.988 337.707C252.662 337.707 252.662 337.38 252.662 337.38V326.287C252.662 325.961 252.988 325.961 252.988 325.961C253.315 325.961 253.315 326.287 253.315 326.287V337.38Z" fill="#FFDB61"/>
<path d="M248.752 337.38C248.752 337.707 248.426 337.707 248.426 337.707C248.1 337.707 248.1 337.38 248.1 337.38V326.287C248.1 325.961 248.426 325.961 248.426 325.961C248.752 325.961 248.752 326.287 248.752 326.287V337.38Z" fill="#FFDB61"/>
<path d="M244.184 337.38C244.184 337.707 243.858 337.707 243.858 337.707C243.531 337.707 243.531 337.38 243.531 337.38V326.287C243.531 325.961 243.858 325.961 243.858 325.961C244.184 325.961 244.184 326.287 244.184 326.287V337.38Z" fill="#FFDB61"/>
<path d="M239.613 337.38C239.613 337.707 239.287 337.707 239.287 337.707C238.961 337.707 238.961 337.38 238.961 337.38V326.287C238.961 325.961 239.287 325.961 239.287 325.961C239.613 325.961 239.613 326.287 239.613 326.287V337.38Z" fill="#FFDB61"/>
<path d="M276.485 351.41C276.485 351.736 276.158 351.736 276.158 351.736C275.832 351.736 275.832 351.41 275.832 351.41V340.317C275.832 339.991 276.158 339.991 276.158 339.991C276.485 339.991 276.485 340.317 276.485 340.317V351.41Z" fill="#FFDB61"/>
<path d="M271.916 351.41C271.916 351.736 271.59 351.736 271.59 351.736C271.264 351.736 271.264 351.41 271.264 351.41V340.317C271.264 339.991 271.59 339.991 271.59 339.991C271.916 339.991 271.916 340.317 271.916 340.317V351.41Z" fill="#FFDB61"/>
<path d="M267.02 351.41C267.02 351.736 266.693 351.736 266.693 351.736C266.367 351.736 266.367 351.41 266.367 351.41V340.317C266.367 339.991 266.693 339.991 266.693 339.991C267.02 339.991 267.02 340.317 267.02 340.317V351.41Z" fill="#FFDB61"/>
<path d="M262.451 351.41C262.451 351.736 262.125 351.736 262.125 351.736C261.799 351.736 261.799 351.41 261.799 351.41V340.317C261.799 339.991 262.125 339.991 262.125 339.991C262.451 339.991 262.451 340.317 262.451 340.317V351.41Z" fill="#FFDB61"/>
<path d="M257.883 351.41C257.883 351.736 257.557 351.736 257.557 351.736C257.23 351.736 257.23 351.41 257.23 351.41V340.317C257.23 339.991 257.557 339.991 257.557 339.991C257.883 339.991 257.883 340.317 257.883 340.317V351.41Z" fill="#FFDB61"/>
<path d="M253.315 351.41C253.315 351.736 252.988 351.736 252.988 351.736C252.662 351.736 252.662 351.41 252.662 351.41V340.317C252.662 339.991 252.988 339.991 252.988 339.991C253.315 339.991 253.315 340.317 253.315 340.317V351.41Z" fill="#FFDB61"/>
<path d="M248.752 351.41C248.752 351.736 248.426 351.736 248.426 351.736C248.1 351.736 248.1 351.41 248.1 351.41V340.317C248.1 339.991 248.426 339.991 248.426 339.991C248.752 339.991 248.752 340.317 248.752 340.317V351.41Z" fill="#FFDB61"/>
<path d="M244.184 351.41C244.184 351.736 243.858 351.736 243.858 351.736C243.531 351.736 243.531 351.41 243.531 351.41V340.317C243.531 339.991 243.858 339.991 243.858 339.991C244.184 339.991 244.184 340.317 244.184 340.317V351.41Z" fill="#FFDB61"/>
<path d="M239.613 351.41C239.613 351.736 239.287 351.736 239.287 351.736C238.961 351.736 238.961 351.41 238.961 351.41V340.317C238.961 339.991 239.287 339.991 239.287 339.991C239.613 339.991 239.613 340.317 239.613 340.317V351.41Z" fill="#FFDB61"/>
<path d="M199.823 329.902C202.195 315.319 192.295 301.574 177.711 299.202C163.127 296.831 149.382 306.731 147.011 321.314C144.639 335.898 154.539 349.643 169.123 352.014C183.707 354.386 197.452 344.486 199.823 329.902Z" fill="#FFC400"/>
<path d="M173.712 347.821C185.965 347.821 195.898 337.888 195.898 325.635C195.898 313.382 185.965 303.449 173.712 303.449C161.458 303.449 151.525 313.382 151.525 325.635C151.525 337.888 161.458 347.821 173.712 347.821Z" fill="#FFDB61"/>
<path d="M173.712 348.474C161.314 348.474 151.199 338.36 151.199 325.961C151.199 313.563 161.314 303.449 173.712 303.449C186.11 303.449 196.224 313.563 196.224 325.961C196.224 338.36 186.11 348.474 173.712 348.474ZM173.712 304.101C161.966 304.101 152.178 313.89 152.178 325.635C152.178 337.381 161.966 347.169 173.712 347.169C185.457 347.169 195.245 337.381 195.245 325.635C195.245 313.89 185.457 304.101 173.712 304.101Z" fill="white"/>
<path d="M176.321 330.529C176.321 329.551 175.995 328.898 175.669 328.572C175.343 328.245 174.69 327.593 173.385 327.267C172.406 326.94 171.427 326.288 170.449 325.962C169.47 325.635 168.817 324.983 168.165 324.33C167.512 323.678 167.186 323.025 166.86 322.373C166.533 321.72 166.207 320.741 166.207 319.763C166.207 318.131 166.86 316.5 167.838 315.521C169.144 314.216 170.775 313.563 172.732 313.563V310.301H175.343V313.563C177.3 313.89 178.932 314.542 179.91 315.847C180.889 317.152 181.542 318.784 181.542 320.741H176.321C176.321 319.763 175.995 318.784 175.669 318.131C175.343 317.479 174.69 317.152 174.038 317.152C173.385 317.152 172.732 317.479 172.406 317.805C172.08 318.131 171.754 318.784 171.754 319.763C171.754 320.415 172.08 321.068 172.406 321.72C172.732 322.046 173.711 322.699 174.69 323.025C175.669 323.351 176.648 324.004 177.3 324.33C178.279 324.657 178.932 325.309 179.584 325.962C180.237 326.614 180.563 327.267 181.215 327.919C181.542 328.572 181.868 329.551 181.868 330.529C181.868 332.161 181.215 333.792 180.237 334.771C179.258 335.75 177.626 336.402 175.669 336.728V339.991H173.059V336.728C170.775 336.402 169.144 335.75 167.838 334.445C166.533 333.139 165.881 331.508 165.881 329.224H171.101C171.101 330.529 171.427 331.182 171.754 331.834C172.406 332.487 173.059 332.813 174.038 332.813C174.69 332.813 175.343 332.487 175.669 332.161C175.995 331.834 176.321 331.182 176.321 330.529Z" fill="white"/>
<path d="M146.954 330.53C146.954 342.601 137.166 352.389 125.094 352.389C113.022 352.389 103.234 342.601 103.234 330.53C103.234 318.458 113.022 308.67 125.094 308.67C137.166 308.67 146.954 318.458 146.954 330.53Z" fill="#FFC400"/>
<path d="M143.042 330.53C143.042 340.644 134.885 348.474 125.097 348.474C115.309 348.474 107.152 340.318 107.152 330.53C107.152 320.415 115.309 312.585 125.097 312.585C134.885 312.585 143.042 320.742 143.042 330.53Z" fill="#FFDB61"/>
<path d="M124.769 349.127C114.655 349.127 106.172 340.644 106.172 330.53C106.172 320.416 114.655 311.933 124.769 311.933C134.883 311.933 143.366 320.416 143.366 330.53C143.366 340.644 135.21 349.127 124.769 349.127ZM124.769 312.911C114.981 312.911 107.151 320.742 107.151 330.53C107.151 340.318 114.981 348.148 124.769 348.148C134.557 348.148 142.388 340.318 142.388 330.53C142.388 321.068 134.557 312.911 124.769 312.911Z" fill="white"/>
<path d="M127.051 334.445C127.051 333.793 126.725 333.14 126.399 332.814C126.073 332.487 125.42 332.161 124.768 331.835C123.789 331.509 123.136 331.182 122.484 330.856C121.831 330.53 121.179 330.204 120.526 329.551C119.874 329.225 119.547 328.572 119.221 327.92C118.895 327.267 118.895 326.615 118.895 325.636C118.895 324.331 119.547 323.026 120.526 322.047C121.505 321.068 122.81 320.416 124.441 320.416V317.805H126.399V320.742C128.03 321.068 129.335 321.721 129.988 322.699C130.967 323.678 131.293 324.983 131.293 326.615H127.051C127.051 325.636 126.725 324.983 126.399 324.657C126.073 324.331 125.42 324.005 124.768 324.005C124.115 324.005 123.789 324.331 123.462 324.657C123.136 324.983 123.136 325.636 123.136 326.288C123.136 326.941 123.462 327.267 123.789 327.92C124.115 328.246 124.768 328.572 125.42 328.899C126.073 329.225 127.051 329.551 127.704 329.877C128.356 330.204 129.009 330.53 129.662 331.182C130.314 331.509 130.64 332.161 130.967 332.814C131.293 333.466 131.293 334.119 131.293 335.098C131.293 336.729 130.967 337.708 129.988 338.687C129.009 339.665 127.704 340.318 126.073 340.318V342.928H124.115V340.318C122.157 339.992 120.852 339.339 119.874 338.36C118.895 337.381 118.242 335.75 118.242 334.119H122.484C122.484 335.098 122.81 335.75 123.136 336.403C123.462 337.055 124.115 337.055 125.094 337.055C125.746 337.055 126.073 336.729 126.399 336.403C126.725 335.424 127.051 335.098 127.051 334.445Z" fill="white"/>
<path d="M475.819 183.056C473.535 181.751 451.675 208.178 437.972 220.25C429.815 227.428 420.354 267.233 420.354 267.233C420.354 267.233 421.659 278.652 422.311 281.588C437.972 274.084 453.633 268.864 468.641 246.678C484.302 223.839 480.713 185.992 475.819 183.056Z" fill="#57D9A3"/>
<path d="M423.62 175.878C415.789 186.319 421.009 201.653 422.967 214.378C424.272 223.187 425.577 231.996 427.208 240.479C433.081 237.217 438.302 233.628 443.522 227.429C458.204 210.789 458.53 186.645 458.53 178.815C458.53 155.323 445.153 139.989 442.869 139.663C440.585 139.336 435.039 160.544 423.62 175.878Z" fill="#00875A"/>
<mask id="mask3" mask-type="alpha" maskUnits="userSpaceOnUse" x="423" y="159" width="23" height="80">
<path d="M424.269 238.847C423.942 238.847 423.942 238.521 423.942 238.521C422.964 221.881 429.163 208.83 435.036 195.78C440.582 183.708 445.802 172.288 444.497 159.564C444.497 159.238 444.497 159.238 444.824 159.238C445.15 159.238 445.15 159.238 445.15 159.564C446.455 172.615 441.235 184.034 435.688 196.432C429.815 209.157 423.616 222.207 424.595 238.521C424.595 238.847 424.595 238.847 424.269 238.847Z" fill="url(#paint3_linear)"/>
</mask>
<g mask="url(#mask3)">
<path opacity="0.5" d="M424.269 238.847C423.942 238.847 423.942 238.521 423.942 238.521C422.964 221.881 429.163 208.83 435.036 195.78C440.582 183.708 445.802 172.288 444.497 159.564C444.497 159.238 444.497 159.238 444.824 159.238C445.15 159.238 445.15 159.238 445.15 159.564C446.455 172.615 441.235 184.034 435.688 196.432C429.815 209.157 423.616 222.207 424.595 238.521C424.595 238.847 424.595 238.847 424.269 238.847Z" fill="#172B4D"/>
</g>
<mask id="mask4" mask-type="alpha" maskUnits="userSpaceOnUse" x="429" y="195" width="44" height="73">
<path d="M429.819 267.233C429.493 267.233 429.493 267.233 429.819 267.233C429.493 267.233 429.166 266.906 429.493 266.58C432.755 257.771 439.933 248.635 447.111 238.847C457.552 225.47 467.992 211.441 471.255 195.78C471.255 195.454 471.581 195.454 471.907 195.454C472.234 195.454 472.234 195.78 472.234 196.106C468.971 212.093 458.204 226.123 447.764 239.5C440.259 248.962 433.408 258.097 430.145 266.906C430.145 267.233 429.819 267.233 429.819 267.233Z" fill="url(#paint4_linear)"/>
</mask>
<g mask="url(#mask4)">
<path opacity="0.5" d="M429.819 267.233C429.493 267.233 429.493 267.233 429.819 267.233C429.493 267.233 429.166 266.906 429.493 266.58C432.755 257.771 439.933 248.635 447.111 238.847C457.552 225.47 467.992 211.441 471.255 195.78C471.255 195.454 471.581 195.454 471.907 195.454C472.234 195.454 472.234 195.78 472.234 196.106C468.971 212.093 458.204 226.123 447.764 239.5C440.259 248.962 433.408 258.097 430.145 266.906C430.145 267.233 429.819 267.233 429.819 267.233Z" fill="#172B4D"/>
</g>
<path d="M440.588 211.115C438.304 200.675 429.821 192.518 421.99 185.014C407.635 171.311 408.94 158.26 406.982 157.281C404.372 156.302 394.258 181.425 397.52 196.107C400.13 209.158 406.982 217.314 412.202 228.407C420.033 245.373 416.77 272.78 416.77 278C416.77 275.716 421.338 272.127 432.105 255.488C444.829 235.585 442.219 218.293 440.588 211.115Z" fill="#57D9A3"/>
<mask id="mask5" mask-type="alpha" maskUnits="userSpaceOnUse" x="407" y="175" width="26" height="97">
<path d="M422.641 271.475C422.641 271.475 422.315 271.475 422.641 271.475C422.315 271.475 422.315 271.148 422.315 270.822C425.904 264.623 436.997 241.784 430.145 218.293C427.535 209.158 421.988 200.675 416.768 192.844C412.527 186.319 408.612 180.446 407.959 176.205C407.959 175.878 407.959 175.878 408.285 175.878C408.612 175.878 408.612 175.878 408.612 176.205C409.59 180.446 413.179 186.319 417.421 192.518C422.641 200.348 428.188 209.158 430.798 218.293C437.649 242.111 426.23 264.949 422.641 271.475C422.967 271.475 422.641 271.475 422.641 271.475Z" fill="url(#paint5_linear)"/>
</mask>
<g mask="url(#mask5)">
<path opacity="0.5" d="M422.641 271.475C422.641 271.475 422.315 271.475 422.641 271.475C422.315 271.475 422.315 271.148 422.315 270.822C425.904 264.623 436.997 241.784 430.145 218.293C427.535 209.158 421.988 200.675 416.768 192.844C412.527 186.319 408.612 180.446 407.959 176.205C407.959 175.878 407.959 175.878 408.285 175.878C408.612 175.878 408.612 175.878 408.612 176.205C409.59 180.446 413.179 186.319 417.421 192.518C422.641 200.348 428.188 209.158 430.798 218.293C437.649 242.111 426.23 264.949 422.641 271.475C422.967 271.475 422.641 271.475 422.641 271.475Z" fill="#172B4D"/>
</g>
<path d="M453.315 235.585C451.358 234.28 439.612 241.458 433.087 247.005C425.909 253.53 419.71 268.212 416.773 274.737L417.1 300.839C421.015 299.534 423.299 297.576 425.909 295.618C433.087 290.724 446.79 283.22 452.989 260.382C455.273 251.246 455.926 237.217 453.315 235.585Z" fill="#79F2C0"/>
<mask id="mask6" mask-type="alpha" maskUnits="userSpaceOnUse" x="415" y="250" width="29" height="41">
<path d="M415.793 288.767C415.793 288.767 422.318 279.305 426.234 273.758C432.106 264.949 437.979 255.814 442.547 250.92C442.547 250.593 442.873 250.593 443.199 250.92C443.526 250.92 443.526 251.246 443.199 251.572C438.632 256.466 432.433 265.602 426.886 274.411C422.645 280.61 415.793 290.398 415.793 290.398V288.767Z" fill="url(#paint6_linear)"/>
</mask>
<g mask="url(#mask6)">
<path opacity="0.5" d="M415.793 288.767C415.793 288.767 422.318 279.305 426.234 273.758C432.106 264.949 437.979 255.814 442.547 250.92C442.547 250.593 442.873 250.593 443.199 250.92C443.526 250.92 443.526 251.246 443.199 251.572C438.632 256.466 432.433 265.602 426.886 274.411C422.645 280.61 415.793 290.398 415.793 290.398V288.767Z" fill="#172B4D"/>
</g>
<path d="M252 198.836C252 317.197 329 349 329 349C329 349 406 317.525 406 198.836C406 198.836 387.651 195.23 365.698 187.033C352.592 182.115 329 169 329 169C329 169 308.03 180.475 292.302 186.705C271.987 195.23 252 198.836 252 198.836Z" fill="#00C7E5"/>
<path opacity="0.25" d="M264 273.147C285.86 330.895 328.274 348.514 328.274 348.514C328.274 348.514 403.315 317.845 404.946 203C353.723 266.295 307.067 279.346 264 273.147Z" fill="white"/>
<path d="M328.68 169.679C328.68 169.679 352.171 182.73 365.222 187.624C387.082 195.78 405.353 199.369 405.353 199.369C405.353 317.152 328.68 348.8 328.68 348.8C328.68 348.8 252.007 317.478 252.007 199.369C252.007 199.369 272.236 196.107 292.464 187.624C307.799 181.098 328.68 169.679 328.68 169.679ZM328.68 165.111L327.701 165.764C327.375 165.764 306.167 177.509 290.507 183.709C270.278 192.192 249.723 195.454 249.723 195.454L247.766 195.78V197.738C247.766 318.783 327.049 352.389 327.701 352.715L328.68 353.041L329.659 352.715C330.311 352.389 409.594 318.457 409.594 197.738V195.78L407.637 195.454C407.31 195.454 388.713 191.865 366.853 183.709C353.803 178.815 329.659 165.764 329.659 165.438L328.68 165.111Z" fill="white"/>
<path d="M354.128 236.564L358.696 230.364C359.675 229.059 359.349 227.428 358.044 226.449C356.739 225.47 355.107 225.797 354.128 227.102L349.887 232.648C344.014 227.754 336.51 224.492 328.353 224.492C310.409 224.492 295.727 239.174 295.727 257.118C295.727 275.063 310.409 289.745 328.353 289.745C346.298 289.745 360.98 275.063 360.98 257.118C361.306 249.288 358.696 242.11 354.128 236.564ZM326.069 263.97L313.019 249.941C312.04 248.635 310.082 248.635 309.104 249.941C307.798 250.919 307.798 252.877 309.104 253.856L327.048 272.779L350.866 241.131C354.128 245.699 356.086 250.919 356.086 257.118C356.086 272.127 344.014 284.199 329.006 284.199C313.998 284.199 301.926 272.127 301.926 257.118C301.926 242.11 313.998 230.038 329.006 230.038C335.857 230.038 342.057 232.648 346.951 236.89L326.069 263.97Z" fill="white"/>
<path d="M257.225 151.408C257.225 151.082 257.225 150.756 257.225 150.103V149.777C257.225 149.451 257.225 148.798 257.225 148.472C257.225 148.472 257.225 148.472 257.225 148.146V147.82C257.225 147.493 257.225 147.493 257.225 147.167C257.225 146.841 257.225 146.841 257.225 146.514V146.188C257.225 146.188 257.225 146.188 257.225 145.862C257.225 145.536 256.899 145.209 256.899 144.883V144.557C256.899 144.231 256.899 144.231 256.572 143.904C256.572 143.578 256.246 143.578 256.246 143.252C256.246 143.252 256.246 143.252 256.246 142.926C255.92 142.599 255.92 142.273 255.594 141.947C255.594 141.947 255.594 141.62 255.267 141.62L251.026 137.053C251.352 137.379 251.678 138.032 252.005 138.358C252.005 138.358 252.005 138.358 252.005 138.684C252.331 139.01 252.331 139.337 252.657 139.989V140.315C252.983 140.642 252.983 141.294 252.983 141.62V141.947C252.983 142.273 253.31 142.926 253.31 143.252V143.578C253.31 144.231 253.31 144.557 253.31 145.209V145.536C253.31 145.862 253.31 146.514 253.31 146.841C253.31 147.493 253.31 147.82 252.983 148.472C252.983 148.798 252.983 148.798 252.983 149.125C252.983 149.777 252.657 150.43 252.331 151.408C252.005 152.061 251.678 152.714 251.678 153.366C251.678 153.692 251.352 153.692 251.352 154.019C251.026 154.345 251.026 154.997 250.7 155.324C250.7 155.65 250.373 155.976 250.373 155.976C250.047 156.303 250.047 156.955 249.721 157.281C249.395 157.608 249.395 157.934 249.068 157.934C248.742 158.26 248.742 158.586 248.416 158.913C248.089 159.239 247.763 159.891 247.437 160.218C247.111 160.544 247.111 160.87 246.784 161.197C246.458 161.523 246.458 161.849 246.132 161.849C245.806 162.175 245.479 162.502 245.153 162.828C244.827 163.154 244.827 163.154 244.501 163.48C243.848 164.133 243.522 164.459 242.869 165.112C242.217 165.764 241.89 166.091 241.238 166.417L240.912 166.743C240.259 167.069 239.607 167.722 238.954 168.048C238.954 168.048 238.954 168.048 238.628 168.048C237.975 168.374 237.323 168.701 236.996 169.353C236.996 169.353 236.67 169.353 236.67 169.679C236.018 170.006 235.365 170.332 234.713 170.658C234.713 170.658 234.386 170.658 234.386 170.985C233.734 171.311 233.407 171.637 232.755 171.963C232.755 171.963 232.429 171.963 232.429 172.29C231.776 172.616 231.124 172.942 230.471 173.268C230.145 173.268 230.145 173.268 229.819 173.595C229.166 173.921 228.84 173.921 228.187 173.921C227.861 173.921 227.208 174.247 226.882 174.247C226.556 174.247 226.23 174.573 225.903 174.573C224.924 174.9 224.272 174.9 223.293 174.9C217.094 175.552 211.874 173.595 209.264 170.006L212.853 174.573C215.789 178.162 220.683 180.12 226.882 179.467C227.861 179.467 228.513 179.141 229.492 179.141C229.492 179.141 229.492 179.141 229.819 179.141C230.145 179.141 230.471 179.141 230.471 178.815C230.797 178.815 231.45 178.489 231.776 178.489H232.102C232.429 178.489 232.755 178.162 233.407 178.162C233.734 178.162 233.734 178.162 234.06 177.836C234.713 177.51 235.365 177.51 235.691 177.184C235.691 177.184 235.691 177.184 236.018 177.184C236.018 177.184 236.344 177.184 236.344 176.857C236.67 176.857 236.996 176.531 237.323 176.531C237.649 176.531 237.975 176.205 237.975 176.205C237.975 176.205 238.301 176.205 238.301 175.879H238.628C238.954 175.552 239.607 175.226 239.933 175.226C239.933 175.226 239.933 175.226 240.259 175.226C240.259 175.226 240.585 175.226 240.585 174.9C240.912 174.9 241.238 174.573 241.238 174.573C241.564 174.247 241.89 174.247 242.217 173.921C242.217 173.921 242.217 173.921 242.543 173.921C242.869 173.595 243.522 173.268 243.848 172.942L244.174 172.616L244.501 172.29L244.827 171.963C245.153 171.637 245.806 171.311 246.132 170.985C246.458 170.658 247.111 170.006 247.437 169.679L247.763 169.353C248.089 169.027 248.089 169.027 248.416 168.701C248.742 168.374 248.742 168.374 249.068 168.048C249.395 167.722 249.395 167.722 249.395 167.396C249.721 167.069 249.721 166.743 250.047 166.743L250.373 166.417C250.373 166.091 250.7 166.091 250.7 165.764C251.026 165.438 251.352 164.785 251.678 164.459L252.005 164.133C252.005 163.807 252.331 163.807 252.331 163.48C252.657 163.154 252.657 162.828 252.983 162.828C253.31 162.502 253.31 161.849 253.636 161.523C253.636 161.197 253.962 160.87 253.962 160.87C254.289 160.544 254.289 159.891 254.615 159.565C254.615 159.239 254.941 159.239 254.941 158.913C255.267 158.26 255.594 157.608 255.594 156.955C255.92 156.302 255.92 155.324 256.246 154.671V154.345C256.899 152.714 257.225 152.387 257.225 151.408C257.225 151.735 257.225 151.408 257.225 151.408Z" fill="#EBAD2A"/>
<path d="M257.225 151.408C257.225 151.082 257.225 150.756 257.225 150.103V149.777C257.225 149.451 257.225 148.798 257.225 148.472C257.225 148.472 257.225 148.472 257.225 148.146V147.82C257.225 147.493 257.225 147.493 257.225 147.167C257.225 146.841 257.225 146.841 257.225 146.514V146.188C257.225 146.188 257.225 146.188 257.225 145.862C257.225 145.536 256.899 145.209 256.899 144.883V144.557C256.899 144.231 256.899 144.231 256.572 143.904C256.572 143.578 256.246 143.578 256.246 143.252C256.246 143.252 256.246 143.252 256.246 142.926C255.92 142.599 255.92 142.273 255.594 141.947C255.594 141.947 255.594 141.62 255.267 141.62L251.026 137.053C251.352 137.379 251.678 138.032 252.005 138.358C252.005 138.358 252.005 138.358 252.005 138.684C252.331 139.01 252.331 139.337 252.657 139.989V140.315C252.983 140.642 252.983 141.294 252.983 141.62V141.947C252.983 142.273 253.31 142.926 253.31 143.252V143.578C253.31 144.231 253.31 144.557 253.31 145.209V145.536C253.31 145.862 253.31 146.514 253.31 146.841C253.31 147.493 253.31 147.82 252.983 148.472C252.983 148.798 252.983 148.798 252.983 149.125C252.983 149.777 252.657 150.43 252.331 151.408C252.005 152.061 251.678 152.714 251.678 153.366C251.678 153.692 251.352 153.692 251.352 154.019C251.026 154.345 251.026 154.997 250.7 155.324C250.7 155.65 250.373 155.976 250.373 155.976C250.047 156.303 250.047 156.955 249.721 157.281C249.395 157.608 249.395 157.934 249.068 157.934C248.742 158.26 248.742 158.586 248.416 158.913C248.089 159.239 247.763 159.891 247.437 160.218C247.111 160.544 247.111 160.87 246.784 161.197C246.458 161.523 246.458 161.849 246.132 161.849C245.806 162.175 245.479 162.502 245.153 162.828C244.827 163.154 244.827 163.154 244.501 163.48C243.848 164.133 243.522 164.459 242.869 165.112C242.217 165.764 241.89 166.091 241.238 166.417L240.912 166.743C240.259 167.069 239.607 167.722 238.954 168.048C238.954 168.048 238.954 168.048 238.628 168.048C237.975 168.374 237.323 168.701 236.996 169.353C236.996 169.353 236.67 169.353 236.67 169.679C236.018 170.006 235.365 170.332 234.713 170.658C234.713 170.658 234.386 170.658 234.386 170.985C233.734 171.311 233.407 171.637 232.755 171.963C232.755 171.963 232.429 171.963 232.429 172.29C231.776 172.616 231.124 172.942 230.471 173.268C230.145 173.268 230.145 173.268 229.819 173.595C229.166 173.921 228.84 173.921 228.187 173.921C227.861 173.921 227.208 174.247 226.882 174.247C226.556 174.247 226.23 174.573 225.903 174.573C224.924 174.9 224.272 174.9 223.293 174.9C217.094 175.552 211.874 173.595 209.264 170.006L212.853 174.573C215.789 178.162 220.683 180.12 226.882 179.467C227.861 179.467 228.513 179.141 229.492 179.141C229.492 179.141 229.492 179.141 229.819 179.141C230.145 179.141 230.471 179.141 230.471 178.815C230.797 178.815 231.45 178.489 231.776 178.489H232.102C232.429 178.489 232.755 178.162 233.407 178.162C233.734 178.162 233.734 178.162 234.06 177.836C234.713 177.51 235.365 177.51 235.691 177.184C235.691 177.184 235.691 177.184 236.018 177.184C236.018 177.184 236.344 177.184 236.344 176.857C236.67 176.857 236.996 176.531 237.323 176.531C237.649 176.531 237.975 176.205 237.975 176.205C237.975 176.205 238.301 176.205 238.301 175.879H238.628C238.954 175.552 239.607 175.226 239.933 175.226C239.933 175.226 239.933 175.226 240.259 175.226C240.259 175.226 240.585 175.226 240.585 174.9C240.912 174.9 241.238 174.573 241.238 174.573C241.564 174.247 241.89 174.247 242.217 173.921C242.217 173.921 242.217 173.921 242.543 173.921C242.869 173.595 243.522 173.268 243.848 172.942L244.174 172.616L244.501 172.29L244.827 171.963C245.153 171.637 245.806 171.311 246.132 170.985C246.458 170.658 247.111 170.006 247.437 169.679L247.763 169.353C248.089 169.027 248.089 169.027 248.416 168.701C248.742 168.374 248.742 168.374 249.068 168.048C249.395 167.722 249.395 167.722 249.395 167.396C249.721 167.069 249.721 166.743 250.047 166.743L250.373 166.417C250.373 166.091 250.7 166.091 250.7 165.764C251.026 165.438 251.352 164.785 251.678 164.459L252.005 164.133C252.005 163.807 252.331 163.807 252.331 163.48C252.657 163.154 252.657 162.828 252.983 162.828C253.31 162.502 253.31 161.849 253.636 161.523C253.636 161.197 253.962 160.87 253.962 160.87C254.289 160.544 254.289 159.891 254.615 159.565C254.615 159.239 254.941 159.239 254.941 158.913C255.267 158.26 255.594 157.608 255.594 156.955C255.92 156.302 255.92 155.324 256.246 154.671V154.345C256.899 152.714 257.225 152.387 257.225 151.408C257.225 151.735 257.225 151.408 257.225 151.408Z" fill="#EBAD2A"/>
<path d="M236.998 132.486C249.396 131.181 256.574 139.664 252.659 151.409C248.743 163.155 235.693 173.922 222.968 175.227C210.57 176.532 203.392 168.049 207.307 156.303C211.223 144.231 224.273 133.791 236.998 132.486Z" fill="#FFC400"/>
<path d="M236.023 135.095C247.116 133.79 253.315 141.621 250.052 152.061C246.79 162.502 235.044 171.964 223.951 172.942C212.858 174.247 206.659 166.417 209.922 155.977C213.184 145.862 224.93 136.4 236.023 135.095Z" fill="white"/>
<path d="M223.948 172.616C234.714 171.637 246.134 162.175 249.396 152.061C252.659 141.947 246.786 134.443 236.019 135.748C225.253 136.727 213.833 146.188 210.571 156.303C206.982 166.417 213.181 173.595 223.948 172.616Z" fill="#FFDB61"/>
<path d="M286.591 7.19904V6.87277C286.591 6.87277 286.591 6.87277 286.591 6.5465V6.22023V5.89397V5.5677V5.24143L284.307 1.97876C284.307 2.30503 284.634 2.30503 284.634 2.63129C284.634 2.95756 284.634 3.28383 284.96 3.28383C284.96 3.6101 284.96 3.93636 284.96 4.26263C284.96 4.5889 284.96 4.91517 284.634 5.24143C284.634 5.5677 284.307 5.89397 284.307 6.22023C284.307 6.22023 284.307 6.22023 284.307 6.5465C284.307 6.87277 283.981 7.19904 283.981 7.19904C283.981 7.19904 283.981 7.5253 283.655 7.5253C283.655 7.85157 283.329 8.17784 283.329 8.17784C283.329 8.17784 283.329 8.5041 283.002 8.5041C282.676 8.83037 282.35 9.15664 282.024 9.80917C281.371 10.4617 281.045 11.1142 280.392 11.4405C280.392 11.4405 280.392 11.4405 280.066 11.7668C279.413 12.4193 278.761 12.7456 278.108 13.3981C277.456 14.0506 276.803 14.3769 276.151 14.7032C275.498 15.0295 274.846 15.682 273.867 16.0083C273.214 16.3345 272.562 16.6608 271.583 16.9871C270.93 17.3133 270.278 17.6396 269.299 17.6396C268.647 17.6396 267.994 17.9659 267.668 17.9659C267.341 17.9659 267.341 17.9659 267.015 17.9659C266.363 17.9659 265.71 17.9659 265.384 17.9659C264.079 17.9659 263.1 17.6396 262.447 16.9871C262.121 16.6608 262.121 16.6608 261.795 16.3345L264.079 19.5972C264.731 20.576 265.71 21.2285 267.668 21.2285C268.32 21.2285 268.647 21.2285 269.299 21.2285C269.625 21.2285 269.625 21.2285 269.952 21.2285C270.278 21.2285 270.278 21.2285 270.604 21.2285C270.93 21.2285 271.257 21.2285 271.583 20.9023C271.909 20.9023 272.235 20.9023 272.235 20.576C272.562 20.576 272.888 20.576 272.888 20.2497C273.214 20.2497 273.214 20.2497 273.541 19.9235C273.867 19.9235 273.867 19.5972 274.193 19.5972C274.519 19.5972 274.519 19.2709 274.846 19.2709C275.172 19.2709 275.172 18.9447 275.498 18.9447C275.498 18.9447 275.498 18.9447 275.824 18.9447H276.151C276.477 18.9447 276.477 18.6184 276.803 18.6184C277.13 18.6184 277.129 18.2921 277.456 18.2921C277.782 18.2921 277.782 17.9659 278.108 17.9659L278.435 17.6396C278.761 17.6396 278.761 17.3133 279.087 17.3133C279.413 17.3133 279.413 16.9871 279.74 16.9871L280.066 16.6608C280.392 16.3345 280.718 16.3345 281.045 16.0083C281.371 15.682 281.371 15.682 281.697 15.3557L282.024 15.0295C282.024 15.0295 282.024 15.0295 282.35 14.7032C282.35 14.7032 282.35 14.7032 282.676 14.3769C283.002 14.0506 283.329 13.7244 283.981 13.0718C284.307 12.7456 284.634 12.4193 284.96 11.7668L285.286 11.4405C285.286 11.1142 285.612 11.1142 285.612 10.788C285.612 10.788 285.612 10.4617 285.939 10.4617C285.939 10.1354 286.265 10.1354 286.265 9.80917C286.265 9.80917 286.265 9.80918 286.265 9.48291C286.265 9.48291 286.265 9.48291 286.265 9.15664V8.83037C286.265 8.5041 286.265 8.50411 286.591 8.17784V7.85157V7.5253C286.591 7.5253 286.591 7.5253 286.591 7.19904C286.591 7.5253 286.591 7.19904 286.591 7.19904Z" fill="#EBAD2A"/>
<path d="M280.393 0.0205846C285.287 0.346852 285.613 4.91459 281.698 9.8086C277.457 14.7026 270.279 18.6178 265.385 17.9653C260.491 17.639 260.164 13.0713 264.08 8.17727C268.321 3.28326 275.825 -0.305683 280.393 0.0205846Z" fill="#FFC400"/>
<path d="M279.086 0.999027C283.327 1.32529 283.98 5.2405 280.391 9.48198C276.802 13.7235 270.603 17.3124 266.361 16.9861C262.12 16.6599 261.467 12.7446 265.056 8.50317C268.645 3.93543 274.844 0.67276 279.086 0.999027Z" fill="white"/>
<path d="M266.363 16.6599C270.604 16.9862 276.803 13.7235 280.066 9.48201C283.655 5.24053 283.002 1.32533 278.761 0.999059C274.52 0.672792 268.32 3.93546 265.058 8.17694C261.795 12.7447 262.448 16.3336 266.363 16.6599Z" fill="#FFDB61"/>
<path d="M187.079 105.405C187.079 105.079 187.406 104.753 187.732 104.427C188.058 104.1 188.058 103.774 188.384 103.448C188.384 103.121 188.711 103.121 188.711 102.795C189.037 102.469 189.363 102.143 189.363 101.816L189.689 101.49C190.016 100.838 190.342 100.511 190.668 100.185C190.668 100.185 190.668 99.8588 190.994 99.8588C191.321 99.5325 191.647 98.88 191.973 98.5537C191.973 98.5537 191.973 98.5537 192.3 98.2274C192.626 97.9012 193.278 97.2486 193.605 96.9224L193.931 96.5961C194.257 96.2698 194.91 95.6173 195.236 95.291C195.236 95.291 195.236 95.291 195.562 94.9648C195.888 94.6385 196.541 94.3122 196.867 93.986C196.867 93.986 197.194 93.986 197.194 93.6597C197.846 93.3334 198.172 93.0072 198.825 92.6809L199.151 92.3546C199.477 92.0284 199.804 92.0284 200.456 91.7021C200.782 91.7021 200.782 91.3758 201.109 91.3758C201.435 91.0496 201.761 91.0496 202.088 90.7233C202.414 90.7233 202.74 90.397 202.74 90.397C203.066 90.397 203.066 90.0708 203.393 90.0708C204.045 89.7445 204.698 89.7445 205.35 89.4182C205.676 89.4182 205.676 89.4182 206.003 89.0919C206.982 88.7657 207.96 88.4394 208.613 88.4394H208.939C209.918 88.4394 210.57 88.1132 211.223 88.1132C211.549 88.1132 211.549 88.1132 211.876 88.1132C212.528 88.1132 213.181 88.1132 213.833 88.1132C214.159 88.1132 214.486 88.1132 214.486 88.1132C214.812 88.1132 215.138 88.1132 215.138 88.1132C215.465 88.1132 216.117 88.4394 216.443 88.4394C216.77 88.4394 217.422 88.7657 217.748 88.7657H218.075C218.401 88.7657 218.727 89.0919 219.053 89.0919C219.053 89.0919 219.053 89.0919 219.38 89.0919C219.706 89.4182 220.032 89.4182 220.359 89.7445C220.359 89.7445 220.359 89.7445 220.685 89.7445C221.011 90.0708 221.337 90.0708 221.337 90.397C221.664 90.7233 221.99 91.0496 222.316 91.3758L218.727 86.8081C218.727 86.8081 218.727 86.4818 218.401 86.4818C218.075 86.1555 218.075 86.1555 217.748 85.8293L217.422 85.503L217.096 85.1767C217.096 85.1767 217.096 85.1767 216.77 85.1767C216.443 84.8505 216.443 84.8505 216.117 84.8505C216.117 84.8505 216.117 84.8505 215.791 84.8505L215.465 84.5242C215.465 84.5242 215.138 84.5242 215.138 84.1979H214.812C214.812 84.1979 214.812 84.1979 214.486 84.1979C214.159 84.1979 213.833 83.8717 213.507 83.8717C213.181 83.8717 212.854 83.5454 212.528 83.5454C212.202 83.5454 211.876 83.5454 211.876 83.5454C211.549 83.5454 211.549 83.5454 211.223 83.5454C210.57 83.5454 209.918 83.5454 209.265 83.5454H208.939H208.613C207.96 83.5454 206.982 83.5454 206.329 83.8717H206.003C205.024 84.1979 204.045 84.1979 203.393 84.5242H203.066H202.74C202.088 84.8505 201.435 84.8505 200.782 85.1767H200.456H200.13C199.804 85.1767 199.477 85.503 199.477 85.503C199.151 85.503 199.151 85.8293 198.825 85.8293C198.825 85.8293 198.499 85.8293 198.499 86.1555C198.172 86.1555 198.172 86.4818 197.846 86.4818C197.52 86.4818 197.52 86.8081 197.194 86.8081C195.888 87.7869 195.888 88.1132 195.562 88.1132L195.236 88.4394C195.236 88.4394 195.236 88.4394 194.91 88.4394C194.583 88.7657 194.257 89.0919 193.605 89.0919C193.605 89.0919 193.278 89.092 193.278 89.4182C192.952 89.4182 192.952 89.7445 192.626 90.0708C192.3 90.397 192.3 90.397 191.973 90.7233C191.973 90.7233 191.973 90.7233 191.647 91.0496C191.321 91.3758 190.994 91.7021 190.668 92.0284L190.342 92.3546L190.016 92.6809L189.689 93.0072C189.363 93.3334 189.037 93.6597 188.711 93.986C188.711 93.986 188.711 93.986 188.384 94.3122C188.058 94.6385 188.058 94.6385 187.732 94.9648C187.406 95.291 187.406 95.291 187.079 95.6173C187.079 95.6173 187.079 95.9436 186.753 95.9436C186.427 96.2698 186.1 96.5961 185.774 96.9224C185.774 96.9224 185.774 96.9224 185.774 97.2486L185.448 97.5749C185.448 97.9012 185.122 97.9012 185.122 98.2274L184.795 98.5537C184.795 98.88 184.469 98.88 184.469 99.2062C184.469 99.2062 184.469 99.5325 184.143 99.5325C184.143 99.8588 183.817 99.8588 183.817 100.185C183.49 100.511 183.49 100.838 183.164 101.164C183.164 101.164 183.164 101.49 182.838 101.49C182.512 101.816 182.512 102.143 182.512 102.469C180.228 107.689 180.88 112.583 183.49 115.846L187.079 120.414C184.469 117.151 184.143 112.583 186.1 107.037C186.753 106.384 187.079 105.732 187.079 105.405Z" fill="#EBAD2A"/>
<path d="M212.202 88.4391C222.316 88.1129 227.536 96.2696 223.621 106.058C219.706 115.846 208.287 124.002 197.846 124.329C187.732 124.655 182.511 116.498 186.427 106.71C190.342 96.9221 202.088 88.7654 212.202 88.4391Z" fill="#FFC400"/>
<path d="M211.873 91.0488C221.008 91.0488 225.902 97.9004 222.313 106.71C218.724 115.519 208.284 122.697 199.148 123.023C190.013 123.023 185.119 116.171 188.708 107.362C192.297 98.2267 202.737 91.0488 211.873 91.0488Z" fill="white"/>
<path d="M199.153 122.371C208.289 122.371 218.403 115.193 221.666 106.71C224.928 98.2273 220.361 91.3757 211.551 91.3757C202.416 91.3757 192.302 98.5536 189.039 107.037C185.776 115.52 190.344 122.371 199.153 122.371Z" fill="#FFDB61"/>
<path d="M210.242 95.6175L209.264 97.9014C210.569 97.9014 211.221 98.5539 211.548 99.5327C211.874 100.512 211.874 101.49 211.221 102.795H207.959C208.285 101.817 208.285 101.49 208.285 100.838C207.959 100.512 207.632 100.185 206.98 100.185C206.327 100.185 206.001 100.512 205.348 100.838C205.022 101.164 204.696 101.49 204.37 102.143C204.043 102.795 204.043 103.122 204.37 103.448C204.696 103.774 205.022 104.1 205.675 104.427C206.327 104.753 206.98 105.079 207.306 105.406C207.632 105.732 207.959 106.058 208.285 106.384C208.611 106.711 208.611 107.037 208.611 107.689C208.611 108.016 208.611 108.668 208.285 109.321C207.959 110.626 206.98 111.605 206.001 112.257C205.022 112.91 203.717 113.562 202.412 113.562L201.433 115.52H199.802L200.781 113.562C199.476 113.562 198.497 112.91 197.844 111.931C197.518 110.952 197.518 109.973 197.844 108.342H201.107C200.781 109.321 200.781 109.973 201.107 110.3C201.433 110.626 201.76 110.952 202.738 110.952C203.391 110.952 204.043 110.626 204.37 110.3C205.022 109.973 205.348 109.647 205.348 108.994C205.675 108.342 205.675 108.016 205.348 107.689C205.022 107.363 204.696 107.037 204.043 106.711C203.391 106.384 202.738 106.058 202.412 105.732C202.086 105.406 201.433 105.079 201.433 104.753C201.107 104.427 201.107 104.1 201.107 103.448C201.107 102.795 201.107 102.469 201.433 101.817C201.76 100.512 202.738 99.5327 203.717 98.8802C204.696 98.2277 206.001 97.5751 207.306 97.5751L208.285 95.2913L210.242 95.6175Z" fill="white"/>
<path d="M244.829 64.6222L248.091 61.3595C247.765 61.6858 247.439 62.012 247.112 62.012H246.786C246.46 62.012 246.134 62.3383 246.134 62.3383C245.807 62.3383 245.481 62.3383 245.155 62.3383C244.829 62.3383 244.829 62.3383 244.502 62.3383C244.176 62.3383 244.176 62.3383 243.85 62.3383C243.524 62.3383 243.197 62.3383 242.871 62.012C242.545 62.012 242.545 62.012 242.218 62.012C241.892 62.012 241.566 61.6858 240.913 61.6858C240.587 61.6858 240.587 61.6858 240.261 61.3595C239.935 61.0332 239.282 61.0332 238.956 60.707C238.63 60.707 238.63 60.3807 238.303 60.3807C237.977 60.0544 237.651 60.0544 237.324 59.7282C236.998 59.4019 236.346 59.4019 236.019 59.0756C235.367 58.7494 234.714 58.0968 233.736 57.4443C233.083 57.118 232.43 56.4655 231.778 56.1392C231.452 56.1392 231.452 55.8129 231.125 55.8129C230.473 55.4867 230.147 54.8341 229.82 54.5079L229.494 54.1816C228.842 53.5291 228.515 53.2028 227.863 52.5503L227.536 52.224C227.21 51.8977 226.884 51.2452 226.231 50.9189L225.905 50.5927C225.253 49.9401 224.926 49.2876 224.274 48.6351L223.947 48.3088C223.621 47.9825 223.295 47.33 222.969 47.0037C222.969 47.0037 222.969 46.6775 222.642 46.6775C222.316 46.0249 221.99 45.6987 221.664 45.0461C221.664 45.0461 221.664 44.7199 221.337 44.7199C221.011 44.3936 221.011 44.0673 220.685 43.4148C220.685 43.4148 220.685 43.0885 220.359 43.0885C220.032 42.7623 220.032 42.1097 220.032 41.7835V41.4572C220.032 40.8047 219.706 40.4784 219.706 39.8259V39.4996C219.706 39.1733 219.706 38.5208 219.706 38.1945C219.706 37.542 220.032 37.2157 220.032 36.8894C220.359 36.5632 220.359 36.2369 220.685 35.9106L217.422 39.1733C216.77 39.8259 216.443 40.4784 216.443 41.4572C216.443 41.7835 216.443 42.436 216.443 42.7623C216.443 42.7623 216.443 42.7623 216.443 43.0885C216.443 43.0885 216.443 43.0885 216.443 43.4148C216.443 44.0673 216.77 44.3936 216.77 45.0461C216.77 45.0461 216.77 45.0461 216.77 45.3724C216.77 45.6987 217.096 46.3512 217.096 46.6775C217.096 46.6775 217.096 46.6775 217.096 47.0037C217.096 47.0037 217.096 47.0037 217.096 47.33C217.422 47.6563 217.422 47.9825 217.748 48.6351V48.9613C218.075 49.6139 218.401 49.9401 218.727 50.5927C218.727 50.5927 218.727 50.5927 218.727 50.9189C219.053 51.2452 219.38 51.8977 219.706 52.224C219.706 52.224 219.706 52.5503 220.032 52.5503C220.032 52.5503 220.032 52.5503 220.032 52.8765C220.359 53.5291 221.011 54.1816 221.664 54.8341C221.664 54.8341 221.664 55.1604 221.99 55.1604C222.316 55.4867 222.642 56.1392 223.295 56.4655L223.621 56.7917C224.274 57.4443 224.6 57.7705 225.253 58.4231L225.579 58.7494C225.905 59.0756 226.558 59.7282 226.884 60.0544C227.21 60.0544 227.21 60.3807 227.536 60.3807C228.189 61.0332 228.842 61.3595 229.494 61.6858C230.147 62.3383 230.799 62.6646 231.452 62.9908C231.778 63.3171 232.43 63.6434 232.757 63.6434C233.083 63.9696 233.409 63.9696 233.736 64.2959C234.062 64.2959 234.062 64.6222 234.388 64.6222C234.714 64.9484 235.041 64.9484 235.367 65.2747H235.693C236.019 65.2747 236.019 65.2747 236.346 65.601C236.672 65.601 236.998 65.9272 236.998 65.9272C237.324 65.9272 237.324 65.9272 237.651 65.9272C237.977 65.9272 237.977 65.9272 238.303 65.9272H238.63C238.956 65.9272 238.956 65.9272 239.282 65.9272C239.608 65.9272 239.608 65.9272 239.935 65.9272H240.261C240.587 65.9272 240.587 65.9272 240.913 65.9272C241.24 65.9272 241.566 65.9272 241.892 65.9272C241.892 65.9272 241.892 65.9272 242.218 65.9272C242.545 65.9272 242.545 65.9272 242.871 65.601H243.197C244.176 65.2747 244.502 64.9484 244.829 64.6222Z" fill="#EBAD2A"/>
<path d="M235.694 39.1736C243.525 45.0464 249.724 53.8556 249.071 58.7496C248.419 63.9699 241.567 63.3173 233.737 57.4445C225.906 51.5717 219.707 42.7625 220.36 37.5422C221.012 32.9745 227.864 33.3007 235.694 39.1736Z" fill="#FFC400"/>
<path d="M236.021 40.153C242.873 45.047 247.767 52.5511 247.441 57.1189C246.788 61.3603 240.915 61.0341 234.39 56.1401C227.538 51.246 222.644 43.7419 222.97 39.1742C223.297 34.6064 229.17 35.259 236.021 40.153Z" fill="white"/>
<path d="M234.064 55.487C240.589 60.381 246.462 60.7072 246.788 56.4658C247.114 52.2243 242.22 44.7202 235.695 40.1524C229.17 35.2584 223.297 34.9321 222.97 39.1736C222.644 43.4151 227.538 50.9192 234.064 55.487Z" fill="#FFDB61"/>
<path d="M237.653 42.1099V43.415C238.632 44.3938 239.284 45.0463 239.937 46.0251C240.589 47.0039 240.589 47.6564 240.589 48.309L237.979 46.6776C237.979 46.3514 237.979 45.6988 237.653 45.3726C237.327 45.0463 237.001 44.72 236.674 44.0675C236.348 43.7412 235.695 43.415 235.695 43.415C235.369 43.415 235.369 43.415 235.369 43.7412C235.369 44.0675 235.369 44.3938 235.695 44.72C236.022 45.0463 236.348 45.6988 237.001 46.3514C237.653 47.0039 238.306 47.6564 238.632 47.9827C238.958 48.309 239.284 48.9615 239.611 49.2878C239.937 49.6141 239.937 49.9403 240.263 50.5929C240.263 50.9191 240.589 51.2454 240.263 51.5717C240.263 52.2242 239.937 52.5505 239.284 52.5505C238.632 52.5505 237.653 52.2242 236.674 51.5717V52.5505L235.369 51.5717V50.5929C234.064 49.6141 233.412 48.6352 232.759 47.9827C232.107 47.0039 231.78 46.3514 232.107 45.3726L234.717 47.0039C234.717 47.3302 234.717 47.9827 235.043 48.309C235.369 48.6353 235.695 49.2878 236.348 49.6141C237.001 49.9403 237.327 50.2666 237.653 50.2666C237.979 50.2666 237.979 50.2666 238.306 49.9403C238.306 49.6141 238.306 49.2878 237.979 48.9615C237.653 48.6353 237.327 47.9827 236.674 47.6564C236.022 47.0039 235.695 46.6776 235.043 46.0251C234.717 45.6988 234.39 45.0463 234.064 44.72C233.738 44.3938 233.412 43.7412 233.412 43.415C233.412 43.0887 233.085 42.7624 233.412 42.4362C233.412 41.7836 233.738 41.4574 234.39 41.4574C235.043 41.4574 236.022 41.7836 237.001 42.4362V41.1311L237.653 42.1099Z" fill="white"/>
<path d="M235.042 140.315L234.063 142.926C235.368 142.926 236.347 143.578 237 144.231C237.652 145.209 237.652 146.515 237 147.82L233.411 148.146C233.737 147.167 233.737 146.515 233.411 146.188C233.084 145.862 232.758 145.536 232.106 145.536C231.453 145.536 230.8 145.862 230.148 146.188C229.495 146.515 229.169 147.167 229.169 147.82C228.843 148.472 229.169 148.798 229.169 149.125C229.495 149.451 230.148 149.777 230.8 150.103C231.779 150.43 232.432 150.756 233.084 151.082C233.737 151.409 234.063 151.735 234.389 152.061C234.716 152.387 234.716 153.04 235.042 153.366C235.042 154.019 235.042 154.671 234.716 155.324C234.389 156.629 233.411 157.934 232.106 158.913C230.8 159.891 229.495 160.544 227.864 160.87L227.212 163.154L225.254 163.807L225.906 161.523C224.275 161.523 222.97 161.197 222.318 160.218C221.665 159.239 221.665 157.934 222.318 156.303L225.906 155.976C225.58 156.955 225.58 157.608 225.906 158.26C226.233 158.586 226.885 158.913 227.864 158.913C228.517 158.913 229.169 158.586 229.822 158.26C230.474 157.934 230.8 157.281 230.8 156.629C231.127 155.976 231.127 155.324 230.8 154.997C230.474 154.671 230.148 154.345 229.169 154.019C228.517 153.366 227.864 153.366 227.212 153.04C226.559 152.714 226.233 152.387 225.906 152.061C225.58 151.735 225.254 151.082 225.254 150.756C225.254 150.103 225.254 149.451 225.58 148.798C225.906 147.493 226.885 146.188 228.19 145.209C229.495 144.231 230.8 143.578 232.432 143.252L233.411 140.642L235.042 140.315Z" fill="white"/>
<defs>
<linearGradient id="paint0_linear" x1="35.8048" y1="238.436" x2="72.362" y2="238.436" gradientUnits="userSpaceOnUse">
<stop stop-color="#333333"/>
<stop offset="1" stop-color="white"/>
</linearGradient>
<linearGradient id="paint1_linear" x1="14.3901" y1="260.564" x2="62.7253" y2="260.564" gradientUnits="userSpaceOnUse">
<stop stop-color="#333333"/>
<stop offset="1" stop-color="white"/>
</linearGradient>
<linearGradient id="paint2_linear" x1="21.0198" y1="295.942" x2="63.9748" y2="295.942" gradientUnits="userSpaceOnUse">
<stop stop-color="#333333"/>
<stop offset="1" stop-color="white"/>
</linearGradient>
<linearGradient id="paint3_linear" x1="445.564" y1="198.998" x2="423.758" y2="198.998" gradientUnits="userSpaceOnUse">
<stop stop-color="#4D4D4D"/>
<stop offset="1" stop-color="white"/>
</linearGradient>
<linearGradient id="paint4_linear" x1="472.05" y1="231.5" x2="429.242" y2="231.5" gradientUnits="userSpaceOnUse">
<stop stop-color="#4D4D4D"/>
<stop offset="1" stop-color="white"/>
</linearGradient>
<linearGradient id="paint5_linear" x1="433.652" y1="224.627" x2="405.455" y2="223.19" gradientUnits="userSpaceOnUse">
<stop stop-color="#4D4D4D"/>
<stop offset="1" stop-color="white"/>
</linearGradient>
<linearGradient id="paint6_linear" x1="416.918" y1="269.881" x2="442.478" y2="271.184" gradientUnits="userSpaceOnUse">
<stop stop-color="#4D4D4D"/>
<stop offset="1" stop-color="white"/>
</linearGradient>
</defs>
</svg>
