<svg width="481" height="367" viewBox="0 0 481 367" fill="none" xmlns="http://www.w3.org/2000/svg">
<path d="M410.609 286.448V300.511L408.221 293.479L410.609 286.448Z" fill="#EBAD2A"/>
<path d="M270.105 286.448V300.511L272.494 293.479L270.105 286.448Z" fill="#EBAD2A"/>
<path d="M340.291 327.842C379.053 327.842 410.477 315.606 410.477 300.511C410.477 285.416 379.053 273.18 340.291 273.18C301.529 273.18 270.105 285.416 270.105 300.511C270.105 315.606 301.529 327.842 340.291 327.842Z" fill="#EBAD2A"/>
<path d="M340.291 313.778C379.053 313.778 410.477 301.542 410.477 286.447C410.477 271.353 379.053 259.116 340.291 259.116C301.529 259.116 270.105 271.353 270.105 286.447C270.105 301.542 301.529 313.778 340.291 313.778Z" fill="#FFC400"/>
<path d="M340.293 309.135C372.534 309.135 398.671 298.977 398.671 286.447C398.671 273.917 372.534 263.76 340.293 263.76C308.052 263.76 281.916 273.917 281.916 286.447C281.916 298.977 308.052 309.135 340.293 309.135Z" fill="#EBAD2A"/>
<path d="M340.292 305.42C367.184 305.42 388.984 296.925 388.984 286.447C388.984 275.969 367.184 267.474 340.292 267.474C313.4 267.474 291.6 275.969 291.6 286.447C291.6 296.925 313.4 305.42 340.292 305.42Z" fill="#FFC400"/>
<path d="M343.876 284.059C336.446 282.865 335.119 282.202 335.119 281.273C335.119 280.344 336.711 279.416 341.488 279.416C346.397 279.416 349.316 280.079 350.642 280.344C351.306 280.477 351.969 280.477 352.632 280.477C353.296 280.344 353.827 280.212 354.092 279.946L356.215 277.823C356.613 277.425 356.215 276.895 355.153 276.629C352.367 275.966 349.183 275.568 345.601 275.435V273.313C345.601 272.782 344.539 272.384 343.212 272.384H338.038C336.711 272.384 335.65 272.782 335.65 273.313V275.833C327.955 276.629 323.178 278.885 323.178 281.804C323.178 285.386 330.874 287.111 338.303 288.172C345.203 289.234 346.131 290.162 346.131 291.091C346.131 292.418 343.212 293.347 338.701 293.347C334.987 293.347 331.139 292.949 328.22 292.152C327.557 292.02 326.761 291.887 326.097 292.02C325.434 292.152 324.771 292.285 324.505 292.551L322.515 294.673C322.117 295.071 322.515 295.469 323.444 295.735C326.23 296.531 330.608 297.062 335.119 297.327V299.715C335.119 300.246 336.181 300.644 337.507 300.644H342.682C344.008 300.644 345.07 300.246 345.07 299.715V297.194C352.898 296.398 358.072 294.01 358.072 290.958C358.205 286.845 350.642 285.121 343.876 284.059Z" fill="#EBAD2A"/>
<path d="M410.609 269.2V283.263L408.221 276.232L410.609 269.2Z" fill="#EBAD2A"/>
<path d="M270.105 269.2V283.263L272.494 276.232L270.105 269.2Z" fill="#EBAD2A"/>
<path d="M340.291 310.594C379.053 310.594 410.477 298.358 410.477 283.263C410.477 268.169 379.053 255.932 340.291 255.932C301.529 255.932 270.105 268.169 270.105 283.263C270.105 298.358 301.529 310.594 340.291 310.594Z" fill="#EBAD2A"/>
<path d="M340.291 296.531C379.053 296.531 410.477 284.294 410.477 269.199C410.477 254.105 379.053 241.868 340.291 241.868C301.529 241.868 270.105 254.105 270.105 269.199C270.105 284.294 301.529 296.531 340.291 296.531Z" fill="#FFC400"/>
<path d="M340.293 291.887C372.534 291.887 398.671 281.729 398.671 269.199C398.671 256.669 372.534 246.512 340.293 246.512C308.052 246.512 281.916 256.669 281.916 269.199C281.916 281.729 308.052 291.887 340.293 291.887Z" fill="#EBAD2A"/>
<path d="M340.292 288.172C367.184 288.172 388.984 279.678 388.984 269.199C388.984 258.721 367.184 250.227 340.292 250.227C313.4 250.227 291.6 258.721 291.6 269.199C291.6 279.678 313.4 288.172 340.292 288.172Z" fill="#FFC400"/>
<path d="M343.876 266.811C336.446 265.617 335.119 264.954 335.119 264.025C335.119 263.096 336.711 262.167 341.488 262.167C346.397 262.167 349.316 262.831 350.642 263.096C351.306 263.229 351.969 263.229 352.632 263.229C353.296 263.096 353.827 262.963 354.092 262.698L356.215 260.575C356.613 260.177 356.215 259.647 355.153 259.381C352.367 258.718 349.183 258.32 345.601 258.187V255.932C345.601 255.401 344.539 255.003 343.212 255.003H338.038C336.711 255.003 335.65 255.401 335.65 255.932V258.453C327.955 259.249 323.178 261.504 323.178 264.423C323.178 268.005 330.874 269.73 338.303 270.791C345.203 271.853 346.131 272.782 346.131 273.71C346.131 275.037 343.212 275.966 338.701 275.966C334.987 275.966 331.139 275.568 328.22 274.772C327.557 274.639 326.761 274.506 326.097 274.639C325.434 274.772 324.771 274.904 324.505 275.17L322.515 277.292C322.117 277.691 322.515 278.089 323.444 278.354C326.23 279.15 330.608 279.681 335.119 279.946V282.334C335.119 282.865 336.181 283.263 337.507 283.263H342.682C344.008 283.263 345.07 282.865 345.07 282.334V279.813C352.898 279.017 358.072 276.629 358.072 273.578C358.205 269.597 350.642 267.873 343.876 266.811Z" fill="#EBAD2A"/>
<path d="M410.609 251.421V265.484L408.221 258.452L410.609 251.421Z" fill="#EBAD2A"/>
<path d="M270.105 251.421V265.484L272.494 258.452L270.105 251.421Z" fill="#EBAD2A"/>
<path d="M340.291 292.816C379.053 292.816 410.477 280.579 410.477 265.485C410.477 250.39 379.053 238.153 340.291 238.153C301.529 238.153 270.105 250.39 270.105 265.485C270.105 280.579 301.529 292.816 340.291 292.816Z" fill="#EBAD2A"/>
<path d="M340.291 278.752C379.053 278.752 410.477 266.515 410.477 251.421C410.477 236.326 379.053 224.09 340.291 224.09C301.529 224.09 270.105 236.326 270.105 251.421C270.105 266.515 301.529 278.752 340.291 278.752Z" fill="#FFC400"/>
<path d="M340.293 274.108C372.534 274.108 398.671 263.95 398.671 251.42C398.671 238.89 372.534 228.733 340.293 228.733C308.052 228.733 281.916 238.89 281.916 251.42C281.916 263.95 308.052 274.108 340.293 274.108Z" fill="#EBAD2A"/>
<path d="M340.292 270.393C367.184 270.393 388.984 261.899 388.984 251.421C388.984 240.942 367.184 232.448 340.292 232.448C313.4 232.448 291.6 240.942 291.6 251.421C291.6 261.899 313.4 270.393 340.292 270.393Z" fill="#FFC400"/>
<path d="M343.876 249.032C336.446 247.838 335.119 247.175 335.119 246.246C335.119 245.317 336.711 244.389 341.488 244.389C346.397 244.389 349.316 245.052 350.642 245.317C351.306 245.45 351.969 245.45 352.632 245.45C353.296 245.317 353.827 245.185 354.092 244.919L356.215 242.797C356.613 242.398 356.215 241.868 355.153 241.602C352.367 240.939 349.183 240.541 345.601 240.408V238.153C345.601 237.622 344.539 237.224 343.212 237.224H338.038C336.711 237.224 335.65 237.622 335.65 238.153V240.674C327.955 241.47 323.178 243.725 323.178 246.644C323.178 250.226 330.874 251.951 338.303 253.013C345.203 254.074 346.131 255.003 346.131 255.931C346.131 257.258 343.212 258.187 338.701 258.187C334.987 258.187 331.139 257.789 328.22 256.993C327.557 256.86 326.761 256.727 326.097 256.86C325.434 256.993 324.771 257.125 324.505 257.391L322.515 259.514C322.117 259.912 322.515 260.31 323.444 260.575C326.23 261.371 330.608 261.902 335.119 262.167V264.555C335.119 265.086 336.181 265.484 337.507 265.484H342.682C344.008 265.484 345.07 265.086 345.07 264.555V262.035C352.898 261.238 358.072 258.85 358.072 255.799C358.205 251.818 350.642 250.094 343.876 249.032Z" fill="#EBAD2A"/>
<path d="M410.609 234.173V248.237L408.221 241.205L410.609 234.173Z" fill="#EBAD2A"/>
<path d="M270.105 234.173V248.237L272.494 241.205L270.105 234.173Z" fill="#EBAD2A"/>
<path d="M340.291 275.568C379.053 275.568 410.477 263.331 410.477 248.237C410.477 233.142 379.053 220.906 340.291 220.906C301.529 220.906 270.105 233.142 270.105 248.237C270.105 263.331 301.529 275.568 340.291 275.568Z" fill="#EBAD2A"/>
<path d="M340.291 261.504C379.053 261.504 410.477 249.267 410.477 234.173C410.477 219.078 379.053 206.841 340.291 206.841C301.529 206.841 270.105 219.078 270.105 234.173C270.105 249.267 301.529 261.504 340.291 261.504Z" fill="#FFC400"/>
<path d="M340.293 256.86C372.534 256.86 398.671 246.703 398.671 234.173C398.671 221.643 372.534 211.485 340.293 211.485C308.052 211.485 281.916 221.643 281.916 234.173C281.916 246.703 308.052 256.86 340.293 256.86Z" fill="#EBAD2A"/>
<path d="M340.292 253.146C367.184 253.146 388.984 244.651 388.984 234.173C388.984 223.695 367.184 215.2 340.292 215.2C313.4 215.2 291.6 223.695 291.6 234.173C291.6 244.651 313.4 253.146 340.292 253.146Z" fill="#FFC400"/>
<path d="M343.876 231.784C336.446 230.59 335.119 229.927 335.119 228.998C335.119 228.07 336.711 227.141 341.488 227.141C346.397 227.141 349.316 227.804 350.642 228.07C351.306 228.202 351.969 228.202 352.632 228.202C353.296 228.07 353.827 227.937 354.092 227.672L356.215 225.549C356.613 225.151 356.215 224.62 355.153 224.355C352.367 223.691 349.183 223.293 345.601 223.161V220.905C345.601 220.374 344.539 219.976 343.212 219.976H338.038C336.711 219.976 335.65 220.374 335.65 220.905V223.426C327.955 224.222 323.178 226.477 323.178 229.396C323.178 232.979 330.874 234.703 338.303 235.765C345.203 236.826 346.131 237.755 346.131 238.684C346.131 240.01 343.212 240.939 338.701 240.939C334.987 240.939 331.139 240.541 328.22 239.745C327.557 239.612 326.761 239.48 326.097 239.612C325.434 239.745 324.771 239.878 324.505 240.143L322.515 242.266C322.117 242.664 322.515 243.062 323.444 243.327C326.23 244.123 330.608 244.654 335.119 244.919V247.308C335.119 247.838 336.181 248.236 337.507 248.236H342.682C344.008 248.236 345.07 247.838 345.07 247.308V244.787C352.898 243.991 358.072 241.602 358.072 238.551C358.205 234.571 350.642 232.846 343.876 231.784Z" fill="#EBAD2A"/>
<path d="M410.609 217.323V231.52L408.221 224.355L410.609 217.323Z" fill="#EBAD2A"/>
<path d="M270.105 217.323V231.52L272.494 224.355L270.105 217.323Z" fill="#EBAD2A"/>
<path d="M340.291 258.85C379.053 258.85 410.477 246.614 410.477 231.519C410.477 216.425 379.053 204.188 340.291 204.188C301.529 204.188 270.105 216.425 270.105 231.519C270.105 246.614 301.529 258.85 340.291 258.85Z" fill="#EBAD2A"/>
<path d="M340.291 244.654C379.053 244.654 410.477 232.418 410.477 217.323C410.477 202.228 379.053 189.992 340.291 189.992C301.529 189.992 270.105 202.228 270.105 217.323C270.105 232.418 301.529 244.654 340.291 244.654Z" fill="#FFC400"/>
<path d="M340.293 240.011C372.534 240.011 398.671 229.853 398.671 217.323C398.671 204.793 372.534 194.635 340.293 194.635C308.052 194.635 281.916 204.793 281.916 217.323C281.916 229.853 308.052 240.011 340.293 240.011Z" fill="#EBAD2A"/>
<path d="M340.292 236.295C367.184 236.295 388.984 227.801 388.984 217.323C388.984 206.844 367.184 198.35 340.292 198.35C313.4 198.35 291.6 206.844 291.6 217.323C291.6 227.801 313.4 236.295 340.292 236.295Z" fill="#FFC400"/>
<path d="M343.876 214.935C336.446 213.741 335.119 213.077 335.119 212.148C335.119 211.22 336.711 210.291 341.488 210.291C346.397 210.291 349.316 210.954 350.642 211.22C351.306 211.352 351.969 211.352 352.632 211.352C353.296 211.22 353.827 211.087 354.092 210.822L356.215 208.699C356.613 208.301 356.215 207.77 355.153 207.505C352.367 206.841 349.183 206.443 345.601 206.311V204.055C345.601 203.524 344.539 203.126 343.212 203.126H338.038C336.711 203.126 335.65 203.524 335.65 204.055V206.576C327.955 207.372 323.178 209.628 323.178 212.546C323.178 216.129 330.874 217.853 338.303 218.915C345.203 219.976 346.131 220.905 346.131 221.834C346.131 223.161 343.212 224.089 338.701 224.089C334.987 224.089 331.139 223.691 328.22 222.895C327.557 222.762 326.761 222.63 326.097 222.762C325.434 222.895 324.771 223.028 324.505 223.293L322.515 225.416C322.117 225.814 322.515 226.212 323.444 226.477C326.23 227.273 330.608 227.804 335.119 228.07V230.458C335.119 230.988 336.181 231.386 337.507 231.386H342.682C344.008 231.386 345.07 230.988 345.07 230.458V227.937C352.898 227.141 358.072 224.753 358.072 221.701C358.205 217.721 350.642 215.996 343.876 214.935Z" fill="#EBAD2A"/>
<path d="M410.609 200.075V214.272L408.221 207.107L410.609 200.075Z" fill="#EBAD2A"/>
<path d="M270.105 200.075V214.272L272.494 207.107L270.105 200.075Z" fill="#EBAD2A"/>
<path d="M340.291 241.603C379.053 241.603 410.477 229.366 410.477 214.271C410.477 199.177 379.053 186.94 340.291 186.94C301.529 186.94 270.105 199.177 270.105 214.271C270.105 229.366 301.529 241.603 340.291 241.603Z" fill="#EBAD2A"/>
<path d="M340.291 227.406C379.053 227.406 410.477 215.17 410.477 200.075C410.477 184.981 379.053 172.744 340.291 172.744C301.529 172.744 270.105 184.981 270.105 200.075C270.105 215.17 301.529 227.406 340.291 227.406Z" fill="#FFC400"/>
<path d="M340.293 222.763C372.534 222.763 398.671 212.605 398.671 200.075C398.671 187.545 372.534 177.387 340.293 177.387C308.052 177.387 281.916 187.545 281.916 200.075C281.916 212.605 308.052 222.763 340.293 222.763Z" fill="#EBAD2A"/>
<path d="M340.292 219.048C367.184 219.048 388.984 210.553 388.984 200.075C388.984 189.597 367.184 181.102 340.292 181.102C313.4 181.102 291.6 189.597 291.6 200.075C291.6 210.553 313.4 219.048 340.292 219.048Z" fill="#FFC400"/>
<path d="M343.876 197.687C336.446 196.493 335.119 195.829 335.119 194.901C335.119 193.972 336.711 193.043 341.488 193.043C346.397 193.043 349.316 193.707 350.642 193.972C351.306 194.105 351.969 194.105 352.632 194.105C353.296 193.972 353.827 193.839 354.092 193.574L356.215 191.451C356.613 191.053 356.215 190.522 355.153 190.257C352.367 189.594 349.183 189.196 345.601 189.063V186.807C345.601 186.277 344.539 185.879 343.212 185.879H338.038C336.711 185.879 335.65 186.277 335.65 186.807V189.328C327.955 190.124 323.178 192.38 323.178 195.299C323.178 198.881 330.874 200.606 338.303 201.667C345.203 202.728 346.131 203.657 346.131 204.586C346.131 205.913 343.212 206.841 338.701 206.841C334.987 206.841 331.139 206.443 328.22 205.647C327.557 205.515 326.761 205.382 326.097 205.515C325.434 205.647 324.771 205.78 324.505 206.045L322.515 208.168C322.117 208.566 322.515 208.964 323.444 209.23C326.23 210.026 330.608 210.556 335.119 210.822V213.21C335.119 213.741 336.181 214.139 337.507 214.139H342.682C344.008 214.139 345.07 213.741 345.07 213.21V210.689C352.898 209.893 358.072 207.505 358.072 204.453C358.205 200.473 350.642 198.748 343.876 197.687Z" fill="#EBAD2A"/>
<path d="M410.609 182.297V196.493L408.221 189.329L410.609 182.297Z" fill="#EBAD2A"/>
<path d="M270.105 182.297V196.493L272.494 189.329L270.105 182.297Z" fill="#EBAD2A"/>
<path d="M340.291 223.824C379.053 223.824 410.477 211.587 410.477 196.493C410.477 181.398 379.053 169.162 340.291 169.162C301.529 169.162 270.105 181.398 270.105 196.493C270.105 211.587 301.529 223.824 340.291 223.824Z" fill="#EBAD2A"/>
<path d="M340.291 209.628C379.053 209.628 410.477 197.391 410.477 182.297C410.477 167.202 379.053 154.966 340.291 154.966C301.529 154.966 270.105 167.202 270.105 182.297C270.105 197.391 301.529 209.628 340.291 209.628Z" fill="#FFC400"/>
<path d="M340.293 204.984C372.534 204.984 398.671 194.826 398.671 182.296C398.671 169.766 372.534 159.609 340.293 159.609C308.052 159.609 281.916 169.766 281.916 182.296C281.916 194.826 308.052 204.984 340.293 204.984Z" fill="#EBAD2A"/>
<path d="M340.292 201.27C367.184 201.27 388.984 192.775 388.984 182.297C388.984 171.819 367.184 163.324 340.292 163.324C313.4 163.324 291.6 171.819 291.6 182.297C291.6 192.775 313.4 201.27 340.292 201.27Z" fill="#FFC400"/>
<path d="M343.876 179.908C336.446 178.714 335.119 178.051 335.119 177.122C335.119 176.193 336.711 175.265 341.488 175.265C346.397 175.265 349.316 175.928 350.642 176.193C351.306 176.326 351.969 176.326 352.632 176.326C353.296 176.193 353.827 176.061 354.092 175.795L356.215 173.672C356.613 173.274 356.215 172.744 355.153 172.478C352.367 171.815 349.183 171.417 345.601 171.284V169.029C345.601 168.498 344.539 168.1 343.212 168.1H338.038C336.711 168.1 335.65 168.498 335.65 169.029V171.55C327.955 172.346 323.178 174.601 323.178 177.52C323.178 181.102 330.874 182.827 338.303 183.889C345.203 184.95 346.131 185.879 346.131 186.807C346.131 188.134 343.212 189.063 338.701 189.063C334.987 189.063 331.139 188.665 328.22 187.869C327.557 187.736 326.761 187.603 326.097 187.736C325.434 187.869 324.771 188.001 324.505 188.267L322.515 190.39C322.117 190.788 322.515 191.186 323.444 191.451C326.23 192.247 330.608 192.778 335.119 193.043V195.431C335.119 195.962 336.181 196.36 337.507 196.36H342.682C344.008 196.36 345.07 195.962 345.07 195.431V192.91C352.898 192.114 358.072 189.726 358.072 186.675C358.205 182.694 350.642 180.97 343.876 179.908Z" fill="#EBAD2A"/>
<path d="M410.609 165.049V179.112L408.221 172.081L410.609 165.049Z" fill="#EBAD2A"/>
<path d="M270.105 165.049V179.112L272.494 172.081L270.105 165.049Z" fill="#EBAD2A"/>
<path d="M340.291 206.444C379.053 206.444 410.477 194.207 410.477 179.113C410.477 164.018 379.053 151.781 340.291 151.781C301.529 151.781 270.105 164.018 270.105 179.113C270.105 194.207 301.529 206.444 340.291 206.444Z" fill="#EBAD2A"/>
<path d="M340.291 192.38C379.053 192.38 410.477 180.143 410.477 165.049C410.477 149.954 379.053 137.718 340.291 137.718C301.529 137.718 270.105 149.954 270.105 165.049C270.105 180.143 301.529 192.38 340.291 192.38Z" fill="#FFC400"/>
<path d="M340.293 187.736C372.534 187.736 398.671 177.579 398.671 165.049C398.671 152.519 372.534 142.361 340.293 142.361C308.052 142.361 281.916 152.519 281.916 165.049C281.916 177.579 308.052 187.736 340.293 187.736Z" fill="#EBAD2A"/>
<path d="M340.292 184.021C367.184 184.021 388.984 175.527 388.984 165.049C388.984 154.571 367.184 146.076 340.292 146.076C313.4 146.076 291.6 154.571 291.6 165.049C291.6 175.527 313.4 184.021 340.292 184.021Z" fill="#FFC400"/>
<path d="M343.876 162.66C336.446 161.466 335.119 160.803 335.119 159.874C335.119 158.946 336.711 158.017 341.488 158.017C346.397 158.017 349.316 158.68 350.642 158.946C351.306 159.078 351.969 159.078 352.632 159.078C353.296 158.946 353.827 158.813 354.092 158.547L356.215 156.425C356.613 156.027 356.215 155.496 355.153 155.231C352.367 154.567 349.183 154.169 345.601 154.037V151.781C345.601 151.25 344.539 150.852 343.212 150.852H338.038C336.711 150.852 335.65 151.25 335.65 151.781V154.302C327.955 155.098 323.178 157.353 323.178 160.272C323.178 163.855 330.874 165.579 338.303 166.641C345.203 167.702 346.131 168.631 346.131 169.56C346.131 170.886 343.212 171.815 338.701 171.815C334.987 171.815 331.139 171.417 328.22 170.621C327.557 170.488 326.761 170.356 326.097 170.488C325.434 170.621 324.771 170.754 324.505 171.019L322.515 173.142C322.117 173.54 322.515 173.938 323.444 174.203C326.23 174.999 330.608 175.53 335.119 175.795V178.184C335.119 178.714 336.181 179.112 337.507 179.112H342.682C344.008 179.112 345.07 178.714 345.07 178.184V175.663C352.898 174.867 358.072 172.478 358.072 169.427C358.205 165.447 350.642 163.722 343.876 162.66Z" fill="#EBAD2A"/>
<path d="M410.609 148.066V162.263L408.221 155.098L410.609 148.066Z" fill="#EBAD2A"/>
<path d="M270.105 148.066V162.263L272.494 155.098L270.105 148.066Z" fill="#EBAD2A"/>
<path d="M340.291 189.594C379.053 189.594 410.477 177.357 410.477 162.262C410.477 147.168 379.053 134.931 340.291 134.931C301.529 134.931 270.105 147.168 270.105 162.262C270.105 177.357 301.529 189.594 340.291 189.594Z" fill="#EBAD2A"/>
<path d="M340.291 175.398C379.053 175.398 410.477 163.161 410.477 148.066C410.477 132.972 379.053 120.735 340.291 120.735C301.529 120.735 270.105 132.972 270.105 148.066C270.105 163.161 301.529 175.398 340.291 175.398Z" fill="#FFC400"/>
<path d="M340.293 170.754C372.534 170.754 398.671 160.596 398.671 148.066C398.671 135.536 372.534 125.378 340.293 125.378C308.052 125.378 281.916 135.536 281.916 148.066C281.916 160.596 308.052 170.754 340.293 170.754Z" fill="#EBAD2A"/>
<path d="M340.292 167.039C367.184 167.039 388.984 158.545 388.984 148.066C388.984 137.588 367.184 129.094 340.292 129.094C313.4 129.094 291.6 137.588 291.6 148.066C291.6 158.545 313.4 167.039 340.292 167.039Z" fill="#FFC400"/>
<path d="M343.876 145.678C336.446 144.484 335.119 143.82 335.119 142.892C335.119 141.963 336.711 141.034 341.488 141.034C346.397 141.034 349.316 141.698 350.642 141.963C351.306 142.096 351.969 142.096 352.632 142.096C353.296 141.963 353.827 141.83 354.092 141.565L356.215 139.442C356.613 139.044 356.215 138.513 355.153 138.248C352.367 137.585 349.183 137.187 345.601 137.054V134.798C345.601 134.268 344.539 133.87 343.212 133.87H338.038C336.711 133.87 335.65 134.268 335.65 134.798V137.319C327.955 138.115 323.178 140.371 323.178 143.29C323.178 146.872 330.874 148.597 338.303 149.658C345.203 150.719 346.131 151.648 346.131 152.577C346.131 153.904 343.212 154.832 338.701 154.832C334.987 154.832 331.139 154.434 328.22 153.638C327.557 153.506 326.761 153.373 326.097 153.506C325.434 153.638 324.771 153.771 324.505 154.036L322.515 156.159C322.117 156.557 322.515 156.955 323.444 157.221C326.23 158.017 330.608 158.547 335.119 158.813V161.201C335.119 161.732 336.181 162.13 337.507 162.13H342.682C344.008 162.13 345.07 161.732 345.07 161.201V158.68C352.898 157.884 358.072 155.496 358.072 152.444C358.205 148.464 350.642 146.739 343.876 145.678Z" fill="#EBAD2A"/>
<path d="M410.609 130.818V144.882L408.221 137.85L410.609 130.818Z" fill="#EBAD2A"/>
<path d="M270.105 130.818V144.882L272.494 137.85L270.105 130.818Z" fill="#EBAD2A"/>
<path d="M340.291 172.213C379.053 172.213 410.477 159.977 410.477 144.882C410.477 129.788 379.053 117.551 340.291 117.551C301.529 117.551 270.105 129.788 270.105 144.882C270.105 159.977 301.529 172.213 340.291 172.213Z" fill="#EBAD2A"/>
<path d="M340.291 158.15C379.053 158.15 410.477 145.913 410.477 130.819C410.477 115.724 379.053 103.487 340.291 103.487C301.529 103.487 270.105 115.724 270.105 130.819C270.105 145.913 301.529 158.15 340.291 158.15Z" fill="#FFC400"/>
<path d="M340.293 153.506C372.534 153.506 398.671 143.348 398.671 130.818C398.671 118.288 372.534 108.131 340.293 108.131C308.052 108.131 281.916 118.288 281.916 130.818C281.916 143.348 308.052 153.506 340.293 153.506Z" fill="#EBAD2A"/>
<path d="M340.292 149.791C367.184 149.791 388.984 141.297 388.984 130.818C388.984 120.34 367.184 111.846 340.292 111.846C313.4 111.846 291.6 120.34 291.6 130.818C291.6 141.297 313.4 149.791 340.292 149.791Z" fill="#FFC400"/>
<path d="M343.876 128.43C336.446 127.236 335.119 126.573 335.119 125.644C335.119 124.715 336.711 123.786 341.488 123.786C346.397 123.786 349.316 124.45 350.642 124.715C351.306 124.848 351.969 124.848 352.632 124.848C353.296 124.715 353.827 124.582 354.092 124.317L356.215 122.194C356.613 121.796 356.215 121.265 355.153 121C352.367 120.337 349.183 119.939 345.601 119.806V117.551C345.601 117.02 344.539 116.622 343.212 116.622H338.038C336.711 116.622 335.65 117.02 335.65 117.551V120.071C327.955 120.867 323.178 123.123 323.178 126.042C323.178 129.624 330.874 131.349 338.303 132.41C345.203 133.472 346.131 134.4 346.131 135.329C346.131 136.656 343.212 137.585 338.701 137.585C334.987 137.585 331.139 137.187 328.22 136.391C327.557 136.258 326.761 136.125 326.097 136.258C325.434 136.391 324.771 136.523 324.505 136.789L322.515 138.911C322.117 139.309 322.515 139.707 323.444 139.973C326.23 140.769 330.608 141.3 335.119 141.565V143.953C335.119 144.484 336.181 144.882 337.507 144.882H342.682C344.008 144.882 345.07 144.484 345.07 143.953V141.432C352.898 140.636 358.072 138.248 358.072 135.196C358.205 131.216 350.642 129.491 343.876 128.43Z" fill="#EBAD2A"/>
<path opacity="0.2" d="M341.089 136.523C365.855 136.523 385.933 134.623 385.933 132.278C385.933 129.933 365.855 128.032 341.089 128.032C316.322 128.032 296.244 129.933 296.244 132.278C296.244 134.623 316.322 136.523 341.089 136.523Z" fill="black"/>
<path d="M410.21 251.288V265.351L407.822 258.32L410.21 251.288Z" fill="#EBAD2A"/>
<path d="M270.635 251.288V265.351L273.023 258.32L270.635 251.288Z" fill="#EBAD2A"/>
<path d="M340.422 292.418C378.965 292.418 410.21 280.3 410.21 265.352C410.21 250.404 378.965 238.286 340.422 238.286C301.88 238.286 270.635 250.404 270.635 265.352C270.635 280.3 301.88 292.418 340.422 292.418Z" fill="#EBAD2A"/>
<path d="M340.422 278.354C378.965 278.354 410.21 266.236 410.21 251.288C410.21 236.34 378.965 224.222 340.422 224.222C301.88 224.222 270.635 236.34 270.635 251.288C270.635 266.236 301.88 278.354 340.422 278.354Z" fill="#FFC400"/>
<path d="M340.421 273.843C372.442 273.843 398.4 263.745 398.4 251.288C398.4 238.831 372.442 228.733 340.421 228.733C308.4 228.733 282.441 238.831 282.441 251.288C282.441 263.745 308.4 273.843 340.421 273.843Z" fill="#EBAD2A"/>
<path d="M340.421 270.128C367.166 270.128 388.848 261.693 388.848 251.288C388.848 240.883 367.166 232.448 340.421 232.448C313.676 232.448 291.994 240.883 291.994 251.288C291.994 261.693 313.676 270.128 340.421 270.128Z" fill="#FFC400"/>
<path d="M344.003 248.9C336.573 247.706 335.379 247.042 335.379 246.114C335.379 245.185 336.971 244.256 341.615 244.256C346.391 244.256 349.443 244.92 350.77 245.185C351.433 245.318 352.096 245.318 352.76 245.318C353.423 245.185 353.954 245.052 354.219 244.787L356.209 242.664C356.607 242.266 356.209 241.735 355.148 241.47C352.362 240.807 349.177 240.409 345.728 240.276V238.021C345.728 237.49 344.666 237.092 343.34 237.092H338.298C336.971 237.092 335.91 237.49 335.91 238.021V240.541C328.347 241.337 323.571 243.593 323.571 246.379C323.571 249.961 331.134 251.686 338.563 252.748C345.33 253.809 346.259 254.738 346.259 255.666C346.259 256.993 343.34 257.789 338.961 257.789C335.246 257.789 331.532 257.391 328.48 256.595C327.817 256.462 327.021 256.33 326.357 256.462C325.694 256.595 325.03 256.728 324.898 256.993L322.908 259.116C322.51 259.514 322.908 259.912 323.836 260.177C326.623 260.973 331.001 261.504 335.379 261.637V264.025C335.379 264.556 336.441 264.954 337.767 264.954H342.942C344.268 264.954 345.33 264.556 345.33 264.025V261.504C353.158 260.708 358.332 258.32 358.332 255.268C358.199 251.686 350.637 249.961 344.003 248.9Z" fill="#EBAD2A"/>
<path d="M410.21 234.173V248.236L407.822 241.204L410.21 234.173Z" fill="#EBAD2A"/>
<path d="M270.635 234.173V248.236L273.023 241.204L270.635 234.173Z" fill="#EBAD2A"/>
<path d="M340.422 275.302C378.965 275.302 410.21 263.185 410.21 248.237C410.21 233.288 378.965 221.171 340.422 221.171C301.88 221.171 270.635 233.288 270.635 248.237C270.635 263.185 301.88 275.302 340.422 275.302Z" fill="#EBAD2A"/>
<path d="M340.422 261.239C378.965 261.239 410.21 249.121 410.21 234.173C410.21 219.225 378.965 207.107 340.422 207.107C301.88 207.107 270.635 219.225 270.635 234.173C270.635 249.121 301.88 261.239 340.422 261.239Z" fill="#FFC400"/>
<path d="M340.421 256.727C372.442 256.727 398.4 246.629 398.4 234.173C398.4 221.716 372.442 211.618 340.421 211.618C308.4 211.618 282.441 221.716 282.441 234.173C282.441 246.629 308.4 256.727 340.421 256.727Z" fill="#EBAD2A"/>
<path d="M340.421 253.012C367.166 253.012 388.848 244.578 388.848 234.172C388.848 223.767 367.166 215.333 340.421 215.333C313.676 215.333 291.994 223.767 291.994 234.172C291.994 244.578 313.676 253.012 340.421 253.012Z" fill="#FFC400"/>
<path d="M344.003 231.784C336.573 230.59 335.379 229.927 335.379 228.998C335.379 228.07 336.971 227.141 341.615 227.141C346.391 227.141 349.443 227.804 350.77 228.07C351.433 228.202 352.096 228.202 352.76 228.202C353.423 228.07 353.954 227.937 354.219 227.672L356.209 225.549C356.607 225.151 356.209 224.62 355.148 224.355C352.362 223.691 349.177 223.293 345.728 223.161V220.905C345.728 220.374 344.666 219.976 343.34 219.976H338.298C336.971 219.976 335.91 220.374 335.91 220.905V223.426C328.347 224.222 323.571 226.477 323.571 229.264C323.571 232.846 331.134 234.571 338.563 235.632C345.33 236.693 346.259 237.622 346.259 238.551C346.259 239.878 343.34 240.674 338.961 240.674C335.246 240.674 331.532 240.276 328.48 239.48C327.817 239.347 327.021 239.214 326.357 239.347C325.694 239.48 325.03 239.612 324.898 239.878L322.908 242.001C322.51 242.399 322.908 242.797 323.836 243.062C326.623 243.858 331.001 244.389 335.379 244.521V246.91C335.379 247.44 336.441 247.838 337.767 247.838H342.942C344.268 247.838 345.33 247.44 345.33 246.91V244.389C353.158 243.593 358.332 241.204 358.332 238.153C358.199 234.571 350.637 232.846 344.003 231.784Z" fill="#EBAD2A"/>
<path d="M410.21 216.527V230.59L407.822 223.558L410.21 216.527Z" fill="#EBAD2A"/>
<path d="M270.635 216.527V230.59L273.023 223.558L270.635 216.527Z" fill="#EBAD2A"/>
<path d="M340.422 257.656C378.965 257.656 410.21 245.539 410.21 230.591C410.21 215.642 378.965 203.525 340.422 203.525C301.88 203.525 270.635 215.642 270.635 230.591C270.635 245.539 301.88 257.656 340.422 257.656Z" fill="#EBAD2A"/>
<path d="M340.422 243.593C378.965 243.593 410.21 231.475 410.21 216.527C410.21 201.579 378.965 189.461 340.422 189.461C301.88 189.461 270.635 201.579 270.635 216.527C270.635 231.475 301.88 243.593 340.422 243.593Z" fill="#FFC400"/>
<path d="M340.421 239.081C372.442 239.081 398.4 228.983 398.4 216.527C398.4 204.07 372.442 193.972 340.421 193.972C308.4 193.972 282.441 204.07 282.441 216.527C282.441 228.983 308.4 239.081 340.421 239.081Z" fill="#EBAD2A"/>
<path d="M340.421 235.366C367.166 235.366 388.848 226.932 388.848 216.526C388.848 206.121 367.166 197.687 340.421 197.687C313.676 197.687 291.994 206.121 291.994 216.526C291.994 226.932 313.676 235.366 340.421 235.366Z" fill="#FFC400"/>
<path d="M344.003 214.138C336.573 212.944 335.379 212.281 335.379 211.352C335.379 210.424 336.971 209.495 341.615 209.495C346.391 209.495 349.443 210.158 350.77 210.424C351.433 210.556 352.096 210.556 352.76 210.556C353.423 210.424 353.954 210.291 354.219 210.026L356.209 207.903C356.607 207.505 356.209 206.974 355.148 206.709C352.362 206.045 349.177 205.647 345.728 205.515V203.259C345.728 202.728 344.666 202.33 343.34 202.33H338.298C336.971 202.33 335.91 202.728 335.91 203.259V205.78C328.347 206.576 323.571 208.831 323.571 211.618C323.571 215.2 331.134 216.925 338.563 217.986C345.33 219.047 346.259 219.976 346.259 220.905C346.259 222.232 343.34 223.028 338.961 223.028C335.246 223.028 331.532 222.63 328.48 221.834C327.817 221.701 327.021 221.568 326.357 221.701C325.694 221.834 325.03 221.966 324.898 222.232L322.908 224.355C322.51 224.753 322.908 225.151 323.836 225.416C326.623 226.212 331.001 226.743 335.379 226.875V229.264C335.379 229.794 336.441 230.192 337.767 230.192H342.942C344.268 230.192 345.33 229.794 345.33 229.264V226.743C353.158 225.947 358.332 223.558 358.332 220.507C358.199 216.925 350.637 215.2 344.003 214.138Z" fill="#EBAD2A"/>
<path d="M410.21 199.411V213.342L407.822 206.311L410.21 199.411Z" fill="#EBAD2A"/>
<path d="M270.635 199.411V213.342L273.023 206.311L270.635 199.411Z" fill="#EBAD2A"/>
<path d="M340.422 240.409C378.965 240.409 410.21 228.291 410.21 213.343C410.21 198.395 378.965 186.277 340.422 186.277C301.88 186.277 270.635 198.395 270.635 213.343C270.635 228.291 301.88 240.409 340.422 240.409Z" fill="#EBAD2A"/>
<path d="M340.422 226.477C378.965 226.477 410.21 214.36 410.21 199.412C410.21 184.464 378.965 172.346 340.422 172.346C301.88 172.346 270.635 184.464 270.635 199.412C270.635 214.36 301.88 226.477 340.422 226.477Z" fill="#FFC400"/>
<path d="M340.421 181.368C368.813 181.368 392.43 189.063 398.4 199.412V199.279C398.4 186.807 372.396 176.724 340.421 176.724C308.446 176.724 282.441 186.807 282.441 199.279V199.412C288.412 189.196 312.161 181.368 340.421 181.368Z" fill="#EBAD2A"/>
<path d="M340.421 221.834C372.396 221.834 398.267 211.751 398.4 199.412C392.43 189.063 368.813 181.368 340.421 181.368C312.028 181.368 288.412 189.063 282.441 199.412C282.574 211.883 308.579 221.834 340.421 221.834Z" fill="#FFC400"/>
<path d="M344.003 199.146C336.573 197.952 335.379 197.289 335.379 196.36C335.379 195.431 336.971 194.503 341.615 194.503C346.391 194.503 349.443 195.166 350.77 195.431C351.433 195.564 352.096 195.564 352.76 195.564C353.423 195.431 353.954 195.299 354.219 195.033L356.209 192.91C356.607 192.512 356.209 191.982 355.148 191.716C352.362 191.053 349.177 190.655 345.728 190.522V188.399C345.728 187.869 344.666 187.471 343.34 187.471H338.298C336.971 187.471 335.91 187.869 335.91 188.399V190.92C328.347 191.716 323.571 193.972 323.571 196.758C323.571 200.34 331.134 202.065 338.563 203.126C345.33 204.188 346.259 205.117 346.259 206.045C346.259 207.372 343.34 208.168 338.961 208.168C335.246 208.168 331.532 207.77 328.48 206.974C327.817 206.841 327.021 206.709 326.357 206.841C325.694 206.974 325.03 207.107 324.898 207.372L322.908 209.495C322.51 209.893 322.908 210.291 323.836 210.556C326.623 211.352 331.001 211.883 335.379 212.016V214.404C335.379 214.935 336.441 215.333 337.767 215.333H342.942C344.268 215.333 345.33 214.935 345.33 214.404V211.883C353.158 211.087 358.332 208.699 358.332 205.647C358.199 201.932 350.637 200.208 344.003 199.146Z" fill="#EBAD2A"/>
<path d="M344.003 197.023C336.573 195.829 335.379 195.166 335.379 194.237C335.379 193.309 336.971 192.38 341.615 192.38C346.391 192.38 349.443 193.043 350.77 193.309C351.433 193.441 352.096 193.441 352.76 193.441C353.423 193.309 353.954 193.176 354.219 192.911L356.209 190.788C356.607 190.39 356.209 189.859 355.148 189.594C352.362 188.93 349.177 188.532 345.728 188.4V186.144C345.728 185.613 344.666 185.215 343.34 185.215H338.298C336.971 185.215 335.91 185.613 335.91 186.144V188.665C328.347 189.461 323.571 191.716 323.571 194.503C323.571 198.085 331.134 199.81 338.563 200.871C345.33 201.932 346.259 202.861 346.259 203.79C346.259 205.117 343.34 205.913 338.961 205.913C335.246 205.913 331.532 205.515 328.48 204.719C327.817 204.586 327.021 204.453 326.357 204.586C325.694 204.719 325.03 204.851 324.898 205.117L322.908 207.24C322.51 207.638 322.908 208.036 323.836 208.301C326.623 209.097 331.001 209.628 335.379 209.76V212.149C335.379 212.679 336.441 213.077 337.767 213.077H342.942C344.268 213.077 345.33 212.679 345.33 212.149V209.628C353.158 208.832 358.332 206.443 358.332 203.392C358.199 199.81 350.637 198.085 344.003 197.023Z" fill="#FFDB61"/>
<path d="M410.21 182.429V196.493L407.822 189.461L410.21 182.429Z" fill="#EBAD2A"/>
<path d="M270.635 182.429V196.493L273.023 189.461L270.635 182.429Z" fill="#EBAD2A"/>
<path d="M340.422 223.559C378.965 223.559 410.21 211.441 410.21 196.493C410.21 181.545 378.965 169.427 340.422 169.427C301.88 169.427 270.635 181.545 270.635 196.493C270.635 211.441 301.88 223.559 340.422 223.559Z" fill="#EBAD2A"/>
<path d="M340.422 209.495C378.965 209.495 410.21 197.377 410.21 182.429C410.21 167.481 378.965 155.364 340.422 155.364C301.88 155.364 270.635 167.481 270.635 182.429C270.635 197.377 301.88 209.495 340.422 209.495Z" fill="#FFC400"/>
<path d="M340.421 204.984C372.442 204.984 398.4 194.886 398.4 182.429C398.4 169.973 372.442 159.875 340.421 159.875C308.4 159.875 282.441 169.973 282.441 182.429C282.441 194.886 308.4 204.984 340.421 204.984Z" fill="#EBAD2A"/>
<path d="M340.421 201.269C367.166 201.269 388.848 192.834 388.848 182.429C388.848 172.024 367.166 163.589 340.421 163.589C313.676 163.589 291.994 172.024 291.994 182.429C291.994 192.834 313.676 201.269 340.421 201.269Z" fill="#FFC400"/>
<path d="M344.003 180.041C336.573 178.847 335.379 178.184 335.379 177.255C335.379 176.326 336.971 175.398 341.615 175.398C346.391 175.398 349.443 176.061 350.77 176.326C351.433 176.459 352.096 176.459 352.76 176.459C353.423 176.326 353.954 176.194 354.219 175.928L356.209 173.806C356.607 173.408 356.209 172.877 355.148 172.611C352.362 171.948 349.177 171.55 345.728 171.417V169.162C345.728 168.631 344.666 168.233 343.34 168.233H338.298C336.971 168.233 335.91 168.631 335.91 169.162V171.683C328.347 172.479 323.571 174.734 323.571 177.52C323.571 181.103 331.134 182.828 338.563 183.889C345.33 184.95 346.259 185.879 346.259 186.808C346.259 188.135 343.34 188.931 338.961 188.931C335.246 188.931 331.532 188.533 328.48 187.737C327.817 187.604 327.021 187.471 326.357 187.604C325.694 187.736 325.03 187.869 324.898 188.135L322.908 190.257C322.51 190.655 322.908 191.053 323.836 191.319C326.623 192.115 331.001 192.646 335.379 192.778V195.166C335.379 195.697 336.441 196.095 337.767 196.095H342.942C344.268 196.095 345.33 195.697 345.33 195.166V192.646C353.158 191.849 358.332 189.461 358.332 186.41C358.199 182.827 350.637 181.103 344.003 180.041Z" fill="#EBAD2A"/>
<path d="M410.21 165.314V179.378L407.822 172.346L410.21 165.314Z" fill="#EBAD2A"/>
<path d="M270.635 165.314V179.378L273.023 172.346L270.635 165.314Z" fill="#EBAD2A"/>
<path d="M340.422 206.444C378.965 206.444 410.21 194.326 410.21 179.378C410.21 164.43 378.965 152.312 340.422 152.312C301.88 152.312 270.635 164.43 270.635 179.378C270.635 194.326 301.88 206.444 340.422 206.444Z" fill="#EBAD2A"/>
<path d="M340.422 192.38C378.965 192.38 410.21 180.262 410.21 165.314C410.21 150.366 378.965 138.248 340.422 138.248C301.88 138.248 270.635 150.366 270.635 165.314C270.635 180.262 301.88 192.38 340.422 192.38Z" fill="#FFC400"/>
<path d="M340.421 187.869C372.442 187.869 398.4 177.771 398.4 165.314C398.4 152.857 372.442 142.759 340.421 142.759C308.4 142.759 282.441 152.857 282.441 165.314C282.441 177.771 308.4 187.869 340.421 187.869Z" fill="#EBAD2A"/>
<path d="M340.421 184.154C367.166 184.154 388.848 175.719 388.848 165.314C388.848 154.909 367.166 146.474 340.421 146.474C313.676 146.474 291.994 154.909 291.994 165.314C291.994 175.719 313.676 184.154 340.421 184.154Z" fill="#FFC400"/>
<path d="M344.003 162.926C336.573 161.732 335.379 161.068 335.379 160.14C335.379 159.211 336.971 158.282 341.615 158.282C346.391 158.282 349.443 158.946 350.77 159.211C351.433 159.344 352.096 159.344 352.76 159.344C353.423 159.211 353.954 159.078 354.219 158.813L356.209 156.69C356.607 156.292 356.209 155.761 355.148 155.496C352.362 154.833 349.177 154.435 345.728 154.302V152.046C345.728 151.516 344.666 151.118 343.34 151.118H338.298C336.971 151.118 335.91 151.516 335.91 152.046V154.567C328.347 155.363 323.571 157.619 323.571 160.405C323.571 163.987 331.134 165.712 338.563 166.773C345.33 167.835 346.259 168.764 346.259 169.692C346.259 171.019 343.34 171.815 338.961 171.815C335.246 171.815 331.532 171.417 328.48 170.621C327.817 170.488 327.021 170.356 326.357 170.488C325.694 170.621 325.03 170.754 324.898 171.019L322.908 173.142C322.51 173.54 322.908 173.938 323.836 174.203C326.623 174.999 331.001 175.53 335.379 175.663V178.051C335.379 178.582 336.441 178.98 337.767 178.98H342.942C344.268 178.98 345.33 178.582 345.33 178.051V175.53C353.158 174.734 358.332 172.346 358.332 169.294C358.199 165.712 350.637 163.987 344.003 162.926Z" fill="#EBAD2A"/>
<path d="M410.21 147.668V161.731L407.822 154.7L410.21 147.668Z" fill="#EBAD2A"/>
<path d="M270.635 147.668V161.731L273.023 154.7L270.635 147.668Z" fill="#EBAD2A"/>
<path d="M340.422 188.798C378.965 188.798 410.21 176.68 410.21 161.732C410.21 146.784 378.965 134.666 340.422 134.666C301.88 134.666 270.635 146.784 270.635 161.732C270.635 176.68 301.88 188.798 340.422 188.798Z" fill="#EBAD2A"/>
<path d="M340.422 174.734C378.965 174.734 410.21 162.616 410.21 147.668C410.21 132.72 378.965 120.602 340.422 120.602C301.88 120.602 270.635 132.72 270.635 147.668C270.635 162.616 301.88 174.734 340.422 174.734Z" fill="#FFC400"/>
<path d="M340.421 170.223C372.442 170.223 398.4 160.124 398.4 147.668C398.4 135.211 372.442 125.113 340.421 125.113C308.4 125.113 282.441 135.211 282.441 147.668C282.441 160.124 308.4 170.223 340.421 170.223Z" fill="#EBAD2A"/>
<path d="M340.421 166.508C367.166 166.508 388.848 158.073 388.848 147.668C388.848 137.263 367.166 128.828 340.421 128.828C313.676 128.828 291.994 137.263 291.994 147.668C291.994 158.073 313.676 166.508 340.421 166.508Z" fill="#FFC400"/>
<path d="M344.003 145.28C336.573 144.086 335.379 143.422 335.379 142.493C335.379 141.565 336.971 140.636 341.615 140.636C346.391 140.636 349.443 141.299 350.77 141.565C351.433 141.697 352.096 141.697 352.76 141.697C353.423 141.565 353.954 141.432 354.219 141.167L356.209 139.044C356.607 138.646 356.209 138.115 355.148 137.85C352.362 137.186 349.177 136.788 345.728 136.656V134.4C345.728 133.869 344.666 133.471 343.34 133.471H338.298C336.971 133.471 335.91 133.869 335.91 134.4V136.921C328.347 137.717 323.571 139.973 323.571 142.759C323.571 146.341 331.134 148.066 338.563 149.127C345.33 150.189 346.259 151.117 346.259 152.046C346.259 153.373 343.34 154.169 338.961 154.169C335.246 154.169 331.532 153.771 328.48 152.975C327.817 152.842 327.021 152.709 326.357 152.842C325.694 152.975 325.03 153.107 324.898 153.373L322.908 155.496C322.51 155.894 322.908 156.292 323.836 156.557C326.623 157.353 331.001 157.884 335.379 158.016V160.405C335.379 160.935 336.441 161.333 337.767 161.333H342.942C344.268 161.333 345.33 160.935 345.33 160.405V157.884C353.158 157.088 358.332 154.7 358.332 151.648C358.199 148.066 350.637 146.341 344.003 145.28Z" fill="#EBAD2A"/>
<path d="M410.21 130.553V144.484L407.822 137.452L410.21 130.553Z" fill="#EBAD2A"/>
<path d="M270.635 130.553V144.484L273.023 137.452L270.635 130.553Z" fill="#EBAD2A"/>
<path d="M340.422 171.55C378.965 171.55 410.21 159.432 410.21 144.484C410.21 129.536 378.965 117.418 340.422 117.418C301.88 117.418 270.635 129.536 270.635 144.484C270.635 159.432 301.88 171.55 340.422 171.55Z" fill="#EBAD2A"/>
<path d="M340.422 157.619C378.965 157.619 410.21 145.501 410.21 130.553C410.21 115.605 378.965 103.487 340.422 103.487C301.88 103.487 270.635 115.605 270.635 130.553C270.635 145.501 301.88 157.619 340.422 157.619Z" fill="#FFDB61"/>
<path d="M340.421 112.509C368.813 112.509 392.43 120.204 398.4 130.553V130.42C398.4 117.949 372.396 107.865 340.421 107.865C308.446 107.865 282.441 117.949 282.441 130.42V130.553C288.412 120.337 312.161 112.509 340.421 112.509Z" fill="#EBAD2A"/>
<path d="M340.421 152.975C372.396 152.975 398.267 142.892 398.4 130.553C392.43 120.204 368.813 112.509 340.421 112.509C312.028 112.509 288.412 120.204 282.441 130.553C282.574 143.025 308.579 152.975 340.421 152.975Z" fill="#FFC400"/>
<path d="M344.003 130.288C336.573 129.094 335.379 128.43 335.379 127.501C335.379 126.573 336.971 125.644 341.615 125.644C346.391 125.644 349.443 126.307 350.77 126.573C351.433 126.705 352.096 126.705 352.76 126.705C353.423 126.573 353.954 126.44 354.219 126.175L356.209 124.052C356.607 123.654 356.209 123.123 355.148 122.858C352.362 122.194 349.177 121.796 345.728 121.664V119.408C345.728 118.878 344.666 118.479 343.34 118.479H338.298C336.971 118.479 335.91 118.878 335.91 119.408V122.062C328.347 122.858 323.571 125.113 323.571 127.899C323.571 131.482 331.134 133.207 338.563 134.268C345.33 135.329 346.259 136.258 346.259 137.187C346.259 138.514 343.34 139.31 338.961 139.31C335.246 139.31 331.532 138.912 328.48 138.116C327.817 137.983 327.021 137.85 326.357 137.983C325.694 138.116 325.03 138.248 324.898 138.514L322.908 140.636C322.51 141.034 322.908 141.432 323.836 141.698C326.623 142.494 331.001 143.025 335.379 143.157V145.545C335.379 146.076 336.441 146.474 337.767 146.474H342.942C344.268 146.474 345.33 146.076 345.33 145.545V143.025C353.158 142.228 358.332 139.84 358.332 136.789C358.199 133.074 350.637 131.349 344.003 130.288Z" fill="#EBAD2A"/>
<path d="M344.003 128.165C336.573 126.971 335.379 126.307 335.379 125.379C335.379 124.45 336.971 123.521 341.615 123.521C346.391 123.521 349.443 124.185 350.77 124.45C351.433 124.583 352.096 124.583 352.76 124.583C353.423 124.45 353.954 124.317 354.219 124.052L356.209 121.929C356.607 121.531 356.209 121 355.148 120.735C352.362 120.072 349.177 119.674 345.728 119.541V117.285C345.728 116.755 344.666 116.357 343.34 116.357H338.298C336.971 116.357 335.91 116.755 335.91 117.285V119.806C328.347 120.602 323.571 122.858 323.571 125.644C323.571 129.226 331.134 130.951 338.563 132.012C345.33 133.074 346.259 134.003 346.259 134.931C346.259 136.258 343.34 137.054 338.961 137.054C335.246 137.054 331.532 136.656 328.48 135.86C327.817 135.727 327.021 135.595 326.357 135.727C325.694 135.86 325.03 135.993 324.898 136.258L322.908 138.381C322.51 138.779 322.908 139.177 323.836 139.442C326.623 140.238 331.001 140.769 335.379 140.902V143.29C335.379 143.821 336.441 144.219 337.767 144.219H342.942C344.268 144.219 345.33 143.821 345.33 143.29V140.769C353.158 139.973 358.332 137.585 358.332 134.533C358.199 130.951 350.637 129.226 344.003 128.165Z" fill="#FFDB61"/>
<path d="M479.998 306.481V320.412L477.609 313.38L479.998 306.481Z" fill="#EBAD2A"/>
<path d="M340.42 306.481V320.412L342.675 313.38L340.42 306.481Z" fill="#EBAD2A"/>
<path d="M410.207 347.478C448.75 347.478 479.995 335.36 479.995 320.412C479.995 305.464 448.75 293.346 410.207 293.346C371.665 293.346 340.42 305.464 340.42 320.412C340.42 335.36 371.665 347.478 410.207 347.478Z" fill="#EBAD2A"/>
<path d="M410.207 333.547C448.75 333.547 479.995 321.429 479.995 306.481C479.995 291.533 448.75 279.415 410.207 279.415C371.665 279.415 340.42 291.533 340.42 306.481C340.42 321.429 371.665 333.547 410.207 333.547Z" fill="#FFC400"/>
<path d="M410.208 329.036C442.229 329.036 468.187 318.938 468.187 306.481C468.187 294.024 442.229 283.926 410.208 283.926C378.187 283.926 352.229 294.024 352.229 306.481C352.229 318.938 378.187 329.036 410.208 329.036Z" fill="#EBAD2A"/>
<path d="M410.208 325.321C436.953 325.321 458.635 316.886 458.635 306.481C458.635 296.076 436.953 287.641 410.208 287.641C383.463 287.641 361.781 296.076 361.781 306.481C361.781 316.886 383.463 325.321 410.208 325.321Z" fill="#FFC400"/>
<path d="M413.657 304.093C406.227 302.899 405.033 302.235 405.033 301.307C405.033 300.378 406.626 299.449 411.269 299.449C416.046 299.449 419.097 300.113 420.424 300.378C421.087 300.511 421.751 300.511 422.414 300.511C423.077 300.378 423.608 300.245 423.873 299.98L425.864 297.857C426.262 297.459 425.864 296.928 424.802 296.663C422.016 296 418.832 295.602 415.382 295.469V293.213C415.382 292.683 414.321 292.285 412.994 292.285H407.952C406.626 292.285 405.564 292.683 405.564 293.213V295.734C398.002 296.53 393.225 298.786 393.225 301.572C393.225 305.154 400.788 306.879 408.218 307.94C414.984 309.002 415.913 309.931 415.913 310.859C415.913 312.186 412.994 312.982 408.616 312.982C404.901 312.982 401.186 312.584 398.134 311.788C397.471 311.655 396.675 311.523 396.011 311.655C395.348 311.788 394.685 311.921 394.552 312.186L392.562 314.309C392.164 314.707 392.562 315.105 393.491 315.37C396.277 316.166 400.655 316.697 405.033 316.83V319.218C405.033 319.749 406.095 320.147 407.422 320.147H412.596C413.923 320.147 414.984 319.749 414.984 319.218V316.697C422.812 315.901 427.986 313.513 427.986 310.461C427.986 306.879 420.291 305.154 413.657 304.093Z" fill="#EBAD2A"/>
<path d="M479.998 289.233V303.297L477.609 296.265L479.998 289.233Z" fill="#EBAD2A"/>
<path d="M340.42 289.233V303.297L342.675 296.265L340.42 289.233Z" fill="#EBAD2A"/>
<path d="M410.207 330.363C448.75 330.363 479.995 318.245 479.995 303.297C479.995 288.349 448.75 276.231 410.207 276.231C371.665 276.231 340.42 288.349 340.42 303.297C340.42 318.245 371.665 330.363 410.207 330.363Z" fill="#EBAD2A"/>
<path d="M410.207 316.299C448.75 316.299 479.995 304.181 479.995 289.233C479.995 274.285 448.75 262.167 410.207 262.167C371.665 262.167 340.42 274.285 340.42 289.233C340.42 304.181 371.665 316.299 410.207 316.299Z" fill="#FFC400"/>
<path d="M410.208 311.788C442.229 311.788 468.187 301.69 468.187 289.233C468.187 276.776 442.229 266.678 410.208 266.678C378.187 266.678 352.229 276.776 352.229 289.233C352.229 301.69 378.187 311.788 410.208 311.788Z" fill="#EBAD2A"/>
<path d="M410.208 308.073C436.953 308.073 458.635 299.638 458.635 289.233C458.635 278.828 436.953 270.393 410.208 270.393C383.463 270.393 361.781 278.828 361.781 289.233C361.781 299.638 383.463 308.073 410.208 308.073Z" fill="#FFC400"/>
<path d="M413.657 286.845C406.227 285.651 405.033 284.987 405.033 284.059C405.033 283.13 406.626 282.201 411.269 282.201C416.046 282.201 419.097 282.864 420.424 283.13C421.087 283.263 421.751 283.263 422.414 283.263C423.077 283.13 423.608 282.997 423.873 282.732L425.864 280.609C426.262 280.211 425.864 279.68 424.802 279.415C422.016 278.752 418.832 278.354 415.382 278.221V275.965C415.382 275.435 414.321 275.037 412.994 275.037H407.952C406.626 275.037 405.564 275.435 405.564 275.965V278.486C398.002 279.282 393.225 281.538 393.225 284.324C393.225 287.906 400.788 289.631 408.218 290.692C414.984 291.754 415.913 292.683 415.913 293.611C415.913 294.938 412.994 295.734 408.616 295.734C404.901 295.734 401.186 295.336 398.134 294.54C397.471 294.407 396.675 294.275 396.011 294.407C395.348 294.54 394.685 294.673 394.552 294.938L392.562 297.061C392.164 297.459 392.562 297.857 393.491 298.122C396.277 298.918 400.655 299.449 405.033 299.582V301.97C405.033 302.501 406.095 302.899 407.422 302.899H412.596C413.923 302.899 414.984 302.501 414.984 301.97V299.847C422.812 299.051 427.986 296.663 427.986 293.611C427.986 289.631 420.291 287.906 413.657 286.845Z" fill="#EBAD2A"/>
<path d="M479.998 271.587V285.651L477.609 278.619L479.998 271.587Z" fill="#EBAD2A"/>
<path d="M340.42 271.587V285.651L342.675 278.619L340.42 271.587Z" fill="#EBAD2A"/>
<path d="M410.207 312.717C448.75 312.717 479.995 300.599 479.995 285.651C479.995 270.703 448.75 258.585 410.207 258.585C371.665 258.585 340.42 270.703 340.42 285.651C340.42 300.599 371.665 312.717 410.207 312.717Z" fill="#EBAD2A"/>
<path d="M410.207 298.653C448.75 298.653 479.995 286.535 479.995 271.587C479.995 256.639 448.75 244.521 410.207 244.521C371.665 244.521 340.42 256.639 340.42 271.587C340.42 286.535 371.665 298.653 410.207 298.653Z" fill="#FFC400"/>
<path d="M410.208 294.142C442.229 294.142 468.187 284.044 468.187 271.587C468.187 259.13 442.229 249.032 410.208 249.032C378.187 249.032 352.229 259.13 352.229 271.587C352.229 284.044 378.187 294.142 410.208 294.142Z" fill="#EBAD2A"/>
<path d="M410.208 290.427C436.953 290.427 458.635 281.992 458.635 271.587C458.635 261.182 436.953 252.747 410.208 252.747C383.463 252.747 361.781 261.182 361.781 271.587C361.781 281.992 383.463 290.427 410.208 290.427Z" fill="#FFC400"/>
<path d="M413.657 269.199C406.227 268.005 405.033 267.342 405.033 266.413C405.033 265.484 406.626 264.555 411.269 264.555C416.046 264.555 419.097 265.219 420.424 265.484C421.087 265.617 421.751 265.617 422.414 265.617C423.077 265.484 423.608 265.351 423.873 265.086L425.864 262.963C426.262 262.565 425.864 262.035 424.802 261.769C422.016 261.106 418.832 260.708 415.382 260.575V258.32C415.382 257.789 414.321 257.391 412.994 257.391H407.952C406.626 257.391 405.564 257.789 405.564 258.32V260.84C398.002 261.637 393.225 263.892 393.225 266.678C393.225 270.26 400.788 271.985 408.218 273.047C414.984 274.108 415.913 275.037 415.913 275.965C415.913 277.292 412.994 278.088 408.616 278.088C404.901 278.088 401.186 277.69 398.134 276.894C397.471 276.762 396.675 276.629 396.011 276.762C395.348 276.894 394.685 277.027 394.552 277.292L392.562 279.415C392.164 279.813 392.562 280.211 393.491 280.476C396.277 281.273 400.655 281.803 405.033 281.936V284.324C405.033 284.855 406.095 285.253 407.422 285.253H412.596C413.923 285.253 414.984 284.855 414.984 284.324V281.803C422.812 281.007 427.986 278.619 427.986 275.567C427.986 271.985 420.291 270.26 413.657 269.199Z" fill="#EBAD2A"/>
<path d="M479.998 254.472V268.536L477.609 261.504L479.998 254.472Z" fill="#EBAD2A"/>
<path d="M340.42 254.472V268.536L342.675 261.504L340.42 254.472Z" fill="#EBAD2A"/>
<path d="M410.207 295.602C448.75 295.602 479.995 283.484 479.995 268.536C479.995 253.588 448.75 241.47 410.207 241.47C371.665 241.47 340.42 253.588 340.42 268.536C340.42 283.484 371.665 295.602 410.207 295.602Z" fill="#EBAD2A"/>
<path d="M410.207 281.538C448.75 281.538 479.995 269.42 479.995 254.472C479.995 239.524 448.75 227.406 410.207 227.406C371.665 227.406 340.42 239.524 340.42 254.472C340.42 269.42 371.665 281.538 410.207 281.538Z" fill="#FFC400"/>
<path d="M410.208 236.561C438.601 236.561 462.217 244.256 468.187 254.605V254.472C468.187 242.001 442.183 231.917 410.208 231.917C378.233 231.917 352.229 242.001 352.229 254.472V254.605C358.066 244.256 381.815 236.561 410.208 236.561Z" fill="#EBAD2A"/>
<path d="M410.208 277.027C442.183 277.027 468.055 266.944 468.187 254.605C462.217 244.256 438.601 236.561 410.208 236.561C381.815 236.561 358.199 244.256 352.229 254.605C352.361 266.944 378.233 277.027 410.208 277.027Z" fill="#FFC400"/>
<path d="M413.657 254.34C406.227 253.146 405.033 252.482 405.033 251.553C405.033 250.625 406.626 249.696 411.269 249.696C416.046 249.696 419.097 250.359 420.424 250.625C421.087 250.757 421.751 250.757 422.414 250.757C423.077 250.625 423.608 250.492 423.873 250.227L425.864 248.104C426.262 247.706 425.864 247.175 424.802 246.91C422.016 246.246 418.832 245.848 415.382 245.716V243.46C415.382 242.93 414.321 242.531 412.994 242.531H407.952C406.626 242.531 405.564 242.93 405.564 243.46V245.981C398.002 246.777 393.225 249.033 393.225 251.819C393.225 255.401 400.788 257.126 408.218 258.187C414.984 259.249 415.913 260.177 415.913 261.106C415.913 262.433 412.994 263.229 408.616 263.229C404.901 263.229 401.186 262.831 398.134 262.035C397.471 261.902 396.675 261.769 396.011 261.902C395.348 262.035 394.685 262.168 394.552 262.433L392.562 264.556C392.164 264.954 392.562 265.352 393.491 265.617C396.277 266.413 400.655 266.944 405.033 267.077V269.465C405.033 269.995 406.095 270.393 407.422 270.393H412.596C413.923 270.393 414.984 269.995 414.984 269.465V266.944C422.812 266.148 427.986 263.76 427.986 260.708C427.986 256.993 420.291 255.268 413.657 254.34Z" fill="#EBAD2A"/>
<path d="M413.657 252.084C406.227 250.89 405.033 250.227 405.033 249.298C405.033 248.369 406.626 247.441 411.269 247.441C416.046 247.441 419.097 248.104 420.424 248.369C421.087 248.502 421.751 248.502 422.414 248.502C423.077 248.369 423.608 248.237 423.873 247.971L425.864 245.849C426.262 245.45 425.864 244.92 424.802 244.654C422.016 243.991 418.832 243.593 415.382 243.46V241.205C415.382 240.674 414.321 240.276 412.994 240.276H407.952C406.626 240.276 405.564 240.674 405.564 241.205V243.726C398.002 244.522 393.225 246.777 393.225 249.563C393.225 253.146 400.788 254.87 408.218 255.932C414.984 256.993 415.913 257.922 415.913 258.851C415.913 260.178 412.994 260.974 408.616 260.974C404.901 260.974 401.186 260.576 398.134 259.779C397.471 259.647 396.675 259.514 396.011 259.647C395.348 259.779 394.685 259.912 394.552 260.178L392.562 262.3C392.164 262.698 392.562 263.096 393.491 263.362C396.277 264.158 400.655 264.688 405.033 264.821V267.209C405.033 267.74 406.095 268.138 407.422 268.138H412.596C413.923 268.138 414.984 267.74 414.984 267.209V264.688C422.812 263.892 427.986 261.504 427.986 258.453C427.986 254.87 420.291 253.146 413.657 252.084Z" fill="#FFDB61"/>
<path d="M479.998 237.623V251.554L477.609 244.522L479.998 237.623Z" fill="#EBAD2A"/>
<path d="M340.42 237.623V251.554L342.675 244.522L340.42 237.623Z" fill="#EBAD2A"/>
<path d="M410.207 278.62C448.75 278.62 479.995 266.502 479.995 251.554C479.995 236.606 448.75 224.488 410.207 224.488C371.665 224.488 340.42 236.606 340.42 251.554C340.42 266.502 371.665 278.62 410.207 278.62Z" fill="#EBAD2A"/>
<path d="M410.207 264.688C448.75 264.688 479.995 252.571 479.995 237.623C479.995 222.674 448.75 210.557 410.207 210.557C371.665 210.557 340.42 222.674 340.42 237.623C340.42 252.571 371.665 264.688 410.207 264.688Z" fill="#FFC400"/>
<path d="M410.208 260.177C442.229 260.177 468.187 250.079 468.187 237.623C468.187 225.166 442.229 215.068 410.208 215.068C378.187 215.068 352.229 225.166 352.229 237.623C352.229 250.079 378.187 260.177 410.208 260.177Z" fill="#EBAD2A"/>
<path d="M410.208 256.463C436.953 256.463 458.635 248.028 458.635 237.623C458.635 227.218 436.953 218.783 410.208 218.783C383.463 218.783 361.781 227.218 361.781 237.623C361.781 248.028 383.463 256.463 410.208 256.463Z" fill="#FFC400"/>
<path d="M413.657 235.234C406.227 234.04 405.033 233.377 405.033 232.448C405.033 231.52 406.626 230.591 411.269 230.591C416.046 230.591 419.097 231.254 420.424 231.52C421.087 231.652 421.751 231.652 422.414 231.652C423.077 231.52 423.608 231.387 423.873 231.121L425.864 228.999C426.262 228.601 425.864 228.07 424.802 227.805C422.016 227.141 418.832 226.743 415.382 226.611V224.355C415.382 223.824 414.321 223.426 412.994 223.426H407.952C406.626 223.426 405.564 223.824 405.564 224.355V226.876C398.002 227.672 393.225 229.927 393.225 232.714C393.225 236.296 400.788 238.021 408.218 239.082C414.984 240.143 415.913 241.072 415.913 242.001C415.913 243.328 412.994 244.124 408.616 244.124C404.901 244.124 401.186 243.726 398.134 242.93C397.471 242.797 396.675 242.664 396.011 242.797C395.348 242.93 394.685 243.062 394.552 243.328L392.562 245.45C392.164 245.849 392.562 246.247 393.491 246.512C396.277 247.308 400.655 247.839 405.033 247.971V250.359C405.033 250.89 406.095 251.288 407.422 251.288H412.596C413.923 251.288 414.984 250.89 414.984 250.359V248.104C422.812 247.308 427.986 244.92 427.986 241.868C427.986 238.021 420.291 236.296 413.657 235.234Z" fill="#EBAD2A"/>
<path d="M480.001 220.375V234.438L477.613 227.406L480.001 220.375Z" fill="#EBAD2A"/>
<path d="M340.424 220.375V234.438L342.679 227.406L340.424 220.375Z" fill="#EBAD2A"/>
<path d="M410.211 261.504C448.754 261.504 479.999 249.387 479.999 234.438C479.999 219.49 448.754 207.373 410.211 207.373C371.669 207.373 340.424 219.49 340.424 234.438C340.424 249.387 371.669 261.504 410.211 261.504Z" fill="#EBAD2A"/>
<path d="M410.211 247.441C448.754 247.441 479.999 235.323 479.999 220.375C479.999 205.427 448.754 193.309 410.211 193.309C371.669 193.309 340.424 205.427 340.424 220.375C340.424 235.323 371.669 247.441 410.211 247.441Z" fill="#FFDB61"/>
<path d="M410.212 202.463C438.604 202.463 462.221 210.158 468.191 220.507V220.374C468.191 207.903 442.187 197.82 410.212 197.82C378.237 197.82 352.232 207.903 352.232 220.374V220.507C358.07 210.158 381.819 202.463 410.212 202.463Z" fill="#EBAD2A"/>
<path d="M410.212 242.93C442.187 242.93 468.058 232.846 468.191 220.507C462.221 210.159 438.604 202.463 410.212 202.463C381.819 202.463 358.203 210.159 352.232 220.507C352.365 232.846 378.237 242.93 410.212 242.93Z" fill="#FFC400"/>
<path d="M413.659 220.109C406.229 218.915 405.035 218.252 405.035 217.323C405.035 216.394 406.627 215.466 411.271 215.466C416.047 215.466 419.099 216.129 420.426 216.394C421.089 216.527 421.753 216.527 422.416 216.527C423.079 216.394 423.61 216.262 423.875 215.996L425.865 213.873C426.264 213.475 425.866 212.945 424.804 212.679C422.018 212.016 418.834 211.618 415.384 211.485V209.23C415.384 208.699 414.323 208.301 412.996 208.301H407.954C406.627 208.301 405.566 208.699 405.566 209.23V211.751C398.004 212.547 393.227 214.802 393.227 217.588C393.227 221.171 400.79 222.895 408.22 223.957C414.986 225.018 415.915 225.947 415.915 226.876C415.915 228.202 412.996 228.998 408.618 228.998C404.903 228.998 401.188 228.6 398.136 227.804C397.473 227.672 396.677 227.539 396.013 227.672C395.35 227.804 394.687 227.937 394.554 228.202L392.564 230.325C392.166 230.723 392.564 231.121 393.493 231.387C396.279 232.183 400.657 232.713 405.035 232.846V235.234C405.035 235.765 406.097 236.163 407.424 236.163H412.598C413.925 236.163 414.986 235.765 414.986 235.234V232.713C422.814 231.917 427.988 229.529 427.988 226.478C427.988 222.895 420.293 221.171 413.659 220.109Z" fill="#EBAD2A"/>
<path d="M413.659 217.986C406.229 216.792 405.035 216.129 405.035 215.2C405.035 214.271 406.627 213.343 411.271 213.343C416.047 213.343 419.099 214.006 420.426 214.271C421.089 214.404 421.753 214.404 422.416 214.404C423.079 214.271 423.61 214.139 423.875 213.873L425.865 211.751C426.264 211.353 425.866 210.822 424.804 210.557C422.018 209.893 418.834 209.495 415.384 209.362V207.107C415.384 206.576 414.323 206.178 412.996 206.178H407.954C406.627 206.178 405.566 206.576 405.566 207.107V209.628C398.004 210.424 393.227 212.679 393.227 215.466C393.227 219.048 400.79 220.773 408.22 221.834C414.986 222.895 415.915 223.824 415.915 224.753C415.915 226.08 412.996 226.876 408.618 226.876C404.903 226.876 401.188 226.478 398.136 225.682C397.473 225.549 396.677 225.416 396.013 225.549C395.35 225.682 394.687 225.814 394.554 226.08L392.564 228.202C392.166 228.6 392.564 228.998 393.493 229.264C396.279 230.06 400.657 230.591 405.035 230.723V233.111C405.035 233.642 406.097 234.04 407.424 234.04H412.598C413.925 234.04 414.986 233.642 414.986 233.111V230.856C422.814 230.06 427.988 227.672 427.988 224.62C427.988 220.773 420.293 219.048 413.659 217.986Z" fill="#FFDB61"/>
<g style="mix-blend-mode:multiply" opacity="0.2">
<path d="M340.293 135.595C365.499 135.595 385.933 132.684 385.933 129.093C385.933 125.503 365.499 122.592 340.293 122.592C315.086 122.592 294.652 125.503 294.652 129.093C294.652 132.684 315.086 135.595 340.293 135.595Z" fill="black"/>
</g>
<path d="M340.293 128.961C375.905 128.961 404.773 100.092 404.773 64.4805C404.773 28.8689 375.905 0 340.293 0C304.681 0 275.812 28.8689 275.812 64.4805C275.812 100.092 304.681 128.961 340.293 128.961Z" fill="#FFDB61"/>
<path d="M340.295 18.4419C367.627 18.4419 389.783 39.9354 391.11 66.8686C391.11 66.0725 391.11 65.2764 391.11 64.4804C391.11 36.3531 368.423 13.6655 340.295 13.6655C312.168 13.6655 289.48 36.3531 289.48 64.4804C289.48 65.2764 289.48 66.0725 289.48 66.8686C290.807 39.9354 313.097 18.4419 340.295 18.4419Z" fill="#EBAD2A"/>
<path d="M340.295 115.295C368.36 115.295 391.11 93.6139 391.11 66.8686C391.11 40.1233 368.36 18.4419 340.295 18.4419C312.231 18.4419 289.48 40.1233 289.48 66.8686C289.48 93.6139 312.231 115.295 340.295 115.295Z" fill="#FFC400"/>
<path d="M343.609 61.6941C336.709 58.9079 335.648 57.3158 335.648 55.0603C335.648 52.9375 337.107 50.8146 341.486 50.8146C345.997 50.8146 348.783 52.4068 349.977 53.0701C350.508 53.3355 351.171 53.4682 351.835 53.2028C352.498 52.9375 352.896 52.5394 353.161 51.8761L355.019 46.8344C355.417 45.773 355.019 44.7116 354.09 44.0482C351.436 42.5887 348.65 41.66 345.333 41.262V35.955C345.333 34.7609 344.272 33.6995 343.078 33.6995H338.302C337.107 33.6995 336.046 34.7609 336.046 35.955V41.7927C329.014 43.6502 324.636 48.9572 324.636 55.8563C324.636 64.4803 331.668 68.3279 338.567 71.1141C344.803 73.6349 345.731 76.0231 345.731 78.0132C345.731 81.0648 342.945 83.1876 338.965 83.1876C335.515 83.1876 332.066 82.1262 329.28 80.2687C328.749 79.8707 327.953 79.738 327.289 80.0033C326.626 80.2687 326.095 80.6667 325.83 81.3301L323.973 86.3718C323.575 87.3005 323.973 88.3619 324.769 88.8926C327.422 90.7501 331.402 92.0768 335.383 92.4749V98.0473C335.383 99.2413 336.444 100.303 337.638 100.303H342.415C343.609 100.303 344.67 99.2413 344.67 98.0473V91.9442C351.967 90.0867 356.611 84.249 356.611 77.2172C356.743 68.3279 349.712 64.2149 343.609 61.6941Z" fill="#EBAD2A"/>
<path d="M343.609 58.9079C336.709 56.1218 335.648 54.5296 335.648 52.2742C335.648 50.1513 337.107 48.0285 341.486 48.0285C345.997 48.0285 348.783 49.6206 349.977 50.284C350.508 50.5494 351.171 50.682 351.835 50.4167C352.498 50.1513 352.896 49.7533 353.161 49.0899L355.019 44.0482C355.417 42.9868 355.019 41.9254 354.09 41.2621C351.436 39.8026 348.65 38.8739 345.333 38.4759V33.1688C345.333 31.9747 344.272 30.9133 343.078 30.9133H338.302C337.107 30.9133 336.046 31.9747 336.046 33.1688V39.0066C329.014 40.864 324.636 46.1711 324.636 53.0702C324.636 61.6941 331.668 65.5417 338.567 68.3279C344.803 70.8488 345.731 73.2369 345.731 75.2271C345.731 78.2786 342.945 80.4014 338.965 80.4014C335.515 80.4014 332.066 79.34 329.28 77.4826C328.749 77.0845 327.953 76.9519 327.289 77.2172C326.626 77.4826 326.095 77.8806 325.83 78.544L323.973 83.5857C323.575 84.5144 323.973 85.5758 324.769 86.1065C327.422 87.964 331.402 89.2907 335.383 89.6887V95.2611C335.383 96.4552 336.444 97.5166 337.638 97.5166H342.415C343.609 97.5166 344.67 96.4552 344.67 95.2611V89.158C351.967 87.3006 356.611 81.4628 356.611 74.431C356.743 65.4091 349.712 61.4288 343.609 58.9079Z" fill="#FFDB61"/>
<path d="M356.609 325.321V339.384L354.354 332.353L356.609 325.321Z" fill="#EBAD2A"/>
<path d="M217.035 325.321V339.384L219.423 332.353L217.035 325.321Z" fill="#EBAD2A"/>
<path d="M286.823 366.451C325.365 366.451 356.61 354.333 356.61 339.385C356.61 324.437 325.365 312.319 286.823 312.319C248.28 312.319 217.035 324.437 217.035 339.385C217.035 354.333 248.28 366.451 286.823 366.451Z" fill="#EBAD2A"/>
<path d="M286.823 352.387C325.365 352.387 356.61 340.269 356.61 325.321C356.61 310.373 325.365 298.255 286.823 298.255C248.28 298.255 217.035 310.373 217.035 325.321C217.035 340.269 248.28 352.387 286.823 352.387Z" fill="#FFC400"/>
<path d="M286.825 347.876C318.846 347.876 344.804 337.777 344.804 325.321C344.804 312.864 318.846 302.766 286.825 302.766C254.804 302.766 228.846 312.864 228.846 325.321C228.846 337.777 254.804 347.876 286.825 347.876Z" fill="#EBAD2A"/>
<path d="M286.821 344.161C313.567 344.161 335.248 335.726 335.248 325.321C335.248 314.916 313.567 306.481 286.821 306.481C260.076 306.481 238.395 314.916 238.395 325.321C238.395 335.726 260.076 344.161 286.821 344.161Z" fill="#FFC400"/>
<path d="M290.403 322.933C282.974 321.739 281.78 321.075 281.78 320.147C281.78 319.218 283.372 318.289 288.015 318.289C292.792 318.289 295.843 318.953 297.17 319.218C297.833 319.351 298.497 319.351 299.16 319.351C299.823 319.218 300.354 319.085 300.62 318.82L302.61 316.697C303.008 316.299 302.61 315.768 301.548 315.503C298.762 314.84 295.578 314.442 292.128 314.309V312.053C292.128 311.523 291.067 311.125 289.74 311.125H284.698C283.372 311.125 282.31 311.523 282.31 312.053V314.574C274.748 315.37 269.971 317.626 269.971 320.412C269.971 323.994 277.534 325.719 284.964 326.781C291.73 327.842 292.659 328.771 292.659 329.699C292.659 331.026 289.74 331.822 285.362 331.822C281.647 331.822 277.932 331.424 274.88 330.628C274.217 330.495 273.421 330.363 272.758 330.495C272.094 330.628 271.431 330.761 271.298 331.026L269.308 333.149C268.91 333.547 269.308 333.945 270.237 334.21C273.023 335.006 277.401 335.537 281.78 335.67V338.058C281.78 338.589 282.841 338.987 284.168 338.987H289.342C290.669 338.987 291.73 338.589 291.73 338.058V335.537C299.558 334.741 304.732 332.353 304.732 329.301C304.6 325.719 297.037 323.994 290.403 322.933Z" fill="#EBAD2A"/>
<path d="M356.609 308.206V322.137L354.354 315.238L356.609 308.206Z" fill="#EBAD2A"/>
<path d="M217.035 308.206V322.137L219.423 315.238L217.035 308.206Z" fill="#EBAD2A"/>
<path d="M286.823 349.203C325.365 349.203 356.61 337.085 356.61 322.137C356.61 307.189 325.365 295.071 286.823 295.071C248.28 295.071 217.035 307.189 217.035 322.137C217.035 337.085 248.28 349.203 286.823 349.203Z" fill="#EBAD2A"/>
<path d="M286.823 335.272C325.365 335.272 356.61 323.154 356.61 308.206C356.61 293.258 325.365 281.14 286.823 281.14C248.28 281.14 217.035 293.258 217.035 308.206C217.035 323.154 248.28 335.272 286.823 335.272Z" fill="#FFC400"/>
<path d="M286.825 330.761C318.846 330.761 344.804 320.663 344.804 308.206C344.804 295.749 318.846 285.651 286.825 285.651C254.804 285.651 228.846 295.749 228.846 308.206C228.846 320.663 254.804 330.761 286.825 330.761Z" fill="#EBAD2A"/>
<path d="M286.821 327.046C313.567 327.046 335.248 318.611 335.248 308.206C335.248 297.801 313.567 289.366 286.821 289.366C260.076 289.366 238.395 297.801 238.395 308.206C238.395 318.611 260.076 327.046 286.821 327.046Z" fill="#FFC400"/>
<path d="M290.403 305.818C282.974 304.624 281.78 303.96 281.78 303.032C281.78 302.103 283.372 301.174 288.015 301.174C292.792 301.174 295.843 301.838 297.17 302.103C297.833 302.236 298.497 302.236 299.16 302.236C299.823 302.103 300.354 301.97 300.62 301.705L302.61 299.582C303.008 299.184 302.61 298.653 301.548 298.388C298.762 297.725 295.578 297.327 292.128 297.194V294.938C292.128 294.408 291.067 294.01 289.74 294.01H284.698C283.372 294.01 282.31 294.408 282.31 294.938V297.459C274.748 298.255 269.971 300.511 269.971 303.297C269.971 306.879 277.534 308.604 284.964 309.666C291.73 310.727 292.659 311.656 292.659 312.584C292.659 313.911 289.74 314.707 285.362 314.707C281.647 314.707 277.932 314.309 274.88 313.513C274.217 313.38 273.421 313.248 272.758 313.38C272.094 313.513 271.431 313.646 271.298 313.911L269.308 316.034C268.91 316.432 269.308 316.83 270.237 317.095C273.023 317.891 277.401 318.422 281.78 318.555V320.943C281.78 321.474 282.841 321.872 284.168 321.872H289.342C290.669 321.872 291.73 321.474 291.73 320.943V318.422C299.558 317.626 304.732 315.238 304.732 312.186C304.6 308.604 297.037 306.879 290.403 305.818Z" fill="#EBAD2A"/>
<path d="M356.609 290.56V304.491L354.354 297.592L356.609 290.56Z" fill="#EBAD2A"/>
<path d="M217.035 290.56V304.491L219.423 297.592L217.035 290.56Z" fill="#EBAD2A"/>
<path d="M286.823 331.557C325.365 331.557 356.61 319.439 356.61 304.491C356.61 289.543 325.365 277.425 286.823 277.425C248.28 277.425 217.035 289.543 217.035 304.491C217.035 319.439 248.28 331.557 286.823 331.557Z" fill="#EBAD2A"/>
<path d="M286.823 317.626C325.365 317.626 356.61 305.508 356.61 290.56C356.61 275.612 325.365 263.494 286.823 263.494C248.28 263.494 217.035 275.612 217.035 290.56C217.035 305.508 248.28 317.626 286.823 317.626Z" fill="#FFC400"/>
<path d="M286.825 313.115C318.846 313.115 344.804 303.017 344.804 290.56C344.804 278.103 318.846 268.005 286.825 268.005C254.804 268.005 228.846 278.103 228.846 290.56C228.846 303.017 254.804 313.115 286.825 313.115Z" fill="#EBAD2A"/>
<path d="M286.821 309.4C313.567 309.4 335.248 300.965 335.248 290.56C335.248 280.155 313.567 271.72 286.821 271.72C260.076 271.72 238.395 280.155 238.395 290.56C238.395 300.965 260.076 309.4 286.821 309.4Z" fill="#FFC400"/>
<path d="M290.403 288.172C282.974 286.978 281.78 286.314 281.78 285.386C281.78 284.457 283.372 283.528 288.015 283.528C292.792 283.528 295.843 284.192 297.17 284.457C297.833 284.59 298.497 284.59 299.16 284.59C299.823 284.457 300.354 284.324 300.62 284.059L302.61 281.936C303.008 281.538 302.61 281.007 301.548 280.742C298.762 280.079 295.578 279.681 292.128 279.548V277.292C292.128 276.762 291.067 276.364 289.74 276.364H284.698C283.372 276.364 282.31 276.762 282.31 277.292V279.813C274.748 280.609 269.971 282.865 269.971 285.651C269.971 289.233 277.534 290.958 284.964 292.02C291.73 293.081 292.659 294.01 292.659 294.938C292.659 296.265 289.74 297.061 285.362 297.061C281.647 297.061 277.932 296.663 274.88 295.867C274.217 295.734 273.421 295.602 272.758 295.734C272.094 295.867 271.431 296 271.298 296.265L269.308 298.388C268.91 298.786 269.308 299.184 270.237 299.449C273.023 300.245 277.401 300.776 281.78 300.909V303.297C281.78 303.828 282.841 304.226 284.168 304.226H289.342C290.669 304.226 291.73 303.828 291.73 303.297V300.776C299.558 299.98 304.732 297.592 304.732 294.54C304.6 290.958 297.037 289.233 290.403 288.172Z" fill="#EBAD2A"/>
<path d="M356.609 273.312V287.376L354.354 280.344L356.609 273.312Z" fill="#EBAD2A"/>
<path d="M217.035 273.312V287.376L219.423 280.344L217.035 273.312Z" fill="#EBAD2A"/>
<path d="M286.823 314.442C325.365 314.442 356.61 302.324 356.61 287.376C356.61 272.428 325.365 260.31 286.823 260.31C248.28 260.31 217.035 272.428 217.035 287.376C217.035 302.324 248.28 314.442 286.823 314.442Z" fill="#EBAD2A"/>
<path d="M286.823 300.378C325.365 300.378 356.61 288.261 356.61 273.312C356.61 258.364 325.365 246.247 286.823 246.247C248.28 246.247 217.035 258.364 217.035 273.312C217.035 288.261 248.28 300.378 286.823 300.378Z" fill="#FFDB61"/>
<path d="M286.825 255.401C315.218 255.401 338.834 263.096 344.804 273.445V273.312C344.804 260.841 318.8 250.757 286.825 250.757C254.85 250.757 228.846 260.841 228.846 273.312V273.445C234.816 263.096 258.565 255.401 286.825 255.401Z" fill="#EBAD2A"/>
<path d="M286.825 295.867C318.8 295.867 344.672 285.784 344.804 273.445C338.834 263.096 315.218 255.401 286.825 255.401C258.432 255.401 234.816 263.096 228.846 273.445C228.978 285.917 254.983 295.867 286.825 295.867Z" fill="#FFC400"/>
<path d="M290.403 273.18C282.974 271.986 281.78 271.322 281.78 270.394C281.78 269.465 283.372 268.536 288.015 268.536C292.792 268.536 295.843 269.199 297.17 269.465C297.833 269.597 298.497 269.597 299.16 269.597C299.823 269.465 300.354 269.332 300.62 269.067L302.61 266.944C303.008 266.546 302.61 266.015 301.548 265.75C298.762 265.087 295.578 264.688 292.128 264.556V262.3C292.128 261.77 291.067 261.372 289.74 261.372H284.698C283.372 261.372 282.31 261.77 282.31 262.3V264.821C274.748 265.617 269.971 267.873 269.971 270.659C269.971 274.241 277.534 275.966 284.964 277.027C291.73 278.089 292.659 279.017 292.659 279.946C292.659 281.273 289.74 282.069 285.362 282.069C281.647 282.069 277.932 281.671 274.88 280.875C274.217 280.742 273.421 280.61 272.758 280.742C272.094 280.875 271.431 281.008 271.298 281.273L269.308 283.396C268.91 283.794 269.308 284.192 270.237 284.457C273.023 285.253 277.401 285.784 281.78 285.917V288.305C281.78 288.835 282.841 289.234 284.168 289.234H289.342C290.669 289.234 291.73 288.835 291.73 288.305V285.784C299.558 284.988 304.732 282.6 304.732 279.548C304.6 275.966 297.037 274.241 290.403 273.18Z" fill="#EBAD2A"/>
<path d="M290.403 271.057C282.974 269.863 281.78 269.199 281.78 268.271C281.78 267.342 283.372 266.413 288.015 266.413C292.792 266.413 295.843 267.077 297.17 267.342C297.833 267.475 298.497 267.475 299.16 267.475C299.823 267.342 300.354 267.209 300.62 266.944L302.61 264.821C303.008 264.423 302.61 263.892 301.548 263.627C298.762 262.964 295.578 262.566 292.128 262.433V260.178C292.128 259.647 291.067 259.249 289.74 259.249H284.698C283.372 259.249 282.31 259.647 282.31 260.178V262.698C274.748 263.494 269.971 265.75 269.971 268.536C269.971 272.118 277.534 273.843 284.964 274.905C291.73 275.966 292.659 276.895 292.659 277.823C292.659 279.15 289.74 279.946 285.362 279.946C281.647 279.946 277.932 279.548 274.88 278.752C274.217 278.619 273.421 278.487 272.758 278.619C272.094 278.752 271.431 278.885 271.298 279.15L269.308 281.273C268.91 281.671 269.308 282.069 270.237 282.334C273.023 283.13 277.401 283.661 281.78 283.794V286.182C281.78 286.713 282.841 287.111 284.168 287.111H289.342C290.669 287.111 291.73 286.713 291.73 286.182V283.927C299.558 283.13 304.732 280.742 304.732 277.691C304.6 273.71 297.037 271.986 290.403 271.057Z" fill="#FFDB61"/>
<path d="M144.861 268.005C142.738 265.617 138.89 267.74 137.033 269.464C136.502 269.862 136.369 270.393 136.502 270.924C134.512 270.393 132.256 269.995 131.991 269.862C129.603 269.199 127.215 268.403 124.826 267.607C119.652 265.749 114.743 263.627 110.099 260.575C108.242 259.381 106.119 262.167 108.109 263.494C113.947 267.342 120.183 269.862 126.817 272.118C131.593 273.71 138.094 275.833 142.87 273.71C144.861 272.649 146.718 270.26 144.861 268.005Z" fill="black"/>
<path d="M92.452 352.652C92.3193 351.458 91.6559 350.529 90.4618 349.866C89.2677 349.202 87.8083 349.202 86.6142 349.335C86.6142 348.406 86.4815 347.345 86.4815 346.549V346.416C86.4815 345.62 86.3489 344.956 86.3489 344.691L86.2162 316.564C86.2162 315.37 85.2875 314.574 84.2261 314.574C83.6954 314.574 83.1646 314.839 82.6339 315.104C82.1032 315.502 81.8379 316.166 81.8379 316.697V340.047V341.242C81.8379 350.794 82.3686 354.376 84.0934 355.438C84.2261 355.571 84.3587 355.571 84.4914 355.571C85.9508 355.969 89.6658 356.499 91.3906 354.907C92.1866 354.509 92.5846 353.58 92.452 352.652Z" fill="black"/>
<path d="M55.702 358.887C55.5693 357.693 54.9059 356.764 53.7118 356.101C52.5177 355.438 51.0583 355.438 49.8642 355.57C49.8642 354.642 49.7315 353.58 49.7315 352.784V352.652C49.7315 351.855 49.5989 351.192 49.5989 350.927L49.4662 322.799C49.4662 321.605 48.5375 320.809 47.4761 320.809C46.9454 320.809 46.4146 321.075 45.8839 321.34C45.3532 321.738 45.0879 322.401 45.0879 322.932V346.283V347.477C45.0879 357.03 45.6186 360.612 47.3434 361.674C47.4761 361.806 47.6087 361.806 47.7414 361.806C49.2008 362.204 52.9158 362.735 54.6406 361.143C55.4366 360.745 55.8346 359.949 55.702 358.887Z" fill="black"/>
<path d="M60.8768 330.495C45.6191 331.822 30.7594 326.78 19.2166 316.033C8.33715 305.95 1.57068 292.152 0.243917 277.027C-1.08284 261.901 3.03011 247.042 11.9194 235.234C21.3394 222.629 35.005 214.934 50.3954 213.607L60.6114 212.679L71.2255 329.699L60.8768 330.495Z" fill="#EBAD2A"/>
<path d="M71.0897 329.566C86.3474 328.24 100.013 320.545 109.566 307.94C118.455 296.132 122.568 281.272 121.241 266.147C119.914 251.022 113.148 237.091 102.269 227.141C90.7257 216.394 75.866 211.352 60.6083 212.679C45.3506 214.006 31.6849 221.701 22.1323 234.305C13.243 246.113 9.13005 260.973 10.4568 276.098C11.7836 291.223 18.55 305.154 29.4295 315.105C40.9723 325.852 55.832 331.026 71.0897 329.566Z" fill="#FFDB61"/>
<path d="M103.863 267.74C101.74 243.593 82.2367 225.549 59.8145 226.477C60.4778 226.345 61.1412 226.345 61.8046 226.212C85.0229 224.089 105.588 242.531 107.843 267.342C110.099 292.152 93.1161 314.043 69.8978 316.166C69.2344 316.166 68.5711 316.299 67.9077 316.299C90.1972 313.115 106.118 291.887 103.863 267.74Z" fill="#EBAD2A"/>
<path d="M67.9984 316.243C90.0367 314.244 106.078 292.511 103.829 267.699C101.579 242.888 81.8894 224.395 59.8511 226.393C37.8128 228.391 21.7711 250.125 24.0209 274.936C26.2707 299.747 45.9601 318.241 67.9984 316.243Z" fill="#FFC400"/>
<path d="M94.8443 256.86C94.4463 257.921 94.0483 258.982 93.5176 260.044C93.2522 260.442 93.6502 261.105 94.0483 261.238C94.579 261.371 94.977 261.105 95.2423 260.707C95.7731 259.646 96.1711 258.584 96.5691 257.523C96.9671 256.462 95.2423 255.798 94.8443 256.86Z" fill="#D74343"/>
<path d="M98.8248 256.063C98.4268 257.125 98.0287 258.186 97.498 259.248C97.2327 259.646 97.6307 260.309 98.0287 260.442C98.5594 260.574 98.9575 260.309 99.2228 259.911C99.7535 258.849 100.152 257.788 100.55 256.727C101.08 255.665 99.2228 255.002 98.8248 256.063Z" fill="#D74343"/>
<path d="M102.936 255.4C102.538 256.462 102.14 257.523 101.609 258.584C101.344 258.983 101.742 259.646 102.14 259.779C102.671 259.911 103.069 259.646 103.334 259.248C103.865 258.186 104.263 257.125 104.661 256.064C105.059 254.87 103.334 254.206 102.936 255.4Z" fill="#D74343"/>
<path d="M39.2525 270.526C38.8545 271.587 38.4565 272.649 37.9258 273.71C37.6604 274.108 38.0584 274.771 38.4565 274.904C38.9872 275.037 39.3852 274.771 39.6505 274.373C40.1813 273.312 40.5793 272.251 40.9773 271.189C41.3753 269.995 39.6505 269.464 39.2525 270.526Z" fill="#D74343"/>
<path d="M43.3658 269.729C42.9678 270.791 42.5697 271.852 42.039 272.914C41.7737 273.312 42.1717 273.975 42.5697 274.108C43.1004 274.24 43.4985 273.975 43.7638 273.577C44.2945 272.516 44.6926 271.454 45.0906 270.393C45.4886 269.331 43.7638 268.668 43.3658 269.729Z" fill="#D74343"/>
<path d="M47.3443 269.066C46.9463 270.128 46.5483 271.189 46.0176 272.251C45.7522 272.649 46.1502 273.312 46.5483 273.445C47.079 273.577 47.477 273.312 47.7423 272.914C48.273 271.852 48.6711 270.791 49.0691 269.73C49.5998 268.536 47.7423 267.872 47.3443 269.066Z" fill="#D74343"/>
<path d="M52.7866 267.209C55.1314 267.209 57.0323 265.308 57.0323 262.963C57.0323 260.618 55.1314 258.718 52.7866 258.718C50.4418 258.718 48.541 260.618 48.541 262.963C48.541 265.308 50.4418 267.209 52.7866 267.209Z" fill="black"/>
<path d="M82.6361 255.533C82.1054 253.278 83.4322 251.022 85.6877 250.492C87.9432 249.961 90.1986 251.288 90.7293 253.543C91.2601 255.799 89.9333 258.054 87.6778 258.585C85.555 259.248 83.2995 257.789 82.6361 255.533Z" fill="black"/>
<path d="M75.4744 256.86C76.2705 260.044 74.2804 263.229 71.0961 264.025C67.9119 264.821 64.7277 262.831 63.9316 259.646L75.4744 256.86Z" fill="black"/>
<path d="M50.7926 305.95C49.0678 304.093 46.1489 305.685 44.6895 307.011C44.2915 307.41 44.1588 307.808 44.2915 308.206C42.6994 307.808 40.9746 307.41 40.7092 307.41C38.8518 306.879 36.9943 306.215 35.1368 305.552C31.0239 304.093 27.309 302.368 23.594 299.98C22.1346 299.051 20.5425 301.306 22.0019 302.235C26.5129 305.154 31.4219 307.277 36.5963 308.869C40.3112 310.063 45.3529 311.788 49.2005 310.063C50.7926 309.532 52.252 307.675 50.7926 305.95Z" fill="black"/>
<path d="M255.246 214.138L259.226 226.344L255.246 220.905V214.138Z" fill="#EBAD2A"/>
<path d="M134.246 254.074L138.359 266.147V259.381L134.246 254.074Z" fill="#EBAD2A"/>
<path d="M206.613 269.807C240.02 258.802 263.625 239.33 259.338 226.315C255.05 213.301 224.493 211.672 191.087 222.677C157.681 233.683 134.075 253.155 138.363 266.169C142.65 279.184 173.207 280.813 206.613 269.807Z" fill="#EBAD2A"/>
<path d="M202.494 257.636C235.901 246.63 259.506 227.158 255.219 214.144C250.931 201.129 220.374 199.5 186.968 210.506C153.562 221.511 129.956 240.983 134.244 253.998C138.531 267.012 169.088 268.641 202.494 257.636Z" fill="#FFDB61"/>
<path d="M189.703 218.517C214.248 210.424 237.069 210.291 245.162 217.588C245.162 217.588 245.162 217.588 245.162 217.455C241.58 206.709 216.239 205.382 188.377 214.537C160.647 223.691 141.011 239.878 144.594 250.624C144.594 250.624 144.594 250.624 144.594 250.757C146.716 240.143 165.026 226.61 189.703 218.517Z" fill="#EBAD2A"/>
<path d="M201.246 253.676C228.976 244.521 248.479 228.467 245.162 217.721C237.069 210.423 214.249 210.556 189.704 218.649C165.159 226.743 146.717 240.143 144.594 250.89C148.176 261.504 173.517 262.698 201.246 253.676Z" fill="#FFC400"/>
<path d="M197.799 232.978C191.033 234.04 189.706 233.907 189.44 233.111C189.175 232.315 190.369 231.121 194.349 229.794C198.462 228.467 201.381 228.202 202.575 228.069C203.106 228.069 203.769 227.804 204.3 227.538C204.831 227.273 205.229 226.875 205.362 226.61L206.556 224.222C206.821 223.691 206.29 223.425 205.362 223.558C202.708 223.824 199.922 224.354 196.87 225.283L196.207 223.425C196.074 223.027 195.013 222.895 193.819 223.293L189.44 224.752C188.246 225.15 187.45 225.814 187.583 226.212L188.246 228.335C181.878 231.121 178.428 234.438 179.224 236.958C180.286 240.143 187.318 239.347 194.084 238.153C200.32 237.091 201.381 237.754 201.647 238.418C202.045 239.612 199.656 241.204 195.942 242.398C192.757 243.46 189.308 244.123 186.522 244.388C185.991 244.388 185.195 244.654 184.664 244.919C184.133 245.184 183.603 245.582 183.47 245.848L182.409 248.236C182.143 248.634 182.674 249.032 183.47 248.899C186.124 248.767 190.104 247.971 193.951 246.909L194.615 248.899C194.747 249.297 195.809 249.43 197.003 249.032L201.514 247.573C202.708 247.174 203.504 246.511 203.371 246.113L202.708 243.858C209.209 240.939 213.057 237.356 212.128 234.836C210.934 231.253 203.902 231.917 197.799 232.978Z" fill="#EBAD2A"/>
<path d="M197.266 230.988C190.499 232.05 189.173 231.917 188.907 231.121C188.642 230.325 189.836 229.131 193.816 227.804C197.929 226.477 200.848 226.212 202.042 226.079C202.573 226.079 203.236 225.814 203.767 225.548C204.298 225.283 204.696 224.885 204.828 224.62L206.022 222.232C206.288 221.701 205.757 221.436 204.828 221.568C202.175 221.834 199.389 222.364 196.337 223.293L195.674 221.435C195.541 221.037 194.48 220.905 193.286 221.303L188.907 222.762C187.713 223.16 186.917 223.824 187.05 224.222L187.713 226.345C181.345 229.131 177.895 232.448 178.691 234.968C179.753 238.153 186.784 237.357 193.551 236.163C199.787 235.101 200.848 235.764 201.113 236.428C201.511 237.622 199.123 239.214 195.408 240.408C192.224 241.47 188.775 242.133 185.988 242.398C185.458 242.398 184.662 242.664 184.131 242.929C183.6 243.194 183.069 243.592 182.937 243.858L181.875 246.246C181.61 246.644 182.141 247.042 182.937 246.909C185.59 246.777 189.571 245.981 193.418 244.919L194.082 246.909C194.214 247.307 195.276 247.44 196.47 247.042L200.981 245.583C202.175 245.184 202.971 244.521 202.838 244.123L202.175 241.868C208.676 238.949 212.524 235.366 211.595 232.846C210.268 229.396 203.236 230.059 197.266 230.988Z" fill="#FFDB61"/>
</svg>
