<svg width="514" height="300" viewBox="0 0 514 300" fill="none" xmlns="http://www.w3.org/2000/svg">
<path d="M470.535 167.501C471.549 167.501 472.361 167.805 473.071 168.516C473.477 168.11 473.883 167.907 474.39 167.907C474.796 167.907 475.201 168.11 475.506 168.414C476.216 169.124 475.709 170.037 475.404 170.545C475.201 170.95 474.999 171.255 474.694 171.661C474.999 172.979 475.1 174.4 475.201 175.617C475.303 176.226 477.839 193.372 477.839 193.879C478.651 199.763 479.158 206.054 479.361 212.547C479.361 212.952 479.158 213.358 478.854 213.561C478.448 213.764 477.941 213.764 477.535 213.561C477.433 213.46 477.231 213.358 477.129 213.257C476.926 213.054 476.825 212.75 476.825 212.445V211.532C476.622 200.271 473.375 176.226 472.158 172.472C470.636 171.762 469.824 170.748 469.317 169.023C469.216 168.718 469.317 168.313 469.52 168.008C469.621 167.704 470.129 167.501 470.535 167.501Z" fill="black"/>
<path d="M449.435 263.578C449.232 263.172 449.13 262.767 449.333 262.462C449.536 262.056 449.942 261.752 450.449 261.752C450.957 261.752 451.362 261.955 451.667 262.361C458.464 272.608 463.841 283.768 467.696 295.536C468.407 295.029 469.624 294.522 469.624 294.522C470.03 294.319 471.349 293.913 472.363 294.522C472.769 294.826 473.276 295.638 473.276 296.348C473.276 296.754 473.175 297.058 472.871 297.261C472.262 297.768 471.552 298.174 470.943 298.58C469.928 299.189 468.812 299.493 467.696 299.797C466.986 300 466.378 299.594 466.175 298.884C462.319 286.405 456.739 274.535 449.435 263.578Z" fill="black"/>
<path d="M425.489 269.665C425.388 269.259 425.084 268.955 424.779 268.853C424.373 268.752 423.866 268.853 423.46 269.158C423.156 269.462 423.054 269.868 423.156 270.375C424.069 274.231 425.185 279.1 422.446 283.26C420.011 287.014 416.257 289.855 412.3 291.173C411.895 291.275 411.489 291.376 410.981 291.579C409.054 292.087 406.822 292.594 406.923 294.724C407.025 297.058 407.431 298.782 409.054 299.797C409.257 299.898 409.46 300 409.663 300C409.865 300 410.068 300 410.271 299.898C410.981 299.594 411.489 298.985 411.692 298.275C411.996 297.058 411.387 295.739 410.677 294.724C413.416 293.71 417.576 291.478 418.388 290.97C420.315 289.55 422.141 287.623 423.765 285.593C427.518 280.521 426.707 274.941 425.489 269.665Z" fill="black"/>
<path d="M425.995 272.912C412.603 272.202 400.53 266.013 391.907 255.361C383.79 245.418 379.732 232.635 380.341 219.446C381.051 206.257 386.428 193.981 395.458 184.85C405.197 175.212 417.879 170.24 431.17 170.951L440.098 171.458L434.822 273.419L425.995 272.912Z" fill="#EAAC2A"/>
<path d="M434.926 273.42C448.318 274.13 461 269.159 470.638 259.521C479.769 250.491 485.146 238.215 485.754 224.925C486.465 211.736 482.305 198.953 474.189 189.01C465.565 178.357 453.39 172.169 440.1 171.458C426.708 170.748 414.026 175.72 404.388 185.358C395.257 194.387 389.88 206.663 389.271 219.954C388.561 233.143 392.721 245.926 400.837 255.868C409.461 266.521 421.534 272.71 434.926 273.42Z" fill="#FFDA61"/>
<path d="M470.738 224.214C471.854 203.213 457.245 185.256 437.867 183.227C438.475 183.227 439.084 183.227 439.591 183.227C459.781 184.241 475.303 202.706 474.187 224.316C473.071 246.027 455.824 262.665 435.533 261.651C434.925 261.651 434.316 261.549 433.809 261.549C453.288 261.549 469.622 245.215 470.738 224.214Z" fill="#EAAC2A"/>
<path d="M470.698 224.211C471.809 202.555 457.104 184.199 437.855 183.211C418.605 182.224 402.099 198.979 400.988 220.635C399.877 242.291 414.582 260.647 433.831 261.635C453.081 262.622 469.587 245.867 470.698 224.211Z" fill="#FFC400"/>
<path d="M464.248 213.764C463.741 214.677 463.233 215.489 462.726 216.402C462.523 216.808 462.726 217.315 463.031 217.518C463.436 217.721 463.842 217.518 464.147 217.213C464.654 216.402 465.263 215.489 465.668 214.576C466.074 213.561 464.654 212.851 464.248 213.764Z" fill="#D74343"/>
<path d="M467.799 213.56C467.292 214.474 466.784 215.285 466.277 216.198C466.074 216.604 466.277 217.111 466.581 217.314C466.987 217.517 467.393 217.314 467.697 217.01C468.205 216.198 468.813 215.285 469.219 214.372C469.726 213.459 468.306 212.647 467.799 213.56Z" fill="#D74343"/>
<path d="M471.451 213.459C470.944 214.372 470.437 215.184 469.929 216.097C469.726 216.503 469.929 217.01 470.234 217.213C470.64 217.416 471.045 217.213 471.35 216.909C471.857 216.097 472.466 215.184 472.872 214.271C473.277 213.256 471.857 212.546 471.451 213.459Z" fill="#D74343"/>
<path d="M414.736 218.634C414.229 219.547 413.722 220.358 413.214 221.272C413.012 221.677 413.215 222.185 413.519 222.387C413.925 222.59 414.33 222.387 414.635 222.083C415.142 221.271 415.751 220.358 416.157 219.445C416.664 218.532 415.244 217.721 414.736 218.634Z" fill="#D74343"/>
<path d="M418.287 218.532C417.78 219.445 417.273 220.256 416.765 221.169C416.562 221.575 416.765 222.082 417.07 222.285C417.475 222.488 417.881 222.285 418.186 221.981C418.693 221.169 419.302 220.256 419.707 219.343C420.215 218.329 418.794 217.618 418.287 218.532Z" fill="#D74343"/>
<path d="M421.939 218.329C421.432 219.242 420.925 220.054 420.418 220.967C420.215 221.373 420.418 221.88 420.722 222.083C421.128 222.286 421.534 222.083 421.838 221.778C422.345 220.967 422.954 220.054 423.36 219.141C423.867 218.228 422.447 217.416 421.939 218.329Z" fill="#D74343"/>
<path d="M430.914 214.469C431.273 212.484 429.954 210.584 427.97 210.226C425.985 209.867 424.085 211.185 423.726 213.17C423.367 215.155 424.685 217.055 426.67 217.413C428.655 217.772 430.555 216.454 430.914 214.469Z" fill="black"/>
<path d="M457.549 214.373C459.566 214.373 461.201 212.738 461.201 210.721C461.201 208.704 459.566 207.068 457.549 207.068C455.532 207.068 453.896 208.704 453.896 210.721C453.896 212.738 455.532 214.373 457.549 214.373Z" fill="black"/>
<path d="M447.505 211.431C447.809 214.271 445.679 216.808 442.939 217.011C440.2 217.214 437.562 215.184 437.359 212.445L447.505 211.431Z" fill="black"/>
<path d="M377.4 172.573C378.414 172.573 379.226 172.878 379.936 173.588C380.342 173.182 380.748 172.979 381.255 172.979C381.661 172.979 382.067 173.182 382.371 173.486C383.081 174.197 382.574 175.11 382.27 175.617C382.067 176.023 381.864 176.327 381.559 176.733C381.864 178.052 381.965 179.472 382.067 180.69C382.168 181.298 384.705 198.444 384.705 198.951C385.516 204.836 386.023 211.126 386.226 217.619C386.226 218.025 386.023 218.431 385.719 218.633C385.313 218.836 384.806 218.836 384.4 218.633C384.299 218.532 384.096 218.431 383.994 218.329C383.791 218.126 383.69 217.822 383.69 217.517V216.604C383.487 205.343 380.241 181.298 379.023 177.544C377.501 176.834 376.69 175.82 376.182 174.095C376.081 173.791 376.182 173.385 376.385 173.081C376.487 172.776 376.994 172.573 377.4 172.573Z" fill="black"/>
<path d="M421.836 182.212C472.153 182.212 512.942 141.422 512.942 91.1059C512.942 40.7895 472.153 0 421.836 0C371.52 0 330.73 40.7895 330.73 91.1059C330.73 141.422 371.52 182.212 421.836 182.212Z" fill="#FFDA61"/>
<path d="M512.436 81.4678C514.059 93.3379 513.146 105.512 510.001 117.078C506.754 128.644 501.174 139.601 493.667 149.036C486.261 158.573 476.724 166.486 466.173 172.371C455.52 178.255 443.751 181.908 431.678 183.226C419.605 184.444 407.329 183.429 395.763 179.878C384.198 176.328 373.24 170.646 364.008 162.936C354.674 155.225 346.964 145.688 341.282 135.137C335.702 124.484 332.253 112.716 331.34 100.846C334.383 124.484 346.862 146.601 365.428 161.109C374.661 168.313 385.314 173.893 396.575 177.139C407.836 180.386 419.706 181.502 431.374 180.183C443.041 178.965 454.404 175.414 464.752 169.834C475.101 164.254 484.333 156.645 491.84 147.616C506.856 129.456 514.465 105.208 512.436 81.4678Z" fill="#DB9428"/>
<path d="M414.938 26.3783C453.186 22.3201 487.68 49.1041 493.463 86.8451C493.362 85.7291 493.362 84.6131 493.159 83.4971C488.999 44.1328 453.592 15.5227 414.228 19.7838C374.863 23.9434 346.253 59.351 350.514 98.7152C350.616 99.8312 350.819 100.947 350.92 102.063C348.688 63.9164 376.689 30.4365 414.938 26.3783Z" fill="#DB9428"/>
<path d="M429.49 162.346C468.827 158.157 497.473 124.317 493.474 86.7632C489.475 49.2094 454.344 22.162 415.007 26.3513C375.67 30.5405 347.023 64.3799 351.023 101.934C355.022 139.488 390.153 166.535 429.49 162.346Z" fill="#FFC400"/>
<path d="M426.097 86.7429C416.053 83.8007 414.226 81.8731 413.821 78.728C413.516 75.7858 415.342 72.5393 421.328 71.8291C427.618 71.1189 431.778 72.9451 433.503 73.7567C434.314 74.1625 435.329 74.0611 436.141 73.7567C436.952 73.3509 437.561 72.6407 437.865 71.7276L439.793 64.4229C440.199 62.9011 439.489 61.3793 438.068 60.7706C434.213 59.0458 430.053 58.1327 425.386 58.1327L424.575 50.7266C424.372 49.0019 422.85 47.683 421.125 47.8859L414.531 48.596C412.806 48.799 411.487 50.3208 411.69 52.0455L412.603 60.2633C403.066 63.9156 397.588 72.032 398.603 81.6701C399.921 93.7432 410.371 98.2072 420.415 100.946C429.648 103.584 431.169 106.729 431.474 109.672C431.981 114.034 428.43 117.382 422.749 117.991C417.98 118.498 412.908 117.585 408.748 115.353C407.835 114.947 406.82 114.846 406.009 115.252C405.096 115.657 404.487 116.469 404.284 117.382L402.458 124.788C402.153 126.209 402.762 127.629 403.98 128.339C407.936 130.571 413.719 131.89 419.502 131.789L420.314 139.601C420.517 141.325 422.038 142.644 423.763 142.441L430.459 141.731C432.184 141.528 433.503 140.006 433.3 138.282L432.387 129.759C442.228 126.006 448.112 117.281 446.996 107.338C445.474 93.9461 435.025 89.2792 426.097 86.7429Z" fill="#DB9428"/>
<path d="M425.692 82.6852C415.648 79.7431 413.822 77.8154 413.416 74.6704C413.112 71.7282 414.938 68.4816 420.924 67.7715C427.214 67.0613 431.374 68.8875 433.098 69.6991C433.91 70.1049 434.925 70.0035 435.736 69.6991C436.548 69.2933 437.157 68.5831 437.461 67.67L439.389 60.3653C439.794 58.8435 439.084 57.3217 437.664 56.7129C433.809 54.9882 429.649 54.0751 424.982 54.0751L424.171 46.669C423.968 44.9442 422.446 43.6253 420.721 43.8283L414.127 44.5384C412.402 44.7413 411.083 46.2632 411.286 47.9879L412.199 56.2057C402.662 59.858 397.184 67.9744 398.198 77.6125C399.517 89.6856 409.967 94.1496 420.011 96.8888C429.243 99.5267 430.765 102.672 431.069 105.614C431.577 109.976 428.026 113.324 422.344 113.933C417.576 114.44 412.503 113.527 408.344 111.295C407.431 110.89 406.416 110.788 405.604 111.194C404.691 111.6 404.083 112.411 403.88 113.324L402.053 120.731C401.749 122.151 402.358 123.571 403.575 124.281C407.532 126.513 413.315 127.832 419.098 127.731L419.909 135.543C420.112 137.268 421.634 138.587 423.359 138.384L430.055 137.673C431.78 137.471 433.098 135.949 432.896 134.224L431.982 125.702C441.824 121.948 447.708 113.223 446.592 103.28C445.07 89.99 434.62 85.3231 425.692 82.6852Z" fill="#FFDA61"/>
<path d="M250.063 135.222C282.674 135.222 309.109 108.786 309.109 76.1757C309.109 43.5656 282.674 17.1299 250.063 17.1299C217.453 17.1299 191.018 43.5656 191.018 76.1757C191.018 108.786 217.453 135.222 250.063 135.222Z" fill="#FFDA61"/>
<path d="M242.465 34.653C267.016 30.0876 290.655 45.7116 296.235 69.8577C296.134 69.1475 296.032 68.4373 295.931 67.7271C291.264 42.465 267.016 25.7251 241.653 30.392C216.391 35.0589 199.651 59.3064 204.318 84.67C204.419 85.3802 204.622 86.0904 204.724 86.8005C201.376 62.2486 217.913 39.2185 242.465 34.653Z" fill="#DB9428"/>
<path d="M258.545 121.882C283.779 117.211 300.622 93.9068 296.166 69.8299C291.71 45.753 267.641 30.021 242.407 34.6916C217.173 39.3622 200.329 62.6666 204.786 86.7436C209.242 110.82 233.311 126.552 258.545 121.882Z" fill="#FFC400"/>
<path d="M252.61 73.1035C245.914 71.6832 244.696 70.5672 244.29 68.5381C243.986 66.7119 244.899 64.4799 248.754 63.7697C252.711 63.0595 255.552 63.9726 256.769 64.3785C257.378 64.5814 257.987 64.4799 258.494 64.1755C259.001 63.8712 259.407 63.3639 259.508 62.7552L260.421 57.8854C260.624 56.8708 260.016 55.9577 259.103 55.5519C256.465 54.6388 253.725 54.233 250.783 54.4359L249.87 49.6676C249.667 48.5516 248.551 47.8414 247.435 48.0443L243.174 48.8559C242.058 49.0589 241.348 50.1749 241.551 51.2909L242.566 56.5665C236.58 59.4072 233.435 64.9872 234.551 71.0744C235.971 78.785 242.971 81.1184 249.667 82.4373C255.755 83.6548 256.972 85.5824 257.276 87.51C257.784 90.3508 255.653 92.6842 252.001 93.2929C248.957 93.9016 245.609 93.4958 242.768 92.2784C242.16 92.0755 241.551 92.0755 240.942 92.3798C240.435 92.6842 240.029 93.1915 239.928 93.9016L239.116 98.7715C239.015 99.6845 239.42 100.598 240.232 101.003C242.87 102.221 246.725 102.83 250.479 102.525L251.392 107.497C251.595 108.613 252.711 109.323 253.827 109.12L258.088 108.308C259.204 108.105 259.914 106.989 259.711 105.873L258.697 100.395C264.885 97.4525 268.233 91.5682 267.016 85.1766C265.494 76.8573 258.494 74.321 252.61 73.1035Z" fill="#DB9428"/>
<path d="M252.104 70.5674C245.408 69.147 244.19 68.031 243.784 66.0019C243.48 64.1758 244.393 61.9438 248.248 61.2336C252.205 60.5234 255.046 61.4365 256.263 61.8423C256.872 62.0452 257.481 61.9438 257.988 61.6394C258.495 61.3351 258.901 60.8278 259.003 60.2191L259.916 55.3492C260.119 54.3347 259.51 53.4216 258.597 53.0158C255.959 52.1027 253.22 51.6969 250.277 51.8998L249.364 47.1314C249.161 46.0155 248.045 45.3053 246.929 45.5082L242.668 46.3198C241.552 46.5227 240.842 47.6387 241.045 48.7547L242.06 54.0303C236.074 56.8711 232.929 62.451 234.045 68.5383C235.465 76.2488 242.465 78.5823 249.161 79.9012C255.249 81.1186 256.466 83.0463 256.771 84.9739C257.278 87.8146 255.147 90.1481 251.495 90.7568C248.451 91.3655 245.103 90.9597 242.263 89.7422C241.654 89.5393 241.045 89.5393 240.436 89.8437C239.929 90.1481 239.523 90.6553 239.422 91.3655L238.61 96.2353C238.509 97.1484 238.915 98.0615 239.726 98.4673C242.364 99.6848 246.219 100.293 249.973 99.9891L250.886 104.96C251.089 106.076 252.205 106.787 253.321 106.584L257.582 105.772C258.698 105.569 259.408 104.453 259.205 103.337L258.191 97.8586C264.38 94.9164 267.728 89.0321 266.51 82.6404C265.09 74.3212 258.089 71.7848 252.104 70.5674Z" fill="#FFDA61"/>
<path d="M133.81 186.631C157.567 186.631 176.826 167.372 176.826 143.614C176.826 119.857 157.567 100.598 133.81 100.598C110.052 100.598 90.793 119.857 90.793 143.614C90.793 167.372 110.052 186.631 133.81 186.631Z" fill="#FFDA61"/>
<path d="M143.143 114.293C160.491 119.772 170.231 137.932 165.564 155.382C165.767 154.875 165.97 154.368 166.071 153.86C171.753 136.004 161.912 116.931 144.056 111.25C126.2 105.568 107.126 115.409 101.445 133.265C101.242 133.772 101.141 134.28 101.039 134.787C107.329 117.946 125.794 108.815 143.143 114.293Z" fill="#DB9428"/>
<path d="M165.612 155.419C171.035 138.386 160.974 119.976 143.141 114.298C125.308 108.62 106.455 117.824 101.032 134.857C95.6091 151.889 105.669 170.299 123.503 175.977C141.336 181.655 160.189 172.451 165.612 155.419Z" fill="#FFC400"/>
<path d="M136.446 142.498C132.692 139.352 132.184 138.135 132.692 136.715C133.098 135.396 134.518 134.28 137.257 135.193C140.098 136.106 141.518 137.628 142.127 138.338C142.431 138.642 142.837 138.845 143.243 138.845C143.649 138.845 144.055 138.642 144.359 138.236L146.591 135.396C146.997 134.787 146.997 133.975 146.49 133.468C145.171 131.946 143.547 130.83 141.518 129.917L142.634 126.569C142.837 125.758 142.431 124.946 141.62 124.642L138.678 123.728C137.866 123.526 137.054 123.931 136.75 124.743L135.532 128.497C130.663 128.294 126.807 130.729 125.387 135.091C123.662 140.57 127.315 144.425 131.17 147.57C134.619 150.512 134.721 152.136 134.315 153.455C133.706 155.382 131.576 156.194 128.938 155.382C126.807 154.672 124.778 153.353 123.358 151.628C123.054 151.223 122.648 151.02 122.141 151.02C121.633 151.02 121.227 151.223 120.923 151.628L118.691 154.469C118.285 154.976 118.285 155.788 118.691 156.295C120.01 158.02 122.242 159.643 124.778 160.759L123.662 164.31C123.459 165.122 123.865 165.933 124.677 166.238L127.721 167.252C128.532 167.455 129.344 167.049 129.648 166.238L130.866 162.383C135.837 162.585 139.996 159.948 141.417 155.484C143.446 149.396 139.794 145.338 136.446 142.498Z" fill="#DB9428"/>
<path d="M137.055 140.774C133.301 137.629 132.794 136.411 133.301 134.991C133.707 133.672 135.127 132.556 137.867 133.469C140.707 134.382 142.128 135.904 142.736 136.614C143.041 136.919 143.447 137.122 143.852 137.122C144.258 137.122 144.664 136.919 144.968 136.513L147.2 133.672C147.606 133.063 147.606 132.252 147.099 131.744C145.78 130.223 144.157 129.107 142.128 128.194L143.244 124.846C143.447 124.034 143.041 123.222 142.229 122.918L139.287 122.005C138.475 121.802 137.664 122.208 137.359 123.019L136.142 126.773C131.272 126.57 127.417 129.005 125.996 133.368C124.272 138.846 127.924 142.701 131.779 145.847C135.229 148.789 135.33 150.412 134.924 151.731C134.316 153.659 132.185 154.47 129.547 153.659C127.417 152.948 125.388 151.629 123.967 149.905C123.663 149.499 123.257 149.296 122.75 149.296C122.243 149.296 121.837 149.499 121.532 149.905L119.3 152.745C118.895 153.253 118.895 154.064 119.3 154.572C120.619 156.296 122.851 157.92 125.388 159.036L124.272 162.587C124.069 163.398 124.475 164.21 125.286 164.514L128.33 165.529C129.142 165.732 129.953 165.326 130.258 164.514L131.475 160.659C136.446 160.862 140.606 158.224 142.026 153.76C144.055 147.571 140.403 143.513 137.055 140.774Z" fill="#FFDA61"/>
<path d="M38.2469 127.052C59.37 127.052 76.4937 109.929 76.4937 88.8055C76.4937 67.6823 59.37 50.5586 38.2469 50.5586C17.1237 50.5586 0 67.6823 0 88.8055C0 109.929 17.1237 127.052 38.2469 127.052Z" fill="#FFDA61"/>
<path d="M32.049 62.147C47.8758 58.4946 63.6012 67.9299 67.8623 83.4524C67.7609 82.9451 67.6594 82.5393 67.558 82.032C63.8041 65.7993 47.6729 55.6539 31.4402 59.4077C15.2075 63.1615 5.06212 79.2928 8.81593 95.6269C8.91738 96.1342 9.01884 96.54 9.12029 96.9458C6.27957 81.2204 16.2221 65.7993 32.049 62.147Z" fill="#DB9428"/>
<path d="M45.0238 118.217C61.2391 114.474 71.4831 98.8705 67.9043 83.3648C64.3254 67.8592 48.279 58.3235 32.0637 62.0661C15.8483 65.8088 5.60434 81.4126 9.18317 96.9182C12.762 112.424 28.8084 121.96 45.0238 118.217Z" fill="#FFC400"/>
<path d="M39.76 86.8011C35.3975 86.0909 34.5859 85.3807 34.2815 84.0618C33.9771 82.8443 34.5859 81.424 37.0208 80.8153C39.5571 80.2065 41.3833 80.8153 42.1949 81.0182C42.6007 81.1196 43.0066 81.1196 43.3109 80.8153C43.6153 80.6124 43.8182 80.308 43.9197 79.9022L44.3255 76.7571C44.4269 76.1484 44.0211 75.5396 43.4124 75.3367C41.6877 74.8295 39.9629 74.6265 37.9338 74.8295L37.2237 71.7858C37.0208 71.0756 36.3106 70.6698 35.6004 70.7713L32.8611 71.38C32.151 71.5829 31.7451 72.2931 31.8466 73.0033L32.6582 76.3513C28.803 78.3804 26.9768 82.0327 27.8899 85.9894C29.0059 90.9607 33.6728 92.2796 37.9338 92.8883C41.8906 93.497 42.7022 94.7145 43.0066 95.9319C43.4124 97.7581 42.0935 99.2799 39.76 99.8887C37.8324 100.294 35.6004 100.193 33.7742 99.4828C33.3684 99.3814 32.9626 99.3814 32.6582 99.5843C32.3539 99.7872 32.0495 100.193 32.0495 100.599L31.6437 103.744C31.5422 104.353 31.948 104.86 32.4553 105.164C34.18 105.874 36.7164 106.179 39.1513 105.874L39.8615 109.121C40.0644 109.831 40.7746 110.237 41.4847 110.136L44.224 109.527C44.9342 109.324 45.34 108.614 45.2386 107.904L44.5284 104.353C48.4851 102.324 50.4127 98.3668 49.4996 94.2072C48.1807 88.8301 43.6153 87.4098 39.76 86.8011Z" fill="#DB9428"/>
<path d="M39.3538 85.0765C34.9912 84.3663 34.1796 83.6561 33.8752 82.3372C33.5709 81.1197 34.1796 79.6994 36.6145 79.0906C39.1509 78.4819 40.977 79.0907 41.7887 79.2936C42.1945 79.395 42.6003 79.395 42.9047 79.0906C43.209 78.8877 43.4119 78.5834 43.5134 78.1776L43.9192 75.0325C44.0207 74.4238 43.6149 73.815 43.0061 73.6121C41.2814 73.1048 39.5567 72.9019 37.5276 73.1048L36.8174 70.0612C36.6145 69.351 35.9043 68.9452 35.1941 69.0467L32.4549 69.6554C31.7447 69.8583 31.3389 70.5685 31.4403 71.2787L32.252 74.6267C28.3967 76.6557 26.5705 80.3081 27.4836 84.2648C28.5996 89.2361 33.2665 90.555 37.5276 91.1637C41.4843 91.7724 42.2959 92.9899 42.6003 94.2073C43.0061 96.0335 41.6872 97.5553 39.3538 98.1641C37.4261 98.5699 35.1941 98.4684 33.368 97.7582C32.9622 97.6568 32.5563 97.6568 32.252 97.8597C31.9476 98.0626 31.6432 98.4684 31.6432 98.8742L31.3389 102.222C31.2374 102.831 31.6432 103.338 32.1505 103.643C33.8752 104.353 36.4116 104.657 38.8465 104.353L39.5567 107.599C39.7596 108.309 40.4698 108.715 41.18 108.614L43.9192 108.005C44.6294 107.802 45.0352 107.092 44.9338 106.382L44.1221 102.831C48.0788 100.802 50.0065 96.8451 49.0934 92.6855C47.8759 87.207 43.209 85.7866 39.3538 85.0765Z" fill="#FFDA61"/>
</svg>
