<svg width="39" height="48" viewBox="0 0 39 48" fill="none" xmlns="http://www.w3.org/2000/svg">
<path d="M32.2 23.4C28.2 16.5 19.4 14.2 12.6 18.1L2.2 24.1C1.4 24.6 0.7 25.1 0 25.7V40C0 44.4 3.6 48 8 48H18.4L27 43C33.9 39.1 36.2 30.3 32.2 23.4Z" fill="#2684FF"/>
<path d="M11.3997 4.7002L5.69966 8.0002C3.49966 9.2002 2.79966 12.0002 3.99966 14.2002C4.59966 15.2002 5.59966 16.0002 6.69966 16.3002C7.89966 16.6002 9.09967 16.5002 10.0997 15.8002L24.3997 7.5002C28.4997 5.1002 33.6997 6.5002 36.0997 10.6002C38.4997 14.7002 37.0997 19.9002 32.9997 22.3002L31.8997 22.9002L32.3997 23.8002L33.4997 23.2002C38.0997 20.6002 39.5997 14.7002 36.9997 10.2002C34.3997 5.6002 28.4997 4.1002 23.9997 6.7002L9.69966 15.0002C8.89966 15.5002 7.89966 15.6002 6.99966 15.4002C6.09966 15.2002 5.29967 14.6002 4.89967 13.8002C3.89967 12.1002 4.49966 10.0002 6.19966 9.0002L11.8997 5.7002C12.8997 5.1002 13.6997 4.1002 13.9997 3.0002C14.1997 2.1002 14.1997 1.1002 13.7997 0.200195H12.7997C13.6997 1.7002 13.0997 3.7002 11.3997 4.7002Z" fill="#2684FF"/>
<path d="M28.1 42.3004C34.1 38.1004 36 29.9004 32.3 23.4004L21 29.9004L28.1 42.3004Z" fill="#0047BA"/>
<path d="M13.7002 17.4999C20.4002 14.3999 28.4002 16.8999 32.2002 23.3999L20.9002 29.8999L13.7002 17.4999Z" fill="#0047BA"/>
<path d="M31.7229 22.464L20.377 29.0127L21.3768 30.7449L32.7227 24.1962L31.7229 22.464Z" fill="#015CE6"/>
</svg>
