<svg width="43" height="43" viewBox="0 0 43 43" fill="none" xmlns="http://www.w3.org/2000/svg">
<path d="M17.9 0C10.9 0 4.6 2.9 0 7.5V35C0 39.4 3.6 43 8 43H35.5C40.1 38.4 43 32.1 43 25.1C43 11.3 31.7 0 17.9 0Z" fill="#DDDEE2"/>
<path d="M23.4002 19.6996C23.4002 18.7996 22.7002 18.0996 21.8002 18.0996C20.9002 18.0996 20.2002 18.7996 20.2002 19.6996C20.2002 20.5996 20.9002 21.2996 21.8002 21.2996C22.7002 21.2996 23.4002 20.5996 23.4002 19.6996Z" fill="white"/>
<path d="M29.3006 19.6996C29.3006 18.7996 28.6006 18.0996 27.7006 18.0996C26.8006 18.0996 26.1006 18.7996 26.1006 19.6996C26.1006 20.5996 26.8006 21.2996 27.7006 21.2996C28.6006 21.2996 29.3006 20.5996 29.3006 19.6996Z" fill="white"/>
<path d="M33.6 18.0996C32.7 18.0996 32 18.7996 32 19.6996C32 20.5996 32.7 21.2996 33.6 21.2996C34.5 21.2996 35.2 20.5996 35.2 19.6996C35.2 18.7996 34.5 18.0996 33.6 18.0996Z" fill="white"/>
<path d="M28.7 29.2003C28.1 28.6003 26.3 26.8003 26.1 26.6003C24.9 25.4003 23 25.2003 21.4 26.1003C21.1 26.3003 20.8 26.5003 20.6 26.7003C20.4 27.0003 18.6 28.2003 17 26.5003C16.4 25.7003 15.8 24.8003 15.3 23.8003C14.7 22.8003 14.2 21.8003 13.8 20.8003C13.2 18.5003 15.1 17.6003 15.5 17.6003C15.8 17.5003 16.2 17.4003 16.5 17.2003C18 16.3003 18.8 14.5003 18.4 12.9003C18.3 12.6003 17.7 10.1003 17.5 9.30035C17.3 8.70035 17.1 8.10035 16.7 7.50035C15.6 6.00035 13.6 5.50035 11.8 6.30035C11.3 6.50035 10.9 6.80035 10.5 7.00035C8.4 8.20035 7 10.4003 7 12.5003C7 17.2003 8.1 22.0003 10.7 26.3003C13.2 30.6003 16.6 33.9003 20.6 36.2003C22.6 37.4003 25.1 37.5003 27.2 36.3003C27.6 36.0003 28.1 35.8003 28.5 35.5003C30 34.4003 30.6 32.4003 29.8 30.7003C29.6 30.2003 29.1 29.7003 28.7 29.2003Z" fill="#C1C7D0"/>
</svg>
