<svg width="44" height="44" viewBox="0 0 44 44" fill="none" xmlns="http://www.w3.org/2000/svg">
<path d="M29.7 1.00785C29.1 0.0078522 27.9 -0.292148 27 0.307852L0 15.9079V35.0079C0 39.4079 3.6 43.0079 8 43.0079H13L42 26.2079C43 25.6079 43.3 24.4079 42.7 23.5079L29.7 1.00785Z" fill="#DDDEE2"/>
<path d="M37.5004 22.5076L15.9004 19.1076C14.1004 18.8076 12.3004 19.8076 11.7004 21.5076L3.90039 41.8076C4.50039 42.1076 5.10039 42.4076 5.70039 42.6076L13.5004 22.3076C13.8004 21.5076 14.7004 21.0076 15.6004 21.1076L37.2004 24.5076C37.8004 24.6076 38.3004 24.2076 38.3004 23.7076C38.4004 23.1076 38.0004 22.6076 37.5004 22.5076Z" fill="white"/>
<path d="M27 0.307958L0 15.908V25.008L15.9 27.908C17.4 28.208 18.8 27.308 19.3 26.008L28.5 0.107958C27.9 -0.092042 27.4 0.00795829 27 0.307958Z" fill="#C1C7D0"/>
</svg>
