<svg width="107" height="130" viewBox="0 0 107 130" fill="none" xmlns="http://www.w3.org/2000/svg">
<path d="M44.199 120.777C44.5888 117.97 44.8227 115.163 44.9007 112.279C45.3685 101.987 44.3549 91.7737 41.86 81.7941C41.3922 80.0009 44.199 79.0653 44.6668 80.9365C46.7718 89.5127 47.9413 98.3228 47.9413 107.211C47.9413 111.421 47.7074 115.631 47.2396 119.841C47.0837 120.933 47.0057 122.024 46.8498 123.116C46.8498 123.194 46.8498 123.272 46.7718 123.428C49.1888 122.258 51.9956 122.804 53.6328 124.675C53.9447 125.065 54.0227 125.221 54.4905 126.001C54.8803 126.702 55.0362 127.56 55.1142 128.496C55.1922 129.509 54.2566 130.133 53.321 129.977C50.8261 129.587 48.0973 129.275 45.6803 128.418C44.5888 128.028 43.8091 127.638 43.4973 126.469C43.1854 124.753 44.043 122.57 44.199 120.777Z" fill="black"/>
<path d="M82.0125 120.153C82.4023 117.346 82.6362 114.539 82.7141 111.655C83.1819 101.363 82.1684 91.1497 79.6735 81.1701C79.2057 79.3768 82.0125 78.4413 82.4803 80.3124C84.5853 88.8887 85.7548 97.6988 85.7548 106.587C85.7548 110.797 85.5209 115.007 85.0531 119.217C84.8972 120.309 84.8192 121.4 84.6633 122.492C84.6633 122.57 84.6633 122.648 84.5853 122.804C87.0023 121.634 89.809 122.18 91.4463 124.051C91.7582 124.441 91.8362 124.597 92.3039 125.377C92.6938 126.078 92.8497 126.936 92.9277 127.872C93.0056 128.885 92.07 129.509 91.1345 129.353C88.6396 128.963 85.9107 128.651 83.4938 127.794C82.4023 127.404 81.6226 127.014 81.3108 125.844C80.9209 124.051 81.7786 121.868 82.0125 120.153Z" fill="black"/>
<path d="M89.6528 44.9157C85.7545 24.2548 67.4325 10.2209 48.2529 12.8718C48.7987 12.7158 49.4224 12.6379 49.9682 12.4819C69.8495 8.73956 89.185 23.0073 93.1613 44.292C97.1375 65.5767 84.2732 85.8478 64.3919 89.5122C63.8461 89.5901 63.2224 89.7461 62.6766 89.824C81.5443 85.2241 93.5511 65.5767 89.6528 44.9157Z" fill="#EBAD2A"/>
<path d="M57.6868 102.61C44.5886 105.027 31.3344 101.83 20.4971 93.566C10.2836 85.7694 3.34465 74.3864 0.927709 61.3661C-1.48923 48.3458 0.849742 35.2475 7.55481 24.2543C14.7277 12.6374 25.8768 4.91881 38.975 2.4239L47.7072 0.786621L66.419 100.973L57.6868 102.61Z" fill="#EBAD2A"/>
<path d="M66.4972 100.973C79.5955 98.556 90.7446 90.7594 97.9175 79.0645C104.623 68.1493 106.962 54.9731 104.545 41.9528C102.128 28.9325 95.1887 17.5495 84.9751 9.75288C74.0599 1.56647 60.8057 -1.63013 47.7075 0.786808C34.6092 3.28172 23.4601 11.0003 16.2872 22.6952C9.58216 33.6104 7.24319 46.7867 9.66013 59.807C12.0771 72.8273 19.016 84.2103 29.2296 92.0069C40.1448 100.193 53.321 103.468 66.4972 100.973Z" fill="#FFDB61"/>
<path d="M62.7008 89.7708C81.6192 86.2312 93.7331 66.1384 89.758 44.8922C85.7828 23.646 67.224 9.29205 48.3056 12.8317C29.3872 16.3713 17.2733 36.4641 21.2484 57.7103C25.2236 78.9565 43.7824 93.3105 62.7008 89.7708Z" fill="#FFC400"/>
<path d="M63.6128 36.417C65.5935 36.417 67.1992 34.8113 67.1992 32.8306C67.1992 30.8498 65.5935 29.2441 63.6128 29.2441C61.6321 29.2441 60.0264 30.8498 60.0264 32.8306C60.0264 34.8113 61.6321 36.417 63.6128 36.417Z" fill="black"/>
<path d="M35.311 44.915C37.2918 44.915 38.8975 43.3093 38.8975 41.3286C38.8975 39.3479 37.2918 37.7422 35.311 37.7422C33.3303 37.7422 31.7246 39.3479 31.7246 41.3286C31.7246 43.3093 33.3303 44.915 35.311 44.915Z" fill="black"/>
<path d="M45.291 37.8984C46.0707 40.5492 48.8774 42.0306 51.5283 41.2509C54.1791 40.4713 55.6605 37.6645 54.8808 35.0137L45.291 37.8984Z" fill="black"/>
<path d="M31.5685 44.993C32.582 45.8506 32.9718 46.2404 33.9854 47.0201C34.6871 47.5659 33.5176 48.6574 32.8939 48.0337C31.8803 47.176 31.4905 46.7862 30.4769 46.0065C29.7752 45.4608 30.9447 44.4472 31.5685 44.993Z" fill="#D74343"/>
<path d="M28.2159 46.0067C29.2295 46.8643 29.6193 47.2541 30.6329 48.0338C31.3346 48.5795 30.1651 49.6711 29.5413 49.0473C28.5278 48.1897 28.138 47.7999 27.1244 47.0202C26.4227 46.4745 27.5922 45.4609 28.2159 46.0067Z" fill="#D74343"/>
<path d="M24.8636 47.0203C25.8772 47.878 26.267 48.2678 27.2805 49.0474C27.9822 49.5932 26.8127 50.6847 26.189 50.061C25.1755 49.2034 24.7856 48.8135 23.7721 48.0339C23.0704 47.4881 24.1619 46.4746 24.8636 47.0203Z" fill="#D74343"/>
<path d="M76.2435 31.6608C77.257 32.5185 77.6469 32.9083 78.6604 33.688C79.3621 34.2337 78.1926 35.3252 77.5689 34.7015C76.5553 33.8439 76.1655 33.4541 75.152 32.6744C74.4503 32.0507 75.5418 31.0371 76.2435 31.6608Z" fill="#D74343"/>
<path d="M72.8909 32.6745C73.9045 33.5321 74.2943 33.922 75.3079 34.7016C76.0096 35.2474 74.8401 36.3389 74.2164 35.7152C73.2028 34.8576 72.813 34.4677 71.7994 33.6881C71.0977 33.0643 72.1893 32.0508 72.8909 32.6745Z" fill="#D74343"/>
<path d="M69.5384 33.6877C70.552 34.5453 70.9418 34.9352 71.9553 35.7148C72.657 36.2606 71.4876 37.3521 70.8638 36.7284C69.8503 35.8707 69.4604 35.4809 68.4469 34.7013C67.7452 34.0775 68.8367 33.064 69.5384 33.6877Z" fill="#D74343"/>
<path d="M51.9172 77.9729C51.8393 77.5051 51.6054 76.9593 51.0596 76.8034C48.9545 76.1017 44.4325 76.7254 43.6528 79.4542C43.6528 79.5322 43.5749 79.6881 43.5749 79.7661C38.9749 79.1424 32.9715 77.1153 32.1139 76.8034C27.202 74.8542 22.6021 72.2814 18.08 69.6305C16.4428 68.6949 15.1953 71.3458 16.8326 72.2814C23.5377 76.1797 30.3986 79.8441 37.8834 81.7932C41.5478 82.6508 53.2426 85.2237 51.9172 77.9729Z" fill="black"/>
<path d="M101.178 39.7527C102.036 40.6103 103.283 41.0781 104.531 41.0781C104.92 41.0781 105.31 41.0781 105.622 40.8442C106.168 40.5324 106.324 39.8307 106.324 39.2069C106.402 38.3493 106.246 37.4137 105.622 36.868C105.076 36.3222 104.219 36.1663 103.517 36.0883C102.659 36.0103 100.632 35.7764 100.164 36.6341C99.6187 37.5697 100.554 39.2069 101.178 39.7527Z" fill="black"/>
</svg>
