<svg width="80" height="80" viewBox="0 0 80 80" fill="none" xmlns="http://www.w3.org/2000/svg">
<mask id="mask0" mask-type="alpha" maskUnits="userSpaceOnUse" x="0" y="0" width="80" height="80">
<path d="M40 80C62.0914 80 80 62.0914 80 40C80 17.9086 62.0914 0 40 0C17.9086 0 0 17.9086 0 40C0 62.0914 17.9086 80 40 80Z" fill="#FFE381"/>
</mask>
<g mask="url(#mask0)">
<path d="M40 80C62.0914 80 80 62.0914 80 40C80 17.9086 62.0914 0 40 0C17.9086 0 0 17.9086 0 40C0 62.0914 17.9086 80 40 80Z" fill="#FFE381"/>
<path d="M70.0023 52.0999L8.00226 87.8999C6.40226 88.7999 4.40225 88.2999 3.40225 86.6999L-18.2977 49.1999C-19.1977 47.5999 -18.6977 45.5999 -17.0977 44.5999L44.9023 8.79991C46.5023 7.89991 48.5023 8.39992 49.5023 9.99992L71.2023 47.4999C72.2023 49.1999 71.6023 51.1999 70.0023 52.0999Z" fill="#FFC400"/>
<path d="M62.3024 47.4999L26.3024 41.8999C24.1024 41.5999 21.9023 42.7999 21.0023 44.8999L7.90234 78.8999" stroke="#FFE381" stroke-width="3.3333" stroke-miterlimit="10" stroke-linecap="round" stroke-linejoin="round"/>
<path d="M26.5039 54.7999C28.9039 55.1999 31.3039 53.8999 32.1039 51.5999L47.4039 8.4999C46.6039 8.2999 45.7039 8.39989 45.0039 8.89989L-16.9961 44.6999C-17.7961 45.0999 -18.2961 45.7999 -18.4961 46.5999L26.5039 54.7999Z" fill="#FF991E"/>
</g>
</svg>
