<svg width="80" height="80" viewBox="0 0 80 80" fill="none" xmlns="http://www.w3.org/2000/svg">
<mask id="mask0" mask-type="alpha" maskUnits="userSpaceOnUse" x="0" y="0" width="80" height="80">
<path d="M40 80C62.0914 80 80 62.0914 80 40C80 17.9086 62.0914 0 40 0C17.9086 0 0 17.9086 0 40C0 62.0914 17.9086 80 40 80Z" fill="#2684FF"/>
</mask>
<g mask="url(#mask0)">
<path d="M40 80C62.0914 80 80 62.0914 80 40C80 17.9086 62.0914 0 40 0C17.9086 0 0 17.9086 0 40C0 62.0914 17.9086 80 40 80Z" fill="#2684FF"/>
<path fill-rule="evenodd" clip-rule="evenodd" d="M75.6005 69.4998C75.4005 69.4998 75.3005 69.4998 75.1005 69.4998L17.2005 64.2998C15.7005 64.1998 14.3005 63.3998 13.3005 62.1998C12.3005 60.9998 11.8005 59.4998 12.0005 57.9998L13.8005 37.5998C13.9005 36.0998 14.7005 34.6998 15.9005 33.6998C16.9005 32.7998 18.3005 32.2998 19.6005 32.2998C19.8005 32.2998 19.9005 32.2998 20.1005 32.2998L78.0005 37.4998C79.5005 37.5998 80.9005 38.3998 81.9005 39.5998C82.9005 40.7998 83.4005 42.2998 83.2005 43.7998L81.4005 64.1998C81.3005 65.6998 80.5005 67.0998 79.3005 68.0998C78.2005 68.9998 76.9005 69.4998 75.6005 69.4998Z" fill="#015CE6"/>
<path d="M28.3984 33.1002L48.2984 -0.299805L68.7984 36.6002" stroke="#0047BA" stroke-width="3" stroke-miterlimit="10" stroke-linecap="round" stroke-linejoin="round"/>
<path d="M48.1984 8.6C51.954 8.6 54.9984 5.55554 54.9984 1.8C54.9984 -1.95554 51.954 -5 48.1984 -5C44.4429 -5 41.3984 -1.95554 41.3984 1.8C41.3984 5.55554 44.4429 8.6 48.1984 8.6Z" fill="#015CE6"/>
<path fill-rule="evenodd" clip-rule="evenodd" d="M68.5969 46.5001L73.7969 57.2001L74.5969 47.0001C74.6969 46.3001 74.7969 45.9001 75.0969 45.6001C75.3969 45.3001 75.6969 45.2001 76.1969 45.2001C76.5969 45.2001 76.9969 45.4001 77.1969 45.8001C77.3969 46.2001 77.4969 46.7001 77.4969 47.3001L76.4969 60.8001C76.3969 62.3001 75.7969 63.0001 74.6969 62.9001C74.3969 62.9001 74.1969 62.8001 73.9969 62.7001C73.7969 62.6001 73.5969 62.4001 73.3969 62.2001C73.1969 62.0001 73.0969 61.7001 72.8969 61.5001C72.7969 61.2001 72.5969 60.9001 72.4969 60.7001L67.4969 50.2001L66.6969 60.2001C66.6969 60.9001 66.4969 61.3001 66.1969 61.6001C65.8969 61.9001 65.4969 62.0001 65.0969 62.0001C64.6969 62.0001 64.2969 61.8001 64.0969 61.4001C63.8969 61.0001 63.7969 60.5001 63.7969 59.9001L64.7969 46.7001C64.7969 46.1001 64.8969 45.7001 65.0969 45.4001C65.2969 45.1001 65.4969 44.8001 65.7969 44.6001C66.0969 44.4001 66.4969 44.3001 66.7969 44.4001C67.0969 44.4001 67.2969 44.5001 67.4969 44.6001C67.6969 44.7001 67.8969 44.9001 67.9969 45.1001C68.0969 45.3001 68.2969 45.5001 68.3969 45.8001C68.2969 45.9001 68.4969 46.2001 68.5969 46.5001Z" fill="#2684FF"/>
<path fill-rule="evenodd" clip-rule="evenodd" d="M60.3969 46.5L53.3969 45.8L53.0969 50L59.4969 50.6C59.9969 50.6 60.2969 50.8 60.4969 51.1C60.6969 51.4 60.7969 51.7 60.7969 52.1C60.7969 52.5 60.5969 52.8 60.3969 53C60.1969 53.2 59.7969 53.3 59.2969 53.3L52.8969 52.7L52.4969 57.6L59.6969 58.3C60.1969 58.3 60.4969 58.5 60.7969 58.8C60.9969 59.1 61.0969 59.4 61.0969 59.8C61.0969 60.2 60.8969 60.5 60.6969 60.7C60.2969 61 59.9969 61 59.4969 61L51.0969 60.2C50.3969 60.1 49.9969 59.9 49.6969 59.6C49.3969 59.2 49.2969 58.7 49.3969 57.9L50.3969 45C50.3969 44.5 50.4969 44.1 50.6969 43.8C50.8969 43.5 51.0969 43.3 51.3969 43.2C51.6969 43.1 52.0969 43 52.4969 43.1L60.6969 43.9C61.1969 43.9 61.5969 44.1 61.7969 44.4C61.9969 44.7 62.0969 45 62.0969 45.4C62.0969 45.8 61.8969 46.1 61.6969 46.3C61.1969 46.5 60.7969 46.6 60.3969 46.5Z" fill="#2684FF"/>
<path fill-rule="evenodd" clip-rule="evenodd" d="M47.3 45.5C47.1 44.8 46.8 44.2 46.4 43.7C46 43.2 45.5 42.8 44.9 42.6C44.3 42.3 43.4 42.1 42.2 42L38.2 41.6C37.5 41.5 37 41.6 36.7 41.9C36.4 42.2 36.2 42.7 36.1 43.5L35.1 56.7C35 57.4 35.1 57.9 35.4 58.3C35.7 58.7 36 58.9 36.5 58.9C36.9 58.9 37.3 58.8 37.6 58.5C37.9 58.2 38.1 57.7 38.2 57L38.6 52.2L41.4 52.5C43.3 52.7 44.8 52.4 45.8 51.6C46.8 50.8 47.4 49.5 47.5 47.8C47.6 46.9 47.5 46.1 47.3 45.5ZM44.4 47.5C44.4 48.1 44.2 48.6 43.9 49C43.6 49.4 43.2 49.6 42.7 49.7C42.2 49.8 41.6 49.8 40.8 49.8L38.7 49.6L39.1 44.4L41.2 44.6C42.6 44.7 43.5 45.1 43.9 45.6C44.3 46.1 44.4 46.7 44.4 47.5Z" fill="#2684FF"/>
<path fill-rule="evenodd" clip-rule="evenodd" d="M32.3986 44.9C31.8986 43.5 31.0986 42.4 30.0986 41.6C28.9986 40.8 27.6986 40.3 26.0986 40.1C24.8986 40 23.8986 40.1 22.8986 40.4C21.9986 40.7 21.0986 41.2 20.3986 41.9C19.6986 42.6 19.0986 43.5 18.6986 44.6C18.2986 45.7 17.9986 46.9 17.8986 48.2C17.7986 49.5 17.8986 50.7 18.0986 51.8C18.2986 52.9 18.6986 53.9 19.2986 54.8C19.8986 55.6 20.5986 56.3 21.4986 56.9C22.3986 57.4 23.4986 57.8 24.6986 57.9C25.8986 58 26.9986 57.9 27.8986 57.6C28.8986 57.3 29.6986 56.7 30.3986 56C31.0986 55.3 31.5986 54.4 32.0986 53.3C32.4986 52.3 32.7986 51.1 32.8986 49.7C33.0986 47.9 32.8986 46.3 32.3986 44.9ZM29.7986 49.3C29.6986 50.7 29.3986 51.8 28.9986 52.7C28.4986 53.6 27.9986 54.2 27.2986 54.6C26.4986 55 25.7986 55.1 24.9986 55C24.3986 54.9 23.7986 54.8 23.2986 54.4C22.7986 54.1 22.3986 53.7 21.9986 53.1C21.5986 52.5 21.3986 51.9 21.1986 51.1C20.9986 50.3 20.9986 49.4 21.0986 48.4C21.1986 47.4 21.3986 46.6 21.5986 45.8C21.8986 45 22.1986 44.4 22.5986 44C22.9986 43.5 23.4986 43.2 23.9986 43C24.4986 42.8 25.0986 42.7 25.6986 42.8C26.5986 42.9 27.2986 43.2 27.9986 43.7C28.5986 44.2 29.0986 45 29.3986 45.9C29.7986 47 29.8986 48.1 29.7986 49.3Z" fill="#2684FF"/>
</g>
</svg>
