<svg width="80" height="80" viewBox="0 0 80 80" fill="none" xmlns="http://www.w3.org/2000/svg">
<mask id="mask0" mask-type="alpha" maskUnits="userSpaceOnUse" x="0" y="0" width="80" height="80">
<path d="M40 80C62.0914 80 80 62.0914 80 40C80 17.9086 62.0914 0 40 0C17.9086 0 0 17.9086 0 40C0 62.0914 17.9086 80 40 80Z" fill="#79F2C0"/>
</mask>
<g mask="url(#mask0)">
<path d="M40 80C62.0914 80 80 62.0914 80 40C80 17.9086 62.0914 0 40 0C17.9086 0 0 17.9086 0 40C0 62.0914 17.9086 80 40 80Z" fill="#79F2C0"/>
<path d="M29.7984 92.1999C52.9392 92.1999 71.6984 73.4406 71.6984 50.2999C71.6984 27.1592 52.9392 8.3999 29.7984 8.3999C6.65771 8.3999 -12.1016 27.1592 -12.1016 50.2999C-12.1016 73.4406 6.65771 92.1999 29.7984 92.1999Z" fill="#57D9A3"/>
<path d="M55.9969 38.6001C57.3969 38.6001 58.5969 39.8001 58.5969 41.2001C58.5969 42.6001 57.3969 43.8001 55.9969 43.8001C54.5969 43.8001 53.3969 42.6001 53.3969 41.2001C53.3969 39.7001 54.5969 38.6001 55.9969 38.6001ZM46.1969 38.6001C47.5969 38.6001 48.7969 39.8001 48.7969 41.2001C48.7969 42.6001 47.5969 43.8001 46.1969 43.8001C44.7969 43.8001 43.5969 42.6001 43.5969 41.2001C43.5969 39.7001 44.7969 38.6001 46.1969 38.6001ZM36.3969 38.6001C37.7969 38.6001 38.9969 39.8001 38.9969 41.2001C38.9969 42.6001 37.7969 43.8001 36.3969 43.8001C34.9969 43.8001 33.7969 42.6001 33.7969 41.2001C33.7969 39.7001 34.9969 38.6001 36.3969 38.6001Z" fill="#79F2C0"/>
<path d="M17.0989 20.1999C17.7989 19.7999 18.5989 19.2999 19.2989 18.9999C22.0989 17.6999 25.4989 18.5998 27.3989 21.0998C28.0989 21.9998 28.3989 22.9999 28.6989 23.9999C29.0989 25.3999 30.0989 29.3999 30.2989 29.9999C30.8989 32.7999 29.6989 35.6999 27.0989 37.1999C26.5989 37.4999 25.9989 37.7999 25.4989 37.8999C24.8989 37.9999 21.6989 39.4998 22.6989 43.2998C23.3989 44.9998 24.1989 46.5998 25.1989 48.2998C26.0989 49.8998 27.0989 51.2999 28.0989 52.6999L28.1989 52.7998C30.9989 55.5998 33.7989 53.5998 34.1989 53.0998C34.5989 52.6998 35.0989 52.2999 35.5989 51.9999C38.1989 50.4999 41.2989 50.9999 43.3989 52.8999C43.7989 53.2999 46.7989 56.1999 47.7989 57.1999C48.5989 57.9999 49.2989 58.7998 49.6989 59.7998C50.8989 62.6998 49.9989 65.9998 47.4989 67.7998C46.7989 68.2998 45.9989 68.6998 45.2989 69.0998C41.7989 71.0998 37.4989 70.8999 34.2989 68.8999C27.6989 64.9999 21.8989 59.4998 17.7989 52.2998C13.5989 44.9998 11.5989 37.0998 11.6989 29.2998C11.6989 25.5998 13.9989 21.9999 17.0989 20.1999Z" fill="#00875A"/>
</g>
</svg>
