<svg width="1180" height="100" viewBox="0 0 1180 100" fill="none" xmlns="http://www.w3.org/2000/svg">
<mask id="mask0" mask-type="alpha" maskUnits="userSpaceOnUse" x="0" y="0" width="1180" height="100">
<path d="M0 8C0 3.58172 3.58172 0 8 0H1172C1176.42 0 1180 3.58172 1180 8V92C1180 96.4183 1176.42 100 1172 100H8.00001C3.58173 100 0 96.4183 0 92V8Z" fill="#172B4D"/>
</mask>
<g mask="url(#mask0)">
<path d="M0 8C0 3.58172 3.58172 0 8 0H1172C1176.42 0 1180 3.58172 1180 8V92C1180 96.4183 1176.42 100 1172 100H8.00001C3.58173 100 0 96.4183 0 92V8Z" fill="#172B4D"/>
<path d="M0 48.8284C0 48.8284 60.1 51.2284 105.9 47.1284C169.8 41.4284 272.5 13.4543 294 11.5284C416.8 0.528448 414.7 28.7284 494.1 32.9284C573.5 37.1284 579 21.2284 640.4 24.6284C704 28.2284 722.5 48.8284 820.5 48.8284C939.7 48.8284 1023.9 1.12845 1180 24.7284V99.6284H0V48.8284Z" fill="#2F415F"/>
<path d="M525 99.9654C609.233 64.0434 663.289 79.6165 723.851 63.3859C780.468 48.1934 802.202 30.4747 857.815 18.5007C912.355 6.7689 962.086 17.8085 1038.74 -13.2685C1113.28 -43.4804 1154.74 -51.2323 1179.59 -49.8481V100H525V99.9654Z" fill="#465672"/>
<path d="M887 99.9651C920.846 84.0805 972.479 78.0935 1022.35 84.7726C1068.62 91.0019 1101.74 84.0805 1121.77 78.5434C1149.39 70.9644 1164.58 59.8902 1179.77 61.2745V99.9304H887V99.9651Z" fill="#5E6C84"/>
<path d="M400 100C370 78.4728 298.165 62.4654 235.083 74.7327C172 87 106.619 84.0372 79.2435 78.4728C41.513 70.8565 20.7565 59.7277 0 61.1188V99.9652H400V100Z" fill="#465672"/>
</g>
</svg>
