<svg width="173" height="112" viewBox="0 0 173 112" fill="none" xmlns="http://www.w3.org/2000/svg">
<path d="M93.9427 109.325C93.0716 107.002 90.3856 106.712 88.2078 107.147C88.1352 106.639 89.5871 101.049 90.1678 99.0893C91.4019 94.7337 92.636 90.5233 93.3619 86.0952C93.5797 84.7159 91.4019 84.0626 91.1841 85.5144C90.6034 89.4344 89.5871 93.1367 88.4982 96.9115C87.5545 100.106 86.1752 104.389 85.8122 108.454C85.5219 111.648 90.8212 111.721 93.4345 110.559C93.8701 110.414 94.0879 109.761 93.9427 109.325Z" fill="black"/>
<path d="M75.5729 87.1842C73.6129 91.8301 70.201 94.9516 66.3536 98.0005C64.2484 99.5976 62.4336 101.63 63.3773 104.534C63.8128 105.768 65.4099 108.091 67.0069 107.075C69.0395 105.768 67.2973 102.574 66.2084 101.122C68.5314 99.2346 72.3062 95.9679 72.7418 95.4598C74.7744 93.3546 76.3714 91.0316 77.5329 88.3457C78.0411 87.039 76.1537 85.8775 75.5729 87.1842Z" fill="black"/>
<path d="M126.024 17.64C122.975 17.0593 121.16 19.6726 119.708 21.8504C116.369 27.0045 113.756 32.6668 110.925 38.1113C110.271 39.4179 112.304 40.3617 112.957 39.055C114.482 36.0787 116.006 33.0298 117.603 30.126C118.837 27.8756 120.507 23.4475 123.12 21.7778C126.677 24.1734 131.396 18.7289 126.024 17.64Z" fill="black"/>
<path d="M79.2778 88.6359C69.9133 89.507 60.8391 86.3855 53.725 79.8521C46.9738 73.8269 42.836 65.3335 41.9649 56.0416C41.0938 46.7497 43.6346 37.6029 49.0064 30.3436C54.8139 22.5762 63.1621 17.8576 72.5266 16.9865L78.7696 16.4058L85.5208 88.0552L79.2778 88.6359Z" fill="#EBAD2A"/>
<path d="M85.5193 88.0553C94.8838 87.1841 103.232 82.4656 109.039 74.6981C114.484 67.4388 116.952 58.2921 116.081 49.0001C115.21 39.7082 111.072 31.2148 104.393 25.117C97.2793 18.5836 88.2052 15.4621 78.8407 16.3333C69.4036 17.277 61.0554 21.9955 55.2479 29.763C49.8035 37.0223 47.3353 46.169 48.2064 55.4609C49.0775 64.7529 53.2153 73.2463 59.8939 79.3441C67.008 85.8775 76.1548 88.999 85.5193 88.0553Z" fill="#FFDB61"/>
<path d="M105.483 50.0889C104.104 35.2799 92.1263 24.2458 78.4062 24.8265C78.8418 24.7539 79.2048 24.6813 79.6403 24.6813C93.8686 23.3747 106.5 34.6266 107.952 49.8711C109.404 65.1157 99.0227 78.5454 84.7944 79.8521C84.3589 79.9247 83.9959 79.9247 83.5604 79.9247C97.1353 77.9647 106.863 64.8979 105.483 50.0889Z" fill="#EBAD2A"/>
<path d="M83.5296 79.95C97.061 78.6799 106.873 65.3218 105.446 50.114C104.018 34.9061 91.8916 23.6073 78.3602 24.8775C64.8288 26.1476 55.0166 39.5057 56.4441 54.7135C57.8716 69.9214 69.9982 81.2202 83.5296 79.95Z" fill="#FFC400"/>
<path d="M100.108 45.298C99.818 45.9513 99.4551 46.532 99.0921 47.1854C98.9469 47.4758 99.0921 47.8387 99.3825 47.9113C99.6729 48.0565 99.9632 47.9113 100.108 47.6209C100.471 47.0402 100.834 46.3869 101.125 45.7335C101.415 45.1528 100.399 44.6446 100.108 45.298Z" fill="#D74343"/>
<path d="M102.647 45.0802C102.357 45.7335 101.994 46.3143 101.631 46.9676C101.486 47.258 101.631 47.6209 101.922 47.6935C102.212 47.8387 102.502 47.6935 102.647 47.4032C103.01 46.8224 103.373 46.1691 103.664 45.5157C103.954 44.935 102.938 44.4268 102.647 45.0802Z" fill="#D74343"/>
<path d="M105.116 44.9349C104.826 45.5883 104.463 46.169 104.1 46.8223C103.955 47.1127 104.1 47.4757 104.39 47.5483C104.681 47.6935 104.971 47.5483 105.116 47.2579C105.479 46.6772 105.842 46.0238 106.133 45.3705C106.495 44.7897 105.479 44.2816 105.116 44.9349Z" fill="#D74343"/>
<path d="M65.3389 49.6537C65.0485 50.307 64.6855 50.8878 64.3226 51.5411C64.1774 51.8315 64.3226 52.1944 64.613 52.267C64.9033 52.4122 65.1937 52.267 65.3389 51.9766C65.7019 51.3959 66.0648 50.7426 66.3552 50.0892C66.6456 49.5085 65.6293 49.0003 65.3389 49.6537Z" fill="#D74343"/>
<path d="M67.8076 49.5084C67.5173 50.1617 67.1543 50.7425 66.7913 51.3958C66.6461 51.6862 66.7913 52.0492 67.0817 52.1218C67.3721 52.267 67.6625 52.1218 67.8076 51.8314C68.1706 51.2506 68.5336 50.5973 68.8239 49.944C69.1869 49.3632 68.1706 48.8551 67.8076 49.5084Z" fill="#D74343"/>
<path d="M70.3467 49.2906C70.0563 49.944 69.6934 50.5247 69.3304 51.1781C69.1852 51.4684 69.3304 51.8314 69.6208 51.904C69.9111 52.0492 70.2015 51.904 70.3467 51.6136C70.7097 51.0329 71.0726 50.3795 71.363 49.7262C71.726 49.1454 70.7097 48.6373 70.3467 49.2906Z" fill="#D74343"/>
<path d="M74.1212 48.5644C75.5645 48.5644 76.7345 47.3943 76.7345 45.951C76.7345 44.5077 75.5645 43.3376 74.1212 43.3376C72.6778 43.3376 71.5078 44.5077 71.5078 45.951C71.5078 47.3943 72.6778 48.5644 74.1212 48.5644Z" fill="black"/>
<path d="M95.3907 45.8786C96.834 45.8786 98.004 44.7085 98.004 43.2652C98.004 41.8219 96.834 40.6519 95.3907 40.6519C93.9474 40.6519 92.7773 41.8219 92.7773 43.2652C92.7773 44.7085 93.9474 45.8786 95.3907 45.8786Z" fill="black"/>
<path d="M88.2766 43.9185C88.4943 45.8785 87.1151 47.6933 85.1551 47.9837C83.195 48.2014 81.3802 46.8222 81.0898 44.8622L88.2766 43.9185Z" fill="black"/>
<path d="M34.9215 28.6742C37.9705 28.529 39.4223 31.4327 40.4386 33.8283C42.9068 39.4906 44.5764 45.4432 46.4639 51.3232C46.8994 52.7025 44.7942 53.2832 44.3586 51.9766C43.3423 48.7825 42.326 45.5884 41.2371 42.3943C40.366 39.9261 39.4949 35.2802 37.0993 33.2475C33.2519 35.0624 29.4771 28.892 34.9215 28.6742Z" fill="black"/>
<path d="M26.7825 14.8977L24.9102 15.1362L26.9472 31.123L28.8195 30.8844L26.7825 14.8977Z" fill="#DBDBDB"/>
<path d="M13.4231 16.5686L11.5508 16.8071L13.5878 32.7939L15.4601 32.5553L13.4231 16.5686Z" fill="#DBDBDB"/>
<path d="M24.8601 15.1636L13.4102 16.6226L15.4472 32.6093L26.8971 31.1504L24.8601 15.1636Z" fill="#F1F1F1"/>
<path d="M24.8914 15.1055L13.4414 16.5645L13.7993 19.3729L25.2492 17.914L24.8914 15.1055Z" fill="#BFBFBF"/>
<path d="M26.3601 26.4212L14.9102 27.8801L15.1028 29.3924L26.5528 27.9334L26.3601 26.4212Z" fill="#FFFFF7"/>
<path d="M0.149425 26.4239C-0.866879 18.6565 3.63389 18.2209 3.63389 18.2209L11.6191 17.2046L12.5628 24.8995L13.5066 32.5943L5.52132 33.6106C5.52132 33.538 1.16573 34.1188 0.149425 26.4239Z" fill="#E4D2B1"/>
<path d="M0.078125 22.7217C1.23961 21.778 2.4011 21.7054 2.4011 21.7054L11.9834 20.4713C11.7656 18.8742 11.5478 17.2046 11.5478 17.2046L3.63519 18.2209C3.63519 18.2209 0.731463 18.5113 0.078125 22.7217Z" fill="#D6B98D"/>
<path d="M145.701 16.0431L172.778 4.42818L143.668 0L145.701 16.0431Z" fill="#F7E5B0"/>
<path d="M143.958 1.96001L168.495 4.35559L172.778 4.42818L143.668 0L143.958 1.96001Z" fill="#C8B280"/>
<path d="M28.8207 30.9247L145.696 16.0431C145.696 16.0431 148.382 15.3171 146.712 11.9053L145.187 12.1231L28.3125 26.932L28.8207 30.9247Z" fill="#EB5757"/>
<path d="M28.3171 26.9321L145.192 12.0505L146.716 11.8327C146.716 11.8327 147.66 11.1794 147.225 7.69493C146.789 4.21046 145.7 3.7749 145.7 3.7749L144.176 3.99268L27.3008 18.8743L28.3171 26.9321Z" fill="#D74343"/>
<path d="M27.3011 18.8742L144.176 3.99262L145.7 3.77484C146.499 0.072593 143.668 0 143.668 0L26.793 14.8816L27.3011 18.8742Z" fill="#B92525"/>
<path d="M167.91 6.53336L172.774 4.42816L167.547 3.62964L167.91 6.53336Z" fill="black"/>
</svg>
