<svg width="480" height="422" viewBox="0 0 480 422" fill="none" xmlns="http://www.w3.org/2000/svg">
<path d="M474.12 241.337C471.048 239.63 441.353 275.128 422.58 291.852C411.658 301.409 398.688 355.68 398.688 355.68C398.688 355.68 400.394 371.039 401.418 375.135C422.58 364.895 444.083 358.069 464.221 328.033C486.066 296.29 480.946 245.091 474.12 241.337Z" fill="#57D9A3"/>
<path d="M403.808 231.439C393.227 245.433 400.054 266.253 402.784 283.661C404.491 295.607 406.539 307.212 408.587 319.158C416.437 315.062 423.605 309.943 430.773 301.751C450.57 278.882 450.911 246.457 450.911 235.534C450.911 203.791 432.821 182.971 429.749 182.288C426.677 181.947 419.168 210.959 403.808 231.439Z" fill="#00875A"/>
<mask id="mask0" mask-type="alpha" maskUnits="userSpaceOnUse" x="403" y="208" width="31" height="109">
<path d="M404.49 316.769C404.149 316.769 403.808 316.428 403.808 316.087C402.784 293.56 410.975 275.811 418.826 258.403C426.335 242.02 433.503 226.66 431.796 209.253C431.796 208.912 432.137 208.57 432.479 208.57C432.82 208.57 433.161 208.912 433.161 209.253C434.868 227.002 427.7 242.703 420.191 259.086C412.341 276.493 404.149 294.242 405.173 316.428C405.173 316.769 404.832 316.769 404.49 316.769Z" fill="url(#paint0_linear)"/>
</mask>
<g mask="url(#mask0)">
<g style="mix-blend-mode:overlay" opacity="0.5">
<path d="M404.49 316.769C404.149 316.769 403.808 316.428 403.808 316.087C402.784 293.56 410.975 275.811 418.826 258.403C426.335 242.02 433.503 226.66 431.796 209.253C431.796 208.912 432.137 208.57 432.479 208.57C432.82 208.57 433.161 208.912 433.161 209.253C434.868 227.002 427.7 242.703 420.191 259.086C412.341 276.493 404.149 294.242 405.173 316.428C405.173 316.769 404.832 316.769 404.49 316.769Z" fill="#172B4D"/>
</g>
</g>
<mask id="mask1" mask-type="alpha" maskUnits="userSpaceOnUse" x="410" y="258" width="59" height="98">
<path d="M411.659 355.339C410.977 355.339 410.977 354.997 410.977 354.656C415.414 342.71 424.971 330.081 434.869 317.111C448.863 299.02 463.199 280.248 467.636 258.744C467.636 258.403 467.977 258.062 468.319 258.403C468.66 258.403 469.001 258.744 468.66 259.086C464.223 280.93 449.887 299.703 435.552 318.134C425.653 331.105 416.096 343.392 411.659 355.339C412.342 355.339 412.001 355.339 411.659 355.339Z" fill="url(#paint1_linear)"/>
</mask>
<g mask="url(#mask1)">
<g style="mix-blend-mode:overlay" opacity="0.5">
<path d="M411.659 355.339C410.977 355.339 410.977 354.997 410.977 354.656C415.414 342.71 424.971 330.081 434.869 317.111C448.863 299.02 463.199 280.248 467.636 258.744C467.636 258.403 467.977 258.062 468.319 258.403C468.66 258.403 469.001 258.744 468.66 259.086C464.223 280.93 449.887 299.703 435.552 318.134C425.653 331.105 416.096 343.392 411.659 355.339C412.342 355.339 412.001 355.339 411.659 355.339Z" fill="#172B4D"/>
</g>
</g>
<path d="M443.744 312.332C441.013 310.625 425.312 320.182 416.438 328.033C406.54 336.566 398.348 356.704 394.252 365.578L394.593 401.076C400.054 399.028 402.785 396.638 406.54 394.249C416.438 387.764 434.869 377.183 443.061 346.464C446.474 333.494 447.157 314.38 443.744 312.332Z" fill="#79F2C0"/>
<mask id="mask2" mask-type="alpha" maskUnits="userSpaceOnUse" x="392" y="332" width="39" height="55">
<path d="M393.228 384.692C393.228 384.692 402.102 372.063 407.222 364.213C415.073 352.267 423.264 339.979 429.408 333.152C429.75 332.811 430.091 332.811 430.091 333.152C430.432 333.494 430.432 333.835 430.091 333.835C423.606 340.662 415.755 352.949 407.905 364.895C402.444 373.429 392.887 386.74 392.887 386.74L393.228 384.692Z" fill="url(#paint2_linear)"/>
</mask>
<g mask="url(#mask2)">
<g style="mix-blend-mode:overlay" opacity="0.5">
<path d="M393.228 384.692C393.228 384.692 402.102 372.063 407.222 364.213C415.073 352.267 423.264 339.979 429.408 333.152C429.75 332.811 430.091 332.811 430.091 333.152C430.432 333.494 430.432 333.835 430.091 333.835C423.606 340.662 415.755 352.949 407.905 364.895C402.444 373.429 392.887 386.74 392.887 386.74L393.228 384.692Z" fill="#172B4D"/>
</g>
</g>
<path d="M77.1641 216.078C84.6732 231.779 89.1104 247.48 90.1344 264.546C90.817 276.151 91.4997 287.756 91.841 299.019C82.6253 292.534 26.6484 277.857 26.6484 225.635C26.6484 206.521 45.0798 169.317 48.1517 167.952C51.565 166.586 65.2179 190.82 77.1641 216.078Z" fill="#00875A"/>
<g style="mix-blend-mode:overlay" opacity="0.5">
<path d="M98.6676 304.823C98.6676 304.823 98.3263 304.823 98.6676 304.823C79.8949 295.949 71.0205 261.134 63.5115 233.145C58.7329 214.714 54.6371 199.013 49.1759 193.893C48.8346 193.552 48.8346 193.211 49.1759 192.869C49.5172 192.528 49.8586 192.528 50.1999 192.869C56.0024 198.33 60.0982 214.373 64.8767 232.804C72.0445 260.451 80.9189 294.925 99.009 303.458C99.3503 303.458 99.3503 304.14 99.3503 304.14C99.009 304.823 99.009 304.823 98.6676 304.823Z" fill="#172B4D"/>
</g>
<path d="M6.16911 205.498C8.89968 203.45 15.7261 222.906 49.517 242.02C74.7749 256.355 83.6493 314.721 83.6493 314.721C83.6493 314.721 84.3319 339.638 83.6493 343.734C60.4393 335.201 24.2592 322.913 7.87572 290.146C-7.14246 260.11 3.43853 207.546 6.16911 205.498Z" fill="#57D9A3"/>
<g style="mix-blend-mode:overlay" opacity="0.5">
<path d="M85.3563 325.302C65.9009 316.086 50.5414 286.732 37.9125 263.181C30.7447 249.869 24.9422 238.606 19.8224 233.486C19.4811 233.145 19.4811 232.803 19.8224 232.462C20.1637 232.121 20.505 232.121 20.8464 232.462C26.3075 237.582 32.11 248.846 39.2778 262.498C51.5654 285.708 66.9249 314.721 85.6976 323.936C86.0389 323.936 86.0389 324.619 86.0389 324.619C85.6976 325.302 85.6976 325.302 85.3563 325.302Z" fill="#172B4D"/>
</g>
<path d="M12.6537 272.396C16.4083 268.301 70.3372 324.277 74.4331 334.517V374.11C68.2893 371.721 22.2108 355.679 22.2108 319.84C22.2108 294.924 9.92317 275.468 12.6537 272.396Z" fill="#79F2C0"/>
<g style="mix-blend-mode:overlay" opacity="0.5">
<path d="M87.062 361.824C58.7323 350.901 46.786 327.35 38.2529 310.284C34.8397 303.458 32.1091 297.655 29.0372 294.925C28.6959 294.583 28.6959 294.242 29.0372 293.901C29.3786 293.559 29.7199 293.559 30.0612 293.901C33.1331 296.972 36.205 302.775 39.6182 309.601C48.1513 326.667 60.0976 349.877 87.7447 360.458C88.086 360.458 88.086 360.8 88.086 361.141C87.7447 361.824 87.4033 361.824 87.062 361.824Z" fill="#172B4D"/>
</g>
<path d="M413.025 386.399H64.5352V183.653C64.5352 177.851 69.3137 173.072 75.1161 173.072H402.444C408.247 173.072 413.025 177.851 413.025 183.653V386.399Z" fill="#232F4D"/>
<path d="M396.983 189.797H80.2363V371.38H396.983V189.797Z" fill="#F4F5F7"/>
<path d="M432.823 252.94C428.386 240.312 417.122 231.779 406.541 223.928C387.086 209.251 386.744 193.209 384.014 192.526C380.942 191.844 372.068 223.587 378.211 240.994C383.331 256.354 392.888 265.569 400.739 278.198C412.685 297.654 412.685 331.103 413.368 337.588C413.026 334.517 418.146 329.738 428.386 307.893C441.697 281.953 435.553 261.132 432.823 252.94Z" fill="#57D9A3"/>
<mask id="mask3" mask-type="alpha" maskUnits="userSpaceOnUse" x="388" y="214" width="40" height="115">
<path d="M419.853 328.714C419.853 328.714 419.511 328.714 419.853 328.714C419.511 328.714 419.17 328.373 419.511 328.031C422.925 319.84 433.164 290.827 421.559 263.18C417.122 252.599 408.93 242.701 401.763 234.168C395.619 227 390.158 220.515 388.451 215.054C388.451 214.712 388.451 214.371 388.792 214.371C389.134 214.371 389.475 214.371 389.475 214.712C391.182 219.832 396.302 225.976 402.445 233.485C409.613 242.018 418.146 251.917 422.583 262.839C434.188 290.827 423.949 320.181 420.535 328.373C420.194 328.373 419.853 328.714 419.853 328.714Z" fill="url(#paint3_linear)"/>
</mask>
<g mask="url(#mask3)">
<g style="mix-blend-mode:overlay" opacity="0.5">
<path d="M419.853 328.714C419.853 328.714 419.511 328.714 419.853 328.714C419.511 328.714 419.17 328.373 419.511 328.031C422.925 319.84 433.164 290.827 421.559 263.18C417.122 252.599 408.93 242.701 401.763 234.168C395.619 227 390.158 220.515 388.451 215.054C388.451 214.712 388.451 214.371 388.792 214.371C389.134 214.371 389.475 214.371 389.475 214.712C391.182 219.832 396.302 225.976 402.445 233.485C409.613 242.018 418.146 251.917 422.583 262.839C434.188 290.827 423.949 320.181 420.535 328.373C420.194 328.373 419.853 328.714 419.853 328.714Z" fill="url(#paint4_linear)"/>
</g>
</g>
<path d="M365.922 356.703H106.518C100.374 356.703 95.2539 351.583 95.2539 345.439V218.126C95.2539 211.982 100.374 206.862 106.518 206.862H365.922C372.066 206.862 377.186 211.982 377.186 218.126V345.098C377.186 351.583 372.066 356.703 365.922 356.703Z" fill="#B3F5FF"/>
<path d="M52.5879 386.398H425.312C425.312 395.614 417.803 403.465 408.246 403.465H68.2887C59.4143 403.465 52.5879 396.297 52.5879 387.764V386.398Z" fill="#232F4D"/>
<g style="mix-blend-mode:multiply" opacity="0.4">
<path d="M52.5879 386.398H425.312C425.312 395.614 417.803 403.465 408.246 403.465H68.2887C59.4143 403.465 52.5879 396.297 52.5879 387.764V386.398Z" fill="#232F4D"/>
</g>
<path d="M80.9178 209.593C99.3492 199.695 101.738 185.018 106.517 176.827C118.463 157.03 122.559 147.473 132.116 137.233C138.601 130.407 149.865 130.407 154.302 120.508C156.009 116.754 161.811 106.855 158.057 105.831C156.691 105.49 151.913 111.634 149.865 114.023C150.206 113.682 156.691 107.538 154.985 101.394C153.619 95.2505 143.038 91.8373 138.943 91.1546C130.751 90.1307 128.362 103.784 115.733 121.532C111.978 126.993 95.2533 141.67 77.8459 165.904C70.3368 176.144 61.8038 200.719 63.8517 205.498C65.8996 211.3 72.0434 214.713 80.9178 209.593Z" fill="#FFB6B6"/>
<path d="M165.223 122.556C165.223 122.556 166.588 115.389 168.636 111.293C170.684 106.173 175.463 104.125 175.463 104.125C175.463 104.125 159.079 107.879 146.109 103.442C135.187 100.029 128.36 90.1307 124.606 82.9629C124.947 83.9869 120.169 87.7414 117.438 92.8612C115.39 96.6158 116.414 101.394 115.049 102.077C125.288 102.76 133.822 101.053 143.037 107.538C153.618 115.047 165.223 122.556 165.223 122.556Z" fill="#79E2F3"/>
<path d="M163.518 119.825C163.518 119.825 164.542 114.364 166.249 110.609C168.296 106.172 171.027 104.807 171.027 104.807C171.027 104.807 157.715 107.196 145.769 103.442C135.871 100.37 128.703 91.8367 125.29 85.3516C125.631 86.3755 122.218 89.4474 119.829 93.8846C117.781 97.2978 118.463 100.711 117.439 101.394C126.655 102.076 134.506 101.394 143.721 106.172C154.644 112.316 163.518 119.825 163.518 119.825Z" fill="#00C7E5"/>
<path d="M147.135 111.633C147.476 112.316 147.818 112.657 148.159 112.999C149.524 113.681 150.889 112.999 151.572 111.975L156.692 101.735C157.375 100.37 156.692 99.0043 155.668 98.3217C154.303 97.639 152.937 98.3217 152.255 99.3456L147.135 109.585C146.794 110.268 146.794 110.951 147.135 111.633Z" fill="#F4A4A4"/>
<path d="M140.65 110.268C140.991 110.951 141.333 111.292 142.015 111.634C143.381 112.316 145.087 111.975 145.77 110.61L151.914 98.6633C152.596 97.298 152.255 95.5913 150.89 94.9087C149.524 94.2261 147.818 94.5674 147.135 95.9327L140.991 107.879C140.309 108.903 140.309 109.586 140.65 110.268Z" fill="#F4A4A4"/>
<path d="M135.871 106.855C136.213 107.538 136.554 107.879 136.895 108.221C138.26 108.903 139.626 108.221 140.308 107.197L146.111 95.9331C146.794 94.5678 146.111 93.2025 145.087 92.5199C143.722 91.8373 142.356 92.5199 141.674 93.5439L135.871 104.808C135.53 105.49 135.53 106.173 135.871 106.855Z" fill="#F4A4A4"/>
<path d="M131.092 103.441C131.433 103.783 131.775 104.465 132.116 104.465C133.14 105.148 134.505 104.465 135.188 103.441L140.308 93.543C140.99 92.519 140.308 91.1537 139.284 90.4711C138.26 89.7884 136.894 90.4711 136.212 91.495L131.092 101.393C130.751 102.076 130.751 102.759 131.092 103.441Z" fill="#F4A4A4"/>
<path d="M172.735 314.38C171.711 275.81 172.052 249.187 157.375 231.097C157.375 231.097 189.459 185.019 271.035 188.09C308.239 189.456 323.258 210.618 320.186 232.804C317.455 254.648 296.976 262.499 296.976 262.499C296.976 276.834 297.317 306.871 297.658 321.889C298 333.835 298.341 345.44 299.024 356.704H173.758C173.417 346.805 173.076 325.985 172.735 314.38Z" fill="#C1C7D0"/>
<path d="M218.13 95.25C217.447 105.831 222.226 139.963 209.597 154.981C190.141 178.191 185.704 171.024 167.614 184.335C147.817 199.012 110.613 215.395 150.548 229.048C154.985 230.414 184.339 189.455 238.268 198.671C271.376 204.132 355.683 184.335 295.61 262.498C293.562 278.199 310.628 321.205 325.305 329.397C337.593 336.224 353.293 314.379 353.293 314.379C353.293 309.6 342.03 304.139 342.03 299.019C337.934 287.414 342.03 299.019 337.593 258.402C333.155 218.809 329.059 203.108 314.724 188.772C302.095 176.143 293.221 174.437 277.52 164.88C255.334 151.227 260.795 125.969 262.502 114.023C247.483 109.586 232.807 99.6872 218.13 95.25Z" fill="#FFB6B6"/>
<path d="M214.377 93.5438C209.598 89.4479 207.892 89.7892 206.868 90.4719C203.455 93.2024 205.503 108.221 209.598 108.903C211.988 109.586 214.718 105.149 216.083 102.759" fill="#FFC7C7"/>
<path d="M267.962 93.5438C272.741 89.4479 274.448 89.7892 275.472 90.4719C278.885 93.2024 276.837 108.221 272.741 108.903C270.352 109.586 267.621 105.149 266.256 102.759" fill="#FFC7C7"/>
<path d="M252.603 52.2441C260.112 54.292 266.256 59.0705 268.986 62.1424C271.717 69.9928 269.669 86.3763 269.669 107.197C269.669 125.287 258.064 140.988 239.632 140.988C220.86 140.988 211.303 121.874 211.303 101.053C211.303 87.7416 212.327 76.8193 213.692 69.6515C223.932 55.6573 239.291 48.8308 252.603 52.2441Z" fill="#FFC7C7"/>
<path d="M203.793 71.3582C203.111 79.55 206.865 90.4723 211.303 93.5442C211.303 93.5442 211.644 77.8434 216.081 72.7235C222.566 64.8731 234.171 64.8731 242.704 64.5318C251.237 64.5318 262.501 67.2624 267.279 72.7235C271.717 76.8194 269.669 94.5681 269.669 94.5681C286.393 82.2805 281.274 39.9566 247.483 37.5673C228.71 36.202 218.812 46.783 216.422 53.9508C217.105 51.9029 205.159 51.2202 203.793 71.3582Z" fill="#172B4D"/>
<path d="M158.74 175.461C181.95 163.174 195.262 172.048 211.304 151.91C220.52 162.491 238.61 168.976 238.61 168.976C238.61 168.976 258.406 162.491 265.916 153.958C278.886 167.27 311.994 170.683 325.306 189.797C333.156 201.402 336.569 237.241 337.935 256.696C334.18 259.085 321.21 264.888 311.653 265.912C304.144 266.936 295.269 268.301 291.856 267.277C291.856 267.277 310.287 242.019 310.97 222.564C311.994 201.06 296.635 204.815 245.777 201.402C222.226 200.037 173.076 237.923 173.076 237.923C123.584 237.923 77.5056 230.073 61.1221 215.396C52.2478 207.204 64.5354 180.24 79.8949 159.078C92.8651 141.329 108.907 128.7 108.907 128.7C108.907 128.7 117.099 138.94 127.339 143.036L101.739 187.749C102.422 191.162 140.309 185.36 158.74 175.461Z" fill="#C1C7D0"/>
<path d="M229.395 96.9581C229.395 98.6647 228.029 99.6887 226.664 99.6887C225.299 99.6887 223.934 98.3234 223.934 96.9581C223.934 95.2515 225.299 94.2275 226.664 94.2275C228.029 94.2275 229.395 95.5928 229.395 96.9581Z" fill="#172B4D"/>
<path d="M257.383 96.9581C257.383 98.6647 256.018 99.6887 254.652 99.6887C252.946 99.6887 251.922 98.3234 251.922 96.9581C251.922 95.2515 253.287 94.2275 254.652 94.2275C256.359 94.2275 257.383 95.5928 257.383 96.9581Z" fill="#172B4D"/>
<path d="M217.448 92.8616C217.107 92.8616 217.107 92.8616 217.448 92.8616C217.107 92.8616 216.766 92.5203 216.766 92.179C218.131 88.7657 221.544 86.3765 225.299 86.0352C228.712 86.0352 232.125 87.7418 233.832 90.8137C233.832 91.155 233.832 91.4963 233.49 91.4963C233.149 91.4963 232.808 91.4963 232.808 91.155C231.442 88.4244 228.371 86.7178 225.299 87.0591C221.885 87.0591 219.155 89.1071 217.79 92.179C217.79 92.8616 217.448 92.8616 217.448 92.8616Z" fill="#172B4D"/>
<path d="M263.867 93.2023C263.526 93.2023 263.526 93.2023 263.185 92.861C262.161 89.7891 259.43 88.0825 256.358 87.3998C252.945 87.0585 249.873 88.7651 248.167 91.4957C248.167 91.837 247.825 91.837 247.484 91.837C247.143 91.837 247.143 91.4957 247.143 91.1544C249.191 87.7412 252.604 86.0346 256.358 86.3759C259.771 86.7172 262.843 89.1065 263.867 92.5197C264.55 92.5197 264.209 92.861 263.867 93.2023Z" fill="#172B4D"/>
<path d="M240.658 110.268C240.316 110.268 239.975 110.268 239.975 110.268C237.927 109.927 236.562 109.244 235.879 108.562C235.538 108.22 235.538 107.879 235.879 107.879C236.22 107.538 236.562 107.538 236.562 107.879C237.244 108.562 238.61 109.244 240.316 109.586C242.705 109.927 244.753 108.562 245.436 107.879C245.777 107.538 246.119 107.879 246.119 107.879C246.46 108.22 246.119 108.562 246.119 108.562C245.095 109.244 243.047 110.268 240.658 110.268Z" fill="#F4A4A4"/>
<path d="M227.688 114.365C227.688 114.365 232.466 118.461 240.999 118.461C248.167 118.461 253.287 115.731 253.287 115.731C253.287 115.731 250.215 125.97 240.999 125.97C230.077 126.312 227.688 114.365 227.688 114.365Z" fill="white"/>
<path d="M322.233 310.284C324.281 289.463 336.91 281.613 342.713 274.104C356.365 255.331 363.533 248.163 369.677 235.534C373.773 227.001 369.336 216.42 376.845 208.57C379.575 205.498 386.743 196.282 389.132 199.695C389.815 200.719 386.061 207.546 384.695 210.618C385.037 209.935 388.108 202.085 394.594 201.061C401.079 200.037 407.223 208.228 408.929 211.983C413.366 221.54 402.785 227.001 390.839 245.432C387.084 251.235 379.917 272.056 364.216 297.313C357.389 308.236 343.054 329.739 337.934 329.739C331.79 329.398 321.209 320.523 322.233 310.284Z" fill="#FFB6B6"/>
<path d="M371.043 199.354C371.043 199.354 377.187 195.258 380.259 192.186C384.013 188.431 384.355 183.312 384.355 183.312C384.355 183.312 387.085 199.695 395.96 210.276C403.469 219.15 414.732 221.54 422.924 222.222C421.9 222.222 420.193 228.025 416.439 232.462C413.708 235.875 408.93 236.558 408.93 238.264C404.151 229.049 402.445 220.516 392.888 214.372C382.307 207.204 371.043 199.354 371.043 199.354Z" fill="#79E2F3"/>
<path d="M374.113 200.037C374.113 200.037 378.892 196.965 381.622 193.893C385.036 190.48 385.036 187.066 385.036 187.066C385.036 187.066 387.766 200.378 395.958 209.935C402.784 217.785 413.024 221.199 420.533 221.881C419.509 221.881 418.144 225.977 414.731 230.414C412.341 233.486 408.928 234.169 408.587 235.534C404.491 227.001 402.102 219.833 393.91 213.007C384.353 205.156 374.113 200.037 374.113 200.037Z" fill="#00C7E5"/>
<path d="M387.084 212.324C386.402 212.324 386.06 211.983 385.378 211.641C384.354 210.617 384.012 209.252 385.036 208.228L392.545 199.695C393.569 198.671 394.935 198.33 395.959 199.354C396.983 200.378 397.324 201.743 396.3 202.767L388.791 211.3C388.449 211.983 387.767 212.324 387.084 212.324Z" fill="#F4A4A4"/>
<path d="M391.522 217.444C390.839 217.444 390.157 217.103 389.815 216.761C388.45 215.737 388.45 214.031 389.474 212.665L398.007 202.426C399.031 201.06 400.738 201.06 402.103 202.084C403.468 203.108 403.468 204.815 402.444 206.18L393.911 216.42C393.229 217.103 392.205 217.444 391.522 217.444Z" fill="#F4A4A4"/>
<path d="M396.641 220.516C395.958 220.516 395.617 220.174 394.934 219.833C393.91 218.809 393.569 217.444 394.593 216.42L402.785 206.863C403.809 205.839 405.174 205.498 406.198 206.522C407.222 207.546 407.563 208.911 406.539 209.935L398.347 219.492C398.006 220.174 397.323 220.516 396.641 220.516Z" fill="#F4A4A4"/>
<path d="M401.421 223.588C400.738 223.588 400.397 223.247 400.055 222.905C399.031 222.223 399.031 220.516 399.714 219.834L406.882 211.3C407.564 210.277 409.271 210.277 409.954 210.959C410.978 211.642 410.978 213.348 410.295 214.031L403.127 222.564C402.786 223.247 402.103 223.588 401.421 223.588Z" fill="#F4A4A4"/>
<path d="M336.229 237.241C336.912 244.068 338.277 266.936 341.008 275.811C349.2 265.571 360.463 247.481 368.655 237.241C370.703 239.63 371.727 242.361 377.188 245.433C382.308 248.164 385.721 247.822 388.452 248.164C379.236 288.781 361.146 312.332 350.906 322.23C337.936 334.518 332.134 334.518 329.744 334.518C302.439 333.494 288.444 259.086 287.762 255.673C302.097 253.625 322.235 239.289 336.229 237.241Z" fill="#C1C7D0"/>
<path d="M109.589 154.641C99.6911 150.204 95.2539 142.354 95.2539 142.012L96.2779 140.988C96.2779 140.988 100.715 149.18 110.272 153.617L109.589 154.641Z" fill="#C5C8CF"/>
<path d="M383.672 266.253C383.331 266.253 373.774 266.253 365.582 258.062L366.265 257.379C374.115 265.229 384.013 265.229 384.013 265.229L383.672 266.253Z" fill="#C5C8CF"/>
<path d="M244.413 356.704H243.389C243.389 352.609 244.413 348.171 245.096 343.734C246.12 339.297 246.803 334.518 247.144 329.74C247.485 318.818 245.779 311.309 243.731 302.434C242.707 298.338 241.683 293.901 241 288.781C238.952 276.835 239.976 268.643 241.341 257.38C241.683 253.284 242.365 248.847 242.707 243.727C243.731 233.828 241.683 216.08 239.976 197.307C239.293 190.822 238.611 184.337 238.27 177.852H239.293C239.976 183.995 240.317 190.822 241 197.307C242.707 216.08 244.413 233.828 243.731 244.068C243.389 249.188 242.707 253.625 242.365 257.721C241 268.985 239.976 276.835 242.024 288.781C243.048 293.901 243.731 298.338 244.755 302.434C246.803 311.309 248.509 318.818 248.168 330.081C247.827 335.201 247.144 339.638 246.12 344.417C245.096 348.171 244.413 352.609 244.413 356.704Z" fill="#C5C8CF"/>
<path d="M234.855 178.533C233.831 186.042 227.687 198.671 229.052 210.276C230.759 226.318 245.777 227.342 249.873 239.289C258.747 263.864 224.274 286.05 232.124 311.99C235.538 322.571 240.316 327.691 247.143 331.446C247.143 331.446 258.406 332.47 273.083 330.763C271.718 324.96 271.718 320.523 273.083 315.062C270.352 313.014 266.257 309.601 262.843 304.14C250.556 282.295 273.083 261.133 263.185 237.241C257.382 223.246 246.46 223.929 242.023 207.887C238.951 196.623 242.705 187.066 243.729 178.533C241.34 179.216 237.585 178.875 234.855 178.533Z" fill="#015CE6"/>
<path d="M238.951 168.976C241.34 167.952 243.729 170 244.412 172.731C245.436 175.461 246.46 178.533 244.412 180.24C242.364 181.947 235.537 181.605 234.172 179.899C232.807 178.533 232.807 175.461 233.489 172.731C233.831 171.366 236.561 168.294 238.951 168.976Z" fill="#0047BA"/>
<path d="M211.304 151.91L203.453 159.761C203.453 159.761 214.034 173.413 232.124 178.533L238.609 168.976C227.346 165.222 211.304 151.91 211.304 151.91Z" fill="#C5C8CF"/>
<path d="M266.257 153.959L274.79 160.785C274.79 160.785 268.305 168.636 246.119 178.193L238.951 168.636C251.921 165.223 266.257 153.959 266.257 153.959Z" fill="#C5C8CF"/>
<path d="M85.0152 200.037L84.6738 199.013H85.0152C87.4044 198.33 90.135 197.307 93.8895 194.917C98.3267 192.187 101.74 188.091 101.74 188.091L102.423 188.773C101.057 190.821 99.3507 193.211 94.5722 195.941C90.4763 198.33 87.7457 199.354 85.3565 200.378L85.0152 200.037Z" fill="#C5C8CF"/>
<path d="M330.083 293.559H329.059C329.741 290.487 331.107 287.757 332.472 285.026C334.52 281.272 337.25 277.517 340.664 275.128L341.005 276.152C337.933 278.541 335.544 282.296 333.496 285.709C332.13 288.098 330.765 290.829 330.083 293.559Z" fill="#C5C8CF"/>
<path d="M337.934 288.098H336.91C337.251 284.002 338.958 278.882 341.006 275.128L341.347 276.152C338.958 279.565 338.275 284.002 337.934 288.098Z" fill="#C5C8CF"/>
<path d="M95.5967 202.085L94.9141 201.402C101.058 195.941 102.423 188.773 102.423 188.773L103.106 189.115C103.106 188.773 102.423 195.941 95.5967 202.085Z" fill="#C5C8CF"/>
<path d="M162.494 238.948L161.812 237.582C162.153 236.558 163.518 227.684 162.494 216.42C161.47 206.522 157.716 191.504 148.5 179.899L149.524 179.558C159.081 191.504 162.836 206.181 163.86 216.42C164.542 227.684 163.177 237.241 162.494 238.948Z" fill="#C5C8CF"/>
<path d="M297.659 261.133H296.635C299.707 236.217 302.779 223.929 306.874 210.618C308.24 206.181 317.455 187.749 321.21 185.019L321.893 186.043C318.479 188.432 309.605 206.181 307.898 210.959C303.461 224.271 300.389 236.217 297.659 261.133Z" fill="#C5C8CF"/>
<path d="M297.316 291.511L296.975 290.146C296.975 290.146 299.364 277.176 304.142 270.008L305.166 270.69C300.388 277.858 297.316 291.511 297.316 291.511Z" fill="#C5C8CF"/>
<path d="M297.317 284.002L296.293 283.661C298 273.763 300.389 263.864 303.461 254.307C306.533 245.433 310.287 236.9 314.383 228.708L315.407 229.391C310.97 237.582 307.557 246.115 304.485 254.648C301.413 264.547 299.024 274.104 297.317 284.002Z" fill="#C5C8CF"/>
<path d="M350.564 158.395C350.564 158.054 350.564 157.712 350.564 157.03V156.689C350.564 156.347 350.564 155.665 350.564 155.323C350.564 155.323 350.564 155.323 350.564 154.982V154.641C350.564 154.299 350.564 154.299 350.564 153.958C350.564 153.617 350.564 153.617 350.564 153.275V152.934C350.564 152.934 350.564 152.934 350.564 152.593C350.564 152.251 350.223 151.91 350.223 151.569V151.227C350.223 150.886 350.223 150.886 349.881 150.545C349.881 150.203 349.54 150.203 349.54 149.862C349.54 149.862 349.54 149.862 349.54 149.521C349.199 149.179 349.199 148.838 348.857 148.497C348.857 148.497 348.857 148.155 348.516 148.155L344.762 143.377C345.103 143.718 345.444 144.401 345.786 144.742C345.786 144.742 345.786 144.742 345.786 145.084C346.127 145.425 346.127 145.766 346.468 146.449V146.79C346.809 147.131 346.809 147.814 346.809 148.155V148.497C346.809 148.838 347.151 149.521 347.151 149.862V150.203C347.151 150.886 347.151 151.227 347.151 151.91V152.251C347.151 152.593 347.151 153.275 347.151 153.617C347.151 154.299 347.151 154.641 346.809 155.323C346.809 155.665 346.809 155.665 346.809 156.006C346.809 156.689 346.468 157.371 346.127 158.395C345.785 159.078 345.444 159.76 345.444 160.443C345.444 160.784 345.103 160.784 345.103 161.126C344.762 161.467 344.762 162.15 344.42 162.491C344.42 162.832 344.079 163.174 344.079 163.174C343.738 163.515 343.738 164.198 343.396 164.539C343.055 164.88 343.055 165.222 342.714 165.222C342.372 165.563 342.372 165.904 342.031 166.246C341.69 166.587 341.348 167.27 341.007 167.611C340.666 167.952 340.666 168.293 340.324 168.635C339.983 168.976 339.983 169.317 339.642 169.317C339.3 169.659 338.959 170 338.618 170.341C338.276 170.683 338.276 170.683 337.935 171.024C337.252 171.707 336.911 172.048 336.228 172.731C335.546 173.413 335.205 173.755 334.522 174.096L334.181 174.437C333.498 174.779 332.815 175.461 332.133 175.803C332.133 175.803 332.133 175.803 331.791 175.803C331.109 176.144 330.426 176.485 330.085 177.168C330.085 177.168 329.743 177.168 329.743 177.509C329.061 177.851 328.378 178.192 327.695 178.533C327.695 178.533 327.354 178.533 327.354 178.874C326.671 179.216 326.33 179.557 325.647 179.898C325.647 179.898 325.306 179.898 325.306 180.24C324.624 180.581 323.941 180.922 323.258 181.264C322.917 181.264 322.917 181.264 322.576 181.605C321.893 181.946 321.552 181.946 320.869 181.946C320.528 181.946 319.845 182.288 319.504 182.288C319.162 182.288 318.821 182.629 318.48 182.629C317.456 182.97 316.773 182.97 315.749 182.97C309.264 183.653 303.803 181.605 301.072 177.85L304.827 182.629C307.899 186.384 313.019 188.431 319.504 187.749C320.528 187.749 321.21 187.408 322.234 187.408C322.234 187.408 322.234 187.408 322.576 187.408C322.917 187.408 323.258 187.408 323.258 187.066C323.6 187.066 324.282 186.725 324.624 186.725H324.965C325.306 186.725 325.647 186.384 326.33 186.384C326.671 186.384 326.671 186.384 327.013 186.042C327.695 185.701 328.378 185.701 328.719 185.36C328.719 185.36 328.719 185.36 329.061 185.36C329.061 185.36 329.402 185.36 329.402 185.018C329.743 185.018 330.085 184.677 330.426 184.677C330.767 184.677 331.109 184.336 331.109 184.336C331.109 184.336 331.45 184.336 331.45 183.994H331.791C332.133 183.653 332.815 183.312 333.157 183.312C333.157 183.312 333.157 183.312 333.498 183.312C333.498 183.312 333.839 183.312 333.839 182.97C334.181 182.97 334.522 182.629 334.522 182.629C334.863 182.288 335.205 182.288 335.546 181.946C335.546 181.946 335.546 181.946 335.887 181.946C336.228 181.605 336.911 181.264 337.252 180.922L337.594 180.581L337.935 180.24L338.276 179.898C338.618 179.557 339.3 179.216 339.642 178.874C339.983 178.533 340.666 177.851 341.007 177.509L341.348 177.168C341.69 176.827 341.69 176.827 342.031 176.485C342.372 176.144 342.372 176.144 342.714 175.803C343.055 175.461 343.055 175.461 343.055 175.12C343.396 174.779 343.396 174.437 343.738 174.437L344.079 174.096C344.079 173.755 344.42 173.755 344.42 173.413C344.762 173.072 345.103 172.389 345.444 172.048L345.786 171.707C345.786 171.365 346.127 171.365 346.127 171.024C346.468 170.683 346.468 170.341 346.809 170.341C347.151 170 347.151 169.317 347.492 168.976C347.492 168.635 347.833 168.293 347.833 168.293C348.175 167.952 348.175 167.27 348.516 166.928C348.516 166.587 348.857 166.587 348.857 166.246C349.199 165.563 349.54 164.88 349.54 164.198C349.881 163.515 349.881 162.491 350.223 161.808V161.467C350.223 159.76 350.564 159.419 350.564 158.395C350.564 158.395 350.564 158.736 350.564 158.395Z" fill="#FF991E"/>
<path d="M350.564 158.395C350.564 158.054 350.564 157.712 350.564 157.03V156.689C350.564 156.347 350.564 155.665 350.564 155.323C350.564 155.323 350.564 155.323 350.564 154.982V154.641C350.564 154.299 350.564 154.299 350.564 153.958C350.564 153.617 350.564 153.617 350.564 153.275V152.934C350.564 152.934 350.564 152.934 350.564 152.593C350.564 152.251 350.223 151.91 350.223 151.569V151.227C350.223 150.886 350.223 150.886 349.881 150.545C349.881 150.203 349.54 150.203 349.54 149.862C349.54 149.862 349.54 149.862 349.54 149.521C349.199 149.179 349.199 148.838 348.857 148.497C348.857 148.497 348.857 148.155 348.516 148.155L344.762 143.377C345.103 143.718 345.444 144.401 345.786 144.742C345.786 144.742 345.786 144.742 345.786 145.084C346.127 145.425 346.127 145.766 346.468 146.449V146.79C346.809 147.131 346.809 147.814 346.809 148.155V148.497C346.809 148.838 347.151 149.521 347.151 149.862V150.203C347.151 150.886 347.151 151.227 347.151 151.91V152.251C347.151 152.593 347.151 153.275 347.151 153.617C347.151 154.299 347.151 154.641 346.809 155.323C346.809 155.665 346.809 155.665 346.809 156.006C346.809 156.689 346.468 157.371 346.127 158.395C345.785 159.078 345.444 159.76 345.444 160.443C345.444 160.784 345.103 160.784 345.103 161.126C344.762 161.467 344.762 162.15 344.42 162.491C344.42 162.832 344.079 163.174 344.079 163.174C343.738 163.515 343.738 164.198 343.396 164.539C343.055 164.88 343.055 165.222 342.714 165.222C342.372 165.563 342.372 165.904 342.031 166.246C341.69 166.587 341.348 167.27 341.007 167.611C340.666 167.952 340.666 168.293 340.324 168.635C339.983 168.976 339.983 169.317 339.642 169.317C339.3 169.659 338.959 170 338.618 170.341C338.276 170.683 338.276 170.683 337.935 171.024C337.252 171.707 336.911 172.048 336.228 172.731C335.546 173.413 335.205 173.755 334.522 174.096L334.181 174.437C333.498 174.779 332.815 175.461 332.133 175.803C332.133 175.803 332.133 175.803 331.791 175.803C331.109 176.144 330.426 176.485 330.085 177.168C330.085 177.168 329.743 177.168 329.743 177.509C329.061 177.851 328.378 178.192 327.695 178.533C327.695 178.533 327.354 178.533 327.354 178.874C326.671 179.216 326.33 179.557 325.647 179.898C325.647 179.898 325.306 179.898 325.306 180.24C324.624 180.581 323.941 180.922 323.258 181.264C322.917 181.264 322.917 181.264 322.576 181.605C321.893 181.946 321.552 181.946 320.869 181.946C320.528 181.946 319.845 182.288 319.504 182.288C319.162 182.288 318.821 182.629 318.48 182.629C317.456 182.97 316.773 182.97 315.749 182.97C309.264 183.653 303.803 181.605 301.072 177.85L304.827 182.629C307.899 186.384 313.019 188.431 319.504 187.749C320.528 187.749 321.21 187.408 322.234 187.408C322.234 187.408 322.234 187.408 322.576 187.408C322.917 187.408 323.258 187.408 323.258 187.066C323.6 187.066 324.282 186.725 324.624 186.725H324.965C325.306 186.725 325.647 186.384 326.33 186.384C326.671 186.384 326.671 186.384 327.013 186.042C327.695 185.701 328.378 185.701 328.719 185.36C328.719 185.36 328.719 185.36 329.061 185.36C329.061 185.36 329.402 185.36 329.402 185.018C329.743 185.018 330.085 184.677 330.426 184.677C330.767 184.677 331.109 184.336 331.109 184.336C331.109 184.336 331.45 184.336 331.45 183.994H331.791C332.133 183.653 332.815 183.312 333.157 183.312C333.157 183.312 333.157 183.312 333.498 183.312C333.498 183.312 333.839 183.312 333.839 182.97C334.181 182.97 334.522 182.629 334.522 182.629C334.863 182.288 335.205 182.288 335.546 181.946C335.546 181.946 335.546 181.946 335.887 181.946C336.228 181.605 336.911 181.264 337.252 180.922L337.594 180.581L337.935 180.24L338.276 179.898C338.618 179.557 339.3 179.216 339.642 178.874C339.983 178.533 340.666 177.851 341.007 177.509L341.348 177.168C341.69 176.827 341.69 176.827 342.031 176.485C342.372 176.144 342.372 176.144 342.714 175.803C343.055 175.461 343.055 175.461 343.055 175.12C343.396 174.779 343.396 174.437 343.738 174.437L344.079 174.096C344.079 173.755 344.42 173.755 344.42 173.413C344.762 173.072 345.103 172.389 345.444 172.048L345.786 171.707C345.786 171.365 346.127 171.365 346.127 171.024C346.468 170.683 346.468 170.341 346.809 170.341C347.151 170 347.151 169.317 347.492 168.976C347.492 168.635 347.833 168.293 347.833 168.293C348.175 167.952 348.175 167.27 348.516 166.928C348.516 166.587 348.857 166.587 348.857 166.246C349.199 165.563 349.54 164.88 349.54 164.198C349.881 163.515 349.881 162.491 350.223 161.808V161.467C350.223 159.76 350.564 159.419 350.564 158.395C350.564 158.395 350.564 158.736 350.564 158.395Z" fill="#FF991E"/>
<path d="M329.402 138.599C342.372 137.233 349.881 146.108 345.785 158.395C341.689 170.683 328.036 181.947 314.725 183.312C301.754 184.677 294.245 175.803 298.341 163.515C302.437 150.886 316.09 139.964 329.402 138.599Z" fill="#FFC400"/>
<path d="M328.377 141.33C339.982 139.964 346.467 148.156 343.054 159.078C339.64 170.001 327.353 179.899 315.748 180.923C304.143 182.288 297.658 174.096 301.071 163.174C304.484 152.593 316.772 142.695 328.377 141.33Z" fill="white"/>
<path d="M315.749 180.581C327.012 179.557 338.959 169.659 342.372 159.078C345.785 148.497 339.641 140.647 328.378 142.012C317.114 143.377 305.168 152.934 301.754 163.515C298 174.096 304.485 181.605 315.749 180.581Z" fill="#FFE381"/>
<path d="M309.604 7.53049V7.18917C309.604 7.18917 309.604 7.18917 309.604 6.84785V6.50653V6.1652V5.82388V5.48256L307.214 2.06934C307.214 2.41066 307.556 2.41066 307.556 2.75198C307.214 2.75198 307.214 3.0933 307.214 3.43462C307.214 3.77595 307.214 4.11727 307.214 4.45859C307.214 4.79991 307.214 5.14124 306.873 5.48256C306.873 5.82388 306.532 6.1652 306.532 6.50653C306.532 6.50653 306.532 6.50653 306.532 6.84785C306.532 7.18917 306.19 7.53049 306.19 7.53049C306.19 7.53049 306.19 7.87181 305.849 7.87181C305.849 8.21314 305.508 8.55446 305.508 8.55446C305.508 8.55446 305.508 8.89578 305.166 8.89578C304.825 9.2371 304.484 9.57843 304.142 10.2611C303.46 10.9437 303.118 11.6264 302.436 11.9677C302.436 11.9677 302.436 11.9677 302.095 12.309C301.412 12.9916 300.729 13.333 300.047 14.0156C299.364 14.6983 298.681 15.0396 297.999 15.3809C297.316 15.7222 296.633 16.4049 295.609 16.7462C294.927 17.0875 294.244 17.4288 293.22 17.7702C292.537 18.1115 291.855 18.4528 290.831 18.4528C290.148 18.4528 289.466 18.7941 289.124 18.7941C288.783 18.7941 288.783 18.7941 288.442 18.7941C287.759 18.7941 287.076 18.7941 286.735 18.7941C285.37 18.7941 284.346 18.4528 283.663 17.7702C283.322 17.4288 283.322 17.4288 282.98 17.0875L285.37 20.5007C286.052 21.5247 287.076 22.2073 289.124 22.2073C289.807 22.2073 290.148 22.2073 290.831 22.2073C291.172 22.2073 291.172 22.2073 291.514 22.2073C291.855 22.2073 291.855 22.2073 292.196 22.2073C292.537 22.2073 292.879 22.2073 293.22 21.866C293.561 21.866 293.903 21.866 293.903 21.5247C294.244 21.5247 294.585 21.5247 294.585 21.1834C294.927 21.1834 294.927 21.1834 295.268 20.8421C295.609 20.8421 295.609 20.5007 295.951 20.5007C296.292 20.5007 296.292 20.1594 296.633 20.1594C296.975 20.1594 296.975 19.8181 297.316 19.8181C297.316 19.8181 297.316 19.8181 297.657 19.8181H297.999C298.34 19.8181 298.34 19.4768 298.681 19.4768C299.023 19.4768 299.023 19.1354 299.364 19.1354C299.705 19.1354 299.705 18.7941 300.047 18.7941L300.388 18.4528C300.729 18.4528 300.729 18.1115 301.071 18.1115C301.412 18.1115 301.412 17.7702 301.753 17.7702L302.095 17.4288C303.118 17.0875 303.46 17.0875 303.801 16.7462C304.142 16.4049 304.142 16.4049 304.484 16.0635L304.825 15.7222C304.825 15.7222 304.825 15.7222 305.166 15.3809C305.166 15.3809 305.166 15.3809 305.508 15.0396C306.19 14.6983 306.532 14.0156 306.873 13.333C307.214 12.9916 307.556 12.6503 307.897 11.9677L308.238 11.6264C308.238 11.285 308.58 11.285 308.58 10.9437C308.58 10.9437 308.58 10.6024 308.921 10.6024C308.921 10.2611 309.262 10.2611 309.262 9.91975C309.262 9.91975 309.262 9.91975 309.262 9.57842C309.262 9.57842 309.262 9.57843 309.262 9.2371V8.89578C309.262 8.55446 309.262 8.55446 309.604 8.21314V7.87181V7.53049C309.604 7.87181 309.604 7.87181 309.604 7.53049C309.604 7.53049 309.604 7.87181 309.604 7.53049Z" fill="#FF991E"/>
<path d="M303.117 0.0215344C308.237 0.362857 308.578 5.14137 304.482 10.2612C300.045 15.381 292.536 19.4769 287.416 18.7943C282.296 18.4529 281.955 13.6744 286.051 8.55459C290.488 3.43476 298.339 -0.319788 303.117 0.0215344Z" fill="#FFC400"/>
<path d="M301.753 1.04499C306.19 1.38631 306.872 5.48218 303.118 9.91937C299.363 14.3566 292.878 18.1111 288.441 17.7698C284.004 17.4285 283.321 13.3326 287.076 8.8954C290.83 4.11689 297.315 0.703663 301.753 1.04499Z" fill="white"/>
<path d="M288.441 17.4285C292.879 17.7698 299.364 14.3566 302.777 9.9194C306.531 5.48221 305.849 1.38634 301.412 1.04502C296.974 0.703697 290.489 4.11692 287.076 8.55411C283.663 13.3326 284.345 17.0872 288.441 17.4285Z" fill="#FFE381"/>
<path d="M338.616 110.269C338.616 109.928 338.957 109.586 339.298 109.245C339.64 108.904 339.64 108.562 339.981 108.221C339.981 107.88 340.322 107.88 340.322 107.538C340.664 107.197 341.005 106.856 341.005 106.514L341.346 106.173C341.688 105.49 342.029 105.149 342.37 104.808C342.37 104.808 342.37 104.467 342.712 104.467C343.053 104.125 343.394 103.443 343.735 103.101C343.735 103.101 343.735 103.101 344.077 102.76C344.418 102.419 345.101 101.736 345.442 101.395L345.783 101.053C346.125 100.712 346.807 100.029 347.149 99.688C347.149 99.688 347.149 99.688 347.49 99.3467C347.831 99.0053 348.514 98.664 348.855 98.3227C348.855 98.3227 349.197 98.3227 349.197 97.9814C349.879 97.6401 350.221 97.2987 350.903 96.9574L351.245 96.6161C351.586 96.2748 351.927 96.2748 352.61 95.9334C352.951 95.9334 352.951 95.5921 353.293 95.5921C353.634 95.2508 353.975 95.2508 354.316 94.9095C354.658 94.9095 354.999 94.5682 354.999 94.5682C355.34 94.5682 355.34 94.2268 355.682 94.2268C356.364 93.8855 357.047 93.8855 357.73 93.5442C358.071 93.5442 358.071 93.5442 358.412 93.2029C359.436 92.8615 360.46 92.5202 361.143 92.5202H361.484C362.508 92.5202 363.191 92.1789 363.873 92.1789C364.215 92.1789 364.215 92.1789 364.556 92.1789C365.239 92.1789 365.921 92.1789 366.604 92.1789C366.945 92.1789 367.287 92.1789 367.287 92.1789C367.628 92.1789 367.969 92.1789 367.969 92.1789C368.311 92.1789 368.993 92.5202 369.335 92.5202C369.676 92.5202 370.359 92.8615 370.7 92.8615H371.041C371.383 92.8615 371.724 93.2029 372.065 93.2029C372.065 93.2029 372.065 93.2029 372.407 93.2029C372.748 93.5442 373.089 93.5442 373.431 93.8855C373.431 93.8855 373.431 93.8855 373.772 93.8855C374.113 94.2268 374.454 94.2268 374.454 94.5682C374.796 94.9095 375.137 95.2508 375.478 95.5921L371.724 90.8136C371.724 90.8136 371.724 90.4723 371.383 90.4723C371.041 90.131 371.041 90.131 370.7 89.7896L370.359 89.4483L370.017 89.107C370.017 89.107 370.017 89.107 369.676 89.107C369.335 88.7657 369.335 88.7657 368.993 88.7657C368.993 88.7657 368.993 88.7657 368.652 88.7657L368.311 88.4244C368.311 88.4244 367.969 88.4244 367.969 88.083H367.628C367.628 88.083 367.628 88.083 367.287 88.083C366.945 88.083 366.604 87.7417 366.263 87.7417C365.921 87.7417 365.58 87.4004 365.239 87.4004C364.897 87.4004 364.556 87.4004 364.556 87.4004C364.215 87.4004 364.215 87.4004 363.873 87.4004C363.191 87.4004 362.508 87.4004 361.826 87.4004H361.484H361.143C360.46 87.4004 359.436 87.4004 358.754 87.7417H358.412C357.388 88.083 356.364 88.083 355.682 88.4244H355.34H354.999C354.316 88.7657 353.634 88.7657 352.951 89.107H352.61H352.269C351.927 89.107 351.586 89.4483 351.586 89.4483C351.245 89.4483 351.245 89.7896 350.903 89.7896C350.903 89.7896 350.562 89.7896 350.562 90.131C350.221 90.131 350.221 90.4723 349.879 90.4723C349.538 90.4723 349.538 90.8136 349.197 90.8136C348.855 90.8136 348.855 91.1549 348.514 91.1549L348.173 91.4963C348.173 91.4963 348.173 91.4963 347.831 91.4963C347.49 91.8376 347.149 92.1789 346.466 92.1789C346.466 92.1789 346.125 92.1789 346.125 92.5202C345.783 92.5202 345.783 92.8615 345.442 93.2029C345.101 93.5442 345.101 93.5442 344.759 93.8855C344.759 93.8855 344.759 93.8855 344.418 94.2268C344.077 94.5682 343.735 94.9095 343.394 95.2508L343.053 95.5921L342.712 95.9334L342.37 96.2748C342.029 96.6161 341.688 96.9574 341.346 97.2987C341.346 97.2987 341.346 97.2987 341.005 97.6401C340.664 97.9814 340.664 97.9814 340.322 98.3227C339.981 98.664 339.981 98.664 339.64 99.0053C339.64 99.0053 339.64 99.3467 339.298 99.3467C338.957 99.688 338.616 100.029 338.274 100.371C338.274 100.371 338.274 100.371 338.274 100.712L337.933 101.053C337.933 101.395 337.592 101.395 337.592 101.736L337.25 102.077C337.25 102.419 336.909 102.419 336.909 102.76C336.909 102.76 336.909 103.101 336.568 103.101C336.568 103.443 336.226 103.443 336.226 103.784C335.885 104.125 335.885 104.467 335.544 104.808C335.544 104.808 335.544 105.149 335.202 105.149C334.861 105.49 334.861 105.832 334.861 106.173C332.472 111.634 333.154 116.754 335.885 120.167L339.64 124.946C336.909 121.533 336.568 116.754 338.616 110.952C338.274 111.293 338.616 110.61 338.616 110.269Z" fill="#FF991E"/>
<path d="M364.897 92.5197C375.478 92.1783 380.939 100.711 376.843 110.951C372.747 121.191 360.801 129.724 349.878 130.065C339.297 130.406 333.836 121.873 337.932 111.634C342.028 101.394 354.316 92.861 364.897 92.5197Z" fill="#FFC400"/>
<path d="M364.555 95.251C374.112 95.251 379.232 102.419 375.477 111.634C371.723 120.85 360.8 128.359 351.243 128.701C341.686 128.701 336.567 121.533 340.321 112.317C344.076 102.76 354.657 95.251 364.555 95.251Z" fill="white"/>
<path d="M351.245 128.017C360.802 128.017 371.383 120.508 374.796 111.634C378.209 102.76 373.431 95.5918 364.215 95.5918C354.658 95.5918 344.077 103.101 340.664 111.975C337.251 120.85 342.029 128.017 351.245 128.017Z" fill="#FFE381"/>
<path d="M362.849 100.03L361.825 102.419C363.191 102.419 363.873 103.102 364.215 104.126C364.556 105.15 364.556 106.174 363.873 107.539H360.46C360.801 106.515 360.801 106.174 360.801 105.491C360.46 105.15 360.119 104.808 359.436 104.808C358.753 104.808 358.412 105.15 357.729 105.491C357.388 105.832 357.047 106.174 356.705 106.856C356.364 107.539 356.364 107.88 356.705 108.222C357.047 108.563 357.388 108.904 358.071 109.245C358.753 109.587 359.436 109.928 359.777 110.269C360.119 110.611 360.46 110.952 360.801 111.293C361.143 111.635 361.143 111.976 361.143 112.659C361.143 113 361.143 113.683 360.801 114.365C360.46 115.731 359.436 116.755 358.412 117.437C357.388 118.12 356.023 118.803 354.658 118.803L353.634 120.85H351.927L352.951 118.803C351.586 118.803 350.562 118.12 349.879 117.096C349.538 116.072 349.538 115.048 349.879 113.341H353.292C352.951 114.365 352.951 115.048 353.292 115.389C353.634 115.731 353.975 116.072 354.999 116.072C355.682 116.072 356.364 115.731 356.705 115.389C357.388 115.048 357.729 114.707 357.729 114.024C358.071 113.341 358.071 113 357.729 112.659C357.388 112.317 357.047 111.976 356.364 111.635C355.682 111.293 354.999 110.952 354.658 110.611C354.316 110.269 353.634 109.928 353.634 109.587C353.292 109.245 353.292 108.904 353.292 108.222C353.292 107.539 353.292 107.198 353.634 106.515C353.975 105.15 354.999 104.126 356.023 103.443C357.047 102.76 358.412 102.078 359.777 102.078L360.801 99.6885L362.849 100.03Z" fill="white"/>
<path d="M347.832 67.6018L351.245 64.1886C350.904 64.5299 350.562 64.8712 350.221 64.8712H349.88C349.538 64.8712 349.197 65.2125 349.197 65.2125C348.856 65.2125 348.514 65.2125 348.173 65.2125C347.832 65.2125 347.832 65.2125 347.49 65.2125C347.149 65.2125 347.149 65.2125 346.808 65.2125C346.466 65.2125 346.125 65.2125 345.784 64.8712C345.443 64.8712 345.443 64.8712 345.101 64.8712C344.76 64.8712 344.419 64.5299 343.736 64.5299C343.395 64.5299 343.395 64.5299 343.053 64.1886C342.712 63.8472 342.029 63.8472 341.688 63.5059C341.347 63.5059 341.347 63.1646 341.005 63.1646C340.664 62.8233 340.323 62.8233 339.981 62.482C339.64 62.1406 338.957 62.1406 338.616 61.7993C337.933 61.458 337.251 60.7753 336.227 60.0927C335.544 59.7514 334.862 59.0687 334.179 58.7274C333.838 58.7274 333.838 58.3861 333.496 58.3861C332.814 58.0448 332.472 57.3621 332.131 57.0208L331.79 56.6795C331.107 55.9968 330.766 55.6555 330.083 54.9729L329.742 54.6315C329.4 54.2902 329.059 53.6076 328.376 53.2663L328.035 52.9249C327.352 52.2423 327.011 51.5596 326.328 50.877L325.987 50.5357C325.646 50.1944 325.304 49.5117 324.963 49.1704C324.963 49.1704 324.963 48.8291 324.622 48.8291C324.281 48.1464 323.939 47.8051 323.598 47.1225C323.598 47.1225 323.598 46.7811 323.257 46.7811C322.915 46.4398 322.915 46.0985 322.574 45.4158C322.574 45.4158 322.574 45.0745 322.233 45.0745C321.891 44.7332 321.891 44.0506 321.891 43.7092V43.3679C321.891 42.6853 321.55 42.3439 321.55 41.6613V41.32C321.55 40.9787 321.55 40.296 321.55 39.9547C321.55 39.272 321.891 38.9307 321.891 38.5894C322.233 38.2481 322.233 37.9068 322.574 37.5654L319.161 40.9787C318.478 41.6613 318.137 42.3439 318.137 43.3679C318.137 43.7092 318.137 44.3919 318.137 44.7332C318.137 44.7332 318.137 44.7332 318.137 45.0745C318.137 45.0745 318.137 45.0745 318.137 45.4158C318.137 46.0985 318.478 46.4398 318.478 47.1225C318.478 47.1225 318.478 47.1225 318.478 47.4638C318.478 47.8051 318.819 48.4877 318.819 48.8291C318.819 48.8291 318.819 48.8291 318.819 49.1704C318.819 49.1704 318.819 49.1704 318.819 49.5117C319.161 49.853 319.161 50.1944 319.502 50.877V51.2183C319.843 51.901 320.185 52.2423 320.526 52.9249C320.526 52.9249 320.526 52.9249 320.526 53.2663C320.867 53.6076 321.209 54.2902 321.55 54.6315C321.55 54.6315 321.55 54.9729 321.891 54.9729C321.891 54.9729 321.891 54.9729 321.891 55.3142C322.233 55.9968 322.915 56.6795 323.598 57.3621C323.598 57.3621 323.598 57.7034 323.939 57.7034C324.281 58.0448 324.622 58.7274 325.305 59.0687L325.646 59.4101C326.328 60.0927 326.67 60.434 327.352 61.1167L327.694 61.458C328.035 61.7993 328.718 62.482 329.059 62.8233C329.4 62.8233 329.4 63.1646 329.742 63.1646C330.424 63.8472 331.107 64.1886 331.79 64.5299C332.472 65.2125 333.155 65.5539 333.838 65.8952C334.179 66.2365 334.862 66.5778 335.203 66.5778C335.544 66.9191 335.885 66.9191 336.227 67.2605C336.568 67.2605 336.568 67.6018 336.909 67.6018C337.251 67.9431 337.592 67.9431 337.933 68.2844H338.275C338.616 68.2844 338.616 68.2844 338.957 68.6258C339.299 68.6258 339.64 68.9671 339.64 68.9671C339.981 68.9671 339.981 68.9671 340.323 68.9671C340.664 68.9671 340.664 68.9671 341.005 68.9671H341.347C341.688 68.9671 341.688 68.9671 342.029 68.9671C342.371 68.9671 342.371 68.9671 342.712 68.9671H343.053C343.395 68.9671 343.395 68.9671 343.736 68.9671C344.077 68.9671 344.419 68.9671 344.76 68.9671C344.76 68.9671 344.76 68.9671 345.101 68.9671C345.443 68.9671 345.443 68.9671 345.784 68.6258H346.125C347.149 68.2844 347.49 67.9431 347.832 67.6018Z" fill="#FF991E"/>
<path d="M338.275 40.9794C346.467 47.1232 352.952 56.3389 352.269 61.4587C351.587 66.9199 344.419 66.2372 336.227 60.0934C328.035 53.9496 321.55 44.7339 322.233 39.2728C322.916 34.4943 330.083 34.8356 338.275 40.9794Z" fill="#FFC400"/>
<path d="M338.616 42.0033C345.784 47.1232 350.904 54.9736 350.563 59.7521C349.88 64.1893 343.736 63.8479 336.91 58.7281C329.742 53.6083 324.622 45.7579 324.963 40.9794C325.305 36.2008 331.448 36.8835 338.616 42.0033Z" fill="white"/>
<path d="M336.568 58.045C343.395 63.1648 349.539 63.5061 349.88 59.0689C350.221 54.6317 345.101 46.7813 338.275 42.0028C331.449 36.883 325.305 36.5417 324.963 40.9789C324.622 45.416 329.742 53.2665 336.568 58.045Z" fill="#FFE381"/>
<path d="M340.323 44.0513V45.4166C341.347 46.4406 342.03 47.1232 342.712 48.1472C343.395 49.1711 343.395 49.8538 343.395 50.5364L340.664 48.8298C340.664 48.4885 340.664 47.8059 340.323 47.4645C339.982 47.1232 339.64 46.7819 339.299 46.0992C338.958 45.7579 338.275 45.4166 338.275 45.4166C337.934 45.4166 337.934 45.4166 337.934 45.7579C337.934 46.0992 337.934 46.4406 338.275 46.7819C338.616 47.1232 338.958 47.8059 339.64 48.4885C340.323 49.1711 341.006 49.8538 341.347 50.1951C341.688 50.5364 342.03 51.2191 342.371 51.5604C342.712 51.9017 342.712 52.243 343.054 52.9257C343.054 53.267 343.395 53.6083 343.054 53.9497C343.054 54.6323 342.712 54.9736 342.03 54.9736C341.347 54.9736 340.323 54.6323 339.299 53.9497V54.9736L337.934 53.9497V52.9257C336.569 51.9017 335.886 50.8778 335.203 50.1951C334.521 49.1711 334.179 48.4885 334.521 47.4645L337.251 49.1711C337.251 49.5125 337.251 50.1951 337.593 50.5364C337.934 50.8778 338.275 51.5604 338.958 51.9017C339.64 52.243 339.982 52.5844 340.323 52.5844C340.664 52.5844 340.664 52.5844 341.006 52.243C341.006 51.9017 341.006 51.5604 340.664 51.2191C340.323 50.8778 339.982 50.1951 339.299 49.8538C338.616 49.1711 338.275 48.8298 337.593 48.1472C337.251 47.8059 336.91 47.1232 336.569 46.7819C336.227 46.4406 335.886 45.7579 335.886 45.4166C335.886 45.0753 335.545 44.734 335.886 44.3926C335.886 43.71 336.227 43.3687 336.91 43.3687C337.593 43.3687 338.616 43.71 339.64 44.3926V43.0273L340.323 44.0513Z" fill="white"/>
<path d="M327.353 146.791L326.329 149.522C327.694 149.522 328.718 150.204 329.401 150.887C330.083 151.911 330.083 153.276 329.401 154.641L325.646 154.983C325.988 153.959 325.988 153.276 325.646 152.935C325.305 152.593 324.964 152.252 324.281 152.252C323.598 152.252 322.916 152.593 322.233 152.935C321.55 153.276 321.209 153.959 321.209 154.641C320.868 155.324 321.209 155.665 321.209 156.007C321.55 156.348 322.233 156.689 322.916 157.031C323.94 157.372 324.622 157.713 325.305 158.055C325.988 158.396 326.329 158.737 326.67 159.079C327.012 159.42 327.012 160.103 327.353 160.444C327.353 161.127 327.353 161.809 327.012 162.492C326.67 163.857 325.646 165.222 324.281 166.246C322.916 167.27 321.55 167.953 319.844 168.294L319.161 170.684L317.113 171.025L317.796 168.636C316.089 168.636 314.724 168.294 314.041 167.27C313.359 166.246 313.359 164.881 314.041 163.174L317.796 162.833C317.454 163.857 317.454 164.54 317.796 165.222C318.137 165.564 318.82 165.905 319.844 165.905C320.526 165.905 321.209 165.564 321.892 165.222C322.574 164.881 322.916 164.198 322.916 163.516C323.257 162.833 323.257 162.151 322.916 161.809C322.574 161.468 322.233 161.127 321.209 160.785C320.185 160.444 319.502 160.444 319.161 160.103C318.478 159.761 318.137 159.42 317.796 159.079C317.454 158.737 317.113 158.055 317.113 157.713C317.113 157.031 317.113 156.348 317.455 155.665C317.796 154.3 318.82 152.935 320.185 151.911C321.55 150.887 322.916 150.204 324.622 149.863L325.646 147.132L327.353 146.791Z" fill="white"/>
<path d="M246.803 409.949H209.598C205.161 409.949 201.748 406.536 201.748 402.099V400.051C201.748 395.613 205.161 392.2 209.598 392.2H246.803C251.24 392.2 254.653 395.613 254.653 400.051V402.099C254.653 406.536 251.24 409.949 246.803 409.949Z" fill="#FFC400"/>
<path d="M246.803 391.517H209.598C205.161 391.517 201.748 388.104 201.748 383.667V381.619C201.748 377.182 205.161 373.769 209.598 373.769H246.803C251.24 373.769 254.653 377.182 254.653 381.619V383.667C254.653 387.763 251.24 391.517 246.803 391.517Z" fill="#FFC400"/>
<path d="M185.021 409.949H147.475C143.038 409.949 139.625 406.536 139.625 402.099V400.051C139.625 395.613 143.038 392.2 147.475 392.2H184.68C189.117 392.2 192.53 395.613 192.53 400.051V402.099C192.871 406.536 189.117 409.949 185.021 409.949Z" fill="#FFC400"/>
<path d="M185.021 391.517H147.475C143.038 391.517 139.625 388.104 139.625 383.667V381.619C139.625 377.182 143.038 373.769 147.475 373.769H184.68C189.117 373.769 192.53 377.182 192.53 381.619V383.667C192.871 387.763 189.117 391.517 185.021 391.517Z" fill="#FFC400"/>
<path d="M185.021 372.745H147.817C143.38 372.745 139.967 369.332 139.967 364.894V362.847C139.967 358.409 143.38 354.996 147.817 354.996H185.021C189.459 354.996 192.872 358.409 192.872 362.847V364.894C192.872 369.332 189.117 372.745 185.021 372.745Z" fill="#FFC400"/>
<path d="M127.681 409.949H83.9914C81.2608 409.949 79.2129 407.901 79.2129 405.17V396.979C79.2129 394.248 81.2608 392.2 83.9914 392.2H127.681C130.411 392.2 132.459 394.248 132.459 396.979V405.17C132.459 407.901 130.07 409.949 127.681 409.949Z" fill="#FFC400"/>
<path d="M128.363 391.517H83.3088C81.2608 391.517 79.2129 389.811 79.2129 387.421V377.864C79.2129 375.816 80.9195 373.769 83.3088 373.769H128.363C130.411 373.769 132.459 375.475 132.459 377.864V387.421C132.459 389.811 130.411 391.517 128.363 391.517Z" fill="#FFC400"/>
<path opacity="0.2" d="M94.2321 392.542H89.7949V410.291H94.2321V392.542Z" fill="white"/>
<path opacity="0.2" d="M86.7138 410.151H88.7617V392.403H86.7138V410.151Z" fill="white"/>
<path opacity="0.2" d="M110.273 392.542H95.5957V410.291H110.273V392.542Z" fill="white"/>
<path opacity="0.2" d="M152.937 392.542H148.5V410.291H152.937V392.542Z" fill="white"/>
<path opacity="0.2" d="M145.333 410.151H147.381V392.403H145.333V410.151Z" fill="white"/>
<path opacity="0.2" d="M168.98 392.542H154.303V410.291H168.98V392.542Z" fill="white"/>
<path opacity="0.2" d="M152.937 373.769H148.5V391.517H152.937V373.769Z" fill="white"/>
<path opacity="0.2" d="M145.333 391.421H147.381V373.672H145.333V391.421Z" fill="white"/>
<path opacity="0.2" d="M168.98 373.769H154.303V391.517H168.98V373.769Z" fill="white"/>
<path opacity="0.2" d="M94.2321 373.769H89.7949V391.517H94.2321V373.769Z" fill="white"/>
<path opacity="0.2" d="M86.7138 391.421H88.7617V373.672H86.7138V391.421Z" fill="white"/>
<path opacity="0.2" d="M110.273 373.769H95.5957V391.517H110.273V373.769Z" fill="white"/>
<path d="M129.045 389.469C129.045 389.811 128.704 390.152 128.362 390.152C128.021 390.152 127.68 389.811 127.68 389.469V375.816C127.68 375.475 128.021 375.134 128.362 375.134C128.704 375.134 129.045 375.475 129.045 375.816V389.469Z" fill="#FFE381"/>
<path d="M123.244 389.469C123.244 389.811 122.903 390.152 122.562 390.152C122.22 390.152 121.879 389.811 121.879 389.469V375.816C121.879 375.475 122.22 375.134 122.562 375.134C122.903 375.134 123.244 375.475 123.244 375.816V389.469Z" fill="#FFE381"/>
<path d="M117.783 389.469C117.783 389.811 117.442 390.152 117.101 390.152C116.759 390.152 116.418 389.811 116.418 389.469V375.816C116.418 375.475 116.759 375.134 117.101 375.134C117.442 375.134 117.783 375.475 117.783 375.816V389.469Z" fill="#FFE381"/>
<path d="M111.979 389.469C111.979 389.811 111.637 390.152 111.296 390.152C110.955 390.152 110.613 389.811 110.613 389.469V375.816C110.613 375.475 110.955 375.134 111.296 375.134C111.637 375.134 111.979 375.475 111.979 375.816V389.469Z" fill="#FFE381"/>
<path d="M106.178 389.469C106.178 389.811 105.836 390.152 105.495 390.152C105.154 390.152 104.812 389.811 104.812 389.469V375.816C104.812 375.475 105.154 375.134 105.495 375.134C105.836 375.134 106.178 375.475 106.178 375.816V389.469Z" fill="#FFE381"/>
<path d="M100.375 389.469C100.375 389.811 100.034 390.152 99.6924 390.152C99.3511 390.152 99.0098 389.811 99.0098 389.469V375.816C99.0098 375.475 99.3511 375.134 99.6924 375.134C100.034 375.134 100.375 375.475 100.375 375.816V389.469Z" fill="#FFE381"/>
<path d="M94.5723 389.469C94.5723 389.811 94.231 390.152 93.8897 390.152C93.5484 390.152 93.207 389.811 93.207 389.469V375.816C93.207 375.475 93.5484 375.134 93.8897 375.134C94.231 375.134 94.5723 375.475 94.5723 375.816V389.469Z" fill="#FFE381"/>
<path d="M89.1114 389.469C89.1114 389.811 88.7701 390.152 88.4287 390.152C88.0874 390.152 87.7461 389.811 87.7461 389.469V375.816C87.7461 375.475 88.0874 375.134 88.4287 375.134C88.7701 375.134 89.1114 375.475 89.1114 375.816V389.469Z" fill="#FFE381"/>
<path d="M83.3086 389.469C83.3086 389.811 82.9673 390.152 82.626 390.152C82.2847 390.152 81.9434 389.811 81.9434 389.469V375.816C81.9434 375.475 82.2847 375.134 82.626 375.134C82.9673 375.134 83.3086 375.475 83.3086 375.816V389.469Z" fill="#FFE381"/>
<path d="M129.045 408.243C129.045 408.584 128.704 408.925 128.362 408.925C128.021 408.925 127.68 408.584 127.68 408.243V394.59C127.68 394.249 128.021 393.907 128.362 393.907C128.704 393.907 129.045 394.249 129.045 394.59V408.243Z" fill="#FFE381"/>
<path d="M123.244 408.243C123.244 408.584 122.903 408.925 122.562 408.925C122.22 408.925 121.879 408.584 121.879 408.243V394.59C121.879 394.249 122.22 393.907 122.562 393.907C122.903 393.907 123.244 394.249 123.244 394.59V408.243Z" fill="#FFE381"/>
<path d="M117.783 408.243C117.783 408.584 117.442 408.925 117.101 408.925C116.759 408.925 116.418 408.584 116.418 408.243V394.59C116.418 394.249 116.759 393.907 117.101 393.907C117.442 393.907 117.783 394.249 117.783 394.59V408.243Z" fill="#FFE381"/>
<path d="M111.979 408.243C111.979 408.584 111.637 408.925 111.296 408.925C110.955 408.925 110.613 408.584 110.613 408.243V394.59C110.613 394.249 110.955 393.907 111.296 393.907C111.637 393.907 111.979 394.249 111.979 394.59V408.243Z" fill="#FFE381"/>
<path d="M106.178 408.243C106.178 408.584 105.836 408.925 105.495 408.925C105.154 408.925 104.812 408.584 104.812 408.243V394.59C104.812 394.249 105.154 393.907 105.495 393.907C105.836 393.907 106.178 394.249 106.178 394.59V408.243Z" fill="#FFE381"/>
<path d="M100.375 408.243C100.375 408.584 100.034 408.925 99.6924 408.925C99.3511 408.925 99.0098 408.584 99.0098 408.243V394.59C99.0098 394.249 99.3511 393.907 99.6924 393.907C100.034 393.907 100.375 394.249 100.375 394.59V408.243Z" fill="#FFE381"/>
<path d="M94.5723 408.243C94.5723 408.584 94.231 408.925 93.8897 408.925C93.5484 408.925 93.207 408.584 93.207 408.243V394.59C93.207 394.249 93.5484 393.907 93.8897 393.907C94.231 393.907 94.5723 394.249 94.5723 394.59V408.243Z" fill="#FFE381"/>
<path d="M89.1114 408.243C89.1114 408.584 88.7701 408.925 88.4287 408.925C88.0874 408.925 87.7461 408.584 87.7461 408.243V394.59C87.7461 394.249 88.0874 393.907 88.4287 393.907C88.7701 393.907 89.1114 394.249 89.1114 394.59V408.243Z" fill="#FFE381"/>
<path d="M83.3086 408.243C83.3086 408.584 82.9673 408.925 82.626 408.925C82.2847 408.925 81.9434 408.584 81.9434 408.243V394.59C81.9434 394.249 82.2847 393.907 82.626 393.907C82.9673 393.907 83.3086 394.249 83.3086 394.59V408.243Z" fill="#FFE381"/>
<path d="M64.5356 409.949H19.8224C17.4332 409.949 15.7266 408.242 15.7266 405.853V396.296C15.7266 393.907 17.4332 392.2 19.8224 392.2H64.877C67.2662 392.2 68.9728 393.907 68.9728 396.296V405.853C68.6315 408.242 66.9249 409.949 64.5356 409.949Z" fill="#FFC400"/>
<path opacity="0.2" d="M26.6481 392.542H22.2109V410.291H26.6481V392.542Z" fill="white"/>
<path opacity="0.2" d="M18.956 410.151H21.0039L21.0039 392.403H18.956L18.956 410.151Z" fill="white"/>
<path opacity="0.2" d="M42.6905 392.542H28.0137V410.291H42.6905V392.542Z" fill="white"/>
<path d="M64.877 408.243C64.877 408.584 64.5357 408.925 64.1944 408.925C63.853 408.925 63.5117 408.584 63.5117 408.243V394.59C63.5117 394.249 63.853 393.907 64.1944 393.907C64.5357 393.907 64.877 394.249 64.877 394.59V408.243Z" fill="#FFE381"/>
<path d="M59.0762 408.243C59.0762 408.584 58.7349 408.925 58.3936 408.925C58.0523 408.925 57.7109 408.584 57.7109 408.243V394.59C57.7109 394.249 58.0523 393.907 58.3936 393.907C58.7349 393.907 59.0762 394.249 59.0762 394.59V408.243Z" fill="#FFE381"/>
<path d="M53.2715 408.243C53.2715 408.584 52.9302 408.925 52.5889 408.925C52.2476 408.925 51.9062 408.584 51.9062 408.243V394.59C51.9062 394.249 52.2476 393.907 52.5889 393.907C52.9302 393.907 53.2715 394.249 53.2715 394.59V408.243Z" fill="#FFE381"/>
<path d="M47.8106 408.243C47.8106 408.584 47.4693 408.925 47.128 408.925C46.7866 408.925 46.4453 408.584 46.4453 408.243V394.59C46.4453 394.249 46.7866 393.907 47.128 393.907C47.4693 393.907 47.8106 394.249 47.8106 394.59V408.243Z" fill="#FFE381"/>
<path d="M42.0098 408.243C42.0098 408.584 41.6685 408.925 41.3272 408.925C40.9859 408.925 40.6445 408.584 40.6445 408.243V394.59C40.6445 394.249 40.9859 393.907 41.3272 393.907C41.6685 393.907 42.0098 394.249 42.0098 394.59V408.243Z" fill="#FFE381"/>
<path d="M36.2071 408.243C36.2071 408.584 35.8658 408.925 35.5244 408.925C35.1831 408.925 34.8418 408.584 34.8418 408.243V394.59C34.8418 394.249 35.1831 393.907 35.5244 393.907C35.8658 393.907 36.2071 394.249 36.2071 394.59V408.243Z" fill="#FFE381"/>
<path d="M30.4024 408.243C30.4024 408.584 30.0611 408.925 29.7198 408.925C29.3784 408.925 29.0371 408.584 29.0371 408.243V394.59C29.0371 394.249 29.3784 393.907 29.7198 393.907C30.0611 393.907 30.4024 394.249 30.4024 394.59V408.243Z" fill="#FFE381"/>
<path d="M24.6016 408.243C24.6016 408.584 24.2603 408.925 23.919 408.925C23.5776 408.925 23.2363 408.584 23.2363 408.243V394.59C23.2363 394.249 23.5776 393.907 23.919 393.907C24.2603 393.907 24.6016 394.249 24.6016 394.59V408.243Z" fill="#FFE381"/>
<path d="M19.1407 408.243C19.1407 408.584 18.7994 408.925 18.458 408.925C18.1167 408.925 17.7754 408.584 17.7754 408.243V394.59C17.7754 394.249 18.1167 393.907 18.458 393.907C18.7994 393.907 19.1407 394.249 19.1407 394.59V408.243Z" fill="#FFE381"/>
<path d="M189.801 408.243C189.801 408.584 189.46 408.925 189.118 408.925C188.777 408.925 188.436 408.584 188.436 408.243V394.59C188.436 394.249 188.777 393.907 189.118 393.907C189.46 393.907 189.801 394.249 189.801 394.59V408.243Z" fill="#FFE381"/>
<path d="M184.34 408.243C184.34 408.584 183.999 408.925 183.657 408.925C183.316 408.925 182.975 408.584 182.975 408.243V394.59C182.975 394.249 183.316 393.907 183.657 393.907C183.999 393.907 184.34 394.249 184.34 394.59V408.243Z" fill="#FFE381"/>
<path d="M178.539 408.243C178.539 408.584 178.198 408.925 177.856 408.925C177.515 408.925 177.174 408.584 177.174 408.243V394.59C177.174 394.249 177.515 393.907 177.856 393.907C178.198 393.907 178.539 394.249 178.539 394.59V408.243Z" fill="#FFE381"/>
<path d="M172.736 408.243C172.736 408.584 172.395 408.925 172.054 408.925C171.712 408.925 171.371 408.584 171.371 408.243V394.59C171.371 394.249 171.712 393.907 172.054 393.907C172.395 393.907 172.736 394.249 172.736 394.59V408.243Z" fill="#FFE381"/>
<path d="M166.934 408.243C166.934 408.584 166.592 408.925 166.251 408.925C165.91 408.925 165.568 408.584 165.568 408.243V394.59C165.568 394.249 165.91 393.907 166.251 393.907C166.592 393.907 166.934 394.249 166.934 394.59V408.243Z" fill="#FFE381"/>
<path d="M161.131 408.243C161.131 408.584 160.79 408.925 160.448 408.925C160.107 408.925 159.766 408.584 159.766 408.243V394.59C159.766 394.249 160.107 393.907 160.448 393.907C160.79 393.907 161.131 394.249 161.131 394.59V408.243Z" fill="#FFE381"/>
<path d="M155.67 408.243C155.67 408.584 155.329 408.925 154.987 408.925C154.646 408.925 154.305 408.584 154.305 408.243V394.59C154.305 394.249 154.646 393.907 154.987 393.907C155.329 393.907 155.67 394.249 155.67 394.59V408.243Z" fill="#FFE381"/>
<path d="M149.867 408.243C149.867 408.584 149.526 408.925 149.185 408.925C148.843 408.925 148.502 408.584 148.502 408.243V394.59C148.502 394.249 148.843 393.907 149.185 393.907C149.526 393.907 149.867 394.249 149.867 394.59V408.243Z" fill="#FFE381"/>
<path d="M144.065 408.243C144.065 408.584 143.723 408.925 143.382 408.925C143.041 408.925 142.699 408.584 142.699 408.243V394.59C142.699 394.249 143.041 393.907 143.382 393.907C143.723 393.907 144.065 394.249 144.065 394.59V408.243Z" fill="#FFE381"/>
<path d="M189.801 389.469C189.801 389.811 189.46 390.152 189.118 390.152C188.777 390.152 188.436 389.811 188.436 389.469V375.816C188.436 375.475 188.777 375.134 189.118 375.134C189.46 375.134 189.801 375.475 189.801 375.816V389.469Z" fill="#FFE381"/>
<path d="M184.34 389.469C184.34 389.811 183.999 390.152 183.657 390.152C183.316 390.152 182.975 389.811 182.975 389.469V375.816C182.975 375.475 183.316 375.134 183.657 375.134C183.999 375.134 184.34 375.475 184.34 375.816V389.469Z" fill="#FFE381"/>
<path d="M178.539 389.469C178.539 389.811 178.198 390.152 177.856 390.152C177.515 390.152 177.174 389.811 177.174 389.469V375.816C177.174 375.475 177.515 375.134 177.856 375.134C178.198 375.134 178.539 375.475 178.539 375.816V389.469Z" fill="#FFE381"/>
<path d="M172.736 389.469C172.736 389.811 172.395 390.152 172.054 390.152C171.712 390.152 171.371 389.811 171.371 389.469V375.816C171.371 375.475 171.712 375.134 172.054 375.134C172.395 375.134 172.736 375.475 172.736 375.816V389.469Z" fill="#FFE381"/>
<path d="M166.934 389.469C166.934 389.811 166.592 390.152 166.251 390.152C165.91 390.152 165.568 389.811 165.568 389.469V375.816C165.568 375.475 165.91 375.134 166.251 375.134C166.592 375.134 166.934 375.475 166.934 375.816V389.469Z" fill="#FFE381"/>
<path d="M161.131 389.469C161.131 389.811 160.79 390.152 160.448 390.152C160.107 390.152 159.766 389.811 159.766 389.469V375.816C159.766 375.475 160.107 375.134 160.448 375.134C160.79 375.134 161.131 375.475 161.131 375.816V389.469Z" fill="#FFE381"/>
<path d="M155.67 389.469C155.67 389.811 155.329 390.152 154.987 390.152C154.646 390.152 154.305 389.811 154.305 389.469V375.816C154.305 375.475 154.646 375.134 154.987 375.134C155.329 375.134 155.67 375.475 155.67 375.816V389.469Z" fill="#FFE381"/>
<path d="M149.867 389.469C149.867 389.811 149.526 390.152 149.185 390.152C148.843 390.152 148.502 389.811 148.502 389.469V375.816C148.502 375.475 148.843 375.134 149.185 375.134C149.526 375.134 149.867 375.475 149.867 375.816V389.469Z" fill="#FFE381"/>
<path d="M144.065 389.469C144.065 389.811 143.723 390.152 143.382 390.152C143.041 390.152 142.699 389.811 142.699 389.469V375.816C142.699 375.475 143.041 375.134 143.382 375.134C143.723 375.134 144.065 375.475 144.065 375.816V389.469Z" fill="#FFE381"/>
<g opacity="0.2">
<path opacity="0.2" d="M152.937 354.996H148.5V372.745H152.937V354.996Z" fill="white"/>
<path opacity="0.2" d="M145.333 372.866H147.381V355.117H145.333V372.866Z" fill="white"/>
<path opacity="0.2" d="M168.98 354.996H154.303V372.745H168.98V354.996Z" fill="white"/>
</g>
<path opacity="0.2" d="M213.693 373.769H209.256V391.517H213.693V373.769Z" fill="white"/>
<path opacity="0.2" d="M206.151 391.421H208.199V373.672H206.151V391.421Z" fill="white"/>
<path opacity="0.2" d="M229.735 373.769H215.059V391.517H229.735V373.769Z" fill="white"/>
<g opacity="0.2">
<path opacity="0.2" d="M213.693 392.542H209.256V410.291H213.693V392.542Z" fill="white"/>
<path opacity="0.2" d="M206.151 409.976H208.199V392.227H206.151V409.976Z" fill="white"/>
<path opacity="0.2" d="M229.735 392.542H215.059V410.291H229.735V392.542Z" fill="white"/>
</g>
<path d="M189.801 371.039C189.801 371.38 189.46 371.722 189.118 371.722C188.777 371.722 188.436 371.38 188.436 371.039V357.728C188.436 357.386 188.777 357.045 189.118 357.045C189.46 357.045 189.801 357.386 189.801 357.728V371.039Z" fill="#FFE381"/>
<path d="M184.34 371.039C184.34 371.38 183.999 371.722 183.657 371.722C183.316 371.722 182.975 371.38 182.975 371.039V357.728C182.975 357.386 183.316 357.045 183.657 357.045C183.999 357.045 184.34 357.386 184.34 357.728V371.039Z" fill="#FFE381"/>
<path d="M178.539 371.039C178.539 371.38 178.198 371.722 177.856 371.722C177.515 371.722 177.174 371.38 177.174 371.039V357.728C177.174 357.386 177.515 357.045 177.856 357.045C178.198 357.045 178.539 357.386 178.539 357.728V371.039Z" fill="#FFE381"/>
<path d="M172.736 371.039C172.736 371.38 172.395 371.722 172.054 371.722C171.712 371.722 171.371 371.38 171.371 371.039V357.728C171.371 357.386 171.712 357.045 172.054 357.045C172.395 357.045 172.736 357.386 172.736 357.728V371.039Z" fill="#FFE381"/>
<path d="M166.934 371.039C166.934 371.38 166.592 371.722 166.251 371.722C165.91 371.722 165.568 371.38 165.568 371.039V357.728C165.568 357.386 165.91 357.045 166.251 357.045C166.592 357.045 166.934 357.386 166.934 357.728V371.039Z" fill="#FFE381"/>
<path d="M161.131 371.039C161.131 371.38 160.79 371.722 160.448 371.722C160.107 371.722 159.766 371.38 159.766 371.039V357.728C159.766 357.386 160.107 357.045 160.448 357.045C160.79 357.045 161.131 357.386 161.131 357.728V371.039Z" fill="#FFE381"/>
<path d="M155.67 371.039C155.67 371.38 155.329 371.722 154.987 371.722C154.646 371.722 154.305 371.38 154.305 371.039V357.728C154.305 357.386 154.646 357.045 154.987 357.045C155.329 357.045 155.67 357.386 155.67 357.728V371.039Z" fill="#FFE381"/>
<path d="M149.867 371.039C149.867 371.38 149.526 371.722 149.185 371.722C148.843 371.722 148.502 371.38 148.502 371.039V357.728C148.502 357.386 148.843 357.045 149.185 357.045C149.526 357.045 149.867 357.386 149.867 357.728V371.039Z" fill="#FFE381"/>
<path d="M144.065 371.039C144.065 371.38 143.723 371.722 143.382 371.722C143.041 371.722 142.699 371.38 142.699 371.039V357.728C142.699 357.386 143.041 357.045 143.382 357.045C143.723 357.045 144.065 357.386 144.065 357.728V371.039Z" fill="#FFE381"/>
<path d="M251.92 389.469C251.92 389.811 251.579 390.152 251.237 390.152C250.896 390.152 250.555 389.811 250.555 389.469V375.816C250.555 375.475 250.896 375.134 251.237 375.134C251.579 375.134 251.92 375.475 251.92 375.816V389.469Z" fill="#FFE381"/>
<path d="M246.117 389.469C246.117 389.811 245.776 390.152 245.435 390.152C245.093 390.152 244.752 389.811 244.752 389.469V375.816C244.752 375.475 245.093 375.134 245.435 375.134C245.776 375.134 246.117 375.475 246.117 375.816V389.469Z" fill="#FFE381"/>
<path d="M240.316 389.469C240.316 389.811 239.975 390.152 239.634 390.152C239.292 390.152 238.951 389.811 238.951 389.469V375.816C238.951 375.475 239.292 375.134 239.634 375.134C239.975 375.134 240.316 375.475 240.316 375.816V389.469Z" fill="#FFE381"/>
<path d="M234.514 389.469C234.514 389.811 234.172 390.152 233.831 390.152C233.49 390.152 233.148 389.811 233.148 389.469V375.816C233.148 375.475 233.49 375.134 233.831 375.134C234.172 375.134 234.514 375.475 234.514 375.816V389.469Z" fill="#FFE381"/>
<path d="M229.051 389.469C229.051 389.811 228.71 390.152 228.368 390.152C228.027 390.152 227.686 389.811 227.686 389.469V375.816C227.686 375.475 228.027 375.134 228.368 375.134C228.71 375.134 229.051 375.475 229.051 375.816V389.469Z" fill="#FFE381"/>
<path d="M223.25 389.469C223.25 389.811 222.909 390.152 222.567 390.152C222.226 390.152 221.885 389.811 221.885 389.469V375.816C221.885 375.475 222.226 375.134 222.567 375.134C222.909 375.134 223.25 375.475 223.25 375.816V389.469Z" fill="#FFE381"/>
<path d="M217.447 389.469C217.447 389.811 217.106 390.152 216.765 390.152C216.423 390.152 216.082 389.811 216.082 389.469V375.816C216.082 375.475 216.423 375.134 216.765 375.134C217.106 375.134 217.447 375.475 217.447 375.816V389.469Z" fill="#FFE381"/>
<path d="M211.645 389.469C211.645 389.811 211.303 390.152 210.962 390.152C210.621 390.152 210.279 389.811 210.279 389.469V375.816C210.279 375.475 210.621 375.134 210.962 375.134C211.303 375.134 211.645 375.475 211.645 375.816V389.469Z" fill="#FFE381"/>
<path d="M205.842 389.469C205.842 389.811 205.501 390.152 205.159 390.152C204.818 390.152 204.477 389.811 204.477 389.469V375.816C204.477 375.475 204.818 375.134 205.159 375.134C205.501 375.134 205.842 375.475 205.842 375.816V389.469Z" fill="#FFE381"/>
<path d="M251.92 408.243C251.92 408.584 251.579 408.925 251.237 408.925C250.896 408.925 250.555 408.584 250.555 408.243V394.59C250.555 394.249 250.896 393.907 251.237 393.907C251.579 393.907 251.92 394.249 251.92 394.59V408.243Z" fill="#FFE381"/>
<path d="M246.117 408.243C246.117 408.584 245.776 408.925 245.435 408.925C245.093 408.925 244.752 408.584 244.752 408.243V394.59C244.752 394.249 245.093 393.907 245.435 393.907C245.776 393.907 246.117 394.249 246.117 394.59V408.243Z" fill="#FFE381"/>
<path d="M240.316 408.243C240.316 408.584 239.975 408.925 239.634 408.925C239.292 408.925 238.951 408.584 238.951 408.243V394.59C238.951 394.249 239.292 393.907 239.634 393.907C239.975 393.907 240.316 394.249 240.316 394.59V408.243Z" fill="#FFE381"/>
<path d="M234.514 408.243C234.514 408.584 234.172 408.925 233.831 408.925C233.49 408.925 233.148 408.584 233.148 408.243V394.59C233.148 394.249 233.49 393.907 233.831 393.907C234.172 393.907 234.514 394.249 234.514 394.59V408.243Z" fill="#FFE381"/>
<path d="M229.051 408.243C229.051 408.584 228.71 408.925 228.368 408.925C228.027 408.925 227.686 408.584 227.686 408.243V394.59C227.686 394.249 228.027 393.907 228.368 393.907C228.71 393.907 229.051 394.249 229.051 394.59V408.243Z" fill="#FFE381"/>
<path d="M223.25 408.243C223.25 408.584 222.909 408.925 222.567 408.925C222.226 408.925 221.885 408.584 221.885 408.243V394.59C221.885 394.249 222.226 393.907 222.567 393.907C222.909 393.907 223.25 394.249 223.25 394.59V408.243Z" fill="#FFE381"/>
<path d="M217.447 408.243C217.447 408.584 217.106 408.925 216.765 408.925C216.423 408.925 216.082 408.584 216.082 408.243V394.59C216.082 394.249 216.423 393.907 216.765 393.907C217.106 393.907 217.447 394.249 217.447 394.59V408.243Z" fill="#FFE381"/>
<path d="M211.645 408.243C211.645 408.584 211.303 408.925 210.962 408.925C210.621 408.925 210.279 408.584 210.279 408.243V394.59C210.279 394.249 210.621 393.907 210.962 393.907C211.303 393.907 211.645 394.249 211.645 394.59V408.243Z" fill="#FFE381"/>
<path d="M205.842 408.243C205.842 408.584 205.501 408.925 205.159 408.925C204.818 408.925 204.477 408.584 204.477 408.243V394.59C204.477 394.249 204.818 393.907 205.159 393.907C205.501 393.907 205.842 394.249 205.842 394.59V408.243Z" fill="#FFE381"/>
<path d="M148.161 409.267C168.896 409.267 185.706 392.457 185.706 371.721C185.706 350.985 168.896 334.176 148.161 334.176C127.425 334.176 110.615 350.985 110.615 371.721C110.615 392.457 127.425 409.267 148.161 409.267Z" fill="#FFC400"/>
<path d="M148.162 402.781C165.316 402.781 179.222 388.875 179.222 371.72C179.222 354.566 165.316 340.66 148.162 340.66C131.008 340.66 117.102 354.566 117.102 371.72C117.102 388.875 131.008 402.781 148.162 402.781Z" fill="#FFE381" stroke="white" stroke-width="0.5" stroke-miterlimit="10"/>
<path d="M151.916 378.206C151.916 377.182 151.575 376.158 150.892 375.476C150.21 374.793 149.186 374.11 147.82 373.428C146.455 372.745 145.09 372.404 143.724 371.721C142.359 371.038 141.335 370.356 140.653 369.673C139.629 368.991 138.946 367.967 138.605 366.943C138.263 365.919 137.922 364.553 137.922 363.188C137.922 360.799 138.605 358.751 140.311 357.044C142.018 355.338 144.407 354.655 147.138 354.314V349.535H150.551V354.314C153.281 354.655 155.329 355.679 157.036 357.727C158.743 359.434 159.425 361.823 159.425 364.553H151.916C151.916 363.188 151.575 361.823 150.892 361.14C150.21 360.457 149.527 359.775 148.503 359.775C147.479 359.775 146.796 360.116 146.114 360.799C145.431 361.481 145.431 362.164 145.431 363.188C145.431 364.212 145.772 365.236 146.455 365.919C147.138 366.601 148.162 367.284 149.527 367.625C150.892 368.308 152.257 368.649 153.281 369.332C154.305 370.014 155.671 370.697 156.353 371.38C157.377 372.062 158.06 373.086 158.401 374.11C158.743 375.134 159.084 376.5 159.084 377.865C159.084 380.254 158.401 382.302 156.695 384.009C154.988 385.715 152.94 386.398 150.21 386.739V391.176H146.796V386.739C143.724 386.398 140.994 385.374 139.287 383.326C137.581 381.619 136.557 378.889 136.557 375.817H144.066C144.066 377.524 144.407 378.889 145.09 379.571C145.772 380.595 146.796 380.937 148.162 380.937C149.186 380.937 149.868 380.595 150.551 379.913C151.575 380.254 151.916 379.23 151.916 378.206Z" fill="white"/>
<path d="M101.578 400.146C113.575 388.15 113.575 368.7 101.578 356.703C89.5819 344.707 70.1319 344.707 58.1355 356.703C46.1391 368.7 46.1391 388.15 58.1355 400.146C70.1319 412.143 89.5819 412.143 101.578 400.146Z" fill="#FFC400"/>
<path d="M105.153 378.547C105.153 392.542 93.8898 404.147 79.5542 404.147C65.2187 404.147 53.9551 392.883 53.9551 378.547C53.9551 364.553 65.2187 352.948 79.5542 352.948C93.8898 352.948 105.153 364.553 105.153 378.547Z" fill="#FFE381" stroke="white" stroke-width="0.5" stroke-miterlimit="10"/>
<path d="M82.6274 384.009C82.6274 382.985 82.2861 382.302 81.9448 381.62C81.6035 380.937 80.5795 380.596 79.5555 379.913C78.5316 379.572 77.1663 378.889 76.1423 378.548C75.1184 378.206 74.4357 377.524 73.4117 376.841C72.7291 376.158 72.0465 375.476 71.7051 374.452C71.3638 373.428 71.0225 372.404 71.0225 371.38C71.0225 369.332 71.7051 367.625 73.0704 366.26C74.4357 364.895 76.1423 364.212 78.5316 363.871V360.116H81.9448V363.871C83.9927 364.212 86.0407 365.236 87.0646 366.601C88.4299 367.967 89.1126 370.015 89.1126 372.404H82.9688C82.9688 371.039 82.6274 370.015 82.2861 369.332C81.9448 368.649 81.2622 368.308 80.2382 368.308C79.5555 368.308 78.8729 368.649 78.5316 368.991C78.1903 369.332 77.8489 370.356 77.8489 371.039C77.8489 372.062 78.1903 372.745 78.5316 373.086C78.8729 373.769 79.8969 374.11 80.9208 374.452C81.9448 374.793 82.9688 375.476 83.9927 375.817C85.0167 376.5 85.6993 376.841 86.7233 377.524C87.406 378.206 88.0886 378.889 88.4299 379.913C88.7712 380.937 89.1126 381.961 89.1126 382.985C89.1126 385.033 88.4299 386.739 87.0646 388.105C85.6993 389.47 83.9927 390.153 81.6035 390.494V394.248H78.5316V390.494C75.801 390.153 73.7531 389.47 72.3878 387.763C71.0225 386.398 70.3398 384.35 70.3398 381.62H76.4836C76.4836 382.985 76.825 384.009 77.5076 384.691C78.1903 385.374 78.8729 385.715 80.2382 385.715C80.9208 385.715 81.6035 385.374 82.2861 385.033C82.6274 385.374 82.6274 384.691 82.6274 384.009Z" fill="white"/>
<defs>
<linearGradient id="paint0_linear" x1="433.351" y1="262.761" x2="403.795" y2="262.761" gradientUnits="userSpaceOnUse">
<stop stop-color="#4D4D4D"/>
<stop offset="1" stop-color="white"/>
</linearGradient>
<linearGradient id="paint1_linear" x1="469.247" y1="306.814" x2="411.225" y2="306.814" gradientUnits="userSpaceOnUse">
<stop stop-color="#4D4D4D"/>
<stop offset="1" stop-color="white"/>
</linearGradient>
<linearGradient id="paint2_linear" x1="394.515" y1="358.836" x2="429.16" y2="360.601" gradientUnits="userSpaceOnUse">
<stop stop-color="#4D4D4D"/>
<stop offset="1" stop-color="white"/>
</linearGradient>
<linearGradient id="paint3_linear" x1="426.416" y1="270.08" x2="392.018" y2="272.407" gradientUnits="userSpaceOnUse">
<stop stop-color="#4D4D4D"/>
<stop offset="1" stop-color="white"/>
</linearGradient>
<linearGradient id="paint4_linear" x1="426.416" y1="270.08" x2="392.018" y2="272.407" gradientUnits="userSpaceOnUse">
<stop stop-color="#182B4D"/>
<stop offset="1" stop-color="#182B4D"/>
</linearGradient>
</defs>
</svg>
