<svg width="188" height="45" viewBox="0 0 188 45" fill="none" xmlns="http://www.w3.org/2000/svg">
<path d="M53.1643 35.4859H56.6357V36.2573H52.1357V28.9287H53.1V35.4859H53.1643Z" fill="#F4F5F7"/>
<path d="M57.9854 29.3785C57.9854 29.25 58.0496 29.1214 58.1139 28.9928C58.1782 28.8643 58.3711 28.8643 58.4996 28.8643C58.6282 28.8643 58.8211 28.9285 58.8854 28.9928C58.9496 29.0571 59.0139 29.25 59.0139 29.3785C59.0139 29.5071 58.9496 29.6357 58.8854 29.7643C58.8211 29.8928 58.6282 29.8928 58.4996 29.8928C58.3711 29.8928 58.1782 29.8285 58.1139 29.7643C57.9854 29.6357 57.9854 29.5071 57.9854 29.3785ZM59.0139 36.3214H58.0496V30.8571H59.0139V36.3214Z" fill="#F4F5F7"/>
<path d="M62.9997 35.6787C63.3211 35.6787 63.6425 35.5501 63.8997 35.3573C64.1568 35.1644 64.2854 34.9073 64.2854 34.5858H65.1854C65.1854 34.9073 65.0568 35.2287 64.8639 35.4858C64.6711 35.743 64.4139 36.0001 64.0925 36.193C63.7711 36.3858 63.3854 36.4501 63.0639 36.4501C62.2925 36.4501 61.714 36.193 61.264 35.6787C60.814 35.1644 60.6211 34.5215 60.6211 33.6215V33.493C60.6211 32.9787 60.7497 32.4644 60.9425 32.0787C61.1354 31.693 61.3925 31.3715 61.7782 31.1144C62.1639 30.8573 62.5497 30.793 63.0639 30.793C63.7068 30.793 64.2211 30.9858 64.6068 31.3715C64.9925 31.7573 65.2497 32.2073 65.2497 32.7858H64.2854C64.2854 32.4001 64.0925 32.143 63.8997 31.8858C63.6425 31.6287 63.3211 31.5001 62.9997 31.5001C62.5497 31.5001 62.164 31.693 61.9068 32.0144C61.6497 32.3358 61.5211 32.8501 61.5211 33.493V33.6858C61.5211 34.3287 61.6497 34.7787 61.9068 35.1644C62.164 35.4858 62.4854 35.6787 62.9997 35.6787Z" fill="#F4F5F7"/>
<path d="M68.8499 36.3855C68.0785 36.3855 67.4999 36.1283 67.0499 35.6783C66.5999 35.1641 66.3428 34.5212 66.3428 33.7498V33.5569C66.3428 33.0426 66.4713 32.5283 66.6642 32.0783C66.8571 31.6283 67.1785 31.3069 67.5642 31.0498C67.9499 30.7926 68.3356 30.6641 68.7856 30.6641C69.4928 30.6641 70.0713 30.9212 70.4571 31.3712C70.8428 31.8212 71.0356 32.5283 71.0356 33.3641V33.7498H67.3071C67.3071 34.2641 67.4999 34.7141 67.7571 35.0355C68.0142 35.3569 68.4642 35.5498 68.9142 35.5498C69.2356 35.5498 69.5571 35.4855 69.7499 35.3569C70.0071 35.2283 70.1999 35.0355 70.3285 34.8426L70.9071 35.2926C70.4571 36.0641 69.7499 36.3855 68.8499 36.3855ZM68.7213 31.4998C68.3356 31.4998 68.0142 31.6283 67.7571 31.8855C67.4999 32.1426 67.3713 32.5283 67.3071 33.0426H70.0713V32.9783C70.0713 32.5283 69.9428 32.1426 69.6856 31.8855C69.4285 31.6283 69.1071 31.4998 68.7213 31.4998Z" fill="#F4F5F7"/>
<path d="M73.2213 30.8573V31.5644C73.6713 31.0501 74.1856 30.793 74.8927 30.793C76.0499 30.793 76.6284 31.4358 76.6284 32.7858V36.3858H75.6641V32.7858C75.6641 32.4001 75.5999 32.0787 75.407 31.8858C75.2141 31.693 74.957 31.6287 74.5713 31.6287C74.2499 31.6287 73.9927 31.693 73.7999 31.8858C73.5427 32.0787 73.4141 32.2715 73.2856 32.5287V36.4501H72.3213V30.8573H73.2213Z" fill="#F4F5F7"/>
<path d="M81.5782 34.8426C81.5782 34.5855 81.5139 34.3926 81.3211 34.2641C81.1282 34.1355 80.8068 34.0069 80.2925 33.8783C79.8425 33.7498 79.4568 33.6855 79.1354 33.4926C78.8139 33.2998 78.6211 33.1712 78.4925 32.9783C78.3639 32.7855 78.2996 32.5283 78.2996 32.2712C78.2996 31.8212 78.4925 31.4355 78.8782 31.1141C79.2639 30.7926 79.7139 30.6641 80.3568 30.6641C80.9996 30.6641 81.5139 30.7926 81.8996 31.1141C82.2854 31.4355 82.4782 31.8212 82.4782 32.3355H81.5139C81.5139 32.0783 81.3854 31.8855 81.1925 31.6926C80.9996 31.4998 80.6782 31.4355 80.3568 31.4355C80.0354 31.4355 79.7782 31.4998 79.5854 31.6283C79.3925 31.7569 79.3282 31.9498 79.3282 32.2069C79.3282 32.4641 79.3925 32.5926 79.5854 32.7212C79.7782 32.8498 80.0996 32.9141 80.5496 33.0426C80.9996 33.1712 81.3854 33.2998 81.7068 33.4283C82.0282 33.5569 82.2211 33.7498 82.3496 33.9426C82.4782 34.1355 82.5425 34.3926 82.5425 34.7141C82.5425 35.2283 82.3496 35.6141 81.9639 35.8712C81.5782 36.1926 81.0639 36.3212 80.4211 36.3212C79.9711 36.3212 79.5854 36.2569 79.2639 36.0641C78.9425 35.9355 78.6854 35.6783 78.4925 35.4212C78.2996 35.1641 78.2354 34.8426 78.2354 34.5212H79.1996C79.1996 34.8426 79.3282 35.0998 79.5854 35.2926C79.8425 35.4855 80.0996 35.5498 80.4854 35.5498C80.8711 35.5498 81.1282 35.4855 81.3211 35.3569C81.5139 35.2926 81.5782 35.0998 81.5782 34.8426Z" fill="#F4F5F7"/>
<path d="M86.3353 36.3855C85.5638 36.3855 84.9853 36.1283 84.5353 35.6783C84.0853 35.1641 83.8281 34.5212 83.8281 33.7498V33.5569C83.8281 33.0426 83.9567 32.5283 84.1496 32.0783C84.3424 31.6283 84.6638 31.3069 85.0496 31.0498C85.4353 30.7926 85.821 30.6641 86.271 30.6641C86.9781 30.6641 87.5567 30.9212 87.9424 31.3712C88.3281 31.8212 88.521 32.5283 88.521 33.3641V33.7498H84.7924C84.7924 34.2641 84.9853 34.7141 85.2424 35.0355C85.4996 35.3569 85.9496 35.5498 86.3996 35.5498C86.721 35.5498 87.0424 35.4855 87.2353 35.3569C87.4924 35.2283 87.6853 35.0355 87.8138 34.8426L88.3924 35.2926C87.9424 36.0641 87.2353 36.3855 86.3353 36.3855ZM86.2067 31.4998C85.821 31.4998 85.4996 31.6283 85.2424 31.8855C84.9853 32.1426 84.8567 32.5283 84.7924 33.0426H87.5567V32.9783C87.5567 32.5283 87.4281 32.1426 87.171 31.8855C86.9138 31.6283 86.5924 31.4998 86.2067 31.4998Z" fill="#F4F5F7"/>
<path d="M89.6143 33.4928C89.6143 32.6571 89.8071 31.9499 90.1928 31.4357C90.5785 30.9214 91.0928 30.6642 91.7357 30.6642C92.3785 30.6642 92.8928 30.8571 93.2786 31.3071V28.4785H94.2428V36.2571H93.4071L93.3428 35.6785C92.9571 36.1285 92.4428 36.3857 91.8 36.3857C91.1571 36.3857 90.6428 36.1285 90.2571 35.6142C89.8714 35.0999 89.6785 34.3928 89.6785 33.5571V33.4928H89.6143ZM90.5785 33.6214C90.5785 34.2642 90.7071 34.7142 90.9643 35.0999C91.2214 35.4857 91.6071 35.6142 92.0571 35.6142C92.6357 35.6142 93.0857 35.3571 93.3428 34.8428V32.3357C93.0857 31.8214 92.6357 31.5642 92.0571 31.5642C91.6071 31.5642 91.2214 31.7571 90.9643 32.0785C90.7071 32.3999 90.5785 32.9142 90.5785 33.6214Z" fill="#F4F5F7"/>
<path d="M100.35 28.9287L102.793 34.9716L105.236 28.9287H106.521V36.3216H105.428V33.4287L105.493 30.343L103.05 36.3216H102.278L99.8356 30.343L99.8998 33.4287V36.3216H98.9355V28.9287H100.35Z" fill="#F4F5F7"/>
<path d="M108.064 33.4928C108.064 32.9785 108.193 32.4642 108.386 32.0142C108.579 31.5642 108.9 31.2428 109.286 31.0499C109.672 30.7928 110.122 30.7285 110.572 30.7285C111.343 30.7285 111.922 30.9857 112.372 31.4999C112.822 32.0142 113.079 32.7214 113.079 33.5571V33.6214C113.079 34.1357 112.95 34.6499 112.757 35.0357C112.564 35.4857 112.243 35.8071 111.857 35.9999C111.472 36.2571 111.022 36.3857 110.572 36.3857C109.8 36.3857 109.222 36.1285 108.772 35.6142C108.322 35.0999 108.064 34.3928 108.064 33.5571V33.4928ZM108.964 33.6214C108.964 34.1999 109.093 34.7142 109.414 35.0999C109.672 35.4857 110.057 35.6785 110.572 35.6785C111.022 35.6785 111.407 35.4857 111.729 35.0999C112.05 34.7142 112.179 34.1999 112.179 33.5571C112.179 32.9785 112.05 32.4642 111.729 32.0785C111.407 31.6928 111.086 31.4999 110.572 31.4999C110.122 31.4999 109.736 31.6928 109.479 32.0785C109.157 32.3999 108.964 32.9142 108.964 33.6214Z" fill="#F4F5F7"/>
<path d="M115.393 30.8573V31.5644C115.843 31.0501 116.357 30.793 117.065 30.793C118.222 30.793 118.8 31.4358 118.8 32.7858V36.3858H117.836V32.7858C117.836 32.4001 117.772 32.0787 117.579 31.8858C117.386 31.693 117.129 31.6287 116.743 31.6287C116.422 31.6287 116.165 31.693 115.972 31.8858C115.715 32.0787 115.586 32.2715 115.457 32.5287V36.4501H114.493V30.8573H115.393Z" fill="#F4F5F7"/>
<path d="M122.85 36.3855C122.078 36.3855 121.5 36.1283 121.05 35.6783C120.6 35.1641 120.343 34.5212 120.343 33.7498V33.5569C120.343 33.0426 120.471 32.5283 120.664 32.0783C120.857 31.6283 121.178 31.3069 121.564 31.0498C121.95 30.7926 122.336 30.6641 122.786 30.6641C123.493 30.6641 124.071 30.9212 124.457 31.3712C124.843 31.8212 125.036 32.5283 125.036 33.3641V33.7498H121.307C121.307 34.2641 121.5 34.7141 121.757 35.0355C122.014 35.3569 122.464 35.5498 122.914 35.5498C123.236 35.5498 123.557 35.4855 123.75 35.3569C124.007 35.2283 124.2 35.0355 124.328 34.8426L124.907 35.2926C124.457 36.0641 123.75 36.3855 122.85 36.3855ZM122.721 31.4998C122.336 31.4998 122.014 31.6283 121.757 31.8855C121.5 32.1426 121.371 32.5283 121.307 33.0426H124.071V32.9783C124.071 32.5283 123.943 32.1426 123.686 31.8855C123.428 31.6283 123.107 31.4998 122.721 31.4998Z" fill="#F4F5F7"/>
<path d="M128.186 34.9073L129.471 30.793H130.5L128.314 37.1573C127.993 38.0573 127.414 38.5073 126.707 38.5073H126.514L126.193 38.443V37.6715H126.45C126.771 37.6715 127.028 37.6073 127.221 37.4787C127.414 37.3501 127.543 37.093 127.671 36.7715L127.864 36.193L125.936 30.793H126.964L128.186 34.9073Z" fill="#F4F5F7"/>
<path d="M132.622 36.3215H131.657V28.543H132.622V36.3215Z" fill="#F4F5F7"/>
<path d="M136.736 36.3855C135.964 36.3855 135.386 36.1283 134.936 35.6783C134.486 35.1641 134.229 34.5212 134.229 33.7498V33.5569C134.229 33.0426 134.357 32.5283 134.55 32.0783C134.743 31.6283 135.064 31.3069 135.45 31.0498C135.836 30.7926 136.221 30.6641 136.671 30.6641C137.379 30.6641 137.957 30.9212 138.343 31.3712C138.729 31.8212 138.921 32.5283 138.921 33.3641V33.7498H135.193C135.193 34.2641 135.386 34.7141 135.643 35.0355C135.9 35.3569 136.35 35.5498 136.8 35.5498C137.121 35.5498 137.443 35.4855 137.636 35.3569C137.893 35.2283 138.086 35.0355 138.214 34.8426L138.793 35.2926C138.343 36.0641 137.636 36.3855 136.736 36.3855ZM136.607 31.4998C136.221 31.4998 135.9 31.6283 135.643 31.8855C135.386 32.1426 135.257 32.5283 135.193 33.0426H137.957V32.9783C137.957 32.5283 137.829 32.1426 137.571 31.8855C137.314 31.6283 136.993 31.4998 136.607 31.4998Z" fill="#F4F5F7"/>
<path d="M141.171 30.8573V31.5644C141.621 31.0501 142.136 30.793 142.843 30.793C144 30.793 144.579 31.4358 144.579 32.7858V36.3858H143.614V32.7858C143.614 32.4001 143.55 32.0787 143.357 31.8858C143.164 31.693 142.907 31.6287 142.521 31.6287C142.2 31.6287 141.943 31.693 141.75 31.8858C141.493 32.0787 141.364 32.2715 141.236 32.5287V36.4501H140.271V30.8573H141.171Z" fill="#F4F5F7"/>
<path d="M146.057 33.4928C146.057 32.6571 146.25 31.9499 146.635 31.4357C147.021 30.9214 147.535 30.6642 148.178 30.6642C148.821 30.6642 149.335 30.8571 149.721 31.3071V28.4785H150.685V36.2571H149.85L149.785 35.6785C149.399 36.1285 148.885 36.3857 148.242 36.3857C147.6 36.3857 147.085 36.1285 146.699 35.6142C146.314 35.0999 146.121 34.3928 146.121 33.5571V33.4928H146.057ZM147.021 33.6214C147.021 34.2642 147.15 34.7142 147.407 35.0999C147.664 35.4857 148.049 35.6142 148.499 35.6142C149.078 35.6142 149.528 35.3571 149.785 34.8428V32.3357C149.528 31.8214 149.078 31.5642 148.499 31.5642C148.049 31.5642 147.664 31.7571 147.407 32.0785C147.15 32.3999 147.021 32.9142 147.021 33.6214Z" fill="#F4F5F7"/>
<path d="M154.736 36.3855C153.964 36.3855 153.386 36.1283 152.936 35.6783C152.486 35.1641 152.229 34.5212 152.229 33.7498V33.5569C152.229 33.0426 152.357 32.5283 152.55 32.0783C152.743 31.6283 153.064 31.3069 153.45 31.0498C153.836 30.7926 154.221 30.6641 154.671 30.6641C155.379 30.6641 155.957 30.9212 156.343 31.3712C156.729 31.8212 156.921 32.5283 156.921 33.3641V33.7498H153.193C153.193 34.2641 153.386 34.7141 153.643 35.0355C153.9 35.3569 154.35 35.5498 154.8 35.5498C155.121 35.5498 155.443 35.4855 155.636 35.3569C155.893 35.2283 156.086 35.0355 156.214 34.8426L156.793 35.2926C156.343 36.0641 155.636 36.3855 154.736 36.3855ZM154.607 31.4998C154.221 31.4998 153.9 31.6283 153.643 31.8855C153.386 32.1426 153.257 32.5283 153.193 33.0426H155.957V32.9783C155.957 32.5283 155.829 32.1426 155.571 31.8855C155.314 31.6283 154.993 31.4998 154.607 31.4998Z" fill="#F4F5F7"/>
<path d="M160.907 31.693C160.779 31.693 160.586 31.6287 160.457 31.6287C159.814 31.6287 159.429 31.8858 159.236 32.4001V36.3215H158.271V30.8573H159.171V31.5001C159.493 30.9858 159.943 30.793 160.457 30.793C160.65 30.793 160.779 30.793 160.843 30.8573V31.693H160.907Z" fill="#F4F5F7"/>
<path d="M39.5357 45H5.46429C2.44286 45 0 42.5571 0 39.5357V5.46429C0 2.44286 2.44286 0 5.46429 0H39.5357C42.5571 0 45 2.44286 45 5.46429V39.5357C45 42.5571 42.5571 45 39.5357 45Z" fill="#F4F5F7"/>
<path d="M37.7358 20.3142C37.0929 19.5427 36.3215 18.8999 35.5501 18.1927C36.5144 16.007 37.4787 13.8213 38.4429 11.5713C36.9001 11.5713 35.4215 11.5713 33.9429 11.5713C34.3929 10.5427 35.4858 7.84275 35.6144 7.45703C35.5501 7.45703 19.1572 7.45703 19.1572 7.45703C21.4072 7.45703 23.0144 7.45703 23.0144 7.45703C22.9501 7.71417 22.5644 8.67846 22.1144 9.70703C25.5215 9.70703 28.9287 9.70703 32.4001 9.70703C32.1429 10.2856 31.5001 11.5713 31.5001 11.5713H25.8429C25.5215 12.3427 25.2001 13.0499 24.8787 13.8213C25.0072 13.8213 25.1358 13.8213 25.2644 13.8213C26.8072 13.8213 28.3501 13.8213 29.8929 13.8213C30.0858 13.8213 30.3429 13.8213 30.6001 13.8213C29.2501 16.8427 28.0287 19.7356 26.6787 22.8213C26.8072 23.0785 26.8715 23.2713 27.0001 23.5285C27.5787 23.3356 28.1572 23.207 28.6715 23.0785C31.3072 22.3713 33.8787 24.3642 33.9429 26.9999C34.0072 29.3142 32.2072 31.2427 29.8929 31.307C28.8644 31.307 27.9001 30.9856 27.1287 30.407C26.8715 31.1142 26.6144 31.757 26.2287 32.3999C27.5144 33.3642 29.0572 33.6856 30.9215 33.3642C33.8787 32.8499 36.0644 30.2142 36.1287 27.1927C36.1287 23.7856 34.0072 21.407 30.0858 20.6356C31.0501 18.4499 33.3001 13.8213 33.3001 13.8213C33.3001 13.8213 34.5215 13.8213 35.2287 13.8213C34.4572 15.6856 33.6858 17.4213 32.8501 19.2213C35.3572 20.3785 37.0929 22.2427 37.8644 24.8785C38.3787 26.807 38.2501 28.6713 37.4144 30.4713C35.9358 33.9427 32.1429 35.9999 28.4144 35.357C27.1929 35.1642 26.1001 34.6499 25.1358 34.007C24.6215 34.6499 23.9787 35.2285 23.4001 35.6785C24.6858 36.6427 26.1644 37.2856 27.6429 37.4785C27.8358 37.5427 34.3929 38.8927 38.2501 33.3642C41.0787 29.507 40.8858 23.9785 37.7358 20.3142Z" fill="#172B4D"/>
<path d="M26.936 23.4642C26.8717 23.207 26.7432 22.9499 26.6146 22.757C26.2289 21.857 25.7146 21.0213 25.0717 20.3142C24.4289 19.5427 23.6574 18.8999 22.886 18.1927C23.5289 16.7785 24.1717 15.2999 24.8146 13.8213C25.136 13.1142 25.4574 12.3427 25.7789 11.5713C24.236 11.5713 22.8217 11.5713 21.2789 11.5713C21.4717 11.1213 21.7932 10.4142 22.0503 9.70703C22.436 8.67846 22.8217 7.71417 22.9503 7.45703C22.9503 7.45703 21.3432 7.45703 19.0932 7.45703C14.2074 7.45703 6.49316 7.45703 6.49316 7.45703C6.49316 7.45703 6.49316 13.8213 6.49316 13.8856C8.55031 13.8856 10.5432 13.8856 12.6003 13.8213C14.1432 13.8213 15.686 13.8213 17.2289 13.8213C17.4217 13.8213 17.6789 13.8213 17.936 13.8213C16.4574 17.1642 15.0432 20.3785 13.6289 23.7213C14.5289 23.4642 15.236 23.2713 16.0074 23.0785C18.3217 22.4999 20.5717 23.9142 21.1503 26.0999C21.2146 26.4213 21.2789 26.7427 21.2789 27.0642C21.3432 28.4142 20.7003 29.6356 19.736 30.407C19.0289 30.9856 18.1289 31.3713 17.1646 31.3713C14.786 31.3713 12.9217 29.5713 12.8574 27.1285C12.8574 26.807 12.8574 26.4213 12.8574 25.9713C10.736 25.9713 8.61459 25.9713 6.55745 25.9713C6.55745 33.1713 10.736 36.8356 14.9146 37.4142C15.1074 37.4785 19.5432 38.3785 23.2717 35.6142C23.8503 35.1642 24.4932 34.6499 25.0075 33.9427C25.2003 33.7499 25.3289 33.4927 25.5217 33.2999C25.7789 32.9785 25.9717 32.657 26.1646 32.3356C26.5503 31.6927 26.8717 30.9856 27.0646 30.3427C27.7717 28.157 27.7717 25.7142 26.936 23.4642ZM8.74316 11.5713C8.74316 10.9285 8.74316 10.2856 8.74316 9.64275C12.2146 9.64275 15.6217 9.64275 19.1574 9.64275C19.3503 9.64275 19.6074 9.64275 19.8003 9.64275C19.6074 10.0285 19.3503 10.607 19.1574 10.9927C19.0289 11.3142 18.9003 11.5713 18.9003 11.5713H8.74316ZM21.6646 34.0713C19.9289 35.2285 17.8074 35.7427 15.686 35.357C12.086 34.7142 9.12888 31.6285 8.87174 28.2213C9.51459 28.2213 10.1574 28.2213 10.736 28.2213C12.2146 32.2713 14.7217 34.007 18.2574 33.3642C19.0932 33.2356 19.9289 32.9142 20.636 32.3999C21.2789 31.9499 21.7932 31.4356 22.2432 30.7927C22.8217 30.0213 23.2074 29.1213 23.336 28.157C23.4003 27.8356 23.4003 27.4499 23.4646 27.1285C23.4646 26.7427 23.4646 26.357 23.4003 25.9713C22.9503 23.207 20.8932 21.2785 17.4217 20.5713C18.386 18.4499 20.5074 14.0785 20.636 13.757C20.636 13.757 21.8574 13.757 22.5646 13.757C21.7932 15.6213 21.0217 17.357 20.186 19.157C22.6932 20.3142 24.4289 22.1785 25.2003 24.8142C25.3289 25.1999 25.3932 25.5856 25.4574 25.9713C25.6503 27.5142 25.4574 28.9927 24.8146 30.4713C24.7503 30.5356 24.7503 30.5999 24.686 30.7285C24.3646 31.4356 23.9789 32.0142 23.4646 32.5927C22.886 33.1713 22.3074 33.6856 21.6646 34.0713Z" fill="#172B4D"/>
<path d="M64.4782 17.8072C64.3497 19.4786 63.7068 20.8286 62.6139 21.7929C61.4568 22.7572 59.9782 23.2715 58.1139 23.2715C56.1211 23.2715 54.5139 22.5643 53.3568 21.2143C52.1997 19.8643 51.6211 18 51.6211 15.6215V14.6572C51.6211 13.1143 51.8782 11.8286 52.3925 10.6715C52.9068 9.51431 53.6782 8.61431 54.7068 8.03574C55.7354 7.45717 56.8282 7.13574 58.1782 7.13574C59.9782 7.13574 61.4568 7.65003 62.6139 8.61431C63.7068 9.5786 64.3497 10.9929 64.5425 12.7286H61.264C61.1997 11.7 60.8782 10.9929 60.4282 10.4786C59.9139 10.0286 59.2068 9.77146 58.1782 9.77146C57.0854 9.77146 56.3139 10.1572 55.7354 10.9286C55.1568 11.7 54.8997 12.9215 54.8997 14.5286V15.75C54.8997 17.4857 55.1568 18.7072 55.6711 19.4786C56.1854 20.25 57.0211 20.6357 58.1139 20.6357C59.1425 20.6357 59.8497 20.3786 60.3639 19.9286C60.8782 19.4786 61.1354 18.7715 61.1997 17.8072H64.4782Z" fill="#F4F5F7"/>
<path d="M73.0287 14.2711C72.5787 14.2068 72.2572 14.2068 71.8715 14.2068C70.7144 14.2068 69.8787 14.5925 69.5572 15.4282V23.0782H66.4072V11.314H69.3644L69.4287 12.7282C70.0715 11.6354 70.9072 11.1211 72.0644 11.1211C72.3858 11.1211 72.7072 11.1854 73.0287 11.2497V14.2711Z" fill="#F4F5F7"/>
<path d="M79.9068 23.2709C78.1711 23.2709 76.7568 22.7566 75.7282 21.6638C74.6997 20.5709 74.1211 19.2209 74.1211 17.4209V17.0995C74.1211 15.9424 74.3782 14.8495 74.8282 13.9495C75.2782 13.0495 75.9211 12.2781 76.7568 11.8281C77.5925 11.3138 78.5568 11.0566 79.5854 11.0566C81.1925 11.0566 82.4782 11.5709 83.3782 12.5995C84.2782 13.6281 84.7925 15.0424 84.7925 16.9066V18.1924H77.3354C77.464 18.9638 77.7211 19.5424 78.2354 20.0566C78.7497 20.5709 79.3925 20.7638 80.1639 20.7638C81.3854 20.7638 82.2854 20.3138 82.9925 19.4781L84.5354 21.2138C84.0854 21.8566 83.4425 22.3709 82.6068 22.7566C81.7711 23.0781 80.8711 23.2709 79.9068 23.2709ZM79.5854 13.6281C78.9425 13.6281 78.4282 13.8209 78.0425 14.2709C77.6568 14.7209 77.3997 15.2995 77.2711 16.0709H81.6425V15.8138C81.6425 15.1066 81.4497 14.5924 81.0639 14.2066C80.7425 13.8209 80.2282 13.6281 79.5854 13.6281Z" fill="#F4F5F7"/>
<path d="M86.0137 17.1C86.0137 15.3 86.3994 13.8214 87.2351 12.7285C88.0708 11.6357 89.1637 11.1214 90.578 11.1214C91.7351 11.1214 92.6351 11.5714 93.4065 12.4071V6.36426H96.5565V23.0143H93.728L93.5994 21.7928C92.828 22.7571 91.7994 23.2714 90.578 23.2714C89.228 23.2714 88.0708 22.7571 87.2351 21.6643C86.4637 20.5714 86.0137 19.0285 86.0137 17.1ZM89.1637 17.3571C89.1637 18.45 89.3565 19.2857 89.7422 19.8643C90.128 20.4428 90.7065 20.7643 91.4137 20.7643C92.378 20.7643 93.0851 20.3785 93.4708 19.5428V14.9143C93.0851 14.0785 92.378 13.6928 91.4137 13.6928C89.9351 13.6285 89.1637 14.85 89.1637 17.3571Z" fill="#F4F5F7"/>
<path d="M99 8.29269C99 7.84269 99.1286 7.45698 99.45 7.13555C99.7714 6.81412 100.221 6.68555 100.736 6.68555C101.25 6.68555 101.7 6.81412 102.021 7.13555C102.343 7.45698 102.471 7.84269 102.471 8.29269C102.471 8.74269 102.279 9.19269 101.957 9.44983C101.636 9.77126 101.186 9.89983 100.671 9.89983C100.157 9.89983 99.7071 9.77126 99.3857 9.44983C99.1929 9.1284 99 8.74269 99 8.29269ZM102.343 23.0784H99.1929V11.3141H102.343V23.0784Z" fill="#F4F5F7"/>
<path d="M108.707 8.4209V11.3138H110.7V13.628H108.707V19.478C108.707 19.928 108.771 20.2495 108.964 20.4423C109.157 20.6352 109.478 20.6995 109.928 20.6995C110.25 20.6995 110.571 20.6995 110.828 20.6352V23.0138C110.186 23.2066 109.607 23.2709 108.9 23.2709C106.714 23.2709 105.557 22.178 105.557 19.928V13.628H103.821V11.3138H105.557V8.4209H108.707Z" fill="#F4F5F7"/>
<path d="M129.407 9.89939H124.586V23.078H121.307V9.89939H116.55V7.26367H129.407V9.89939Z" fill="#F4F5F7"/>
<path d="M134.099 12.6C134.935 11.5714 135.964 11.1214 137.249 11.1214C139.821 11.1214 141.106 12.6 141.106 15.5571V23.0785H137.956V15.6214C137.956 14.9785 137.828 14.4643 137.506 14.1428C137.185 13.8214 136.735 13.6285 136.092 13.6285C135.192 13.6285 134.485 14.0143 134.099 14.7214V23.0785H130.949V6.36426H134.099V12.6Z" fill="#F4F5F7"/>
<path d="M143.485 8.29269C143.485 7.84269 143.614 7.45698 143.935 7.13555C144.257 6.81412 144.707 6.68555 145.221 6.68555C145.735 6.68555 146.185 6.81412 146.507 7.13555C146.828 7.45698 146.957 7.84269 146.957 8.29269C146.957 8.74269 146.764 9.19269 146.442 9.44983C146.121 9.77126 145.671 9.89983 145.157 9.89983C144.642 9.89983 144.192 9.77126 143.871 9.44983C143.614 9.1284 143.485 8.74269 143.485 8.29269ZM146.828 23.0784H143.678V11.3141H146.828V23.0784Z" fill="#F4F5F7"/>
<path d="M155.957 14.2711C155.507 14.2068 155.186 14.2068 154.8 14.2068C153.643 14.2068 152.807 14.5925 152.486 15.4282V23.0782H149.336V11.314H152.293L152.357 12.7282C153 11.6354 153.836 11.1211 154.993 11.1211C155.315 11.1211 155.636 11.1854 155.957 11.2497V14.2711Z" fill="#F4F5F7"/>
<path d="M161.807 8.4209V11.3138H163.799V13.628H161.807V19.478C161.807 19.928 161.871 20.2495 162.064 20.4423C162.257 20.6352 162.578 20.6995 163.028 20.6995C163.349 20.6995 163.671 20.6995 163.928 20.6352V23.0138C163.285 23.2066 162.707 23.2709 161.999 23.2709C159.814 23.2709 158.657 22.178 158.657 19.928V13.628H156.921V11.3138H158.657V8.4209H161.807Z" fill="#F4F5F7"/>
<path d="M169.906 18.643L172.092 11.3145H175.435L170.742 24.8787L170.485 25.5216C169.778 27.0645 168.621 27.8359 167.014 27.8359C166.564 27.8359 166.114 27.7716 165.599 27.643V25.2645H166.049C166.628 25.2645 167.078 25.2002 167.399 25.0073C167.721 24.8145 167.914 24.5573 168.107 24.1073L168.492 23.143L164.378 11.3787H167.721L169.906 18.643Z" fill="#F4F5F7"/>
<path d="M179.743 13.7568H181.414C182.186 13.7568 182.829 13.564 183.214 13.1783C183.6 12.7926 183.793 12.2783 183.793 11.5711C183.793 10.9283 183.6 10.414 183.214 10.0926C182.829 9.70684 182.314 9.57826 181.671 9.57826C181.093 9.57826 180.579 9.77112 180.193 10.0926C179.807 10.414 179.614 10.864 179.614 11.3783H176.464C176.464 10.5426 176.657 9.83541 177.107 9.12826C177.557 8.48541 178.2 7.97112 178.971 7.58541C179.743 7.19969 180.643 7.00684 181.607 7.00684C183.279 7.00684 184.564 7.39255 185.529 8.22826C186.493 8.99969 186.943 10.1568 186.943 11.5068C186.943 12.214 186.75 12.9211 186.3 13.4997C185.85 14.0783 185.271 14.5926 184.564 14.914C185.464 15.2354 186.107 15.6854 186.557 16.3283C187.007 16.9711 187.2 17.7425 187.2 18.5783C187.2 19.9925 186.686 21.0854 185.657 21.9211C184.629 22.7568 183.279 23.2068 181.607 23.2068C180 23.2068 178.714 22.8211 177.75 21.9854C176.721 21.1497 176.271 20.0568 176.271 18.7068H179.421C179.421 19.2854 179.614 19.7997 180.064 20.1854C180.514 20.5711 181.029 20.764 181.736 20.764C182.507 20.764 183.086 20.5711 183.471 20.1854C183.921 19.7997 184.114 19.2854 184.114 18.6426C184.114 17.0354 183.279 16.264 181.543 16.264H179.871V13.7568H179.743Z" fill="#F4F5F7"/>
</svg>
