<svg width="141" height="34" viewBox="0 0 141 34" fill="none" xmlns="http://www.w3.org/2000/svg">
<path d="M39.873 26.6141H42.4766V27.1927H39.1016V21.6963H39.8248V26.6141H39.873Z" fill="white"/>
<path d="M43.4893 22.0342C43.4893 21.9377 43.5375 21.8413 43.5857 21.7449C43.6339 21.6484 43.7785 21.6484 43.875 21.6484C43.9714 21.6484 44.116 21.6967 44.1643 21.7449C44.2125 21.7931 44.2607 21.9377 44.2607 22.0342C44.2607 22.1306 44.2125 22.227 44.1643 22.3234C44.116 22.4199 43.9714 22.4199 43.875 22.4199C43.7785 22.4199 43.6339 22.3717 43.5857 22.3234C43.4893 22.227 43.4893 22.1306 43.4893 22.0342ZM44.2607 27.2413H43.5375V23.1431H44.2607V27.2413Z" fill="white"/>
<path d="M47.2497 26.759C47.4908 26.759 47.7319 26.6626 47.9247 26.5179C48.1176 26.3733 48.214 26.1804 48.214 25.9394H48.889C48.889 26.1804 48.7926 26.4215 48.648 26.6144C48.5033 26.8072 48.3105 27.0001 48.0694 27.1447C47.8283 27.2894 47.539 27.3376 47.298 27.3376C46.7194 27.3376 46.2855 27.1447 45.948 26.759C45.6105 26.3733 45.4658 25.8912 45.4658 25.2162V25.1197C45.4658 24.734 45.5622 24.3483 45.7069 24.059C45.8515 23.7697 46.0444 23.5287 46.3337 23.3358C46.623 23.1429 46.9122 23.0947 47.298 23.0947C47.7801 23.0947 48.1658 23.2394 48.4551 23.5287C48.7444 23.8179 48.9372 24.1554 48.9372 24.5894H48.214C48.214 24.3001 48.0694 24.1072 47.9247 23.9144C47.7319 23.7215 47.4908 23.6251 47.2497 23.6251C46.9122 23.6251 46.623 23.7697 46.4301 24.0108C46.2372 24.2519 46.1408 24.6376 46.1408 25.1197V25.2644C46.1408 25.7465 46.2372 26.084 46.4301 26.3733C46.623 26.6144 46.864 26.759 47.2497 26.759Z" fill="white"/>
<path d="M51.6372 27.2896C51.0586 27.2896 50.6247 27.0967 50.2872 26.7592C49.9497 26.3735 49.7568 25.8914 49.7568 25.3128V25.1682C49.7568 24.7825 49.8533 24.3967 49.9979 24.0592C50.1426 23.7217 50.3836 23.4807 50.6729 23.2878C50.9622 23.095 51.2515 22.9985 51.589 22.9985C52.1193 22.9985 52.5533 23.1914 52.8426 23.5289C53.1318 23.8664 53.2765 24.3967 53.2765 25.0235V25.3128H50.4801C50.4801 25.6985 50.6247 26.036 50.8176 26.2771C51.0104 26.5182 51.3479 26.6628 51.6854 26.6628C51.9265 26.6628 52.1676 26.6146 52.3122 26.5182C52.5051 26.4217 52.6497 26.2771 52.7461 26.1325L53.1801 26.47C52.8426 27.0485 52.3122 27.2896 51.6372 27.2896ZM51.5408 23.6253C51.2515 23.6253 51.0104 23.7217 50.8176 23.9146C50.6247 24.1075 50.5283 24.3967 50.4801 24.7825H52.5533V24.7342C52.5533 24.3967 52.4568 24.1075 52.264 23.9146C52.0711 23.7217 51.8301 23.6253 51.5408 23.6253Z" fill="white"/>
<path d="M54.9152 23.1429V23.6733C55.2527 23.2876 55.6384 23.0947 56.1688 23.0947C57.0367 23.0947 57.4706 23.5769 57.4706 24.5894V27.2894H56.7474V24.5894C56.7474 24.3001 56.6992 24.059 56.5545 23.9144C56.4099 23.7697 56.217 23.7215 55.9277 23.7215C55.6867 23.7215 55.4938 23.7697 55.3492 23.9144C55.1563 24.059 55.0599 24.2037 54.9634 24.3965V27.3376H54.2402V23.1429H54.9152Z" fill="white"/>
<path d="M61.1839 26.1325C61.1839 25.9396 61.1357 25.795 60.991 25.6985C60.8464 25.6021 60.6053 25.5057 60.2196 25.4092C59.8821 25.3128 59.5928 25.2646 59.3518 25.12C59.1107 24.9753 58.966 24.8789 58.8696 24.7342C58.7732 24.5896 58.725 24.3967 58.725 24.2039C58.725 23.8664 58.8696 23.5771 59.1589 23.336C59.4482 23.095 59.7857 22.9985 60.2678 22.9985C60.75 22.9985 61.1357 23.095 61.425 23.336C61.7143 23.5771 61.8589 23.8664 61.8589 24.2521H61.1357C61.1357 24.0592 61.0393 23.9146 60.8946 23.77C60.75 23.6253 60.5089 23.5771 60.2678 23.5771C60.0268 23.5771 59.8339 23.6253 59.6893 23.7217C59.5446 23.8182 59.4964 23.9628 59.4964 24.1557C59.4964 24.3485 59.5446 24.445 59.6893 24.5414C59.8339 24.6378 60.075 24.686 60.4125 24.7825C60.75 24.8789 61.0393 24.9753 61.2803 25.0717C61.5214 25.1682 61.666 25.3128 61.7625 25.4575C61.8589 25.6021 61.9071 25.795 61.9071 26.036C61.9071 26.4217 61.7625 26.711 61.4732 26.9039C61.1839 27.145 60.7982 27.2414 60.316 27.2414C59.9785 27.2414 59.6893 27.1932 59.4482 27.0485C59.2071 26.9521 59.0143 26.7592 58.8696 26.5664C58.725 26.3735 58.6768 26.1325 58.6768 25.8914H59.4C59.4 26.1325 59.4964 26.3253 59.6893 26.47C59.8821 26.6146 60.075 26.6628 60.3643 26.6628C60.6535 26.6628 60.8464 26.6146 60.991 26.5182C61.1357 26.47 61.1839 26.3253 61.1839 26.1325Z" fill="white"/>
<path d="M64.7515 27.2896C64.1729 27.2896 63.739 27.0967 63.4015 26.7592C63.064 26.3735 62.8711 25.8914 62.8711 25.3128V25.1682C62.8711 24.7825 62.9675 24.3967 63.1122 24.0592C63.2568 23.7217 63.4979 23.4807 63.7872 23.2878C64.0765 23.095 64.3657 22.9985 64.7032 22.9985C65.2336 22.9985 65.6675 23.1914 65.9568 23.5289C66.2461 23.8664 66.3907 24.3967 66.3907 25.0235V25.3128H63.5943C63.5943 25.6985 63.739 26.036 63.9318 26.2771C64.1247 26.5182 64.4622 26.6628 64.7997 26.6628C65.0407 26.6628 65.2818 26.6146 65.4265 26.5182C65.6193 26.4217 65.764 26.2771 65.8604 26.1325L66.2943 26.47C65.9568 27.0485 65.4265 27.2896 64.7515 27.2896ZM64.655 23.6253C64.3657 23.6253 64.1247 23.7217 63.9318 23.9146C63.739 24.1075 63.6425 24.3967 63.5943 24.7825H65.6675V24.7342C65.6675 24.3967 65.5711 24.1075 65.3782 23.9146C65.1854 23.7217 64.9443 23.6253 64.655 23.6253Z" fill="white"/>
<path d="M67.21 25.1196C67.21 24.4928 67.3546 23.9625 67.6439 23.5767C67.9332 23.191 68.3189 22.9982 68.801 22.9982C69.2832 22.9982 69.6689 23.1428 69.9582 23.4803V21.3589H70.6814V27.1928H70.0546L70.0064 26.7589C69.7171 27.0964 69.3314 27.2892 68.8493 27.2892C68.3671 27.2892 67.9814 27.0964 67.6921 26.7107C67.4028 26.325 67.2582 25.7946 67.2582 25.1678V25.1196H67.21ZM67.9332 25.216C67.9332 25.6982 68.0296 26.0357 68.2225 26.325C68.4153 26.6142 68.7046 26.7107 69.0421 26.7107C69.476 26.7107 69.8135 26.5178 70.0064 26.1321V24.2517C69.8135 23.866 69.476 23.6732 69.0421 23.6732C68.7046 23.6732 68.4153 23.8178 68.2225 24.0589C68.0296 24.3 67.9332 24.6857 67.9332 25.216Z" fill="white"/>
<path d="M75.2619 21.6963L77.094 26.2284L78.9262 21.6963H79.8905V27.2409H79.0708V25.0713L79.119 22.757L77.2869 27.2409H76.7083L74.8762 22.757L74.9244 25.0713V27.2409H74.2012V21.6963H75.2619Z" fill="white"/>
<path d="M81.0479 25.1196C81.0479 24.7339 81.1443 24.3482 81.2889 24.0107C81.4336 23.6732 81.6746 23.4321 81.9639 23.2875C82.2532 23.0946 82.5907 23.0464 82.9282 23.0464C83.5068 23.0464 83.9407 23.2392 84.2782 23.625C84.6157 24.0107 84.8086 24.541 84.8086 25.1678V25.216C84.8086 25.6017 84.7121 25.9875 84.5675 26.2767C84.4228 26.6142 84.1818 26.8553 83.8925 27C83.6032 27.1928 83.2657 27.2892 82.9282 27.2892C82.3496 27.2892 81.9157 27.0964 81.5782 26.7107C81.2407 26.325 81.0479 25.7946 81.0479 25.1678V25.1196ZM81.7228 25.216C81.7228 25.65 81.8193 26.0357 82.0603 26.325C82.2532 26.6142 82.5425 26.7589 82.9282 26.7589C83.2657 26.7589 83.555 26.6142 83.7961 26.325C84.0371 26.0357 84.1336 25.65 84.1336 25.1678C84.1336 24.7339 84.0371 24.3482 83.7961 24.0589C83.555 23.7696 83.3139 23.625 82.9282 23.625C82.5907 23.625 82.3014 23.7696 82.1086 24.0589C81.8675 24.3 81.7228 24.6857 81.7228 25.216Z" fill="white"/>
<path d="M86.5441 23.1429V23.6733C86.8816 23.2876 87.2674 23.0947 87.7977 23.0947C88.6656 23.0947 89.0995 23.5769 89.0995 24.5894V27.2894H88.3763V24.5894C88.3763 24.3001 88.3281 24.059 88.1834 23.9144C88.0388 23.7697 87.8459 23.7215 87.5566 23.7215C87.3156 23.7215 87.1227 23.7697 86.9781 23.9144C86.7852 24.059 86.6888 24.2037 86.5924 24.3965V27.3376H85.8691V23.1429H86.5441Z" fill="white"/>
<path d="M92.1372 27.2896C91.5586 27.2896 91.1247 27.0967 90.7872 26.7592C90.4497 26.3735 90.2568 25.8914 90.2568 25.3128V25.1682C90.2568 24.7825 90.3533 24.3967 90.4979 24.0592C90.6426 23.7217 90.8836 23.4807 91.1729 23.2878C91.4622 23.095 91.7515 22.9985 92.089 22.9985C92.6193 22.9985 93.0533 23.1914 93.3426 23.5289C93.6318 23.8664 93.7765 24.3967 93.7765 25.0235V25.3128H90.9801C90.9801 25.6985 91.1247 26.036 91.3175 26.2771C91.5104 26.5182 91.8479 26.6628 92.1854 26.6628C92.4265 26.6628 92.6676 26.6146 92.8122 26.5182C93.0051 26.4217 93.1497 26.2771 93.2461 26.1325L93.6801 26.47C93.3426 27.0485 92.8122 27.2896 92.1372 27.2896ZM92.0408 23.6253C91.7515 23.6253 91.5104 23.7217 91.3175 23.9146C91.1247 24.1075 91.0283 24.3967 90.9801 24.7825H93.0533V24.7342C93.0533 24.3967 92.9568 24.1075 92.764 23.9146C92.5711 23.7217 92.33 23.6253 92.0408 23.6253Z" fill="white"/>
<path d="M96.1387 26.1804L97.103 23.0947H97.8744L96.2351 27.8679C95.994 28.5429 95.5601 28.8804 95.0297 28.8804H94.8851L94.644 28.8322V28.2537H94.8369C95.078 28.2537 95.2708 28.2054 95.4155 28.109C95.5601 28.0126 95.6565 27.8197 95.753 27.5787L95.8976 27.1447L94.4512 23.0947H95.2226L96.1387 26.1804Z" fill="white"/>
<path d="M99.4654 27.2412H98.7422V21.4072H99.4654V27.2412Z" fill="white"/>
<path d="M102.551 27.2896C101.973 27.2896 101.539 27.0967 101.201 26.7592C100.864 26.3735 100.671 25.8914 100.671 25.3128V25.1682C100.671 24.7825 100.767 24.3967 100.912 24.0592C101.057 23.7217 101.298 23.4807 101.587 23.2878C101.876 23.095 102.166 22.9985 102.503 22.9985C103.033 22.9985 103.467 23.1914 103.757 23.5289C104.046 23.8664 104.191 24.3967 104.191 25.0235V25.3128H101.394C101.394 25.6985 101.539 26.036 101.732 26.2771C101.924 26.5182 102.262 26.6628 102.599 26.6628C102.841 26.6628 103.082 26.6146 103.226 26.5182C103.419 26.4217 103.564 26.2771 103.66 26.1325L104.094 26.47C103.757 27.0485 103.226 27.2896 102.551 27.2896ZM102.455 23.6253C102.166 23.6253 101.924 23.7217 101.732 23.9146C101.539 24.1075 101.442 24.3967 101.394 24.7825H103.467V24.7342C103.467 24.3967 103.371 24.1075 103.178 23.9146C102.985 23.7217 102.744 23.6253 102.455 23.6253Z" fill="white"/>
<path d="M105.878 23.1429V23.6733C106.216 23.2876 106.601 23.0947 107.132 23.0947C108 23.0947 108.433 23.5769 108.433 24.5894V27.2894H107.71V24.5894C107.71 24.3001 107.662 24.059 107.517 23.9144C107.373 23.7697 107.18 23.7215 106.891 23.7215C106.65 23.7215 106.457 23.7697 106.312 23.9144C106.119 24.059 106.023 24.2037 105.926 24.3965V27.3376H105.203V23.1429H105.878Z" fill="white"/>
<path d="M109.543 25.1196C109.543 24.4928 109.688 23.9625 109.977 23.5767C110.266 23.191 110.652 22.9982 111.134 22.9982C111.616 22.9982 112.002 23.1428 112.291 23.4803V21.3589H113.014V27.1928H112.388L112.339 26.7589C112.05 27.0964 111.664 27.2892 111.182 27.2892C110.7 27.2892 110.314 27.0964 110.025 26.7107C109.736 26.325 109.591 25.7946 109.591 25.1678V25.1196H109.543ZM110.266 25.216C110.266 25.6982 110.363 26.0357 110.555 26.325C110.748 26.6142 111.038 26.7107 111.375 26.7107C111.809 26.7107 112.147 26.5178 112.339 26.1321V24.2517C112.147 23.866 111.809 23.6732 111.375 23.6732C111.038 23.6732 110.748 23.8178 110.555 24.0589C110.363 24.3 110.266 24.6857 110.266 25.216Z" fill="white"/>
<path d="M116.051 27.2896C115.473 27.2896 115.039 27.0967 114.701 26.7592C114.364 26.3735 114.171 25.8914 114.171 25.3128V25.1682C114.171 24.7825 114.267 24.3967 114.412 24.0592C114.557 23.7217 114.798 23.4807 115.087 23.2878C115.376 23.095 115.666 22.9985 116.003 22.9985C116.533 22.9985 116.967 23.1914 117.257 23.5289C117.546 23.8664 117.691 24.3967 117.691 25.0235V25.3128H114.894C114.894 25.6985 115.039 26.036 115.232 26.2771C115.424 26.5182 115.762 26.6628 116.099 26.6628C116.341 26.6628 116.582 26.6146 116.726 26.5182C116.919 26.4217 117.064 26.2771 117.16 26.1325L117.594 26.47C117.257 27.0485 116.726 27.2896 116.051 27.2896ZM115.955 23.6253C115.666 23.6253 115.424 23.7217 115.232 23.9146C115.039 24.1075 114.942 24.3967 114.894 24.7825H116.967V24.7342C116.967 24.3967 116.871 24.1075 116.678 23.9146C116.485 23.7217 116.244 23.6253 115.955 23.6253Z" fill="white"/>
<path d="M120.68 23.7697C120.583 23.7697 120.439 23.7215 120.342 23.7215C119.86 23.7215 119.571 23.9144 119.426 24.3001V27.2412H118.703V23.1429H119.378V23.6251C119.619 23.2394 119.957 23.0947 120.342 23.0947C120.487 23.0947 120.583 23.0947 120.632 23.1429V23.7697H120.68Z" fill="white"/>
<path d="M29.6518 33.75H4.09821C1.83214 33.75 0 31.9179 0 29.6518V4.09821C0 1.83214 1.83214 0 4.09821 0H29.6518C31.9179 0 33.75 1.83214 33.75 4.09821V29.6518C33.75 31.9179 31.9179 33.75 29.6518 33.75Z" fill="white"/>
<path d="M28.3021 15.2356C27.82 14.6571 27.2414 14.1749 26.6628 13.6446C27.386 12.0053 28.1092 10.366 28.8324 8.67849C27.6753 8.67849 26.5664 8.67849 25.4574 8.67849C25.7949 7.90706 26.6146 5.88206 26.711 5.59277C26.6628 5.59277 14.3682 5.59277 14.3682 5.59277C16.0557 5.59277 17.261 5.59277 17.261 5.59277C17.2128 5.78563 16.9235 6.50884 16.586 7.28027C19.1414 7.28027 21.6967 7.28027 24.3003 7.28027C24.1075 7.7142 23.6253 8.67849 23.6253 8.67849H19.3825C19.1414 9.25706 18.9003 9.78742 18.6592 10.366C18.7557 10.366 18.8521 10.366 18.9485 10.366C20.1057 10.366 21.2628 10.366 22.42 10.366C22.5646 10.366 22.7574 10.366 22.9503 10.366C21.9378 12.6321 21.0217 14.8017 20.0092 17.116C20.1057 17.3088 20.1539 17.4535 20.2503 17.6463C20.6842 17.5017 21.1182 17.4053 21.5039 17.3088C23.4807 16.7785 25.4092 18.2731 25.4574 20.2499C25.5057 21.9856 24.1557 23.4321 22.42 23.4803C21.6485 23.4803 20.9253 23.2392 20.3467 22.8053C20.1539 23.3356 19.961 23.8178 19.6717 24.2999C20.636 25.0231 21.7932 25.2642 23.1914 25.0231C25.4092 24.6374 27.0485 22.6606 27.0967 20.3946C27.0967 17.8392 25.5057 16.0553 22.5646 15.4767C23.2878 13.8374 24.9753 10.366 24.9753 10.366C24.9753 10.366 25.8914 10.366 26.4217 10.366C25.8432 11.7642 25.2646 13.066 24.6378 14.416C26.5182 15.2838 27.82 16.6821 28.3985 18.6588C28.7842 20.1053 28.6878 21.5035 28.061 22.8535C26.9521 25.4571 24.1075 26.9999 21.311 26.5178C20.395 26.3731 19.5753 25.9874 18.8521 25.5053C18.4664 25.9874 17.9842 26.4213 17.5503 26.7588C18.5146 27.4821 19.6235 27.9642 20.7325 28.1088C20.8771 28.1571 25.795 29.1696 28.6878 25.0231C30.8092 22.1303 30.6646 17.9838 28.3021 15.2356Z" fill="#0047BA"/>
<path d="M20.2023 17.5981C20.154 17.4053 20.0576 17.2124 19.9612 17.0678C19.6719 16.3928 19.2862 15.766 18.804 15.2356C18.3219 14.6571 17.7433 14.1749 17.1648 13.6446C17.6469 12.5838 18.129 11.4749 18.6112 10.366C18.8523 9.83563 19.0933 9.25706 19.3344 8.67849C18.1773 8.67849 17.1165 8.67849 15.9594 8.67849C16.104 8.34099 16.3451 7.81063 16.538 7.28027C16.8273 6.50884 17.1165 5.78563 17.213 5.59277C17.213 5.59277 16.0076 5.59277 14.3201 5.59277C10.6558 5.59277 4.87012 5.59277 4.87012 5.59277C4.87012 5.59277 4.87012 10.366 4.87012 10.4142C6.41297 10.4142 7.90762 10.4142 9.45047 10.366C10.6076 10.366 11.7648 10.366 12.9219 10.366C13.0665 10.366 13.2594 10.366 13.4523 10.366C12.3433 12.8731 11.2826 15.2838 10.2219 17.791C10.8969 17.5981 11.4273 17.4535 12.0058 17.3088C13.7415 16.8749 15.429 17.9356 15.863 19.5749C15.9112 19.816 15.9594 20.0571 15.9594 20.2981C16.0076 21.3106 15.5255 22.2267 14.8023 22.8053C14.2719 23.2392 13.5969 23.5285 12.8737 23.5285C11.0898 23.5285 9.69155 22.1785 9.64333 20.3463C9.64333 20.1053 9.64333 19.816 9.64333 19.4785C8.05226 19.4785 6.46119 19.4785 4.91833 19.4785C4.91833 24.8785 8.05226 27.6267 11.1862 28.0606C11.3308 28.1088 14.6576 28.7838 17.454 26.7106C17.888 26.3731 18.3701 25.9874 18.7558 25.4571C18.9005 25.3124 18.9969 25.1196 19.1415 24.9749C19.3344 24.7338 19.479 24.4928 19.6237 24.2517C19.913 23.7696 20.154 23.2392 20.2987 22.7571C20.829 21.1178 20.829 19.2856 20.2023 17.5981ZM6.55762 8.67849C6.55762 8.19634 6.55762 7.7142 6.55762 7.23206C9.16119 7.23206 11.7165 7.23206 14.3683 7.23206C14.513 7.23206 14.7058 7.23206 14.8505 7.23206C14.7058 7.52134 14.513 7.95527 14.3683 8.24456C14.2719 8.48563 14.1755 8.67849 14.1755 8.67849H6.55762ZM16.2487 25.5535C14.9469 26.4213 13.3558 26.8071 11.7648 26.5178C9.06476 26.0356 6.8469 23.7213 6.65405 21.166C7.13619 21.166 7.61833 21.166 8.05226 21.166C9.16119 24.2035 11.0415 25.5053 13.6933 25.0231C14.3201 24.9267 14.9469 24.6856 15.4773 24.2999C15.9594 23.9624 16.3451 23.5767 16.6826 23.0946C17.1165 22.516 17.4058 21.841 17.5023 21.1178C17.5505 20.8767 17.5505 20.5874 17.5987 20.3463C17.5987 20.0571 17.5987 19.7678 17.5505 19.4785C17.213 17.4053 15.6701 15.9588 13.0665 15.4285C13.7898 13.8374 15.3808 10.5588 15.4773 10.3178C15.4773 10.3178 16.3933 10.3178 16.9237 10.3178C16.3451 11.716 15.7665 13.0178 15.1398 14.3678C17.0201 15.2356 18.3219 16.6338 18.9005 18.6106C18.9969 18.8999 19.0451 19.1892 19.0933 19.4785C19.238 20.6356 19.0933 21.7446 18.6112 22.8535C18.563 22.9017 18.563 22.9499 18.5148 23.0463C18.2737 23.5767 17.9844 24.0106 17.5987 24.4446C17.1648 24.8785 16.7308 25.2642 16.2487 25.5535Z" fill="#0047BA"/>
<path d="M48.3587 13.3556C48.2622 14.6092 47.7801 15.6217 46.9605 16.3449C46.0926 17.0681 44.9837 17.4538 43.5855 17.4538C42.0908 17.4538 40.8855 16.9235 40.0176 15.911C39.1497 14.8985 38.7158 13.5003 38.7158 11.7163V10.9931C38.7158 9.83598 38.9087 8.87169 39.2944 8.00384C39.6801 7.13598 40.2587 6.46098 41.0301 6.02705C41.8015 5.59312 42.6212 5.35205 43.6337 5.35205C44.9837 5.35205 46.0926 5.73776 46.9605 6.46098C47.7801 7.18419 48.2622 8.24491 48.4069 9.54669H45.948C45.8997 8.77526 45.6587 8.24491 45.3212 7.85919C44.9355 7.52169 44.4051 7.32884 43.6337 7.32884C42.814 7.32884 42.2355 7.61812 41.8015 8.19669C41.3676 8.77526 41.1747 9.69134 41.1747 10.8967V11.8128C41.1747 13.1146 41.3676 14.0306 41.7533 14.6092C42.139 15.1878 42.7658 15.477 43.5855 15.477C44.3569 15.477 44.8872 15.2842 45.273 14.9467C45.6587 14.6092 45.8515 14.0788 45.8997 13.3556H48.3587Z" fill="white"/>
<path d="M54.7708 10.7038C54.4333 10.6556 54.1922 10.6556 53.9029 10.6556C53.035 10.6556 52.4083 10.9449 52.1672 11.5717V17.3092H49.8047V8.48595H52.0225L52.0708 9.54667C52.5529 8.72702 53.1797 8.34131 54.0475 8.34131C54.2886 8.34131 54.5297 8.38952 54.7708 8.43774V10.7038Z" fill="white"/>
<path d="M59.9301 17.4537C58.6283 17.4537 57.5676 17.068 56.7962 16.2483C56.0247 15.4287 55.5908 14.4162 55.5908 13.0662V12.8251C55.5908 11.9573 55.7837 11.1376 56.1212 10.4626C56.4587 9.78761 56.9408 9.20904 57.5676 8.87154C58.1944 8.48583 58.9176 8.29297 59.689 8.29297C60.8944 8.29297 61.8587 8.67868 62.5337 9.45011C63.2087 10.2215 63.5944 11.2823 63.5944 12.6805V13.6448H58.0015C58.098 14.2233 58.2908 14.6573 58.6765 15.043C59.0622 15.4287 59.5444 15.5733 60.123 15.5733C61.039 15.5733 61.714 15.2358 62.2444 14.609L63.4015 15.9108C63.064 16.393 62.5819 16.7787 61.9551 17.068C61.3283 17.309 60.6533 17.4537 59.9301 17.4537ZM59.689 10.2215C59.2069 10.2215 58.8212 10.3662 58.5319 10.7037C58.2426 11.0412 58.0497 11.4751 57.9533 12.0537H61.2319V11.8608C61.2319 11.3305 61.0872 10.9448 60.798 10.6555C60.5569 10.3662 60.1712 10.2215 59.689 10.2215Z" fill="white"/>
<path d="M64.5107 12.8252C64.5107 11.4752 64.8 10.3663 65.4268 9.54665C66.0536 8.72701 66.8732 8.34129 67.934 8.34129C68.8018 8.34129 69.4768 8.67879 70.0554 9.30558V4.77344H72.4179V17.2609H70.2965L70.2 16.3449C69.6215 17.0681 68.85 17.4538 67.934 17.4538C66.9215 17.4538 66.0536 17.0681 65.4268 16.2484C64.8482 15.4288 64.5107 14.2717 64.5107 12.8252ZM66.8732 13.0181C66.8732 13.8377 67.0179 14.4645 67.3072 14.8984C67.5965 15.3324 68.0304 15.5734 68.5607 15.5734C69.284 15.5734 69.8143 15.2842 70.1036 14.6574V11.1859C69.8143 10.5592 69.284 10.2699 68.5607 10.2699C67.4518 10.2217 66.8732 11.1377 66.8732 13.0181Z" fill="white"/>
<path d="M74.25 6.22001C74.25 5.88251 74.3464 5.59322 74.5875 5.35215C74.8286 5.11108 75.1661 5.01465 75.5518 5.01465C75.9375 5.01465 76.275 5.11108 76.5161 5.35215C76.7571 5.59322 76.8536 5.88251 76.8536 6.22001C76.8536 6.55751 76.7089 6.89501 76.4679 7.08786C76.2268 7.32893 75.8893 7.42536 75.5036 7.42536C75.1179 7.42536 74.7804 7.32893 74.5393 7.08786C74.3946 6.84679 74.25 6.55751 74.25 6.22001ZM76.7571 17.3093H74.3946V8.48608H76.7571V17.3093Z" fill="white"/>
<path d="M81.5295 6.31641V8.48605H83.0242V10.2218H81.5295V14.6093C81.5295 14.9468 81.5777 15.1878 81.7224 15.3325C81.867 15.4771 82.1081 15.5253 82.4456 15.5253C82.6867 15.5253 82.9277 15.5253 83.1206 15.4771V17.261C82.6384 17.4057 82.2045 17.4539 81.6742 17.4539C80.0349 17.4539 79.167 16.6343 79.167 14.9468V10.2218H77.8652V8.48605H79.167V6.31641H81.5295Z" fill="white"/>
<path d="M97.055 7.42503H93.4389V17.309H90.98V7.42503H87.4121V5.44824H97.055V7.42503Z" fill="white"/>
<path d="M100.574 9.45022C101.201 8.6788 101.973 8.34129 102.937 8.34129C104.865 8.34129 105.83 9.45022 105.83 11.6681V17.3092H103.467V11.7163C103.467 11.2342 103.371 10.8484 103.13 10.6074C102.889 10.3663 102.551 10.2217 102.069 10.2217C101.394 10.2217 100.864 10.5109 100.574 11.0413V17.3092H98.2119V4.77344H100.574V9.45022Z" fill="white"/>
<path d="M107.614 6.22001C107.614 5.88251 107.711 5.59322 107.952 5.35215C108.193 5.11108 108.53 5.01465 108.916 5.01465C109.302 5.01465 109.639 5.11108 109.88 5.35215C110.121 5.59322 110.218 5.88251 110.218 6.22001C110.218 6.55751 110.073 6.89501 109.832 7.08786C109.591 7.32893 109.254 7.42536 108.868 7.42536C108.482 7.42536 108.145 7.32893 107.904 7.08786C107.711 6.84679 107.614 6.55751 107.614 6.22001ZM110.121 17.3093H107.759V8.48608H110.121V17.3093Z" fill="white"/>
<path d="M116.968 10.7038C116.631 10.6556 116.389 10.6556 116.1 10.6556C115.232 10.6556 114.606 10.9449 114.364 11.5717V17.3092H112.002V8.48595H114.22L114.268 9.54667C114.75 8.72702 115.377 8.34131 116.245 8.34131C116.486 8.34131 116.727 8.38952 116.968 8.43774V10.7038Z" fill="white"/>
<path d="M121.355 6.31641V8.48605H122.849V10.2218H121.355V14.6093C121.355 14.9468 121.403 15.1878 121.548 15.3325C121.692 15.4771 121.933 15.5253 122.271 15.5253C122.512 15.5253 122.753 15.5253 122.946 15.4771V17.261C122.464 17.4057 122.03 17.4539 121.499 17.4539C119.86 17.4539 118.992 16.6343 118.992 14.9468V10.2218H117.69V8.48605H118.992V6.31641H121.355Z" fill="white"/>
<path d="M127.43 13.9823L129.069 8.48584H131.576L128.056 18.6591L127.864 19.1412C127.333 20.2983 126.465 20.8769 125.26 20.8769C124.922 20.8769 124.585 20.8287 124.199 20.7323V18.9483H124.537C124.971 18.9483 125.308 18.9001 125.549 18.7555C125.79 18.6108 125.935 18.418 126.08 18.0805L126.369 17.3573L123.283 8.53405H125.79L127.43 13.9823Z" fill="white"/>
<path d="M134.807 10.3179H136.06C136.639 10.3179 137.121 10.1732 137.41 9.88394C137.7 9.59466 137.844 9.20894 137.844 8.67859C137.844 8.19644 137.7 7.81073 137.41 7.56966C137.121 7.28037 136.735 7.18394 136.253 7.18394C135.819 7.18394 135.433 7.32859 135.144 7.56966C134.855 7.81073 134.71 8.14823 134.71 8.53394H132.348C132.348 7.90716 132.492 7.3768 132.83 6.84644C133.167 6.3643 133.65 5.97859 134.228 5.6893C134.807 5.40001 135.482 5.25537 136.205 5.25537C137.458 5.25537 138.423 5.54466 139.146 6.17144C139.869 6.75001 140.207 7.61787 140.207 8.63037C140.207 9.16073 140.062 9.69109 139.725 10.125C139.387 10.5589 138.953 10.9447 138.423 11.1857C139.098 11.4268 139.58 11.7643 139.917 12.2464C140.255 12.7286 140.4 13.3072 140.4 13.9339C140.4 14.9947 140.014 15.8143 139.242 16.4411C138.471 17.0679 137.458 17.4054 136.205 17.4054C135 17.4054 134.035 17.1161 133.312 16.4893C132.541 15.8625 132.203 15.0429 132.203 14.0304H134.566C134.566 14.4643 134.71 14.85 135.048 15.1393C135.385 15.4286 135.771 15.5732 136.301 15.5732C136.88 15.5732 137.314 15.4286 137.603 15.1393C137.941 14.85 138.085 14.4643 138.085 13.9822C138.085 12.7768 137.458 12.1982 136.157 12.1982H134.903V10.3179H134.807Z" fill="white"/>
</svg>
