<svg width="2561" height="481" viewBox="0 0 2561 481" fill="none" xmlns="http://www.w3.org/2000/svg">
<path d="M0 178.939C354.9 147.039 348.9 228.739 578.2 240.739C807.5 252.739 823.4 206.839 1000.9 216.839C1184.7 227.139 1238.2 286.639 1521.3 286.639C1865.6 286.639 2109 148.839 2560.1 216.839V480.039H0V178.939Z" fill="#015CE6"/>
<path d="M668.5 433.439V433.339C911.9 329.539 1068.1 374.539 1243.1 327.639C1406.7 283.739 1469.5 232.539 1630.2 197.939C1787.8 164.039 1931.5 195.939 2153 106.139C2368.4 18.8391 2488.2 -3.56094 2560 0.439057V480.039H584.8C584.8 480.039 626.9 450.139 668.5 433.439Z" fill="#2684FF"/>
<path d="M1156.8 480.039C1156.8 480.039 1228.6 462.039 1290 433.039C1387.8 387.139 1537 369.839 1681.1 389.139C1814.8 407.139 1910.5 387.139 1968.4 371.139C2034.2 353.039 2070.1 329.239 2131.9 320.539C2312.5 294.939 2484.2 367.739 2560 353.239V480.039H1156.8Z" fill="#F4F5F7"/>
</svg>
