<svg width="500" height="346" viewBox="0 0 500 346" fill="none" xmlns="http://www.w3.org/2000/svg">
<path d="M78.4275 138.098C86.0595 154.056 90.5693 170.014 91.61 187.359C92.3038 199.154 92.9976 210.949 93.3445 222.397C83.978 215.806 27.085 200.889 27.085 147.812C27.085 128.385 45.818 90.5716 48.9402 89.1839C52.4093 87.7963 66.2857 112.427 78.4275 138.098Z" fill="#00875A"/>
<g style="mix-blend-mode:overlay" opacity="0.5">
<path d="M100.283 228.641C100.283 228.641 99.9358 228.641 100.283 228.641C81.2027 219.621 72.1831 184.237 64.5511 155.79C59.6943 137.057 55.5314 121.099 49.9809 115.896C49.634 115.549 49.634 115.202 49.9809 114.855C50.3278 114.508 50.6747 114.508 51.0216 114.855C56.9191 120.405 61.082 136.71 65.9387 155.443C73.2238 183.543 82.2434 218.581 100.63 227.253C100.976 227.253 100.976 227.947 100.976 227.947C100.63 228.294 100.63 228.641 100.283 228.641Z" fill="#172B4D"/>
</g>
<path d="M6.27008 127.69C9.04535 125.609 15.9835 145.383 50.3275 164.809C75.9988 179.38 85.0184 238.701 85.0184 238.701C85.0184 238.701 85.7122 264.025 85.0184 268.188C61.4286 259.516 24.6562 247.027 8.00462 213.724C-7.25937 182.849 3.49481 129.772 6.27008 127.69Z" fill="#57D9A3"/>
<g style="mix-blend-mode:overlay" opacity="0.5">
<path d="M86.7534 249.455C66.9796 240.089 51.3687 210.255 38.5331 186.318C31.248 172.788 25.3505 161.34 20.1469 156.137C19.8 155.79 19.8 155.443 20.1469 155.096C20.4938 154.749 20.8407 154.749 21.1876 155.096C26.7382 160.3 32.6356 171.748 39.9207 185.624C52.4094 209.214 68.0203 238.701 87.1003 248.068C87.4472 248.068 87.4472 248.761 87.4472 248.761C87.1003 249.455 87.1003 249.455 86.7534 249.455Z" fill="#172B4D"/>
</g>
<path d="M12.8614 195.337C16.3305 191.175 71.489 248.068 75.6519 258.475V298.716C69.4075 296.288 22.5748 279.983 22.5748 243.558C22.5748 218.58 10.0861 198.807 12.8614 195.337Z" fill="#79F2C0"/>
<g style="mix-blend-mode:overlay" opacity="0.5">
<path d="M88.4876 286.574C59.6942 275.473 47.5524 251.537 38.8796 234.191C35.4106 227.253 32.6353 221.355 29.5131 218.58C29.1662 218.233 29.1662 217.886 29.5131 217.539C29.86 217.193 30.2069 217.193 30.5538 217.539C33.676 220.662 36.7982 226.559 40.2673 233.497C48.94 250.843 61.0818 274.433 89.1814 285.187C89.5283 285.187 89.5283 285.534 89.5283 285.881C89.1814 286.574 88.8345 286.574 88.4876 286.574Z" fill="#172B4D"/>
</g>
<path d="M494.025 143.302C490.903 141.567 460.722 177.646 441.642 194.644C430.541 204.358 417.358 259.516 417.358 259.516C417.358 259.516 419.093 275.127 420.134 279.29C441.642 268.883 463.497 261.944 483.965 231.416C506.167 199.154 500.963 147.118 494.025 143.302Z" fill="#57D9A3"/>
<path d="M422.561 133.241C411.807 147.464 418.745 168.626 421.521 186.318C423.255 198.46 425.336 210.255 427.418 222.397C435.397 218.234 442.682 213.03 449.967 204.704C470.088 181.461 470.435 148.505 470.435 137.404C470.435 105.141 452.048 83.9801 448.926 83.2862C445.804 82.9393 438.172 112.427 422.561 133.241Z" fill="#00875A"/>
<mask id="mask0" mask-type="alpha" maskUnits="userSpaceOnUse" x="422" y="109" width="31" height="111">
<path d="M423.255 219.968C422.908 219.968 422.561 219.621 422.561 219.274C421.52 196.378 429.846 178.339 437.825 160.647C445.457 143.995 452.742 128.384 451.008 110.692C451.008 110.345 451.355 109.998 451.701 109.998C452.048 109.998 452.395 110.345 452.395 110.692C454.13 128.731 446.845 144.689 439.213 161.341C431.234 179.033 422.908 197.072 423.949 219.621C423.949 219.968 423.602 219.968 423.255 219.968Z" fill="url(#paint0_linear)"/>
</mask>
<g mask="url(#mask0)">
<g style="mix-blend-mode:overlay" opacity="0.5">
<path d="M423.255 219.968C422.908 219.968 422.561 219.621 422.561 219.274C421.52 196.378 429.846 178.339 437.825 160.647C445.457 143.995 452.742 128.384 451.008 110.692C451.008 110.345 451.355 109.998 451.701 109.998C452.048 109.998 452.395 110.345 452.395 110.692C454.13 128.731 446.845 144.689 439.213 161.341C431.234 179.033 422.908 197.072 423.949 219.621C423.949 219.968 423.602 219.968 423.255 219.968Z" fill="#172B4D"/>
</g>
</g>
<mask id="mask1" mask-type="alpha" maskUnits="userSpaceOnUse" x="429" y="160" width="60" height="100">
<path d="M430.54 259.169C429.847 259.169 429.847 258.822 429.847 258.475C434.356 246.333 444.07 233.497 454.13 220.315C468.354 201.929 482.924 182.849 487.434 160.994C487.434 160.647 487.78 160.3 488.127 160.647C488.474 160.647 488.821 160.994 488.474 161.34C483.964 183.543 469.394 202.623 454.824 221.356C444.764 234.538 435.05 247.027 430.54 259.169C430.887 259.169 431.234 259.169 430.54 259.169Z" fill="url(#paint1_linear)"/>
</mask>
<g mask="url(#mask1)">
<g style="mix-blend-mode:overlay" opacity="0.5">
<path d="M430.54 259.169C429.847 259.169 429.847 258.822 429.847 258.475C434.356 246.333 444.07 233.497 454.13 220.315C468.354 201.929 482.924 182.849 487.434 160.994C487.434 160.647 487.78 160.3 488.127 160.647C488.474 160.647 488.821 160.994 488.474 161.34C483.964 183.543 469.394 202.623 454.824 221.356C444.764 234.538 435.05 247.027 430.54 259.169C430.887 259.169 431.234 259.169 430.54 259.169Z" fill="#172B4D"/>
</g>
</g>
<path d="M463.149 215.458C460.374 213.724 444.416 223.437 435.397 231.416C425.336 240.089 417.011 260.556 412.848 269.576L413.195 305.654C418.745 303.573 421.52 301.145 425.336 298.716C435.397 292.125 454.13 281.371 462.456 250.149C465.925 236.966 466.619 217.54 463.149 215.458Z" fill="#79F2C0"/>
<mask id="mask2" mask-type="alpha" maskUnits="userSpaceOnUse" x="411" y="236" width="39" height="56">
<path d="M411.807 289.003C411.807 289.003 420.827 276.167 426.03 268.188C434.009 256.046 442.335 243.558 448.579 236.62C448.926 236.273 449.273 236.273 449.273 236.62C449.62 236.966 449.62 237.313 449.273 237.313C442.682 244.252 434.703 256.74 426.724 268.882C421.173 277.555 411.46 291.084 411.46 291.084L411.807 289.003Z" fill="url(#paint2_linear)"/>
</mask>
<g mask="url(#mask2)">
<g style="mix-blend-mode:overlay" opacity="0.5">
<path d="M411.807 289.003C411.807 289.003 420.827 276.167 426.03 268.188C434.009 256.046 442.335 243.558 448.579 236.62C448.926 236.273 449.273 236.273 449.273 236.62C449.62 236.966 449.62 237.313 449.273 237.313C442.682 244.252 434.703 256.74 426.724 268.882C421.173 277.555 411.46 291.084 411.46 291.084L411.807 289.003Z" fill="#172B4D"/>
</g>
</g>
<path d="M261.248 262.985C261.248 334.449 243.902 328.551 166.194 328.551C89.5276 328.551 62.4688 337.224 62.4688 262.985C62.4688 176.952 106.873 107.57 162.032 107.57C217.19 107.57 261.248 176.952 261.248 262.985Z" fill="#172B4D"/>
<g style="mix-blend-mode:multiply" opacity="0.4">
<path d="M75.3044 186.665C66.9786 209.214 62.4688 235.232 62.4688 262.985C62.4688 337.223 89.5276 328.551 166.195 328.551C232.107 328.551 254.656 332.714 259.86 290.738C192.56 290.391 90.2215 268.882 75.3044 186.665Z" fill="#172B4D"/>
</g>
<path d="M146.074 119.018C117.628 81.552 122.484 65.2473 126.3 61.7782C140.524 49.2895 140.871 54.1462 161.685 63.5127C184.928 74.2669 191.172 52.0648 196.376 55.5338C200.886 58.3091 200.192 67.6756 178.684 118.324C168.97 118.324 155.788 118.671 146.074 119.018Z" fill="#172B4D"/>
<g style="mix-blend-mode:multiply" opacity="0.4">
<path d="M187.009 98.2031C144.687 97.8562 127.341 83.9799 123.525 70.1035C123.178 77.7355 126.3 90.5711 140.177 110.692H182.153C183.887 106.182 185.622 102.019 187.009 98.2031Z" fill="#172B4D"/>
</g>
<path d="M139.136 109.651H184.234" stroke="#2684FF" stroke-width="8" stroke-miterlimit="10" stroke-linecap="round"/>
<path d="M170.357 221.703C170.357 218.928 169.663 216.846 168.275 215.112C166.888 213.377 164.459 211.99 160.99 210.602C157.521 209.214 154.399 207.827 151.624 206.439C148.848 205.051 146.073 203.317 143.992 201.582C141.91 199.848 140.176 197.419 139.135 194.991C138.094 192.563 137.4 189.441 137.4 185.972C137.4 180.074 139.482 175.217 143.298 171.401C147.461 167.585 152.664 165.504 159.256 164.81V153.709H167.582V165.157C173.826 166.198 179.03 168.626 182.846 173.136C186.662 177.299 188.396 182.849 188.396 189.441H170.704C170.704 185.972 170.01 182.849 168.622 181.115C167.235 179.38 165.153 178.34 162.725 178.34C160.296 178.34 158.562 179.033 157.174 180.421C155.787 181.809 155.093 183.89 155.093 186.318C155.093 188.747 155.787 190.828 157.174 192.563C158.562 193.95 160.99 195.685 164.112 197.073C167.235 198.46 170.357 199.848 173.479 201.235C176.254 202.623 179.03 204.358 181.111 206.439C183.192 208.174 184.927 210.602 185.968 213.03C187.008 215.459 187.702 218.581 187.702 222.05C187.702 227.947 185.968 232.804 182.152 236.62C178.336 240.436 173.132 242.518 166.541 243.211V253.619H158.215V242.865C150.583 242.171 144.686 239.395 140.523 234.886C136.36 230.376 134.278 224.478 134.278 217.54H152.664C152.664 221.703 153.705 224.478 155.44 226.56C157.174 228.641 159.603 229.682 163.072 229.682C165.5 229.682 167.235 228.988 168.622 227.601C169.663 226.213 170.357 224.478 170.357 221.703Z" fill="#2684FF"/>
<path d="M432.273 249.803C432.273 335.142 411.806 328.204 318.487 328.204C226.556 328.204 194.294 338.958 194.294 249.803C194.294 147.117 247.718 63.8594 313.284 63.8594C378.849 63.8594 432.273 147.117 432.273 249.803Z" fill="#015CE6"/>
<path d="M209.558 158.565C199.844 185.624 194.294 216.499 194.294 249.802C194.294 338.958 226.556 328.204 318.487 328.204C397.583 328.204 424.294 333.407 430.539 282.759C349.709 282.759 227.597 257.088 209.558 158.565Z" fill="#0047BA"/>
<path d="M294.55 77.3891C260.206 32.6379 266.45 12.8641 270.96 9.04808C287.959 -5.869 288.653 -0.31846 313.283 11.1295C341.383 23.9652 348.668 -2.39991 354.912 1.41608C360.463 4.88517 359.422 15.9863 333.751 76.6953C321.609 77.0422 305.998 77.3891 294.55 77.3891Z" fill="#015CE6"/>
<path d="M343.465 52.7588C292.816 52.065 272.002 35.7603 267.492 18.7617C267.145 27.7813 270.961 43.3922 287.266 67.329H337.567C339.649 62.1253 341.73 57.2686 343.465 52.7588Z" fill="#0047BA"/>
<path d="M286.225 66.2881H339.995" stroke="#2684FF" stroke-width="8" stroke-miterlimit="10" stroke-linecap="round"/>
<path d="M323.691 200.889C323.691 197.419 322.997 194.991 321.262 193.257C319.528 191.522 316.753 189.441 312.59 188.053C308.427 186.318 304.611 184.584 301.142 182.849C297.673 181.115 294.55 179.033 292.122 176.952C289.694 174.524 287.612 172.095 286.225 168.973C284.837 165.851 284.143 162.382 284.143 158.219C284.143 151.281 286.571 145.383 291.428 140.873C296.285 136.364 302.529 133.588 310.508 132.894V119.712H320.569V133.241C328.201 134.282 334.098 137.404 338.608 142.608C343.118 147.812 345.199 154.403 345.199 162.382H324.038C324.038 157.872 323.344 154.75 321.609 152.321C319.875 149.893 317.446 148.852 314.324 148.852C311.549 148.852 309.467 149.893 307.733 151.628C306.345 153.362 305.305 155.79 305.305 158.913C305.305 162.035 306.345 164.463 308.08 166.198C309.814 167.932 312.59 169.667 316.406 171.401C320.222 173.136 324.038 174.87 327.507 176.605C330.976 178.34 334.098 180.421 336.526 182.502C338.955 184.931 341.036 187.359 342.424 190.481C343.811 193.604 344.505 197.073 344.505 201.235C344.505 208.521 342.077 214.418 337.567 218.928C333.057 223.438 326.813 226.213 318.834 226.907V239.395H308.774V226.56C299.754 225.519 292.469 222.397 287.612 217.193C282.756 211.99 280.327 205.051 280.327 196.379H301.489C301.489 201.235 302.529 204.705 304.611 207.133C306.692 209.561 309.814 210.949 313.63 210.949C316.406 210.949 318.834 210.255 320.222 208.521C322.65 206.092 323.691 203.664 323.691 200.889Z" fill="#2684FF"/>
<path d="M381.973 316.062H254.311V335.836H381.973V316.062Z" fill="#79E2F3"/>
<path d="M381.973 320.225H254.311V322.306H381.973V320.225Z" fill="white"/>
<path d="M381.973 325.082H254.311V327.164H381.973V325.082Z" fill="white"/>
<path d="M381.973 329.938H254.311V332.02H381.973V329.938Z" fill="white"/>
<path d="M381.973 296.636H254.311V316.41H381.973V296.636Z" fill="#79E2F3"/>
<path d="M381.973 300.451H254.311V302.533H381.973V300.451Z" fill="white"/>
<path d="M381.973 305.309H254.311V307.39H381.973V305.309Z" fill="white"/>
<path d="M381.973 310.165H254.311V312.246H381.973V310.165Z" fill="white"/>
<path d="M381.973 277.209H254.311V296.983H381.973V277.209Z" fill="#79E2F3"/>
<path d="M381.973 281.024H254.311V283.106H381.973V281.024Z" fill="white"/>
<path d="M381.973 285.882H254.311V287.963H381.973V285.882Z" fill="white"/>
<path d="M381.973 290.738H254.311V292.82H381.973V290.738Z" fill="white"/>
<path d="M381.973 257.436H254.311V277.209H381.973V257.436Z" fill="#79E2F3"/>
<path d="M381.973 261.251H254.311V263.332H381.973V261.251Z" fill="white"/>
<path d="M381.973 266.108H254.311V268.19H381.973V266.108Z" fill="white"/>
<path d="M381.973 270.965H254.311V273.046H381.973V270.965Z" fill="white"/>
<path d="M319.876 316.409H310.51V335.836H319.876V316.409Z" fill="#FF991E"/>
<path d="M315.714 320.572C315.714 320.225 315.714 320.225 315.714 320.225L315.367 319.878C315.02 319.878 315.02 319.532 314.673 319.532C314.326 319.532 314.326 319.185 314.326 319.185L313.979 318.838C313.979 318.838 313.979 318.491 313.979 318.144C313.979 317.797 313.979 317.45 314.326 317.103C314.673 316.756 315.02 316.756 315.367 316.756V316.062H315.714V316.756C316.06 316.756 316.407 317.103 316.754 317.103C317.101 317.45 317.101 317.797 317.101 318.144H315.714C315.714 317.797 315.714 317.797 315.714 317.45L315.367 317.103H315.02V317.45V317.797L315.367 318.144C315.714 318.144 315.714 318.491 316.06 318.491C316.407 318.491 316.407 318.838 316.407 318.838L316.754 319.185C316.754 319.185 316.754 319.532 316.754 319.878C316.754 320.225 316.754 320.572 316.407 320.919C316.06 321.266 315.714 321.266 315.367 321.266V321.96H314.673V321.266C314.326 321.266 313.979 320.919 313.632 320.919C313.285 320.919 313.285 320.225 313.285 319.878H314.326C314.326 320.225 314.326 320.225 314.326 320.572L314.673 320.919H315.02C315.714 320.572 315.714 320.572 315.714 320.572Z" fill="white"/>
<path d="M315.714 327.164C315.714 326.817 315.714 326.817 315.714 326.817L315.367 326.47C315.02 326.47 315.02 326.123 314.673 326.123C314.326 326.123 314.326 325.776 314.326 325.776L313.979 325.43C313.979 325.43 313.979 325.083 313.979 324.736C313.979 324.389 313.979 324.042 314.326 323.695C314.673 323.348 315.02 323.348 315.367 323.348V322.654H315.714V323.348C316.06 323.348 316.407 323.695 316.754 323.695C317.101 324.042 317.101 324.389 317.101 324.736H315.714C315.714 324.389 315.714 324.389 315.714 324.042L315.367 323.695H315.02V324.042V324.389L315.367 324.736C315.714 324.736 315.714 325.083 316.06 325.083C316.407 325.083 316.407 325.43 316.407 325.43L316.754 325.776C316.754 325.776 316.754 326.123 316.754 326.47C316.754 326.817 316.754 327.164 316.407 327.511C316.06 327.858 315.714 327.858 315.367 327.858V328.552H314.673V327.858C314.326 327.858 313.979 327.511 313.632 327.511C313.285 327.511 313.285 326.817 313.285 326.47H314.326C314.326 326.817 314.326 326.817 314.326 327.164L314.673 327.511H315.02C315.714 327.511 315.714 327.164 315.714 327.164Z" fill="white"/>
<path d="M315.714 333.755C315.714 333.408 315.714 333.408 315.714 333.408L315.367 333.061C315.02 333.061 315.02 332.714 314.673 332.714C314.326 332.714 314.326 332.367 314.326 332.367L313.979 332.02C313.979 332.02 313.979 331.673 313.979 331.326C313.979 330.979 313.979 330.633 314.326 330.286C314.673 329.939 315.02 329.939 315.367 329.939V329.592H315.714V330.286C316.06 330.286 316.407 330.633 316.754 330.633C317.101 330.979 317.101 331.326 317.101 331.673H315.714C315.714 331.326 315.714 331.326 315.714 330.979L315.367 330.633H315.02V330.979V331.326L315.367 331.673C315.714 331.673 315.714 332.02 316.06 332.02C316.407 332.02 316.407 332.367 316.407 332.367L316.754 332.714C316.754 332.714 316.754 333.061 316.754 333.408C316.754 333.755 316.754 334.102 316.407 334.449C316.06 334.795 315.714 334.795 315.367 334.795V335.489H314.673V334.795C314.326 334.795 313.979 334.449 313.632 334.449C313.285 334.102 313.285 333.755 313.285 333.408H314.326C314.326 333.755 314.326 333.755 314.326 334.102L314.673 334.449H315.02C315.714 334.102 315.714 334.102 315.714 333.755Z" fill="white"/>
<path d="M319.876 296.636H310.51V316.063H319.876V296.636Z" fill="#FF991E"/>
<path d="M315.714 301.146C315.714 300.799 315.714 300.799 315.714 300.799L315.367 300.452C315.02 300.452 315.02 300.105 314.673 300.105C314.326 300.105 314.326 299.758 314.326 299.758L313.979 299.411C313.979 299.411 313.979 299.064 313.979 298.717C313.979 298.37 313.979 298.023 314.326 297.676C314.673 297.33 315.02 297.33 315.367 297.33V296.636H315.714V297.33C316.06 297.33 316.407 297.676 316.754 297.676C317.101 298.023 317.101 298.37 317.101 298.717H315.714C315.714 298.37 315.714 298.37 315.714 298.023L315.367 297.676H315.02V298.023V298.37L315.367 298.717C315.714 298.717 315.714 299.064 316.06 299.064C316.407 299.064 316.407 299.411 316.407 299.411L316.754 299.758C316.754 299.758 316.754 300.105 316.754 300.452C316.754 300.799 316.754 301.146 316.407 301.492C316.06 301.839 315.714 301.839 315.367 301.839V302.533H314.673V301.839C314.326 301.839 313.979 301.492 313.632 301.492C313.285 301.492 313.285 300.799 313.285 300.452H314.326C314.326 300.799 314.326 300.799 314.326 301.146L314.673 301.492H315.02C315.714 301.146 315.714 301.146 315.714 301.146Z" fill="white"/>
<path d="M315.713 307.736V307.389L315.366 307.043C315.019 307.043 315.019 306.696 314.673 306.696C314.326 306.696 314.326 306.349 314.326 306.349L313.979 306.002C313.979 306.002 313.979 305.655 313.979 305.308C313.979 304.961 313.979 304.614 314.326 304.267C314.673 303.92 315.019 303.92 315.366 303.92V303.227H315.713V303.92C316.06 303.92 316.407 304.267 316.754 304.267C317.101 304.614 317.101 304.961 317.101 305.308H315.713C315.713 304.961 315.713 304.961 315.713 304.614L315.366 304.267H315.019V304.614V304.961L315.366 305.308C315.713 305.308 315.713 305.655 316.06 305.655C316.407 305.655 316.407 306.002 316.407 306.002L316.754 306.349C316.754 306.349 316.754 306.696 316.754 307.043C316.754 307.389 316.754 307.736 316.407 308.083C316.407 308.777 316.06 308.777 315.713 309.124V309.818H315.019V309.124C314.673 309.124 314.326 308.777 313.979 308.777C313.632 308.43 313.632 308.083 313.632 307.736H314.673C314.673 308.083 314.673 308.083 314.673 308.43L315.019 308.777H315.366C315.713 308.083 315.713 307.736 315.713 307.736Z" fill="white"/>
<path d="M315.713 314.328V313.981L315.366 313.634C315.019 313.634 315.019 313.287 314.673 313.287C314.326 313.287 314.326 312.941 314.326 312.941L313.979 312.594C313.979 312.594 313.979 312.247 313.979 311.9C313.979 311.553 313.979 311.206 314.326 310.859C314.673 310.512 315.019 310.512 315.366 310.512V309.818H315.713V310.512C316.06 310.512 316.407 310.859 316.754 310.859C317.101 311.206 317.101 311.553 317.101 311.9H315.713C315.713 311.553 315.713 311.553 315.713 311.206L315.366 310.859H315.019V311.206V311.553L315.366 311.9C315.713 311.9 315.713 312.247 316.06 312.247C316.407 312.247 316.407 312.594 316.407 312.594L316.754 312.941C316.754 312.941 316.754 313.287 316.754 313.634C316.754 313.981 316.754 314.328 316.407 314.675C316.407 315.369 316.06 315.716 315.713 315.716V316.41H315.019V315.716C314.673 315.716 314.326 315.369 313.979 315.369C313.632 315.022 313.632 314.675 313.632 314.328H314.673C314.673 314.675 314.673 314.675 314.673 315.022L315.019 315.369H315.366C315.713 314.675 315.713 314.675 315.713 314.328Z" fill="white"/>
<path d="M319.876 277.209H310.51V296.636H319.876V277.209Z" fill="#FF991E"/>
<path d="M315.714 281.372C315.714 281.025 315.714 281.025 315.714 281.025L315.367 280.678C315.02 280.678 315.02 280.331 314.673 280.331C314.326 280.331 314.326 279.984 314.326 279.984L313.979 279.638C313.979 279.638 313.979 279.291 313.979 278.944C313.979 278.597 313.979 278.25 314.326 277.903C314.673 277.556 315.02 277.556 315.367 277.556V276.862H315.714V277.556C316.06 277.556 316.407 277.903 316.754 277.903C317.101 278.25 317.101 278.597 317.101 278.944H315.714C315.714 278.597 315.714 278.597 315.714 278.25L315.367 277.903H315.02V278.25V278.597L315.367 278.944C315.714 278.944 315.714 279.291 316.06 279.291C316.407 279.291 316.407 279.638 316.407 279.638L316.754 279.984C316.754 279.984 316.754 280.331 316.754 280.678C316.754 281.025 316.754 281.372 316.407 281.719C316.06 282.066 315.714 282.066 315.367 282.066V282.76H314.673V282.066C314.326 282.066 313.979 281.719 313.632 281.719C313.285 281.372 313.285 281.025 313.285 280.678H314.326C314.326 281.025 314.326 281.025 314.326 281.372L314.673 281.719H315.02C315.714 281.719 315.714 281.372 315.714 281.372Z" fill="white"/>
<path d="M315.714 287.964V287.617L315.367 287.27C315.02 287.27 315.02 286.923 314.673 286.923C314.326 286.923 314.326 286.576 314.326 286.576L313.979 286.229C313.979 286.229 313.979 285.882 313.979 285.536C313.979 285.189 313.979 284.842 314.326 284.495C314.673 284.148 315.02 284.148 315.367 284.148V283.454H315.714V284.495C316.06 284.495 316.407 284.842 316.754 284.842C317.101 285.189 317.101 285.536 317.101 285.882H315.714C315.714 285.536 315.714 285.536 315.714 285.189L315.367 284.842H315.02V285.189V285.536L315.367 285.882C315.714 285.882 315.714 286.229 316.06 286.229C316.407 286.229 316.407 286.576 316.407 286.576L316.754 286.923C316.754 286.923 316.754 287.27 316.754 287.617C316.754 287.964 316.754 288.311 316.407 288.658C316.06 289.005 315.714 289.005 315.367 289.005V289.698H314.673V289.005C314.326 289.005 313.979 288.658 313.632 288.658C313.285 288.311 313.285 287.964 313.285 287.617H314.326C314.326 287.964 314.326 287.964 314.326 288.311L314.673 288.658H315.02C315.714 288.311 315.714 287.964 315.714 287.964Z" fill="white"/>
<path d="M315.714 294.555C315.714 294.208 315.714 294.208 315.714 294.208L315.367 293.861C315.02 293.861 315.02 293.514 314.673 293.514C314.326 293.514 314.326 293.167 314.326 293.167L313.979 292.82C313.979 292.82 313.979 292.473 313.979 292.126C313.979 291.779 313.979 291.433 314.326 291.086C314.673 290.739 315.02 290.739 315.367 290.739V290.045H315.714V290.739C316.06 290.739 316.407 291.086 316.754 291.086C317.101 291.433 317.101 291.779 317.101 292.126H315.714C315.714 291.779 315.714 291.779 315.714 291.433L315.367 291.086H315.02V291.433V291.779L315.367 292.126C315.714 292.126 315.714 292.473 316.06 292.473C316.407 292.473 316.407 292.82 316.407 292.82L316.754 293.167C316.754 293.167 316.754 293.514 316.754 293.861C316.754 294.208 316.754 294.555 316.407 294.902C316.06 295.249 315.714 295.249 315.367 295.249V295.942H314.673V295.249C314.326 295.249 313.979 294.902 313.632 294.902C313.285 294.902 313.285 294.208 313.285 293.861H314.326C314.326 294.208 314.326 294.208 314.326 294.555L314.673 294.902H315.02C315.714 294.902 315.714 294.902 315.714 294.555Z" fill="white"/>
<path d="M319.876 257.436H310.51V276.862H319.876V257.436Z" fill="#FF991E"/>
<path d="M315.714 261.599V261.252L315.367 260.905C315.02 260.905 315.02 260.558 314.673 260.558C314.326 260.558 314.326 260.211 314.326 260.211L313.979 259.864C313.979 259.864 313.979 259.517 313.979 259.17C313.979 258.823 313.979 258.477 314.326 258.13C314.673 257.783 315.02 257.783 315.367 257.783V257.089H315.714V257.783C316.06 257.783 316.407 258.13 316.754 258.13C317.101 258.477 317.101 258.823 317.101 259.17H315.714C315.714 258.823 315.714 258.823 315.714 258.477L315.367 258.13H315.02V258.477V258.823L315.367 259.17C315.714 259.17 315.714 259.517 316.06 259.517C316.407 259.517 316.407 259.864 316.407 259.864L316.754 260.211C316.754 260.211 316.754 260.558 316.754 260.905C316.754 261.252 316.754 261.599 316.407 261.946C316.06 262.293 315.714 262.292 315.367 262.292V263.68H314.673V262.986C314.326 262.986 313.979 262.639 313.632 262.639C313.285 262.292 313.285 261.946 313.285 261.599H314.326C314.326 261.946 314.326 261.946 314.326 262.292L314.673 262.639H315.02C315.714 261.946 315.714 261.946 315.714 261.599Z" fill="white"/>
<path d="M315.714 268.19C315.714 267.844 315.714 267.844 315.714 267.844L315.367 267.497C315.02 267.497 315.02 267.15 314.673 267.15C314.326 267.15 314.326 266.803 314.326 266.803L313.979 266.456C313.979 266.456 313.979 266.109 313.979 265.762C313.979 265.415 313.979 265.068 314.326 264.721C314.673 264.374 315.02 264.374 315.367 264.374V263.681H315.714V264.374C316.06 264.374 316.407 264.721 316.754 264.721C317.101 265.068 317.101 265.415 317.101 265.762H315.714C315.714 265.415 315.714 265.415 315.714 265.068L315.367 264.721H315.02V265.068V265.415L315.367 265.762C315.714 265.762 315.714 266.109 316.06 266.109C316.407 266.109 316.407 266.456 316.407 266.456L316.754 266.803C316.754 266.803 316.754 267.15 316.754 267.497C316.754 267.844 316.754 268.19 316.407 268.537C316.06 268.884 315.714 268.884 315.367 268.884V269.578H314.673V268.884C314.326 268.884 313.979 268.537 313.632 268.537C313.285 268.537 313.285 267.844 313.285 267.497H314.326C314.326 267.844 314.326 267.844 314.326 268.19L314.673 268.537H315.02C315.714 268.537 315.714 268.537 315.714 268.19Z" fill="white"/>
<path d="M315.714 275.128C315.714 274.781 315.714 274.781 315.714 274.781L315.367 274.434C315.02 274.434 315.02 274.087 314.673 274.087C314.326 274.087 314.326 273.74 314.326 273.74L313.979 273.393C313.979 273.393 313.979 273.047 313.979 272.7C313.979 272.353 313.979 272.006 314.326 271.659C314.673 271.312 315.02 271.312 315.367 271.312V270.618H315.714V271.312C316.06 271.312 316.407 271.659 316.754 271.659C317.101 272.006 317.101 272.353 317.101 272.7H315.714C315.714 272.353 315.714 272.353 315.714 272.006L315.367 271.659H315.02V272.006V272.353L315.367 272.7C315.714 272.7 315.714 273.047 316.06 273.047C316.407 273.047 316.407 273.393 316.407 273.393L316.754 273.74C316.754 273.74 316.754 274.087 316.754 274.434C316.754 274.781 316.754 275.128 316.407 275.475C316.06 275.822 315.714 275.822 315.367 275.822V276.516H314.673V275.822C314.326 275.822 313.979 275.475 313.632 275.475C313.285 275.475 313.285 274.781 313.285 274.434H314.326C314.326 274.781 314.326 274.781 314.326 275.128L314.673 275.475H315.02C315.714 275.475 315.714 275.128 315.714 275.128Z" fill="white"/>
<path d="M381.973 237.661H254.311V257.435H381.973V237.661Z" fill="#79E2F3"/>
<path d="M381.973 241.477H254.311V243.558H381.973V241.477Z" fill="white"/>
<path d="M381.973 246.334H254.311V248.415H381.973V246.334Z" fill="white"/>
<path d="M381.973 251.19H254.311V253.272H381.973V251.19Z" fill="white"/>
<path d="M373.994 217.888H246.331V237.662H373.994V217.888Z" fill="#79E2F3"/>
<path d="M373.994 222.051H246.331V224.132H373.994V222.051Z" fill="white"/>
<path d="M373.994 226.907H246.331V228.989H373.994V226.907Z" fill="white"/>
<path d="M373.994 231.764H246.331V233.845H373.994V231.764Z" fill="white"/>
<path d="M319.876 237.661H310.51V257.088H319.876V237.661Z" fill="#FF991E"/>
<path d="M315.714 241.824V241.477L315.367 241.13C315.02 241.13 315.02 240.784 314.673 240.784C314.326 240.784 314.326 240.437 314.326 240.437L313.979 240.09C313.979 240.09 313.979 239.743 313.979 239.396C313.979 239.049 313.979 238.702 314.326 238.355C314.673 238.008 315.02 238.008 315.367 238.008V237.314H315.714V238.008C316.06 238.008 316.407 238.355 316.754 238.355C317.101 238.702 317.101 239.049 317.101 239.396H315.714C315.714 239.049 315.714 239.049 315.714 238.702L315.367 238.355H315.02V238.702V239.049L315.367 239.396C315.714 239.396 315.714 239.743 316.06 239.743C316.407 239.743 316.407 240.09 316.407 240.09L316.754 240.437C316.754 240.437 316.754 240.784 316.754 241.13C316.754 241.477 316.754 241.824 316.407 242.171C316.06 242.518 315.714 242.518 315.367 242.518V243.212H314.673V242.518C314.326 242.518 313.979 242.171 313.632 242.171C313.285 241.824 313.285 241.477 313.285 241.13H314.326C314.326 241.477 314.326 241.477 314.326 241.824L314.673 242.171H315.02C315.714 242.171 315.714 242.171 315.714 241.824Z" fill="white"/>
<path d="M315.713 248.415C315.713 248.068 315.713 248.068 315.713 248.068L315.366 247.721C315.019 247.721 315.019 247.374 314.673 247.374C314.326 247.374 314.326 247.027 314.326 247.027L313.979 246.681C313.979 246.681 313.979 246.334 313.979 245.987C313.979 245.64 313.979 245.293 314.326 244.946C314.673 244.599 315.019 244.599 315.366 244.599V243.905H315.713V244.599C316.06 244.599 316.407 244.946 316.754 244.946C317.101 245.293 317.101 245.64 317.101 245.987H315.713C315.713 245.64 315.713 245.64 315.713 245.293L315.366 244.946H315.019V245.293V245.64L315.366 245.987C315.713 245.987 315.713 246.334 316.06 246.334C316.407 246.334 316.407 246.681 316.407 246.681L316.754 247.027C316.754 247.027 316.754 247.374 316.754 247.721C316.754 248.068 316.754 248.415 316.407 248.762C316.407 249.803 316.06 249.803 315.713 249.803V250.497H315.019V249.803C314.673 249.803 314.326 249.456 313.979 249.456C313.632 249.456 313.632 248.762 313.632 248.415H314.673C314.673 248.762 314.673 248.762 314.673 249.109L315.019 249.456H315.366C315.713 248.762 315.713 248.762 315.713 248.415Z" fill="white"/>
<path d="M315.714 255.354C315.714 255.007 315.714 255.007 315.714 255.007L315.367 254.66C315.02 254.66 315.02 254.313 314.673 254.313C314.326 254.313 314.326 253.966 314.326 253.966L313.979 253.619C313.979 253.619 313.979 253.272 313.979 252.925C313.979 252.578 313.979 252.231 314.326 251.884C314.673 251.538 315.02 251.538 315.367 251.538V250.844H315.714V251.538C316.06 251.538 316.407 251.884 316.754 251.884C317.101 252.231 317.101 252.578 317.101 252.925H315.714C315.714 252.578 315.714 252.578 315.714 252.231L315.367 251.884H315.02V252.231V252.578L315.367 252.925C315.714 252.925 315.714 253.272 316.06 253.272C316.407 253.272 316.407 253.619 316.407 253.619L316.754 253.966C316.754 253.966 316.754 254.313 316.754 254.66C316.754 255.007 316.754 255.354 316.407 255.7C316.06 256.047 315.714 256.047 315.367 256.047V256.741H314.673V256.047C314.326 256.047 313.979 255.7 313.632 255.7C313.285 255.7 313.285 255.007 313.285 254.66H314.326C314.326 255.007 314.326 255.007 314.326 255.354L314.673 255.7H315.02C315.714 255.354 315.714 255.354 315.714 255.354Z" fill="white"/>
<path d="M315.02 218.234H305.653V237.661H315.02V218.234Z" fill="#FF991E"/>
<path d="M310.857 222.398C310.857 222.051 310.857 222.051 310.857 222.051L310.51 221.704C310.163 221.704 310.163 221.357 309.816 221.357C309.469 221.357 309.469 221.01 309.469 221.01L309.122 220.663C309.122 220.663 309.122 220.316 309.122 219.969C309.122 219.622 309.122 219.275 309.469 218.928C309.816 218.582 310.163 218.582 310.51 218.582V217.888H311.204V218.582C311.55 218.582 311.897 218.928 312.244 218.928C312.591 219.275 312.591 219.622 312.591 219.969H311.55C311.55 219.622 311.55 219.622 311.55 219.275L311.204 218.928H310.857V219.275V219.622L311.204 219.969C311.55 219.969 311.55 220.316 311.897 220.316C312.244 220.316 312.244 220.663 312.244 220.663L312.591 221.01C312.591 221.01 312.591 221.357 312.591 221.704C312.591 222.051 312.591 222.398 312.244 222.744C311.897 223.091 311.55 223.091 311.204 223.091V223.785H310.51V223.091C310.163 223.091 309.816 222.744 309.469 222.744C309.122 222.744 309.122 222.051 309.122 221.704H310.163C310.163 222.051 310.163 222.051 310.163 222.398L310.51 222.744H310.857V222.398Z" fill="white"/>
<path d="M310.857 228.989C310.857 228.642 310.857 228.642 310.857 228.642L310.51 228.296C310.163 228.296 310.163 227.949 309.816 227.949C309.469 227.949 309.469 227.602 309.469 227.602L309.122 227.255C309.122 227.255 309.122 226.908 309.122 226.561C309.122 226.214 309.122 225.867 309.469 225.52C309.816 225.173 310.163 225.173 310.51 225.173V224.479H311.204V225.52C311.55 225.52 311.897 225.867 312.244 225.867C312.591 226.214 312.591 226.561 312.591 226.908H311.55C311.55 226.561 311.55 226.561 311.55 226.214L311.204 225.867H310.857V226.214V226.561L311.204 226.908C311.55 226.908 311.55 227.255 311.897 227.255C312.244 227.255 312.244 227.602 312.244 227.602L312.591 227.949C312.591 227.949 312.591 228.296 312.591 228.642C312.591 228.989 312.591 229.336 312.244 229.683C311.897 230.03 311.55 230.03 311.204 230.03V230.724H310.51V230.03C310.163 230.03 309.816 229.683 309.469 229.683C309.122 229.683 309.122 228.989 309.122 228.642H310.163C310.163 228.989 310.163 228.989 310.163 229.336L310.51 229.683H310.857C310.857 229.336 310.857 229.336 310.857 228.989Z" fill="white"/>
<path d="M310.857 235.58C310.857 235.233 310.857 235.233 310.857 235.233L310.51 234.886C310.163 234.886 310.163 234.539 309.816 234.539C309.469 234.539 309.469 234.192 309.469 234.192L309.122 233.846C309.122 233.846 309.122 233.499 309.122 233.152C309.122 232.805 309.122 232.458 309.469 232.111C309.816 231.764 310.163 231.764 310.51 231.764V231.07H311.204V231.764C311.55 231.764 311.897 232.111 312.244 232.111C312.591 232.111 312.591 232.805 312.591 233.152H311.55C311.55 232.805 311.55 232.805 311.55 232.458L311.204 232.111H310.857V232.458V232.805L311.204 233.152C311.204 233.152 311.55 233.499 311.897 233.499C312.244 233.499 312.244 233.846 312.244 233.846L312.591 234.192C312.591 234.192 312.591 234.539 312.591 234.886C312.591 235.233 312.591 235.58 312.244 235.927C311.897 236.274 311.55 236.274 311.204 236.274V236.968H310.51V236.274C310.163 236.274 309.816 235.927 309.469 235.927C309.122 235.58 309.122 235.233 309.122 234.886H310.163C310.163 235.233 310.163 235.233 310.163 235.58L310.51 235.927H310.857C310.857 235.927 310.857 235.927 310.857 235.58Z" fill="white"/>
<path d="M237.312 316.062H109.649V335.836H237.312V316.062Z" fill="#00C7E5"/>
<path d="M237.312 320.226H109.649V322.307H237.312V320.226Z" fill="#B3F5FF"/>
<path d="M237.312 325.082H109.649V327.164H237.312V325.082Z" fill="#B3F5FF"/>
<path d="M237.312 329.938H109.649V332.02H237.312V329.938Z" fill="#B3F5FF"/>
<path d="M237.312 296.636H109.649V316.41H237.312V296.636Z" fill="#00C7E5"/>
<path d="M237.312 300.451H109.649V302.533H237.312V300.451Z" fill="#B3F5FF"/>
<path d="M237.312 305.309H109.649V307.39H237.312V305.309Z" fill="#B3F5FF"/>
<path d="M237.312 310.165H109.649V312.246H237.312V310.165Z" fill="#B3F5FF"/>
<path d="M237.312 277.209H109.649V296.983H237.312V277.209Z" fill="#00C7E5"/>
<path d="M237.312 281.024H109.649V283.106H237.312V281.024Z" fill="#B3F5FF"/>
<path d="M237.312 285.882H109.649V287.963H237.312V285.882Z" fill="#B3F5FF"/>
<path d="M237.312 290.738H109.649V292.82H237.312V290.738Z" fill="#B3F5FF"/>
<path d="M178.338 316.409H168.972V335.836H178.338V316.409Z" fill="#FF991E"/>
<path d="M174.175 320.572C174.175 320.225 174.175 320.225 174.175 320.225L173.828 319.878C173.481 319.878 173.481 319.532 173.134 319.532C172.788 319.532 172.788 319.185 172.788 319.185L172.441 318.838C172.441 318.838 172.441 318.491 172.441 318.144C172.441 317.797 172.441 317.45 172.788 317.103C173.134 316.756 173.481 316.756 173.828 316.756V316.062H174.522V316.756C174.869 316.756 175.216 317.103 175.563 317.103C175.91 317.45 175.91 317.797 175.91 318.144H174.869C174.869 317.797 174.869 317.797 174.869 317.45L174.522 317.103H174.175V317.45V317.797L174.522 318.144C174.869 318.144 174.869 318.491 175.216 318.491C175.563 318.491 175.563 318.838 175.563 318.838L175.91 319.185C175.91 319.185 175.91 319.532 175.91 319.878C175.91 320.225 175.91 320.572 175.563 320.919C175.216 321.266 174.869 321.266 174.522 321.266V321.96H173.481V321.266C173.134 321.266 172.788 320.919 172.441 320.919C172.094 320.572 172.094 320.225 172.094 319.878H173.134C173.134 320.225 173.134 320.225 173.134 320.572L173.481 320.919H173.828C174.175 320.572 174.175 320.572 174.175 320.572Z" fill="#B3F5FF"/>
<path d="M174.175 327.164C174.175 326.817 174.175 326.817 174.175 326.817L173.828 326.47C173.481 326.47 173.481 326.123 173.134 326.123C172.788 326.123 172.788 325.776 172.788 325.776L172.441 325.43C172.441 325.43 172.441 325.083 172.441 324.736C172.441 324.389 172.441 324.042 172.788 323.695C173.134 323.348 173.481 323.348 173.828 323.348V322.654H174.522V323.348C174.869 323.348 175.216 323.695 175.563 323.695C175.91 324.042 175.91 324.389 175.91 324.736H174.869C174.869 324.389 174.869 324.389 174.869 324.042L174.522 323.695H174.175V324.042V324.389L174.522 324.736C174.869 324.736 174.869 325.083 175.216 325.083C175.563 325.083 175.563 325.43 175.563 325.43L175.91 325.776C175.91 325.776 175.91 326.123 175.91 326.47C175.91 326.817 175.91 327.164 175.563 327.511C175.216 327.858 174.869 327.858 174.522 327.858V328.552H173.481V327.858C173.134 327.858 172.788 327.511 172.441 327.511C172.094 327.164 172.094 326.817 172.094 326.47H173.134C173.134 326.817 173.134 326.817 173.134 327.164L173.481 327.511H173.828C174.175 327.511 174.175 327.164 174.175 327.164Z" fill="#B3F5FF"/>
<path d="M174.175 333.755C174.175 333.408 174.175 333.408 174.175 333.408L173.828 333.061C173.481 333.061 173.481 333.061 173.134 332.714C172.788 332.714 172.788 332.367 172.788 332.367L172.441 332.02C172.441 332.02 172.441 331.673 172.441 331.326C172.441 330.979 172.441 330.633 172.788 330.286C173.134 329.939 173.481 329.939 173.828 329.939V329.592H174.522V330.286C174.869 330.286 175.216 330.633 175.563 330.633C175.91 330.979 175.91 331.326 175.91 331.673H174.869C174.869 331.326 174.869 331.326 174.869 330.979L174.522 330.633H174.175V330.979V331.326L174.522 331.673C174.869 331.673 174.869 332.02 175.216 332.02C175.563 332.02 175.563 332.367 175.563 332.367L175.91 332.714C175.91 332.714 175.91 333.061 175.91 333.408C175.91 333.755 175.91 334.102 175.563 334.449C175.216 334.795 174.869 334.795 174.522 334.795V335.489H173.481V334.795C173.134 334.795 172.788 334.449 172.441 334.449C172.094 334.102 172.094 333.755 172.094 333.408H173.134C173.134 333.755 173.134 333.755 173.134 334.102L173.481 334.449H173.828C174.175 334.102 174.175 334.102 174.175 333.755Z" fill="#B3F5FF"/>
<path d="M178.337 296.636H168.971V316.063H178.337V296.636Z" fill="#FF991E"/>
<path d="M174.174 301.146C174.174 300.799 174.174 300.799 174.174 300.799L173.827 300.452C173.48 300.452 173.48 300.105 173.134 300.105C172.787 300.105 172.787 299.758 172.787 299.758L172.44 299.411C172.44 299.411 172.44 299.064 172.44 298.717C172.44 298.37 172.44 298.023 172.787 297.676C173.134 297.33 173.48 297.33 173.827 297.33V296.636H174.521V297.33C174.868 297.33 175.215 297.676 175.562 297.676C175.909 298.023 175.909 298.37 175.909 298.717H174.868C174.868 298.37 174.868 298.37 174.868 298.023L174.521 297.676H174.174V298.023V298.37L174.521 298.717C174.868 298.717 174.868 299.064 175.215 299.064C175.562 299.064 175.562 299.411 175.562 299.411L175.909 299.758C175.909 299.758 175.909 300.105 175.909 300.452C175.909 300.799 175.909 301.146 175.562 301.492C175.215 301.839 174.868 301.839 174.521 301.839V302.533H173.48V301.839C173.134 301.839 172.787 301.492 172.44 301.492C172.093 301.146 172.093 300.799 172.093 300.452H173.134C173.134 300.799 173.134 300.799 173.134 301.146L173.48 301.492H173.827C174.174 301.146 174.174 301.146 174.174 301.146Z" fill="#B3F5FF"/>
<path d="M174.174 307.736V307.389L173.827 307.043C173.48 307.043 173.48 306.696 173.134 306.696C172.787 306.696 172.787 306.349 172.787 306.349L172.44 306.002C172.44 306.002 172.44 305.655 172.44 305.308C172.44 304.961 172.44 304.614 172.787 304.267C173.134 303.92 173.48 303.92 173.827 303.92V303.227H174.521V303.92C174.868 303.92 175.215 304.267 175.562 304.267C175.909 304.614 175.909 304.961 175.909 305.308H174.868C174.868 304.961 174.868 304.961 174.868 304.614L174.521 304.267H174.174V304.614V304.961L174.521 305.308C174.868 305.308 174.868 305.655 175.215 305.655C175.562 305.655 175.562 306.002 175.562 306.002L175.909 306.349C175.909 306.349 175.909 306.696 175.909 307.043C175.909 307.389 175.909 307.736 175.562 308.083C175.215 308.43 174.868 308.43 174.521 308.43V309.124H173.48V308.43C173.134 308.43 172.787 308.083 172.44 308.083C172.093 307.736 172.093 307.389 172.093 307.043H173.134C173.134 307.389 173.134 307.389 173.134 307.736L173.48 308.083H173.827L174.174 307.736Z" fill="#B3F5FF"/>
<path d="M174.174 314.328V313.981L173.827 313.634C173.48 313.634 173.48 313.287 173.134 313.287C172.787 313.287 172.787 312.941 172.787 312.941L172.44 312.594C172.44 312.594 172.44 312.247 172.44 311.9C172.44 311.553 172.44 311.206 172.787 310.859C173.134 310.512 173.48 310.512 173.827 310.512V309.818H174.521V310.512C174.868 310.512 175.215 310.859 175.562 310.859C175.909 311.206 175.909 311.553 175.909 311.9H174.868C174.868 311.553 174.868 311.553 174.868 311.206L174.521 310.859H174.174V311.206V311.553L174.521 311.9C174.868 311.9 174.868 312.247 175.215 312.247C175.562 312.247 175.562 312.594 175.562 312.594L175.909 312.941C175.909 312.941 175.909 313.287 175.909 313.634C175.909 313.981 175.909 314.328 175.562 314.675C175.215 315.022 174.868 315.022 174.521 315.022V315.716H173.48C173.134 315.716 172.787 315.369 172.44 315.369C172.093 315.022 172.093 314.675 172.093 314.328H173.134C173.134 314.675 173.134 314.675 173.134 315.022L173.48 315.369H173.827C174.174 314.675 174.174 314.675 174.174 314.328Z" fill="#B3F5FF"/>
<path d="M178.338 277.209H168.972V296.636H178.338V277.209Z" fill="#FF991E"/>
<path d="M174.175 281.372C174.175 281.025 174.175 281.025 174.175 281.025L173.828 280.678C173.481 280.678 173.481 280.331 173.134 280.331C172.788 280.331 172.788 279.984 172.788 279.984L172.441 279.638C172.441 279.638 172.441 279.291 172.441 278.944C172.441 278.597 172.441 278.25 172.788 277.903C173.134 277.556 173.481 277.556 173.828 277.556V276.862H174.522V277.556C174.869 277.556 175.216 277.903 175.563 277.903C175.91 278.25 175.91 278.597 175.91 278.944H174.869C174.869 278.597 174.869 278.597 174.869 278.25L174.522 277.903H174.175V278.25V278.597L174.522 278.944C174.869 278.944 174.869 279.291 175.216 279.291C175.563 279.291 175.563 279.638 175.563 279.638L175.91 279.984C175.91 279.984 175.91 280.331 175.91 280.678C175.91 281.025 175.91 281.372 175.563 281.719C175.216 282.066 174.869 282.066 174.522 282.066V282.76H173.481V282.066C173.134 282.066 172.788 281.719 172.441 281.719C172.094 281.372 172.094 281.025 172.094 280.678H173.134C173.134 281.025 173.134 281.025 173.134 281.372L173.481 281.719H173.828C174.175 281.719 174.175 281.372 174.175 281.372Z" fill="#B3F5FF"/>
<path d="M174.175 287.964V287.617L173.828 287.27C173.481 287.27 173.481 286.923 173.134 286.923C172.788 286.923 172.788 286.576 172.788 286.576L172.441 286.229C172.441 286.229 172.441 285.882 172.441 285.535C172.441 285.188 172.441 284.841 172.788 284.495C172.788 284.495 173.134 284.495 173.481 284.495V283.801H174.175V284.495C174.522 284.495 174.869 284.841 175.216 284.841C175.563 285.188 175.563 285.535 175.563 285.882H174.522C174.522 285.535 174.522 285.535 174.522 285.188L174.175 284.841H173.828V285.188V285.535L174.175 285.882C174.522 285.882 174.522 286.229 174.869 286.229C175.216 286.229 175.216 286.576 175.216 286.576L175.563 286.923C175.563 286.923 175.563 287.27 175.563 287.617C175.563 287.964 175.563 288.311 175.216 288.657C174.869 289.004 174.522 289.004 174.175 289.004V289.698H173.481V289.004C173.134 289.004 172.788 288.657 172.441 288.657C172.094 288.311 172.094 287.964 172.094 287.617H173.134C173.134 287.964 173.134 287.964 173.134 288.311L173.481 288.657H173.828C174.175 288.311 174.175 287.964 174.175 287.964Z" fill="#B3F5FF"/>
<path d="M174.175 294.555C174.175 294.208 174.175 294.208 174.175 294.208L173.828 293.861C173.481 293.861 173.481 293.514 173.134 293.514C172.788 293.514 172.788 293.167 172.788 293.167L172.441 292.82C172.441 292.82 172.441 292.473 172.441 292.126C172.441 291.779 172.441 291.433 172.788 291.086C173.134 290.739 173.481 290.739 173.828 290.739V290.045H174.522V290.739C174.869 290.739 175.216 291.086 175.563 291.086C175.91 291.433 175.91 291.779 175.91 292.126H174.869C174.869 291.779 174.869 291.779 174.869 291.433L174.522 291.086H174.175V291.433V291.779L174.522 292.126C174.869 292.126 174.869 292.473 175.216 292.473C175.563 292.473 175.563 292.82 175.563 292.82L175.91 293.167C175.91 293.167 175.91 293.514 175.91 293.861C175.91 294.208 175.91 294.555 175.563 294.902C175.216 295.249 174.869 295.249 174.522 295.249V295.942H173.481V295.249C173.134 295.249 172.788 294.902 172.441 294.902C172.094 294.555 172.094 294.208 172.094 293.861H173.134C173.134 294.208 173.134 294.208 173.134 294.555L173.481 294.902H173.828C174.175 294.902 174.175 294.902 174.175 294.555Z" fill="#B3F5FF"/>
<path d="M242.516 257.435H114.854V277.208H242.516V257.435Z" fill="#00C7E5"/>
<path d="M242.515 261.25H114.853V263.331H242.515V261.25Z" fill="#B3F5FF"/>
<path d="M242.515 266.454H114.853V268.536H242.515V266.454Z" fill="#B3F5FF"/>
<path d="M242.515 271.311H114.853V273.392H242.515V271.311Z" fill="#B3F5FF"/>
<path d="M185.276 257.435H175.909V276.861H185.276V257.435Z" fill="#FF991E"/>
<path d="M181.113 261.598C181.113 261.251 181.113 261.251 181.113 261.251L180.766 260.904C180.419 260.904 180.419 260.557 180.072 260.557C179.725 260.557 179.725 260.21 179.725 260.21L179.378 259.863C179.378 259.863 179.378 259.516 179.378 259.169C179.378 258.822 179.378 258.476 179.725 258.129C180.072 257.782 180.419 257.782 180.766 257.782V257.088H181.46V257.782C181.807 257.782 182.153 258.129 182.5 258.129C182.847 258.476 182.847 258.822 182.847 259.169H181.807C181.807 258.822 181.807 258.822 181.807 258.476L181.46 258.129H181.113V258.476V258.822L181.46 259.169C181.807 259.169 181.807 259.516 182.153 259.516C182.5 259.516 182.5 259.863 182.5 259.863L182.847 260.21C182.847 260.21 182.847 260.557 182.847 260.904C182.847 261.251 182.847 261.598 182.5 261.945C182.153 262.292 181.807 262.292 181.46 262.292V263.679H180.419V262.985C180.072 262.985 179.725 262.638 179.378 262.638C179.031 262.292 179.031 261.945 179.031 261.598H180.072C180.072 261.945 180.072 261.945 180.072 262.292L180.419 262.638H180.766C181.113 261.945 181.113 261.945 181.113 261.598Z" fill="#B3F5FF"/>
<path d="M181.113 268.536V268.189L180.766 267.842C180.419 267.842 180.419 267.495 180.072 267.495C179.725 267.495 179.725 267.149 179.725 267.149L179.378 266.802C179.378 266.802 179.378 266.455 179.378 266.108C179.378 265.761 179.378 265.414 179.725 265.067C180.072 264.72 180.419 264.72 180.766 264.72V264.026H181.46V264.72C181.807 264.72 182.153 265.067 182.5 265.067C182.847 265.414 182.847 265.761 182.847 266.108H181.807C181.807 265.761 181.807 265.761 181.807 265.414L181.46 265.067H181.113V265.414V265.761L181.46 266.108C181.807 266.108 181.807 266.455 182.153 266.455C182.5 266.455 182.5 266.802 182.5 266.802L182.847 267.149C182.847 267.149 182.847 267.495 182.847 267.842C182.847 268.189 182.847 268.536 182.5 268.883C182.153 269.23 181.807 269.23 181.46 269.23V269.924H180.419V269.23C180.072 269.23 179.725 268.883 179.378 268.883C179.031 268.536 179.031 268.189 179.031 267.842H180.072C180.072 268.189 180.072 268.189 180.072 268.536L180.419 268.883H180.766C181.113 268.536 181.113 268.536 181.113 268.536Z" fill="#B3F5FF"/>
<path d="M181.113 275.127C181.113 274.78 181.113 274.78 181.113 274.78L180.766 274.433C180.419 274.433 180.419 274.086 180.072 274.086C179.725 274.086 179.725 273.739 179.725 273.739L179.378 273.392C179.378 273.392 179.378 273.046 179.378 272.699C179.378 272.352 179.378 272.005 179.725 271.658C180.072 271.311 180.419 271.311 180.766 271.311V270.617H181.46V271.311C181.807 271.311 182.153 271.658 182.5 271.658C182.847 272.005 182.847 272.352 182.847 272.699H181.807C181.807 272.352 181.807 272.352 181.807 272.005L181.46 271.658H181.113V272.005V272.352L181.46 272.699C181.807 272.699 181.807 273.046 182.153 273.046C182.5 273.046 182.5 273.392 182.5 273.392L182.847 273.739C182.847 273.739 182.847 274.086 182.847 274.433C182.847 274.78 182.847 275.127 182.5 275.474C182.153 275.821 181.807 275.821 181.46 275.821V276.515H180.419V275.821C180.072 275.821 179.725 275.474 179.378 275.474C179.031 275.127 179.031 274.78 179.031 274.433H180.072C180.072 274.78 180.072 274.78 180.072 275.127L180.419 275.474H180.766C181.113 275.474 181.113 275.127 181.113 275.127Z" fill="#B3F5FF"/>
<path d="M246.331 238.008H118.669V257.782H246.331V238.008Z" fill="#00C7E5"/>
<path d="M246.331 241.823H118.669V243.905H246.331V241.823Z" fill="#B3F5FF"/>
<path d="M246.331 246.681H118.669V248.762H246.331V246.681Z" fill="#B3F5FF"/>
<path d="M246.331 251.537H118.669V253.619H246.331V251.537Z" fill="#B3F5FF"/>
<path d="M189.091 238.008H179.725V257.435H189.091V238.008Z" fill="#FF991E"/>
<path d="M184.928 242.171C184.928 241.824 184.928 241.824 184.928 241.824L184.581 241.477C184.234 241.477 184.234 241.13 183.887 241.13C183.54 241.13 183.54 240.783 183.54 240.783L183.193 240.436C183.193 240.436 183.193 240.089 183.193 239.743C183.193 239.396 183.193 239.049 183.54 238.702C183.887 238.355 184.234 238.355 184.581 238.355V237.661H185.275V238.355C185.622 238.355 185.969 238.702 186.316 238.702C186.662 239.049 186.662 239.396 186.662 239.743H185.622C185.622 239.396 185.622 239.396 185.622 239.049L185.275 238.702H184.928V239.049V239.396L185.275 239.743C185.622 239.743 185.622 240.089 185.969 240.089C186.316 240.089 186.316 240.436 186.316 240.436L186.662 240.783C186.662 240.783 186.662 241.13 186.662 241.477C186.662 241.824 186.662 242.171 186.316 242.518C185.969 242.865 185.622 242.865 185.275 242.865V243.559H184.581V242.865C184.234 242.865 183.887 242.518 183.54 242.518C183.193 242.171 183.193 241.824 183.193 241.477H183.887C183.887 241.824 183.887 241.824 183.887 242.171L184.234 242.518H184.581C184.928 242.518 184.928 242.171 184.928 242.171Z" fill="#B3F5FF"/>
<path d="M184.928 248.763C184.928 248.416 184.928 248.416 184.928 248.416L184.581 248.069C184.234 248.069 184.234 247.722 183.887 247.722C183.54 247.722 183.54 247.375 183.54 247.375L183.193 247.028C183.193 247.028 183.193 246.681 183.193 246.334C183.193 245.987 183.193 245.641 183.54 245.294C183.887 244.947 184.234 244.947 184.581 244.947V244.253H185.275V244.947C185.622 244.947 185.969 245.294 186.316 245.294C186.662 245.641 186.662 245.987 186.662 246.334H185.622C185.622 245.987 185.622 245.987 185.622 245.641L185.275 245.294H184.928V245.641V245.987L185.275 246.334C185.622 246.334 185.622 246.681 185.969 246.681C186.316 246.681 186.316 247.028 186.316 247.028L186.662 247.375C186.662 247.375 186.662 247.722 186.662 248.069C186.662 248.416 186.662 248.763 186.316 249.11C185.969 249.457 185.622 249.457 185.275 249.457V250.15H184.581V249.457C184.234 249.457 183.887 249.11 183.54 249.11C183.193 248.763 183.193 248.416 183.193 248.069H183.887C183.887 248.416 183.887 248.416 183.887 248.763L184.234 249.11H184.581C184.928 249.11 184.928 249.11 184.928 248.763Z" fill="#B3F5FF"/>
<path d="M184.928 255.7C184.928 255.353 184.928 255.353 184.928 255.353L184.581 255.006C184.234 255.006 184.234 254.66 183.887 254.66C183.54 254.66 183.54 254.313 183.54 254.313L183.194 253.966C183.194 253.966 183.194 253.619 183.194 253.272C183.194 252.925 183.194 252.578 183.54 252.231C183.887 251.884 184.234 251.884 184.581 251.884V251.19H185.275V251.884C185.622 251.884 185.969 252.231 186.316 252.231C186.663 252.578 186.663 252.925 186.663 253.272H185.622C185.622 252.925 185.622 252.925 185.622 252.578L185.275 252.231H184.928V252.578V252.925L185.275 253.272C185.622 253.272 185.622 253.619 185.969 253.619C186.316 253.619 186.316 253.966 186.316 253.966L186.663 254.313C186.663 254.313 186.663 254.66 186.663 255.006C186.663 255.353 186.663 255.7 186.316 256.047C185.622 256.741 185.275 256.741 184.928 256.741V257.435H184.234V256.741C183.887 256.741 183.54 256.394 183.194 256.394C182.847 256.047 182.847 255.7 182.847 255.353H183.887C183.887 255.7 183.887 255.7 183.887 256.047L184.234 256.394H184.581C184.928 255.7 184.928 255.7 184.928 255.7Z" fill="#B3F5FF"/>
<path d="M336.528 342.08H298.368C293.858 342.08 290.389 338.611 290.389 334.101V332.02C290.389 327.51 293.858 324.041 298.368 324.041H336.528C341.037 324.041 344.506 327.51 344.506 332.02V334.101C344.506 338.611 341.037 342.08 336.528 342.08Z" fill="#FFC400"/>
<path d="M336.528 324.041H298.368C293.858 324.041 290.389 320.572 290.389 316.062V313.981C290.389 309.471 293.858 306.002 298.368 306.002H336.528C341.037 306.002 344.506 309.471 344.506 313.981V316.062C344.506 320.572 341.037 324.041 336.528 324.041Z" fill="#FFC400"/>
<path d="M336.528 306.002H298.368C293.858 306.002 290.389 302.533 290.389 298.023V295.942C290.389 291.432 293.858 287.963 298.368 287.963H336.528C341.037 287.963 344.506 291.432 344.506 295.942V298.023C344.506 302.533 341.037 306.002 336.528 306.002Z" fill="#FFC400"/>
<path d="M282.063 342.08H243.903C239.393 342.08 235.924 338.611 235.924 334.101V332.02C235.924 327.51 239.393 324.041 243.903 324.041H282.063C286.573 324.041 290.042 327.51 290.042 332.02V334.101C290.042 338.611 286.573 342.08 282.063 342.08Z" fill="#FFC400"/>
<path d="M282.063 324.041H243.903C239.393 324.041 235.924 320.572 235.924 316.062V313.981C235.924 309.471 239.393 306.002 243.903 306.002H282.063C286.573 306.002 290.042 309.471 290.042 313.981V316.062C290.042 320.572 286.573 324.041 282.063 324.041Z" fill="#FFC400"/>
<path d="M282.063 306.002H243.903C239.393 306.002 235.924 302.533 235.924 298.023V295.942C235.924 291.432 239.393 287.963 243.903 287.963H282.063C286.573 287.963 290.042 291.432 290.042 295.942V298.023C290.042 302.533 286.573 306.002 282.063 306.002Z" fill="#FFC400"/>
<path d="M282.063 287.963H243.903C239.393 287.963 235.924 284.494 235.924 279.984V277.903C235.924 273.393 239.393 269.924 243.903 269.924H282.063C286.573 269.924 290.042 273.393 290.042 277.903V279.984C290.042 284.494 286.573 287.963 282.063 287.963Z" fill="#FFC400"/>
<path d="M231.067 342.08H186.316C183.54 342.08 181.459 339.999 181.459 337.224V328.898C181.459 326.122 183.54 324.041 186.316 324.041H230.72C233.495 324.041 235.577 326.122 235.577 328.898V337.224C235.577 339.999 233.495 342.08 231.067 342.08Z" fill="#FFC400"/>
<path d="M231.761 324.041H185.622C183.54 324.041 181.459 322.307 181.459 319.878V310.165C181.459 308.083 183.194 306.002 185.622 306.002H231.414C233.495 306.002 235.577 307.737 235.577 310.165V319.878C235.577 322.307 233.842 324.041 231.761 324.041Z" fill="#FFC400"/>
<path opacity="0.2" d="M197.07 324.389H192.561V342.428H197.07V324.389Z" fill="white"/>
<path opacity="0.2" d="M189.161 342.081H191.242V324.042H189.161V342.081Z" fill="white"/>
<path opacity="0.2" d="M213.374 324.389H198.457V342.428H213.374V324.389Z" fill="white"/>
<path opacity="0.2" d="M249.453 324.389H244.943V342.428H249.453V324.389Z" fill="white"/>
<path opacity="0.2" d="M241.814 342.081H243.896V324.042H241.814V342.081Z" fill="white"/>
<path opacity="0.2" d="M265.758 324.389H250.841V342.428H265.758V324.389Z" fill="white"/>
<path opacity="0.2" d="M249.453 306.002H244.943V324.041H249.453V306.002Z" fill="white"/>
<path opacity="0.2" d="M241.814 324.268H243.896V306.228H241.814V324.268Z" fill="white"/>
<path opacity="0.2" d="M265.758 306.002H250.841V324.041H265.758V306.002Z" fill="white"/>
<path opacity="0.2" d="M197.07 306.002H192.561V324.041H197.07V306.002Z" fill="white"/>
<path opacity="0.2" d="M189.161 324.268H191.242V306.228H189.161V324.268Z" fill="white"/>
<path opacity="0.2" d="M213.374 306.002H198.457V324.041H213.374V306.002Z" fill="white"/>
<path d="M232.454 322.307C232.454 322.654 232.107 323.001 231.76 323.001C231.413 323.001 231.066 322.654 231.066 322.307V308.431C231.066 308.084 231.413 307.737 231.76 307.737C232.107 307.737 232.454 308.084 232.454 308.431V322.307Z" fill="#FFE381"/>
<path d="M226.558 322.307C226.558 322.654 226.211 323.001 225.864 323.001C225.517 323.001 225.17 322.654 225.17 322.307V308.431C225.17 308.084 225.517 307.737 225.864 307.737C226.211 307.737 226.558 308.084 226.558 308.431V322.307Z" fill="#FFE381"/>
<path d="M220.66 322.307C220.66 322.654 220.313 323.001 219.966 323.001C219.619 323.001 219.272 322.654 219.272 322.307V308.431C219.272 308.084 219.619 307.737 219.966 307.737C220.313 307.737 220.66 308.084 220.66 308.431V322.307Z" fill="#FFE381"/>
<path d="M215.109 322.307C215.109 322.654 214.762 323.001 214.415 323.001C214.069 323.001 213.722 322.654 213.722 322.307V308.431C213.722 308.084 214.069 307.737 214.415 307.737C214.762 307.737 215.109 308.084 215.109 308.431V322.307Z" fill="#FFE381"/>
<path d="M209.212 322.307C209.212 322.654 208.865 323.001 208.518 323.001C208.171 323.001 207.824 322.654 207.824 322.307V308.431C207.824 308.084 208.171 307.737 208.518 307.737C208.865 307.737 209.212 308.084 209.212 308.431V322.307Z" fill="#FFE381"/>
<path d="M203.314 322.307C203.314 322.654 202.967 323.001 202.621 323.001C202.274 323.001 201.927 322.654 201.927 322.307V308.431C201.927 308.084 202.274 307.737 202.621 307.737C202.967 307.737 203.314 308.084 203.314 308.431V322.307Z" fill="#FFE381"/>
<path d="M197.416 322.307C197.416 322.654 197.069 323.001 196.722 323.001C196.375 323.001 196.028 322.654 196.028 322.307V308.431C196.028 308.084 196.375 307.737 196.722 307.737C197.069 307.737 197.416 308.084 197.416 308.431V322.307Z" fill="#FFE381"/>
<path d="M191.519 322.307C191.519 322.654 191.173 323.001 190.826 323.001C190.479 323.001 190.132 322.654 190.132 322.307V308.431C190.132 308.084 190.479 307.737 190.826 307.737C191.173 307.737 191.519 308.084 191.519 308.431V322.307Z" fill="#FFE381"/>
<path d="M185.622 322.307C185.622 322.654 185.275 323.001 184.928 323.001C184.581 323.001 184.234 322.654 184.234 322.307V308.431C184.234 308.084 184.581 307.737 184.928 307.737C185.275 307.737 185.622 308.084 185.622 308.431V322.307Z" fill="#FFE381"/>
<path d="M232.454 340C232.454 340.347 232.107 340.694 231.76 340.694C231.413 340.694 231.066 340.347 231.066 340V326.123C231.066 325.777 231.413 325.43 231.76 325.43C232.107 325.43 232.454 325.777 232.454 326.123V340Z" fill="#FFE381"/>
<path d="M226.558 340C226.558 340.347 226.211 340.694 225.864 340.694C225.517 340.694 225.17 340.347 225.17 340V326.123C225.17 325.777 225.517 325.43 225.864 325.43C226.211 325.43 226.558 325.777 226.558 326.123V340Z" fill="#FFE381"/>
<path d="M220.66 340C220.66 340.347 220.313 340.694 219.966 340.694C219.619 340.694 219.272 340.347 219.272 340V326.123C219.272 325.777 219.619 325.43 219.966 325.43C220.313 325.43 220.66 325.777 220.66 326.123V340Z" fill="#FFE381"/>
<path d="M215.109 340C215.109 340.347 214.762 340.694 214.415 340.694C214.069 340.694 213.722 340.347 213.722 340V326.123C213.722 325.777 214.069 325.43 214.415 325.43C214.762 325.43 215.109 325.777 215.109 326.123V340Z" fill="#FFE381"/>
<path d="M209.212 340C209.212 340.347 208.865 340.694 208.518 340.694C208.171 340.694 207.824 340.347 207.824 340V326.123C207.824 325.777 208.171 325.43 208.518 325.43C208.865 325.43 209.212 325.777 209.212 326.123V340Z" fill="#FFE381"/>
<path d="M203.314 340C203.314 340.347 202.967 340.694 202.621 340.694C202.274 340.694 201.927 340.347 201.927 340V326.123C201.927 325.777 202.274 325.43 202.621 325.43C202.967 325.43 203.314 325.777 203.314 326.123V340Z" fill="#FFE381"/>
<path d="M197.416 340C197.416 340.347 197.069 340.694 196.722 340.694C196.375 340.694 196.028 340.347 196.028 340V326.123C196.028 325.777 196.375 325.43 196.722 325.43C197.069 325.43 197.416 325.777 197.416 326.123V340Z" fill="#FFE381"/>
<path d="M191.519 340C191.519 340.347 191.173 340.694 190.826 340.694C190.479 340.694 190.132 340.347 190.132 340V326.123C190.132 325.777 190.479 325.43 190.826 325.43C191.173 325.43 191.519 325.777 191.519 326.123V340Z" fill="#FFE381"/>
<path d="M185.622 340C185.622 340.347 185.275 340.694 184.928 340.694C184.581 340.694 184.234 340.347 184.234 340V326.123C184.234 325.777 184.581 325.43 184.928 325.43C185.275 325.43 185.622 325.777 185.622 326.123V340Z" fill="#FFE381"/>
<path d="M176.602 342.08H130.81C128.382 342.08 126.647 340.346 126.647 337.917V328.204C126.647 325.776 128.382 324.041 130.81 324.041H176.602C179.031 324.041 180.765 325.776 180.765 328.204V337.917C180.418 340.346 178.684 342.08 176.602 342.08Z" fill="#FFC400"/>
<path opacity="0.2" d="M137.748 324.389H133.238V342.428H137.748V324.389Z" fill="white"/>
<path opacity="0.2" d="M129.912 342.081H131.993V324.042H129.912V342.081Z" fill="white"/>
<path opacity="0.2" d="M154.054 324.389H139.137V342.428H154.054V324.389Z" fill="white"/>
<path d="M176.602 340C176.602 340.347 176.256 340.694 175.909 340.694C175.562 340.694 175.215 340.347 175.215 340V326.123C175.215 325.777 175.562 325.43 175.909 325.43C176.256 325.43 176.602 325.777 176.602 326.123V340Z" fill="#FFE381"/>
<path d="M170.705 340C170.705 340.347 170.358 340.694 170.011 340.694C169.664 340.694 169.317 340.347 169.317 340V326.123C169.317 325.777 169.664 325.43 170.011 325.43C170.358 325.43 170.705 325.777 170.705 326.123V340Z" fill="#FFE381"/>
<path d="M165.155 340C165.155 340.347 164.808 340.694 164.461 340.694C164.114 340.694 163.768 340.347 163.768 340V326.123C163.768 325.777 164.114 325.43 164.461 325.43C164.808 325.43 165.155 325.777 165.155 326.123V340Z" fill="#FFE381"/>
<path d="M159.258 340C159.258 340.347 158.911 340.694 158.564 340.694C158.217 340.694 157.87 340.347 157.87 340V326.123C157.87 325.777 158.217 325.43 158.564 325.43C158.911 325.43 159.258 325.777 159.258 326.123V340Z" fill="#FFE381"/>
<path d="M153.36 340C153.36 340.347 153.013 340.694 152.666 340.694C152.32 340.694 151.973 340.347 151.973 340V326.123C151.973 325.777 152.32 325.43 152.666 325.43C153.013 325.43 153.36 325.777 153.36 326.123V340Z" fill="#FFE381"/>
<path d="M147.463 340C147.463 340.347 147.116 340.694 146.769 340.694C146.422 340.694 146.075 340.347 146.075 340V326.123C146.075 325.777 146.422 325.43 146.769 325.43C147.116 325.43 147.463 325.777 147.463 326.123V340Z" fill="#FFE381"/>
<path d="M141.565 340C141.565 340.347 141.218 340.694 140.872 340.694C140.525 340.694 140.178 340.347 140.178 340V326.123C140.178 325.777 140.525 325.43 140.872 325.43C141.218 325.43 141.565 325.777 141.565 326.123V340Z" fill="#FFE381"/>
<path d="M135.668 340C135.668 340.347 135.321 340.694 134.974 340.694C134.627 340.694 134.28 340.347 134.28 340V326.123C134.28 325.777 134.627 325.43 134.974 325.43C135.321 325.43 135.668 325.777 135.668 326.123V340Z" fill="#FFE381"/>
<path d="M130.117 340C130.117 340.347 129.77 340.694 129.423 340.694C129.076 340.694 128.729 340.347 128.729 340V326.123C128.729 325.777 129.076 325.43 129.423 325.43C129.77 325.43 130.117 325.777 130.117 326.123V340Z" fill="#FFE381"/>
<path d="M287.267 340C287.267 340.347 286.92 340.694 286.573 340.694C286.226 340.694 285.879 340.347 285.879 340V326.123C285.879 325.777 286.226 325.43 286.573 325.43C286.92 325.43 287.267 325.777 287.267 326.123V340Z" fill="#FFE381"/>
<path d="M281.369 340C281.369 340.347 281.022 340.694 280.675 340.694C280.328 340.694 279.981 340.347 279.981 340V326.123C279.981 325.777 280.328 325.43 280.675 325.43C281.022 325.43 281.369 325.777 281.369 326.123V340Z" fill="#FFE381"/>
<path d="M275.472 340C275.472 340.347 275.125 340.694 274.778 340.694C274.431 340.694 274.084 340.347 274.084 340V326.123C274.084 325.777 274.431 325.43 274.778 325.43C275.125 325.43 275.472 325.777 275.472 326.123V340Z" fill="#FFE381"/>
<path d="M269.574 340C269.574 340.347 269.227 340.694 268.88 340.694C268.533 340.694 268.187 340.347 268.187 340V326.123C268.187 325.777 268.533 325.43 268.88 325.43C269.227 325.43 269.574 325.777 269.574 326.123V340Z" fill="#FFE381"/>
<path d="M263.677 340C263.677 340.347 263.33 340.694 262.983 340.694C262.636 340.694 262.289 340.347 262.289 340V326.123C262.289 325.777 262.636 325.43 262.983 325.43C263.33 325.43 263.677 325.777 263.677 326.123V340Z" fill="#FFE381"/>
<path d="M258.126 340C258.126 340.347 257.779 340.694 257.432 340.694C257.085 340.694 256.738 340.347 256.738 340V326.123C256.738 325.777 257.085 325.43 257.432 325.43C257.779 325.43 258.126 325.777 258.126 326.123V340Z" fill="#FFE381"/>
<path d="M252.228 340C252.228 340.347 251.882 340.694 251.535 340.694C251.188 340.694 250.841 340.347 250.841 340V326.123C250.841 325.777 251.188 325.43 251.535 325.43C251.882 325.43 252.228 325.777 252.228 326.123V340Z" fill="#FFE381"/>
<path d="M246.331 340C246.331 340.347 245.984 340.694 245.637 340.694C245.29 340.694 244.943 340.347 244.943 340V326.123C244.943 325.777 245.29 325.43 245.637 325.43C245.984 325.43 246.331 325.777 246.331 326.123V340Z" fill="#FFE381"/>
<path d="M240.434 340C240.434 340.347 240.087 340.694 239.74 340.694C239.393 340.694 239.046 340.347 239.046 340V326.123C239.046 325.777 239.393 325.43 239.74 325.43C240.087 325.43 240.434 325.777 240.434 326.123V340Z" fill="#FFE381"/>
<path d="M287.267 322.307C287.267 322.654 286.92 323.001 286.573 323.001C286.226 323.001 285.879 322.654 285.879 322.307V308.431C285.879 308.084 286.226 307.737 286.573 307.737C286.92 307.737 287.267 308.084 287.267 308.431V322.307Z" fill="#FFE381"/>
<path d="M281.369 322.307C281.369 322.654 281.022 323.001 280.675 323.001C280.328 323.001 279.981 322.654 279.981 322.307V308.431C279.981 308.084 280.328 307.737 280.675 307.737C281.022 307.737 281.369 308.084 281.369 308.431V322.307Z" fill="#FFE381"/>
<path d="M275.472 322.307C275.472 322.654 275.125 323.001 274.778 323.001C274.431 323.001 274.084 322.654 274.084 322.307V308.431C274.084 308.084 274.431 307.737 274.778 307.737C275.125 307.737 275.472 308.084 275.472 308.431V322.307Z" fill="#FFE381"/>
<path d="M269.574 322.307C269.574 322.654 269.227 323.001 268.88 323.001C268.533 323.001 268.187 322.654 268.187 322.307V308.431C268.187 308.084 268.533 307.737 268.88 307.737C269.227 307.737 269.574 308.084 269.574 308.431V322.307Z" fill="#FFE381"/>
<path d="M263.677 322.307C263.677 322.654 263.33 323.001 262.983 323.001C262.636 323.001 262.289 322.654 262.289 322.307V308.431C262.289 308.084 262.636 307.737 262.983 307.737C263.33 307.737 263.677 308.084 263.677 308.431V322.307Z" fill="#FFE381"/>
<path d="M258.126 322.307C258.126 322.654 257.779 323.001 257.432 323.001C257.085 323.001 256.738 322.654 256.738 322.307V308.431C256.738 308.084 257.085 307.737 257.432 307.737C257.779 307.737 258.126 308.084 258.126 308.431V322.307Z" fill="#FFE381"/>
<path d="M252.228 322.307C252.228 322.654 251.882 323.001 251.535 323.001C251.188 323.001 250.841 322.654 250.841 322.307V308.431C250.841 308.084 251.188 307.737 251.535 307.737C251.882 307.737 252.228 308.084 252.228 308.431V322.307Z" fill="#FFE381"/>
<path d="M246.331 322.307C246.331 322.654 245.984 323.001 245.637 323.001C245.29 323.001 244.943 322.654 244.943 322.307V308.431C244.943 308.084 245.29 307.737 245.637 307.737C245.984 307.737 246.331 308.084 246.331 308.431V322.307Z" fill="#FFE381"/>
<path d="M240.434 322.307C240.434 322.654 240.087 323.001 239.74 323.001C239.393 323.001 239.046 322.654 239.046 322.307V308.431C239.046 308.084 239.393 307.737 239.74 307.737C240.087 307.737 240.434 308.084 240.434 308.431V322.307Z" fill="#FFE381"/>
<path opacity="0.2" d="M249.453 270.271H244.943V288.31H249.453V270.271Z" fill="white"/>
<path opacity="0.2" d="M241.814 287.971H243.896V269.931H241.814V287.971Z" fill="white"/>
<path opacity="0.2" d="M265.758 270.271H250.841V288.31H265.758V270.271Z" fill="white"/>
<g opacity="0.2">
<path opacity="0.2" d="M249.452 287.963H244.942V306.002H249.452V287.963Z" fill="white"/>
<path opacity="0.2" d="M241.813 306.285H243.895V288.246H241.813V306.285Z" fill="white"/>
<path opacity="0.2" d="M265.758 287.963H250.841V306.002H265.758V287.963Z" fill="white"/>
</g>
<g opacity="0.2">
<path opacity="0.2" d="M302.878 287.963H298.368V306.002H302.878V287.963Z" fill="white"/>
<path opacity="0.2" d="M295.004 306.285H297.085V288.246H295.004V306.285Z" fill="white"/>
<path opacity="0.2" d="M319.182 287.963H304.265V306.002H319.182V287.963Z" fill="white"/>
</g>
<path opacity="0.2" d="M302.878 306.002H298.368V324.041H302.878V306.002Z" fill="white"/>
<path opacity="0.2" d="M295.004 324.268H297.085V306.228H295.004V324.268Z" fill="white"/>
<path opacity="0.2" d="M319.182 306.002H304.265V324.041H319.182V306.002Z" fill="white"/>
<g opacity="0.2">
<path opacity="0.2" d="M302.878 324.042H298.368V342.081H302.878V324.042Z" fill="white"/>
<path opacity="0.2" d="M295.004 342.25H297.085V324.211H295.004V342.25Z" fill="white"/>
<path opacity="0.2" d="M319.182 324.042H304.265V342.081H319.182V324.042Z" fill="white"/>
</g>
<path d="M287.267 286.228C287.267 286.575 286.92 286.922 286.573 286.922C286.226 286.922 285.879 286.575 285.879 286.228V272.352C285.879 272.005 286.226 271.658 286.573 271.658C286.92 271.658 287.267 272.005 287.267 272.352V286.228Z" fill="#FFE381"/>
<path d="M281.369 286.228C281.369 286.575 281.022 286.922 280.675 286.922C280.328 286.922 279.981 286.575 279.981 286.228V272.352C279.981 272.005 280.328 271.658 280.675 271.658C281.022 271.658 281.369 272.005 281.369 272.352V286.228Z" fill="#FFE381"/>
<path d="M275.472 286.228C275.472 286.575 275.125 286.922 274.778 286.922C274.431 286.922 274.084 286.575 274.084 286.228V272.352C274.084 272.005 274.431 271.658 274.778 271.658C275.125 271.658 275.472 272.005 275.472 272.352V286.228Z" fill="#FFE381"/>
<path d="M269.574 286.228C269.574 286.575 269.227 286.922 268.88 286.922C268.533 286.922 268.187 286.575 268.187 286.228V272.352C268.187 272.005 268.533 271.658 268.88 271.658C269.227 271.658 269.574 272.005 269.574 272.352V286.228Z" fill="#FFE381"/>
<path d="M263.677 286.228C263.677 286.575 263.33 286.922 262.983 286.922C262.636 286.922 262.289 286.575 262.289 286.228V272.352C262.289 272.005 262.636 271.658 262.983 271.658C263.33 271.658 263.677 272.005 263.677 272.352V286.228Z" fill="#FFE381"/>
<g opacity="0.8">
<path opacity="0.8" d="M258.126 286.228C258.126 286.575 257.779 286.922 257.432 286.922C257.085 286.922 256.738 286.575 256.738 286.228V272.352C256.738 272.005 257.085 271.658 257.432 271.658C257.779 271.658 258.126 272.005 258.126 272.352V286.228Z" fill="#FFE381"/>
</g>
<path d="M252.228 286.228C252.228 286.575 251.882 286.922 251.535 286.922C251.188 286.922 250.841 286.575 250.841 286.228V272.352C250.841 272.005 251.188 271.658 251.535 271.658C251.882 271.658 252.228 272.005 252.228 272.352V286.228Z" fill="#FFE381"/>
<path d="M246.331 286.228C246.331 286.575 245.984 286.922 245.637 286.922C245.29 286.922 244.943 286.575 244.943 286.228V272.352C244.943 272.005 245.29 271.658 245.637 271.658C245.984 271.658 246.331 272.005 246.331 272.352V286.228Z" fill="#FFE381"/>
<path d="M240.434 286.228C240.434 286.575 240.087 286.922 239.74 286.922C239.393 286.922 239.046 286.575 239.046 286.228V272.352C239.046 272.005 239.393 271.658 239.74 271.658C240.087 271.658 240.434 272.005 240.434 272.352V286.228Z" fill="#FFE381"/>
<path d="M287.267 304.268C287.267 304.615 286.92 304.962 286.573 304.962C286.226 304.962 285.879 304.615 285.879 304.268V290.739C285.879 290.392 286.226 290.045 286.573 290.045C286.92 290.045 287.267 290.392 287.267 290.739V304.268Z" fill="#FFE381"/>
<path d="M281.369 304.268C281.369 304.615 281.022 304.962 280.675 304.962C280.328 304.962 279.981 304.615 279.981 304.268V290.739C279.981 290.392 280.328 290.045 280.675 290.045C281.022 290.045 281.369 290.392 281.369 290.739V304.268Z" fill="#FFE381"/>
<path d="M275.472 304.268C275.472 304.615 275.125 304.962 274.778 304.962C274.431 304.962 274.084 304.615 274.084 304.268V290.739C274.084 290.392 274.431 290.045 274.778 290.045C275.125 290.045 275.472 290.392 275.472 290.739V304.268Z" fill="#FFE381"/>
<path d="M269.574 304.268C269.574 304.615 269.227 304.962 268.88 304.962C268.533 304.962 268.187 304.615 268.187 304.268V290.739C268.187 290.392 268.533 290.045 268.88 290.045C269.227 290.045 269.574 290.392 269.574 290.739V304.268Z" fill="#FFE381"/>
<path d="M263.677 304.268C263.677 304.615 263.33 304.962 262.983 304.962C262.636 304.962 262.289 304.615 262.289 304.268V290.739C262.289 290.392 262.636 290.045 262.983 290.045C263.33 290.045 263.677 290.392 263.677 290.739V304.268Z" fill="#FFE381"/>
<path d="M258.126 304.268C258.126 304.615 257.779 304.962 257.432 304.962C257.085 304.962 256.738 304.615 256.738 304.268V290.739C256.738 290.392 257.085 290.045 257.432 290.045C257.779 290.045 258.126 290.392 258.126 290.739V304.268Z" fill="#FFE381"/>
<path d="M252.228 304.268C252.228 304.615 251.882 304.962 251.535 304.962C251.188 304.962 250.841 304.615 250.841 304.268V290.739C250.841 290.392 251.188 290.045 251.535 290.045C251.882 290.045 252.228 290.392 252.228 290.739V304.268Z" fill="#FFE381"/>
<path d="M246.331 304.268C246.331 304.615 245.984 304.962 245.637 304.962C245.29 304.962 244.943 304.615 244.943 304.268V290.739C244.943 290.392 245.29 290.045 245.637 290.045C245.984 290.045 246.331 290.392 246.331 290.739V304.268Z" fill="#FFE381"/>
<path d="M240.434 304.268C240.434 304.615 240.087 304.962 239.74 304.962C239.393 304.962 239.046 304.615 239.046 304.268V290.739C239.046 290.392 239.393 290.045 239.74 290.045C240.087 290.045 240.434 290.392 240.434 290.739V304.268Z" fill="#FFE381"/>
<path d="M341.73 304.268C341.73 304.615 341.384 304.962 341.037 304.962C340.69 304.962 340.343 304.615 340.343 304.268V290.739C340.343 290.392 340.69 290.045 341.037 290.045C341.384 290.045 341.73 290.392 341.73 290.739V304.268Z" fill="#FFE381"/>
<path d="M335.833 304.268C335.833 304.615 335.486 304.962 335.139 304.962C334.792 304.962 334.445 304.615 334.445 304.268V290.739C334.445 290.392 334.792 290.045 335.139 290.045C335.486 290.045 335.833 290.392 335.833 290.739V304.268Z" fill="#FFE381"/>
<path d="M330.283 304.268C330.283 304.615 329.936 304.962 329.589 304.962C329.242 304.962 328.896 304.615 328.896 304.268V290.739C328.896 290.392 329.242 290.045 329.589 290.045C329.936 290.045 330.283 290.392 330.283 290.739V304.268Z" fill="#FFE381"/>
<path d="M324.385 304.268C324.385 304.615 324.038 304.962 323.691 304.962C323.344 304.962 322.997 304.615 322.997 304.268V290.739C322.997 290.392 323.344 290.045 323.691 290.045C324.038 290.045 324.385 290.392 324.385 290.739V304.268Z" fill="#FFE381"/>
<path d="M318.487 304.268C318.487 304.615 318.14 304.962 317.793 304.962C317.447 304.962 317.1 304.615 317.1 304.268V290.739C317.1 290.392 317.447 290.045 317.793 290.045C318.14 290.045 318.487 290.392 318.487 290.739V304.268Z" fill="#FFE381"/>
<path d="M312.591 304.268C312.591 304.615 312.244 304.962 311.897 304.962C311.55 304.962 311.203 304.615 311.203 304.268V290.739C311.203 290.392 311.55 290.045 311.897 290.045C312.244 290.045 312.591 290.392 312.591 290.739V304.268Z" fill="#FFE381"/>
<path d="M306.693 304.268C306.693 304.615 306.346 304.962 305.999 304.962C305.653 304.962 305.306 304.615 305.306 304.268V290.739C305.306 290.392 305.653 290.045 305.999 290.045C306.346 290.045 306.693 290.392 306.693 290.739V304.268Z" fill="#FFE381"/>
<path d="M300.796 304.268C300.796 304.615 300.449 304.962 300.102 304.962C299.755 304.962 299.408 304.615 299.408 304.268V290.739C299.408 290.392 299.755 290.045 300.102 290.045C300.449 290.045 300.796 290.392 300.796 290.739V304.268Z" fill="#FFE381"/>
<path d="M295.245 304.268C295.245 304.615 294.898 304.962 294.551 304.962C294.204 304.962 293.857 304.615 293.857 304.268V290.739C293.857 290.392 294.204 290.045 294.551 290.045C294.898 290.045 295.245 290.392 295.245 290.739V304.268Z" fill="#FFE381"/>
<path d="M341.73 322.307C341.73 322.654 341.384 323.001 341.037 323.001C340.69 323.001 340.343 322.654 340.343 322.307V308.431C340.343 308.084 340.69 307.737 341.037 307.737C341.384 307.737 341.73 308.084 341.73 308.431V322.307Z" fill="#FFE381"/>
<path d="M335.833 322.307C335.833 322.654 335.486 323.001 335.139 323.001C334.792 323.001 334.445 322.654 334.445 322.307V308.431C334.445 308.084 334.792 307.737 335.139 307.737C335.486 307.737 335.833 308.084 335.833 308.431V322.307Z" fill="#FFE381"/>
<path d="M330.283 322.307C330.283 322.654 329.936 323.001 329.589 323.001C329.242 323.001 328.896 322.654 328.896 322.307V308.431C328.896 308.084 329.242 307.737 329.589 307.737C329.936 307.737 330.283 308.084 330.283 308.431V322.307Z" fill="#FFE381"/>
<path d="M324.385 322.307C324.385 322.654 324.038 323.001 323.691 323.001C323.344 323.001 322.997 322.654 322.997 322.307V308.431C322.997 308.084 323.344 307.737 323.691 307.737C324.038 307.737 324.385 308.084 324.385 308.431V322.307Z" fill="#FFE381"/>
<path d="M318.487 322.307C318.487 322.654 318.14 323.001 317.793 323.001C317.447 323.001 317.1 322.654 317.1 322.307V308.431C317.1 308.084 317.447 307.737 317.793 307.737C318.14 307.737 318.487 308.084 318.487 308.431V322.307Z" fill="#FFE381"/>
<path d="M312.591 322.307C312.591 322.654 312.244 323.001 311.897 323.001C311.55 323.001 311.203 322.654 311.203 322.307V308.431C311.203 308.084 311.55 307.737 311.897 307.737C312.244 307.737 312.591 308.084 312.591 308.431V322.307Z" fill="#FFE381"/>
<path d="M306.693 322.307C306.693 322.654 306.346 323.001 305.999 323.001C305.653 323.001 305.306 322.654 305.306 322.307V308.431C305.306 308.084 305.653 307.737 305.999 307.737C306.346 307.737 306.693 308.084 306.693 308.431V322.307Z" fill="#FFE381"/>
<path d="M300.796 322.307C300.796 322.654 300.449 323.001 300.102 323.001C299.755 323.001 299.408 322.654 299.408 322.307V308.431C299.408 308.084 299.755 307.737 300.102 307.737C300.449 307.737 300.796 308.084 300.796 308.431V322.307Z" fill="#FFE381"/>
<path d="M295.245 322.307C295.245 322.654 294.898 323.001 294.551 323.001C294.204 323.001 293.857 322.654 293.857 322.307V308.431C293.857 308.084 294.204 307.737 294.551 307.737C294.898 307.737 295.245 308.084 295.245 308.431V322.307Z" fill="#FFE381"/>
<path d="M341.73 340C341.73 340.347 341.384 340.694 341.037 340.694C340.69 340.694 340.343 340.347 340.343 340V326.123C340.343 325.777 340.69 325.43 341.037 325.43C341.384 325.43 341.73 325.777 341.73 326.123V340Z" fill="#FFE381"/>
<path d="M335.833 340C335.833 340.347 335.486 340.694 335.139 340.694C334.792 340.694 334.445 340.347 334.445 340V326.123C334.445 325.777 334.792 325.43 335.139 325.43C335.486 325.43 335.833 325.777 335.833 326.123V340Z" fill="#FFE381"/>
<path d="M330.283 340C330.283 340.347 329.936 340.694 329.589 340.694C329.242 340.694 328.896 340.347 328.896 340V326.123C328.896 325.777 329.242 325.43 329.589 325.43C329.936 325.43 330.283 325.777 330.283 326.123V340Z" fill="#FFE381"/>
<path d="M324.385 340C324.385 340.347 324.038 340.694 323.691 340.694C323.344 340.694 322.997 340.347 322.997 340V326.123C322.997 325.777 323.344 325.43 323.691 325.43C324.038 325.43 324.385 325.777 324.385 326.123V340Z" fill="#FFE381"/>
<path d="M318.487 340C318.487 340.347 318.14 340.694 317.793 340.694C317.447 340.694 317.1 340.347 317.1 340V326.123C317.1 325.777 317.447 325.43 317.793 325.43C318.14 325.43 318.487 325.777 318.487 326.123V340Z" fill="#FFE381"/>
<path d="M312.591 340C312.591 340.347 312.244 340.694 311.897 340.694C311.55 340.694 311.203 340.347 311.203 340V326.123C311.203 325.777 311.55 325.43 311.897 325.43C312.244 325.43 312.591 325.777 312.591 326.123V340Z" fill="#FFE381"/>
<path d="M306.693 340C306.693 340.347 306.346 340.694 305.999 340.694C305.653 340.694 305.306 340.347 305.306 340V326.123C305.306 325.777 305.653 325.43 305.999 325.43C306.346 325.43 306.693 325.777 306.693 326.123V340Z" fill="#FFE381"/>
<path d="M300.796 340C300.796 340.347 300.449 340.694 300.102 340.694C299.755 340.694 299.408 340.347 299.408 340V326.123C299.408 325.777 299.755 325.43 300.102 325.43C300.449 325.43 300.796 325.777 300.796 326.123V340Z" fill="#FFE381"/>
<path d="M295.245 340C295.245 340.347 294.898 340.694 294.551 340.694C294.204 340.694 293.857 340.347 293.857 340V326.123C293.857 325.777 294.204 325.43 294.551 325.43C294.898 325.43 295.245 325.777 295.245 326.123V340Z" fill="#FFE381"/>
<path d="M390.991 342.08H352.831C348.322 342.08 344.853 338.611 344.853 334.101V332.02C344.853 327.51 348.322 324.041 352.831 324.041H390.991C395.501 324.041 398.97 327.51 398.97 332.02V334.101C398.97 338.611 395.501 342.08 390.991 342.08Z" fill="#FFC400"/>
<path d="M390.991 324.041H352.831C348.322 324.041 344.853 320.572 344.853 316.062V313.981C344.853 309.471 348.322 306.002 352.831 306.002H390.991C395.501 306.002 398.97 309.471 398.97 313.981V316.062C398.97 320.572 395.501 324.041 390.991 324.041Z" fill="#FFC400"/>
<path opacity="0.2" d="M357.342 306.002H352.832V324.041H357.342V306.002Z" fill="white"/>
<path opacity="0.2" d="M349.416 324.268H351.497V306.228H349.416V324.268Z" fill="white"/>
<path opacity="0.2" d="M373.3 306.002H358.383V324.041H373.3V306.002Z" fill="white"/>
<g opacity="0.2">
<path opacity="0.2" d="M357.342 324.042H352.832V342.081H357.342V324.042Z" fill="white"/>
<path opacity="0.2" d="M349.416 342.25H351.497V324.211H349.416V342.25Z" fill="white"/>
<path opacity="0.2" d="M373.3 324.042H358.383V342.081H373.3V324.042Z" fill="white"/>
</g>
<path d="M396.196 322.307C396.196 322.654 395.849 323.001 395.502 323.001C395.155 323.001 394.809 322.654 394.809 322.307V308.431C394.809 308.084 395.155 307.737 395.502 307.737C395.849 307.737 396.196 308.084 396.196 308.431V322.307Z" fill="#FFE381"/>
<path d="M390.299 322.307C390.299 322.654 389.952 323.001 389.605 323.001C389.258 323.001 388.911 322.654 388.911 322.307V308.431C388.911 308.084 389.258 307.737 389.605 307.737C389.952 307.737 390.299 308.084 390.299 308.431V322.307Z" fill="#FFE381"/>
<path d="M384.401 322.307C384.401 322.654 384.054 323.001 383.707 323.001C383.361 323.001 383.014 322.654 383.014 322.307V308.431C383.014 308.084 383.361 307.737 383.707 307.737C384.054 307.737 384.401 308.084 384.401 308.431V322.307Z" fill="#FFE381"/>
<path d="M378.504 322.307C378.504 322.654 378.157 323.001 377.81 323.001C377.463 323.001 377.116 322.654 377.116 322.307V308.431C377.116 308.084 377.463 307.737 377.81 307.737C378.157 307.737 378.504 308.084 378.504 308.431V322.307Z" fill="#FFE381"/>
<path d="M372.606 322.307C372.606 322.654 372.259 323.001 371.913 323.001C371.566 323.001 371.219 322.654 371.219 322.307V308.431C371.219 308.084 371.566 307.737 371.913 307.737C372.259 307.737 372.606 308.084 372.606 308.431V322.307Z" fill="#FFE381"/>
<path d="M366.709 322.307C366.709 322.654 366.362 323.001 366.015 323.001C365.668 323.001 365.321 322.654 365.321 322.307V308.431C365.321 308.084 365.668 307.737 366.015 307.737C366.362 307.737 366.709 308.084 366.709 308.431V322.307Z" fill="#FFE381"/>
<path d="M361.158 322.307C361.158 322.654 360.811 323.001 360.464 323.001C360.117 323.001 359.771 322.654 359.771 322.307V308.431C359.771 308.084 360.117 307.737 360.464 307.737C360.811 307.737 361.158 308.084 361.158 308.431V322.307Z" fill="#FFE381"/>
<path d="M355.261 322.307C355.261 322.654 354.914 323.001 354.567 323.001C354.22 323.001 353.873 322.654 353.873 322.307V308.431C353.873 308.084 354.22 307.737 354.567 307.737C354.914 307.737 355.261 308.084 355.261 308.431V322.307Z" fill="#FFE381"/>
<path d="M349.363 322.307C349.363 322.654 349.016 323.001 348.669 323.001C348.322 323.001 347.976 322.654 347.976 322.307V308.431C347.976 308.084 348.322 307.737 348.669 307.737C349.016 307.737 349.363 308.084 349.363 308.431V322.307Z" fill="#FFE381"/>
<path d="M396.196 340C396.196 340.347 395.849 340.694 395.502 340.694C395.155 340.694 394.809 340.347 394.809 340V326.123C394.809 325.777 395.155 325.43 395.502 325.43C395.849 325.43 396.196 325.777 396.196 326.123V340Z" fill="#FFE381"/>
<path d="M390.299 340C390.299 340.347 389.952 340.694 389.605 340.694C389.258 340.694 388.911 340.347 388.911 340V326.123C388.911 325.777 389.258 325.43 389.605 325.43C389.952 325.43 390.299 325.777 390.299 326.123V340Z" fill="#FFE381"/>
<path d="M384.401 340C384.401 340.347 384.054 340.694 383.707 340.694C383.361 340.694 383.014 340.347 383.014 340V326.123C383.014 325.777 383.361 325.43 383.707 325.43C384.054 325.43 384.401 325.777 384.401 326.123V340Z" fill="#FFE381"/>
<path d="M378.504 340C378.504 340.347 378.157 340.694 377.81 340.694C377.463 340.694 377.116 340.347 377.116 340V326.123C377.116 325.777 377.463 325.43 377.81 325.43C378.157 325.43 378.504 325.777 378.504 326.123V340Z" fill="#FFE381"/>
<path d="M372.606 340C372.606 340.347 372.259 340.694 371.913 340.694C371.566 340.694 371.219 340.347 371.219 340V326.123C371.219 325.777 371.566 325.43 371.913 325.43C372.259 325.43 372.606 325.777 372.606 326.123V340Z" fill="#FFE381"/>
<path d="M366.709 340C366.709 340.347 366.362 340.694 366.015 340.694C365.668 340.694 365.321 340.347 365.321 340V326.123C365.321 325.777 365.668 325.43 366.015 325.43C366.362 325.43 366.709 325.777 366.709 326.123V340Z" fill="#FFE381"/>
<path d="M361.158 340C361.158 340.347 360.811 340.694 360.464 340.694C360.117 340.694 359.771 340.347 359.771 340V326.123C359.771 325.777 360.117 325.43 360.464 325.43C360.811 325.43 361.158 325.777 361.158 326.123V340Z" fill="#FFE381"/>
<path d="M355.261 340C355.261 340.347 354.914 340.694 354.567 340.694C354.22 340.694 353.873 340.347 353.873 340V326.123C353.873 325.777 354.22 325.43 354.567 325.43C354.914 325.43 355.261 325.777 355.261 326.123V340Z" fill="#FFE381"/>
<path d="M349.363 340C349.363 340.347 349.016 340.694 348.669 340.694C348.322 340.694 347.976 340.347 347.976 340V326.123C347.976 325.777 348.322 325.43 348.669 325.43C349.016 325.43 349.363 325.777 349.363 326.123V340Z" fill="#FFE381"/>
<path d="M452.048 155.096C447.538 142.261 436.09 133.588 425.336 125.609C405.562 110.692 405.216 94.3874 402.44 93.6936C399.318 92.9998 390.299 125.262 396.543 142.955C401.746 158.566 411.46 167.932 419.439 180.768C431.581 200.542 431.581 234.539 432.274 241.13C431.928 238.008 437.131 233.151 447.538 210.949C461.068 184.584 454.824 163.422 452.048 155.096Z" fill="#57D9A3"/>
<mask id="mask3" mask-type="alpha" maskUnits="userSpaceOnUse" x="406" y="115" width="42" height="118">
<path d="M438.866 232.11C438.866 232.11 438.519 232.11 438.866 232.11C438.519 232.11 438.172 231.763 438.519 231.416C441.988 223.09 452.395 193.603 440.6 165.503C436.091 154.749 427.765 144.689 420.48 136.016C414.235 128.731 408.685 122.14 406.95 116.589C406.95 116.242 406.95 115.896 407.297 115.896C407.644 115.896 407.991 115.896 407.991 116.242C409.725 121.446 414.929 127.69 421.173 135.322C428.459 143.995 437.131 154.055 441.641 165.157C453.436 193.603 443.029 223.437 439.56 231.763C439.213 231.763 438.866 232.11 438.866 232.11Z" fill="url(#paint3_linear)"/>
</mask>
<g mask="url(#mask3)">
<g style="mix-blend-mode:overlay" opacity="0.5">
<path d="M438.866 232.11C438.866 232.11 438.519 232.11 438.866 232.11C438.519 232.11 438.172 231.763 438.519 231.416C441.988 223.09 452.395 193.603 440.6 165.503C436.091 154.749 427.765 144.689 420.48 136.016C414.235 128.731 408.685 122.14 406.95 116.589C406.95 116.242 406.95 115.896 407.297 115.896C407.644 115.896 407.991 115.896 407.991 116.242C409.725 121.446 414.929 127.69 421.173 135.322C428.459 143.995 437.131 154.055 441.641 165.157C453.436 193.603 443.029 223.437 439.56 231.763C439.213 231.763 438.866 232.11 438.866 232.11Z" fill="#172B4D"/>
</g>
</g>
<path d="M131.157 316.756C131.157 316.409 131.157 316.409 131.157 316.062V315.715C131.157 315.715 131.157 315.715 131.157 315.368C131.157 315.021 131.157 315.021 131.157 314.674C131.157 314.327 131.157 314.327 131.157 313.98C131.157 313.633 131.157 313.633 130.81 313.633C130.81 313.287 130.463 313.287 130.463 312.94C130.463 312.94 130.463 312.94 130.463 312.593L126.648 306.695C126.994 307.042 126.994 307.389 127.341 308.083C127.341 308.43 127.688 309.124 127.688 309.471C127.688 309.817 127.688 310.511 127.688 310.858C127.688 311.552 127.688 311.899 127.341 312.593C127.341 313.287 126.994 313.633 126.648 314.327V314.674C126.301 315.021 126.301 315.715 125.954 316.062C125.954 316.409 125.607 316.409 125.607 316.756C125.26 317.103 124.913 317.796 124.913 318.143C124.913 318.49 124.566 318.49 124.566 318.837C124.219 319.531 123.525 320.225 122.832 320.919C121.791 321.959 121.097 323 120.056 324.041L119.709 324.388C118.669 325.428 117.628 326.122 116.587 327.163C115.546 328.204 114.159 328.897 113.118 329.591C111.73 330.285 110.69 330.979 109.302 331.673C107.914 332.367 106.874 333.06 105.486 333.407C104.098 333.754 103.058 334.448 101.67 334.795C100.629 335.142 99.5886 335.142 98.5479 335.489C98.201 335.489 97.8541 335.489 97.5072 335.489C96.4664 335.489 95.4257 335.489 94.385 335.489C92.3035 335.142 90.569 334.795 89.1814 333.754C88.8344 333.407 88.4875 333.06 88.1406 332.713L91.9566 338.611C92.9974 340.345 95.0788 341.386 98.201 341.733C99.2417 341.733 100.282 341.733 101.323 341.733C101.67 341.733 102.017 341.733 102.364 341.733C102.711 341.733 103.058 341.733 103.405 341.733C104.098 341.733 104.792 341.386 105.139 341.386C105.486 341.386 106.18 341.039 106.527 341.039C106.874 341.039 107.568 340.692 107.914 340.692C108.261 340.692 108.608 340.345 108.955 340.345C109.302 340.345 109.649 339.999 109.996 339.999C110.343 339.999 110.69 339.652 111.037 339.652C111.384 339.652 111.73 339.305 112.077 339.305C112.077 339.305 112.424 339.305 112.424 338.958C112.771 338.958 112.771 338.611 113.118 338.611C113.465 338.264 113.812 338.264 114.159 337.917C114.506 337.57 114.853 337.57 115.2 337.223C115.546 336.876 115.893 336.876 116.24 336.529C116.587 336.529 116.587 336.183 116.934 336.183C117.281 335.836 117.628 335.836 117.975 335.489C118.322 335.142 118.669 335.142 119.016 334.795C119.362 334.448 119.709 334.448 119.709 334.101C120.056 333.754 120.403 333.407 120.75 333.06C121.097 332.713 121.444 332.367 122.138 332.02C122.485 331.673 122.832 331.673 122.832 331.326L123.178 330.979L123.525 330.632C124.566 329.938 125.26 328.897 125.954 327.857C126.648 327.163 126.994 326.469 127.688 325.775C127.688 325.428 128.035 325.428 128.035 325.081C128.382 324.735 128.729 324.388 128.729 324.041C128.729 323.694 129.076 323.694 129.076 323.347C129.076 323 129.423 322.653 129.423 322.306V321.959C129.423 321.959 129.423 321.612 129.77 321.612C129.77 321.612 129.77 321.265 130.117 321.265C130.117 320.919 130.463 320.572 130.463 320.225C130.463 319.878 130.463 319.878 130.463 319.531C130.463 319.184 130.463 318.837 130.463 318.837C131.157 317.103 131.157 316.756 131.157 316.756Z" fill="#FFC400"/>
<path d="M120.403 303.92C129.076 304.614 129.77 312.593 122.485 321.266C114.853 330.285 102.017 336.877 93.3446 335.836C84.6718 335.142 83.978 327.163 91.2631 318.49C98.5482 309.818 111.731 303.226 120.403 303.92Z" fill="#FFC400"/>
<path d="M95.4258 333.408C102.711 333.755 113.812 328.204 120.056 320.572C126.301 312.94 125.26 306.349 117.975 305.655C110.69 305.308 99.5887 310.859 93.3443 318.491C87.0999 326.123 88.1407 333.061 95.4258 333.408Z" fill="#FFE381"/>
<path d="M117.975 305.308C125.607 306.001 126.648 312.593 120.056 320.572C113.812 328.55 102.711 334.448 95.079 333.754C87.447 333.06 86.4063 326.469 92.6507 318.49C99.2419 310.858 110.343 304.961 117.975 305.308ZM95.4259 333.407C102.711 333.754 113.812 328.204 120.056 320.572C126.301 312.94 125.26 306.348 117.975 305.654C110.69 305.308 99.5888 310.858 93.3445 318.49C87.1001 326.122 88.1409 333.06 95.4259 333.407Z" fill="white"/>
<path d="M262.636 345.203C280.837 345.203 295.592 330.448 295.592 312.246C295.592 294.045 280.837 279.29 262.636 279.29C244.435 279.29 229.68 294.045 229.68 312.246C229.68 330.448 244.435 345.203 262.636 345.203Z" fill="#FFC400"/>
<path d="M262.636 339.305C277.58 339.305 289.695 327.191 289.695 312.246C289.695 297.302 277.58 285.188 262.636 285.188C247.692 285.188 235.577 297.302 235.577 312.246C235.577 327.191 247.692 339.305 262.636 339.305Z" fill="#FFE381"/>
<path d="M262.636 339.652C247.719 339.652 235.577 327.51 235.577 312.593C235.577 297.676 247.719 285.534 262.636 285.534C277.553 285.534 289.695 297.676 289.695 312.593C289.695 327.163 277.553 339.652 262.636 339.652ZM262.636 285.534C247.719 285.534 235.924 297.676 235.924 312.246C235.924 327.163 248.066 338.958 262.636 338.958C277.553 338.958 289.348 326.816 289.348 312.246C289.348 297.329 277.553 285.534 262.636 285.534Z" fill="white"/>
<path d="M265.757 318.144C265.757 317.103 265.411 316.409 265.064 315.715C264.717 315.021 263.676 314.675 262.288 313.981C260.901 313.634 259.86 312.94 258.819 312.246C257.779 311.552 256.738 311.205 256.044 310.512C255.35 309.818 254.656 309.124 254.31 308.083C253.963 307.043 253.616 306.002 253.616 304.614C253.616 302.533 254.309 300.798 255.697 299.411C257.085 298.023 259.166 297.329 261.595 296.982V292.819H264.717V296.982C267.145 297.329 268.88 298.37 270.267 299.758C271.655 301.492 272.349 303.227 272.349 305.655H265.757C265.757 304.267 265.411 303.227 265.064 302.533C264.717 301.839 263.676 301.492 262.982 301.492C262.288 301.492 261.595 301.839 260.901 302.186C260.554 302.88 260.207 303.573 260.207 304.267C260.207 305.308 260.554 306.002 260.901 306.696C261.595 307.39 262.288 307.736 263.676 308.43C265.064 309.124 266.104 309.471 267.145 310.165C268.186 310.859 269.227 311.206 269.92 311.899C270.614 312.593 271.308 313.287 271.655 314.328C272.002 315.368 272.349 316.409 272.349 317.797C272.349 319.878 271.655 321.96 270.267 323.347C268.88 324.735 266.798 325.429 264.717 325.776V329.592H261.595V325.776C258.819 325.429 256.738 324.388 255.003 323C253.616 321.266 252.922 319.184 252.922 316.409H259.513C259.513 317.797 259.86 318.837 260.554 319.878C261.248 320.572 262.288 320.919 263.329 320.919C264.37 320.919 265.064 320.572 265.411 320.225C265.411 319.531 265.757 318.837 265.757 318.144Z" fill="white"/>
<path d="M214.762 345.203C230.09 345.203 242.515 332.777 242.515 317.45C242.515 302.123 230.09 289.697 214.762 289.697C199.435 289.697 187.01 302.123 187.01 317.45C187.01 332.777 199.435 345.203 214.762 345.203Z" fill="#FFC400"/>
<path d="M237.658 317.45C237.658 329.938 227.251 340.346 214.762 340.346C202.273 340.346 191.866 329.938 191.866 317.45C191.866 304.961 202.273 294.554 214.762 294.554C227.598 294.554 237.658 304.614 237.658 317.45Z" fill="#FFE381"/>
<path d="M214.762 340.346C201.927 340.346 191.52 329.939 191.52 317.103C191.52 304.268 201.927 293.86 214.762 293.86C227.598 293.86 238.005 304.268 238.005 317.103C238.005 329.939 227.598 340.346 214.762 340.346ZM214.762 294.554C202.274 294.554 192.213 304.615 192.213 317.103C192.213 329.592 202.274 339.652 214.762 339.652C227.251 339.652 237.312 329.592 237.312 317.103C237.658 304.961 227.251 294.554 214.762 294.554Z" fill="white"/>
<path d="M217.538 322.307C217.538 321.613 217.191 320.919 216.844 320.225C216.497 319.879 215.803 319.185 214.763 318.838C213.722 318.491 212.681 317.797 211.64 317.45C210.6 317.103 209.906 316.409 209.212 316.063C208.518 315.369 208.171 314.675 207.824 313.981C207.477 313.287 207.131 312.247 207.131 311.206C207.131 309.471 207.824 307.737 208.865 306.696C210.253 305.655 211.64 304.962 213.722 304.615V301.146H216.15V304.615C218.232 304.962 219.619 305.655 221.007 307.043C222.048 308.431 222.741 310.165 222.741 312.247H217.191C217.191 311.206 216.844 310.165 216.497 309.471C216.15 308.777 215.456 308.431 214.763 308.431C214.069 308.431 213.375 308.777 213.028 309.124C212.681 309.471 212.334 310.165 212.334 310.859C212.334 311.553 212.681 312.247 213.028 312.94C213.375 313.287 214.069 313.981 215.109 314.328C216.15 314.675 217.191 315.369 217.885 315.716C218.925 316.063 219.619 316.756 220.313 317.45C221.007 318.144 221.354 318.838 221.701 319.532C222.048 320.225 222.395 321.266 222.395 322.307C222.395 324.041 221.701 325.776 220.66 326.817C219.619 327.857 217.885 328.551 215.803 328.898V332.02H213.375V328.551C210.947 328.204 209.212 327.511 207.824 326.123C206.437 324.735 206.09 323.001 206.09 320.572H211.64C211.64 321.96 211.987 322.654 212.334 323.348C213.028 324.041 213.722 324.388 214.763 324.388C215.456 324.388 216.15 324.041 216.497 323.695C217.191 323.348 217.538 323.001 217.538 322.307Z" fill="white"/>
<defs>
<linearGradient id="paint0_linear" x1="452.588" y1="165.078" x2="422.548" y2="165.078" gradientUnits="userSpaceOnUse">
<stop stop-color="#4D4D4D"/>
<stop offset="1" stop-color="white"/>
</linearGradient>
<linearGradient id="paint1_linear" x1="489.071" y1="209.853" x2="430.099" y2="209.853" gradientUnits="userSpaceOnUse">
<stop stop-color="#4D4D4D"/>
<stop offset="1" stop-color="white"/>
</linearGradient>
<linearGradient id="paint2_linear" x1="413.115" y1="262.727" x2="448.326" y2="264.521" gradientUnits="userSpaceOnUse">
<stop stop-color="#4D4D4D"/>
<stop offset="1" stop-color="white"/>
</linearGradient>
<linearGradient id="paint3_linear" x1="445.536" y1="172.52" x2="410.576" y2="174.885" gradientUnits="userSpaceOnUse">
<stop stop-color="#4D4D4D"/>
<stop offset="1" stop-color="white"/>
</linearGradient>
</defs>
</svg>
