<svg width="100" height="100" viewBox="0 0 100 100" fill="none" xmlns="http://www.w3.org/2000/svg">
<path d="M50 100C77.6142 100 100 77.6142 100 50C100 22.3858 77.6142 0 50 0C22.3858 0 0 22.3858 0 50C0 77.6142 22.3858 100 50 100Z" fill="#B3F5FF"/>
<mask id="mask0" mask-type="alpha" maskUnits="userSpaceOnUse" x="0" y="0" width="100" height="100">
<path d="M50 100C77.6142 100 100 77.6142 100 50C100 22.3858 77.6142 0 50 0C22.3858 0 0 22.3858 0 50C0 77.6142 22.3858 100 50 100Z" fill="#B0F3FF"/>
</mask>
<g mask="url(#mask0)">
<path d="M35.7002 106.4C12.0002 90.9 5.90022 76.6 1.20022 63.9C-2.49978 54 -2.39979 39.2 -2.19979 33C-2.09979 31.4 -0.999791 30.1 0.600209 29.8C17.5002 26.8 35.6002 14.5 35.6002 14.5C35.6002 14.5 53.7002 26.8 70.6002 29.8C72.2002 30.1 73.4002 31.4 73.4002 33C73.6002 39.2 73.7002 54.1 70.0002 63.9C65.5002 76.7 59.4002 90.9 35.7002 106.4Z" fill="#79E2F3"/>
<path d="M31.4003 74.3005C33.5003 79.2005 36.9003 79.2005 39.2003 74.4005C53.9003 44.9005 73.9003 29.8005 80.4003 23.2005C81.7003 21.9005 81.4003 21.5005 79.8003 22.3005C56.3003 34.0005 40.4003 53.0005 36.8003 57.6005C36.4003 58.2005 35.8003 58.1005 35.4003 57.5005L29.8003 46.7005C29.1003 45.1005 27.2003 44.2005 25.5003 44.7005L20.8003 46.1005C19.1003 46.6005 18.3003 48.3005 19.0003 50.0005L31.4003 74.3005Z" fill="#00C7E5"/>
</g>
</svg>
