<svg width="100" height="100" viewBox="0 0 100 100" fill="none" xmlns="http://www.w3.org/2000/svg">
<path d="M50 100C77.6142 100 100 77.6142 100 50C100 22.3858 77.6142 0 50 0C22.3858 0 0 22.3858 0 50C0 77.6142 22.3858 100 50 100Z" fill="#FFE381"/>
<mask id="mask0" mask-type="alpha" maskUnits="userSpaceOnUse" x="0" y="0" width="100" height="100">
<path d="M50 100C77.6142 100 100 77.6142 100 50C100 22.3858 77.6142 0 50 0C22.3858 0 0 22.3858 0 50C0 77.6142 22.3858 100 50 100Z" fill="#FDE180"/>
</mask>
<g mask="url(#mask0)">
<path d="M18.1005 64.8997C16.4005 64.8997 15.1005 63.5997 15.1005 61.8997V60.6997C14.7005 50.5997 22.6005 42.1997 32.7005 41.7997C42.8005 41.3997 51.2005 49.2997 51.6005 59.3997C51.6005 59.7997 51.6005 60.2997 51.6005 60.6997V61.8997C51.6005 63.5997 50.3005 64.8997 48.6005 64.8997H18.1005Z" fill="#FFC400"/>
<path d="M32.7998 23C27.2998 23 22.7998 27.5 22.7998 33C22.7998 38.5 27.2998 43 32.7998 43C38.2998 43 42.7998 38.5 42.7998 33C42.6998 27.5 38.2998 23 32.7998 23Z" fill="#FFC400"/>
<path d="M50.7001 64.8997C49.0001 64.8997 47.7001 63.5997 47.7001 61.8997V60.6997C47.3001 50.5997 55.2001 42.1997 65.3001 41.7997C75.4001 41.3997 83.8001 49.2997 84.2001 59.3997C84.2001 59.7997 84.2001 60.2997 84.2001 60.6997V61.8997C84.2001 63.5997 82.9001 64.8997 81.2001 64.8997H50.7001Z" fill="#FF991E"/>
<path d="M65.4004 23C59.9004 23 55.4004 27.5 55.4004 33C55.4004 38.5 59.9004 43 65.4004 43C70.9004 43 75.4004 38.5 75.4004 33C75.3004 27.5 70.9004 23 65.4004 23Z" fill="#FF991E"/>
<path d="M34.4003 100C32.7003 100 31.4003 98.7003 31.4003 97.0003V95.8003C31.0003 85.7003 38.9003 77.3003 49.0003 76.9003C59.1003 76.5003 67.5003 84.4003 67.9003 94.5003C67.9003 94.9003 67.9003 95.4003 67.9003 95.8003V97.0003C67.9003 98.7003 66.6003 100 64.9003 100H34.4003Z" fill="#FFC400"/>
<path d="M49.0996 58.0996C43.5996 58.0996 39.0996 62.5996 39.0996 68.0996C39.0996 73.5996 43.5996 78.0996 49.0996 78.0996C54.5996 78.0996 59.0996 73.5996 59.0996 68.0996C58.9996 62.5996 54.5996 58.1996 49.0996 58.0996Z" fill="#FFC400"/>
</g>
</svg>
