<svg width="100" height="100" viewBox="0 0 100 100" fill="none" xmlns="http://www.w3.org/2000/svg">
<mask id="mask0" mask-type="alpha" maskUnits="userSpaceOnUse" x="0" y="0" width="100" height="100">
<path d="M50 100C77.6142 100 100 77.6142 100 50C100 22.3858 77.6142 0 50 0C22.3858 0 0 22.3858 0 50C0 77.6142 22.3858 100 50 100Z" fill="#2684FF"/>
</mask>
<g mask="url(#mask0)">
<path d="M50 100C77.6142 100 100 77.6142 100 50C100 22.3858 77.6142 0 50 0C22.3858 0 0 22.3858 0 50C0 77.6142 22.3858 100 50 100Z" fill="#2684FF"/>
<path d="M55.4894 104.929C54.7994 104.929 54.0794 104.909 53.2594 104.859C43.5894 104.279 27.2894 96.9694 27.5394 73.2494C27.5794 69.6994 27.6194 65.6894 21.8194 57.3794C19.6894 54.3094 20.0094 50.8594 22.6294 48.7894C23.7394 47.9094 24.9194 47.4694 26.1394 47.4694C27.4294 47.4694 28.7494 47.9894 29.9594 48.9694C32.3094 50.9994 34.2794 53.4394 35.7794 56.2194L35.8294 56.2994C37.5394 59.1094 38.7794 61.1294 41.3094 61.1294C42.0794 61.1294 42.8994 60.9294 43.9694 60.4994C50.6594 57.7794 67.8594 39.7694 72.9694 34.3094L73.1194 34.1494C74.2794 32.9894 75.8194 32.3594 77.4594 32.3594C79.1094 32.3594 80.6594 32.9994 81.8194 34.1694C82.9794 35.3294 83.6194 36.8794 83.6194 38.5294C83.6194 40.1794 82.9694 41.7194 81.8094 42.8794L70.0294 54.6994L73.2294 55.3394C76.0894 55.9094 78.1594 58.4394 78.1494 61.3494C78.1494 61.9794 78.0294 62.6094 77.8194 63.1994L77.0694 65.2794L79.2694 65.5294C79.5494 65.5594 79.8294 65.6194 80.1094 65.6894C82.9594 66.4694 84.6394 69.4294 83.8594 72.2794L83.3694 74.0594L85.1794 74.4494C86.3394 74.6994 87.3994 75.2794 88.2394 76.1194C90.6494 78.5194 90.6494 82.4394 88.2394 84.8394L85.3394 88.0394L85.2094 88.1994L79.5294 94.4594C73.4894 101.109 64.8794 104.919 55.8894 104.919C55.8694 104.929 55.4894 104.929 55.4894 104.929Z" fill="#015CE6"/>
<path d="M39.0605 60.4395C42.4305 65.1895 40.3005 69.4495 39.0605 71.4195" stroke="#2684FF" stroke-width="2" stroke-miterlimit="10" stroke-linecap="round" stroke-linejoin="round"/>
<path d="M33.5801 94.2103C37.6801 97.8203 46.7001 99.9503 52.7601 89.7803" stroke="#2684FF" stroke-width="2" stroke-miterlimit="10" stroke-linecap="round" stroke-linejoin="round"/>
<path d="M82.4205 88.8599C80.9005 88.8599 79.4705 88.2799 78.3905 87.2199L78.1905 87.0099C76.1105 84.9699 75.9005 81.6399 77.7605 79.3099L77.8205 79.2299L82.8805 74.1699L83.9905 74.3299C85.5805 74.3699 87.1005 75.0199 88.2105 76.1399C90.6105 78.5699 90.5905 82.4999 88.1605 84.8999L85.1905 88.1599L84.8805 88.3099C84.1005 88.6799 83.2705 88.8599 82.4205 88.8599Z" fill="#0047BA"/>
<path d="M74.8299 80.4105C73.3299 80.4105 71.9099 79.8405 70.8299 78.8105L70.5899 78.5705C68.5399 76.4405 68.3899 73.1405 70.2199 70.8605L70.3499 70.7005L70.5099 70.5705C71.1599 70.0705 74.0799 67.7605 75.6199 66.4305L75.7299 66.3405L75.8499 66.2605C76.6899 65.7505 77.6599 65.4805 78.6399 65.4805C79.7999 65.4805 80.9099 65.8505 81.8299 66.5205H81.9099L82.4399 67.0305C84.4199 68.9905 84.5499 72.1905 82.7499 74.3105L82.6799 74.3905L82.5999 74.4605L82.5299 74.5505L77.1599 79.9205L76.7999 80.0505C76.1799 80.2905 75.5099 80.4105 74.8299 80.4105Z" fill="#0047BA"/>
<path d="M68.3607 71.0295C66.7807 71.0295 65.2507 70.3895 64.1407 69.2695L64.0307 69.1595C61.7007 66.8195 61.7007 63.0195 64.0307 60.6895L68.2207 56.4995L68.3207 56.4295C69.3907 55.6195 70.6707 55.1895 72.0107 55.1895C73.6507 55.1895 75.1807 55.8295 76.3407 56.9795C77.5007 58.1295 78.1607 59.7195 78.1507 61.3495L78.1407 61.4795C77.9907 63.3595 77.1307 65.0795 75.7307 66.3295C74.6007 67.3095 72.2807 69.1695 70.5907 70.4995L70.3207 70.7095L69.9907 70.7995C69.4607 70.9495 68.9107 71.0295 68.3607 71.0295Z" fill="#0047BA"/>
<path d="M23.0703 28.0498L35.5203 40.2498" stroke="#015CE6" stroke-width="2" stroke-miterlimit="10" stroke-linecap="round" stroke-linejoin="round"/>
<path d="M38.7305 9.83008L42.8405 26.2601" stroke="#015CE6" stroke-width="2" stroke-miterlimit="10" stroke-linecap="round" stroke-linejoin="round"/>
<path d="M59.8993 16.7598L59.7793 33.6998" stroke="#015CE6" stroke-width="2" stroke-miterlimit="10" stroke-linecap="round" stroke-linejoin="round"/>
<path d="M45.8899 36.3893L43.5499 36.7293C43.2699 36.7693 43.1599 37.1193 43.3599 37.3093L45.0499 38.9593L44.6499 41.2793C44.5999 41.5593 44.8999 41.7693 45.1499 41.6393L47.2399 40.5393L49.3299 41.6393C49.5799 41.7693 49.8699 41.5593 49.8299 41.2793L49.4299 38.9593L51.1199 37.3093C51.3199 37.1093 51.2099 36.7693 50.9299 36.7293L48.5899 36.3893L47.5499 34.2793C47.4199 34.0293 47.0599 34.0293 46.9399 34.2793L45.8899 36.3893Z" fill="#0047BA"/>
<path d="M50.2799 19.9394L51.0299 21.6394C51.0999 21.7994 51.3199 21.7994 51.3999 21.6594L52.2899 20.0194L54.1399 19.8294C54.3099 19.8094 54.3799 19.6094 54.2699 19.4794L52.9999 18.1294L53.3899 16.3094C53.4299 16.1394 53.2598 16.0094 53.0998 16.0794L51.4198 16.8794L49.7999 15.9494C49.6499 15.8594 49.4699 15.9894 49.4899 16.1494L49.7299 17.9994L48.3399 19.2494C48.2099 19.3594 48.2699 19.5694 48.4399 19.5994L50.2799 19.9394Z" fill="#0047BA"/>
<path d="M32.089 19.0298L30.739 17.7498C30.619 17.6298 30.409 17.7098 30.389 17.8798L30.189 19.7298L28.549 20.6198C28.399 20.6998 28.409 20.9198 28.559 20.9898L30.259 21.7498L30.599 23.5798C30.629 23.7498 30.839 23.8098 30.949 23.6798L32.199 22.2898L34.049 22.5398C34.219 22.5598 34.339 22.3798 34.249 22.2298L33.319 20.6098L34.119 18.9298C34.189 18.7798 34.059 18.6098 33.889 18.6398L32.089 19.0298Z" fill="#0047BA"/>
<path d="M82.4205 88.8599C80.9005 88.8599 79.4705 88.2799 78.3905 87.2199L78.1905 87.0099C76.1105 84.9699 75.9005 81.6399 77.7605 79.3099L77.8205 79.2299L82.8805 74.1699L83.9905 74.3299C85.5805 74.3699 87.1005 75.0199 88.2105 76.1399C90.6105 78.5699 90.5905 82.4999 88.1605 84.8999L85.1905 88.1599L84.8805 88.3099C84.1005 88.6799 83.2705 88.8599 82.4205 88.8599Z" stroke="#015CE6" stroke-width="2" stroke-miterlimit="10" stroke-linecap="round" stroke-linejoin="round"/>
<path d="M74.8299 80.4105C73.3299 80.4105 71.9099 79.8405 70.8299 78.8105L70.5899 78.5705C68.5399 76.4405 68.3899 73.1405 70.2199 70.8605L70.3499 70.7005L70.5099 70.5705C71.1599 70.0705 74.0799 67.7605 75.6199 66.4305L75.7299 66.3405L75.8499 66.2605C76.6899 65.7505 77.6599 65.4805 78.6399 65.4805C79.7999 65.4805 80.9099 65.8505 81.8299 66.5205H81.9099L82.4399 67.0305C84.4199 68.9905 84.5499 72.1905 82.7499 74.3105L82.6799 74.3905L82.5999 74.4605L82.5299 74.5505L77.1599 79.9205L76.7999 80.0505C76.1799 80.2905 75.5099 80.4105 74.8299 80.4105Z" stroke="#015CE6" stroke-width="2" stroke-miterlimit="10" stroke-linecap="round" stroke-linejoin="round"/>
<path d="M68.3607 71.0295C66.7807 71.0295 65.2507 70.3895 64.1407 69.2695L64.0307 69.1595C61.7007 66.8195 61.7007 63.0195 64.0307 60.6895L68.2207 56.4995L68.3207 56.4295C69.3907 55.6195 70.6707 55.1895 72.0107 55.1895C73.6507 55.1895 75.1807 55.8295 76.3407 56.9795C77.5007 58.1295 78.1607 59.7195 78.1507 61.3495L78.1407 61.4795C77.9907 63.3595 77.1307 65.0795 75.7307 66.3295C74.6007 67.3095 72.2807 69.1695 70.5907 70.4995L70.3207 70.7095L69.9907 70.7995C69.4607 70.9495 68.9107 71.0295 68.3607 71.0295Z" stroke="#015CE6" stroke-width="2" stroke-miterlimit="10" stroke-linecap="round" stroke-linejoin="round"/>
</g>
</svg>
