<svg width="100" height="100" viewBox="0 0 100 100" fill="none" xmlns="http://www.w3.org/2000/svg">
<path d="M50 100C77.6142 100 100 77.6142 100 50C100 22.3858 77.6142 0 50 0C22.3858 0 0 22.3858 0 50C0 77.6142 22.3858 100 50 100Z" fill="#6194FB"/>
<mask id="mask0" mask-type="alpha" maskUnits="userSpaceOnUse" x="0" y="0" width="100" height="100">
<path d="M50 100C77.6142 100 100 77.6142 100 50C100 22.3858 77.6142 0 50 0C22.3858 0 0 22.3858 0 50C0 77.6142 22.3858 100 50 100Z" fill="#2982FD"/>
</mask>
<g mask="url(#mask0)">
<path d="M76.5996 89C98.1387 89 115.6 71.5391 115.6 50C115.6 28.4609 98.1387 11 76.5996 11C55.0605 11 37.5996 28.4609 37.5996 50C37.5996 71.5391 55.0605 89 76.5996 89Z" fill="#015CE6"/>
<path d="M75.9004 48.2996C76.0004 48.2996 76.1004 48.2996 76.2004 48.2996C76.7004 48.2996 77.1004 48.3996 77.5004 48.4996L91.1004 34.8996C92.0004 33.9996 93.4004 33.9996 94.3004 34.8996C95.2004 35.7996 95.2004 37.1996 94.3004 38.0996L80.7004 51.5996C80.8004 51.9996 80.9004 52.4996 80.9004 52.8996C80.9004 55.4996 78.8004 57.5996 76.2004 57.5996C73.6004 57.5996 71.5004 55.4996 71.5004 52.8996C71.5004 52.0996 71.7004 51.3996 72.1004 50.6996L63.7004 42.4996C62.8004 41.5996 62.8004 40.1996 63.7004 39.2996C64.6004 38.3996 66.0004 38.3996 66.9004 39.2996L75.9004 48.2996Z" fill="#0047BA"/>
<path d="M76.6 79.1C60.6 79.1 47.5 66.1 47.5 50C47.5 37.3 55.6 26.2 67.7 22.3C68 22.2 68.2 22.4 68.3 22.6C68.4 22.9 68.2 23.1 68 23.2C56.3 27 48.5 37.7 48.5 50C48.5 65.5 61.1 78.1 76.6 78.1C92.1 78.1 104.7 65.5 104.7 50C104.7 42.3 101.6 35.1 96.1 29.8C95.9 29.6 95.9 29.3 96.1 29.1C96.3 28.9 96.6 28.9 96.8 29.1C102.6 34.6 105.7 42.1 105.7 50.1C105.6 66 92.6 79.1 76.6 79.1Z" fill="#6194FB"/>
<path d="M66.7004 33.2002H66.6004C66.3004 33.1002 66.2004 32.9002 66.2004 32.6002L68.2004 23.2002L58.8004 21.2002C58.5004 21.1002 58.4004 20.9002 58.4004 20.6002C58.5004 20.3002 58.7004 20.2002 59.0004 20.2002L68.9004 22.3002C69.2004 22.4002 69.3004 22.6002 69.3004 22.9002L67.2004 32.8002C67.1004 33.0002 66.9004 33.2002 66.7004 33.2002Z" fill="#6194FB"/>
<path d="M30.7002 40.2002H16.7002" stroke="#0047BA" stroke-width="4" stroke-miterlimit="10" stroke-linecap="round" stroke-linejoin="round"/>
<path d="M30.7002 58.7998H9.2002" stroke="#0047BA" stroke-width="4" stroke-miterlimit="10" stroke-linecap="round" stroke-linejoin="round"/>
<path d="M29.7002 49.7998H-0.299805" stroke="#0047BA" stroke-width="4" stroke-miterlimit="10" stroke-linecap="round" stroke-linejoin="round"/>
</g>
</svg>
