<svg width="100" height="100" viewBox="0 0 100 100" fill="none" xmlns="http://www.w3.org/2000/svg">
<mask id="mask0" mask-type="alpha" maskUnits="userSpaceOnUse" x="0" y="0" width="100" height="100">
<path d="M50 100C77.6142 100 100 77.6142 100 50C100 22.3858 77.6142 0 50 0C22.3858 0 0 22.3858 0 50C0 77.6142 22.3858 100 50 100Z" fill="#FFE381"/>
</mask>
<g mask="url(#mask0)">
<path d="M50 100C77.6142 100 100 77.6142 100 50C100 22.3858 77.6142 0 50 0C22.3858 0 0 22.3858 0 50C0 77.6142 22.3858 100 50 100Z" fill="#FFE381"/>
<path d="M52.2305 69.7094L56.9605 73.9794C58.7905 75.9194 60.7405 76.7194 62.8205 75.5894L63.4805 75.2094C65.5605 74.0794 66.4105 71.6194 65.8405 69.4394C66.3105 69.6294 66.7905 69.6294 67.2605 69.6294C68.1105 69.6294 68.9605 69.4394 69.7205 68.9694C72.0805 67.6494 72.9305 64.5294 71.6105 62.1594C72.0805 62.3494 72.5605 62.3494 73.1205 62.3494C73.9705 62.3494 74.8205 62.1594 75.5805 61.6894C77.8505 60.4594 78.7005 57.6194 77.6605 55.3594L65.4905 62.6694L52.2305 69.7094Z" fill="#FFC400"/>
<path d="M87.6291 49.3798L43.5391 75.8698C41.6491 77.0098 39.1891 76.3998 38.0491 74.4998L21.3591 46.7298C20.2191 44.8398 20.8291 42.3798 22.7291 41.2398L66.8191 14.7498C68.7091 13.6098 71.1691 14.2198 72.3091 16.1198L88.9991 43.8898C90.1391 45.7798 89.5291 48.2398 87.6291 49.3798Z" fill="#FF991E"/>
<path d="M79.0198 27.2793L28.0698 57.8993L24.0098 51.1393L74.9598 20.5293L79.0198 27.2793Z" fill="url(#paint0_linear)"/>
<path d="M78.9011 45.3L71.3311 49.85C70.3811 50.42 69.151 50.11 68.591 49.17L66.161 45.12C65.591 44.17 65.901 42.94 66.841 42.38L74.411 37.83C75.361 37.26 76.5911 37.57 77.1511 38.51L79.5811 42.56C80.1511 43.5 79.8411 44.73 78.9011 45.3Z" fill="#FFE381"/>
<path d="M21.7997 47C17.9197 49.46 9.6997 70.49 9.6997 70.49L4.21969 75.03C2.98969 76.07 2.60971 77.77 3.26971 79.28L12.9097 97.24C13.7597 98.75 15.5597 99.41 17.1597 98.75C20.1897 97.43 25.1997 95.54 29.7297 94.87C33.2297 94.4 37.5797 90.99 38.2397 90.05C40.5097 87.31 63.4797 59.04 63.4797 59.04C65.7497 56.2 65.1797 51.95 62.1597 49.87C59.4197 47.98 55.6397 48.64 53.4597 51.19L42.5897 64.52C40.8897 66.6 37.7697 66.32 36.4397 64.05C30.4597 55.16 23.6497 51.12 20.4497 45.21" fill="#FFC400"/>
</g>
<defs>
<linearGradient id="paint0_linear" x1="24.014" y1="39.2109" x2="79.0225" y2="39.2109" gradientUnits="userSpaceOnUse">
<stop stop-color="#F3DE83"/>
<stop offset="0.2119" stop-color="#F3DC7F"/>
<stop offset="0.4316" stop-color="#F2D872"/>
<stop offset="0.6547" stop-color="#F0D05E"/>
<stop offset="0.8789" stop-color="#EEC641"/>
<stop offset="1" stop-color="#ECBF2E"/>
</linearGradient>
</defs>
</svg>
