<svg width="100" height="100" viewBox="0 0 100 100" fill="none" xmlns="http://www.w3.org/2000/svg">
<mask id="mask0" mask-type="alpha" maskUnits="userSpaceOnUse" x="0" y="0" width="100" height="100">
<path d="M50 100C77.6142 100 100 77.6142 100 50C100 22.3858 77.6142 0 50 0C22.3858 0 0 22.3858 0 50C0 77.6142 22.3858 100 50 100Z" fill="#B3F5FF"/>
</mask>
<g mask="url(#mask0)">
<path d="M50 100C77.6142 100 100 77.6142 100 50C100 22.3858 77.6142 0 50 0C22.3858 0 0 22.3858 0 50C0 77.6142 22.3858 100 50 100Z" fill="#B3F5FF"/>
<path d="M-14.3496 109.35H65.0004C67.7604 109.35 70.0004 107.11 70.0004 104.35V25C70.0004 22.24 67.7604 20 65.0004 20H-14.3496C-17.1096 20 -19.3496 22.24 -19.3496 25V104.35C-19.3496 107.11 -17.1096 109.35 -14.3496 109.35Z" fill="#79E2F3"/>
<path d="M13.3496 42.3203H53.3396" stroke="#B3F5FF" stroke-width="3" stroke-miterlimit="10" stroke-linecap="round" stroke-linejoin="round"/>
<path d="M13.3496 62.4102H53.3396" stroke="#B3F5FF" stroke-width="3" stroke-miterlimit="10" stroke-linecap="round" stroke-linejoin="round"/>
<path d="M13.3496 80.4902H53.3396" stroke="#B3F5FF" stroke-width="3" stroke-miterlimit="10" stroke-linecap="round" stroke-linejoin="round"/>
<path d="M88.2393 91.6096C86.7193 91.8696 85.1693 91.3196 84.2193 90.1796L74.6993 78.8296C74.2193 78.2596 74.2893 77.3996 74.8593 76.9096C74.9293 76.8496 79.3093 73.1796 79.3093 73.1796C79.4993 73.0196 79.7393 72.9096 79.9793 72.8696C80.2293 72.8296 80.4993 72.8496 80.7393 72.9596C81.0093 73.0796 81.2193 73.2696 81.3693 73.5096L90.7493 84.6996C91.4793 85.5696 91.8293 86.6796 91.7293 87.8096C91.6293 88.9396 91.0993 89.9696 90.2193 90.6996C89.6593 91.1696 88.9693 91.4896 88.2393 91.6096Z" fill="#79E2F3"/>
<path d="M75.2306 76.3495C74.7706 76.4295 74.2807 76.2695 73.9607 75.8795L71.7606 73.2695C71.5206 72.9795 71.4006 72.5995 71.4506 72.2295C71.5006 71.8495 71.7007 71.5095 72.0007 71.2895C72.8307 70.6795 73.5306 70.0995 74.2606 69.3995C74.4606 69.2095 74.7106 69.0795 74.9806 69.0395C75.0806 69.0195 75.1806 69.0195 75.2806 69.0195C75.6606 69.0395 76.0106 69.2195 76.2506 69.5095L78.4407 72.1295C78.6707 72.4095 78.7806 72.7595 78.7506 73.1295C78.7206 73.4895 78.5507 73.8195 78.2707 74.0595L75.8706 76.0695C75.6806 76.2095 75.4606 76.3095 75.2306 76.3495Z" fill="#00C7E5"/>
<path d="M60.7397 76.0897C51.8997 77.5697 42.8297 74.2397 37.0797 67.3797C32.6897 62.1497 30.6297 55.5197 31.2797 48.6997C31.9197 41.9897 35.0797 35.9297 40.1897 31.6497C43.6597 28.7397 47.8397 26.8097 52.2697 26.0697C60.1697 24.7397 68.3197 27.2597 74.0697 32.7997C74.6697 33.3697 75.2997 34.0297 75.9197 34.7597C81.8297 41.8097 83.4597 51.1397 80.2897 59.7197C77.1197 68.3297 69.6197 74.5997 60.7397 76.0897Z" fill="#00C7E5"/>
<path d="M58.0301 47.3595V39.4595C59.6801 39.4595 61.2401 39.9195 61.5001 43.8095H66.9501C66.4001 36.2895 61.2001 35.3095 58.0301 34.9795V32.2295H56.0901V34.9795C50.0901 35.0595 47.2101 39.1595 47.2101 43.7695C47.2101 49.5995 51.9401 51.2495 56.0901 52.3495V61.2295C52.8401 60.6395 52.3701 58.8595 52.1201 55.8995H46.5801C46.5801 62.1995 49.2401 65.1595 56.0901 65.7095V69.8495H58.0301V65.7095C65.0001 65.3295 67.4101 60.5095 67.4101 56.6195C67.4101 55.5595 67.3701 52.8595 65.0901 50.6995C64.0301 49.6895 62.0001 48.6295 58.0301 47.3595ZM56.0901 46.7695C54.4401 46.3895 52.5401 45.4995 52.5401 42.7495C52.5401 41.3595 53.6001 39.5795 56.0901 39.4495V46.7695ZM58.0301 61.2295V53.0695C59.7201 53.5395 61.7501 54.6295 61.7501 57.0895C61.7501 60.3395 59.4301 61.1395 58.0301 61.2295Z" fill="#B3F5FF"/>
</g>
</svg>
