<svg width="100" height="100" viewBox="0 0 100 100" fill="none" xmlns="http://www.w3.org/2000/svg">
<path d="M50 100C77.6142 100 100 77.6142 100 50C100 22.3858 77.6142 0 50 0C22.3858 0 0 22.3858 0 50C0 77.6142 22.3858 100 50 100Z" fill="#79F2C0"/>
<mask id="mask0" mask-type="alpha" maskUnits="userSpaceOnUse" x="0" y="0" width="100" height="100">
<path d="M50 100C77.6142 100 100 77.6142 100 50C100 22.3858 77.6142 0 50 0C22.3858 0 0 22.3858 0 50C0 77.6142 22.3858 100 50 100Z" fill="#77F0BE"/>
</mask>
<g mask="url(#mask0)">
<path d="M76.8996 -10.2998H23.0996V54.6002H76.8996V-10.2998Z" fill="#57D9A3"/>
<path d="M47.8006 84.6996L12.4006 56.6996C11.5006 55.9996 12.0006 54.5996 13.1006 54.5996H86.7006C87.8006 54.5996 88.3006 55.9996 87.4006 56.6996L52.0006 84.6996C50.9006 85.6996 49.1006 85.6996 47.8006 84.6996Z" fill="#57D9A3"/>
<path d="M40.0992 48.8996C43.8992 48.8996 46.9992 45.7996 46.9992 41.9996C46.9992 38.1996 43.8992 35.0996 40.0992 35.0996C36.2992 35.0996 33.1992 38.1996 33.1992 41.9996C33.1992 45.7996 36.2992 48.8996 40.0992 48.8996ZM40.0992 39.0996C41.6992 39.0996 42.8992 40.3996 42.8992 41.8996C42.8992 43.4996 41.5992 44.6996 40.0992 44.6996C38.4992 44.6996 37.2992 43.3996 37.2992 41.8996C37.2992 40.3996 38.4992 39.0996 40.0992 39.0996Z" fill="#00875A"/>
<path d="M52.0996 58.1002C52.0996 61.9002 55.1996 65.0002 58.9996 65.0002C62.7996 65.0002 65.8996 61.9002 65.8996 58.1002C65.8996 54.3002 62.7996 51.2002 58.9996 51.2002C55.1996 51.2002 52.0996 54.3002 52.0996 58.1002ZM59.0996 55.2002C60.6996 55.2002 61.8996 56.5002 61.8996 58.0002C61.8996 59.6002 60.5996 60.8002 59.0996 60.8002C57.4996 60.8002 56.2996 59.5002 56.2996 58.0002C56.1996 56.5002 57.4996 55.2002 59.0996 55.2002Z" fill="#00875A"/>
<path d="M41.6 61.3998L53.9 36.7998C54.4 35.7998 55.6 35.3998 56.6 35.8998C57.6 36.3998 58 37.5998 57.5 38.5998L45.2 63.1998C44.7 64.1998 43.5 64.5998 42.5 64.0998C41.5 63.5998 41.1 62.3998 41.6 61.3998Z" fill="#00875A"/>
</g>
</svg>
