<svg width="80" height="80" viewBox="0 0 80 80" fill="none" xmlns="http://www.w3.org/2000/svg">
<path d="M40 80C62.0914 80 80 62.0914 80 40C80 17.9086 62.0914 0 40 0C17.9086 0 0 17.9086 0 40C0 62.0914 17.9086 80 40 80Z" fill="#B3F5FF"/>
<mask id="mask0" mask-type="alpha" maskUnits="userSpaceOnUse" x="0" y="0" width="80" height="80">
<path d="M40 80C62.0914 80 80 62.0914 80 40C80 17.9086 62.0914 0 40 0C17.9086 0 0 17.9086 0 40C0 62.0914 17.9086 80 40 80Z" fill="#B0F3FF"/>
</mask>
<g mask="url(#mask0)">
<path d="M23.6002 64.9C25.9002 62.6 27.8002 60.1 29.3002 57.2C22.2002 52.7 18.2002 46 18.2002 38.8C18.2002 30.4 23.8002 22.7 33.1002 18.2C38.2002 15.8 43.9002 14.5 49.6002 14.5H49.9002C59.8002 14.5 69.0002 18 75.1002 24C79.3002 28.2 81.6002 33.3 81.6002 38.6C81.5002 43.6 79.6002 48.4 76.3002 52.1C70.2002 59 60.4002 63 49.8002 63C45.0002 63 40.5002 62.2 36.1002 60.6C34.3002 65.2 28.3002 66.9 25.0002 67.5L20.5002 67.8L23.6002 64.9Z" fill="#00C7E5"/>
<path d="M35.6 43.2C37.3121 43.2 38.7 41.8121 38.7 40.1C38.7 38.3879 37.3121 37 35.6 37C33.8879 37 32.5 38.3879 32.5 40.1C32.5 41.8121 33.8879 43.2 35.6 43.2Z" fill="#B3F5FF"/>
<path d="M49.8002 43.2C51.5123 43.2 52.9002 41.8121 52.9002 40.1C52.9002 38.3879 51.5123 37 49.8002 37C48.0881 37 46.7002 38.3879 46.7002 40.1C46.7002 41.8121 48.0881 43.2 49.8002 43.2Z" fill="#B3F5FF"/>
<path d="M64.1 43.2C65.8121 43.2 67.2 41.8121 67.2 40.1C67.2 38.3879 65.8121 37 64.1 37C62.3879 37 61 38.3879 61 40.1C61 41.8121 62.3879 43.2 64.1 43.2Z" fill="#B3F5FF"/>
<path d="M85.9002 16.4004C79.8002 10.3004 70.7002 6.90039 60.7002 6.90039H60.4002C54.7002 6.90039 49.0002 8.20039 43.9002 10.6004C39.9002 12.5004 36.6002 15.0004 34.2002 17.9004C39.0002 15.8004 44.3002 14.7004 49.5002 14.7004H49.8002C59.7002 14.7004 68.9002 18.2004 75.0002 24.2004C79.2002 28.4004 81.5002 33.5004 81.5002 38.8004C81.4002 43.8004 79.6002 48.5004 76.3002 52.1004C80.5002 50.3004 84.3002 47.7004 87.1002 44.5004C90.5002 40.8004 92.4002 36.0004 92.4002 31.0004C92.4002 25.7004 90.1002 20.6004 85.9002 16.4004Z" fill="#79E2F3"/>
</g>
</svg>
