<svg width="2560" height="434" viewBox="0 0 2560 434" fill="none" xmlns="http://www.w3.org/2000/svg">
<path d="M0 178.938C354.886 147.038 348.886 228.738 578.177 240.738C807.468 252.738 823.368 206.838 1000.86 216.838C1184.65 227.138 1238.15 286.638 1521.24 286.638C1865.53 286.638 2108.92 148.838 2560 216.838V433.338H0V178.938Z" fill="#2F415F"/>
<path d="M668.5 433.339C911.9 329.539 1068.1 374.539 1243.1 327.639C1406.7 283.739 1469.5 232.539 1630.2 197.939C1787.8 164.039 1931.5 195.939 2153 106.139C2368.4 18.8391 2488.2 -3.56094 2560 0.439057V433.439H668.5V433.339Z" fill="#465672"/>
<path d="M2560 432.905H1290V433.005C1387.8 387.105 1537 369.805 1681.1 389.105C1814.8 407.105 1910.5 387.105 1968.4 371.105C2034.2 353.005 2070.1 329.205 2131.9 320.505C2312.5 294.905 2484.2 367.705 2560 353.205V432.905Z" fill="#5E6C84"/>
</svg>
