<svg width="80" height="80" viewBox="0 0 80 80" fill="none" xmlns="http://www.w3.org/2000/svg">
<path d="M40 80C62.0914 80 80 62.0914 80 40C80 17.9086 62.0914 0 40 0C17.9086 0 0 17.9086 0 40C0 62.0914 17.9086 80 40 80Z" fill="#6194FB"/>
<mask id="mask0" mask-type="alpha" maskUnits="userSpaceOnUse" x="0" y="0" width="80" height="80">
<path d="M40 80C62.0914 80 80 62.0914 80 40C80 17.9086 62.0914 0 40 0C17.9086 0 0 17.9086 0 40C0 62.0914 17.9086 80 40 80Z" fill="#6194FB"/>
</mask>
<g mask="url(#mask0)">
<path d="M45.7002 86.5C33.8002 86.5 24.2002 76.9 24.2002 65V47C24.2002 35.1 33.8002 25.5 45.7002 25.5C57.6002 25.5 67.2002 35.1 67.2002 47V65C67.2002 76.9 57.5002 86.5 45.7002 86.5Z" fill="#015CE6"/>
<path d="M12.5996 54.7996C8.99961 54.7996 6.09961 51.8996 6.09961 48.2996V38.3996C6.09961 35.3996 3.59961 32.8996 0.599609 32.8996C0.299609 32.8996 0.0996094 32.6996 0.0996094 32.3996C0.0996094 32.0996 0.299609 31.8996 0.599609 31.8996C4.19961 31.8996 7.09961 34.7996 7.09961 38.3996V48.2996C7.09961 51.2996 9.59961 53.7996 12.5996 53.7996C15.5996 53.7996 18.0996 51.2996 18.0996 48.2996V23.5996C18.0996 15.8996 24.3996 9.59961 32.0996 9.59961C39.7996 9.59961 46.0996 15.8996 46.0996 23.5996V25.4996C46.0996 25.7996 45.8996 25.9996 45.5996 25.9996C45.2996 25.9996 45.0996 25.7996 45.0996 25.4996V23.5996C45.0996 16.3996 39.2996 10.5996 32.0996 10.5996C24.8996 10.5996 19.0996 16.3996 19.0996 23.5996V48.2996C19.0996 51.8996 16.1996 54.7996 12.5996 54.7996Z" fill="#015CE6"/>
<path d="M67.1002 45C66.1002 34.1 56.9002 25.5 45.7002 25.5V45H67.1002Z" fill="#0047BA"/>
<path d="M24.2002 45C25.2002 34.1 34.4002 25.5 45.6002 25.5V45H24.2002Z" fill="#0047BA"/>
<path d="M45.5996 48.5C44.7996 48.5 44.0996 47.8 44.0996 47V27.5C44.0996 26.7 44.7996 26 45.5996 26C46.3996 26 47.0996 26.7 47.0996 27.5V47C47.0996 47.8 46.3996 48.5 45.5996 48.5Z" fill="#015CE6"/>
</g>
</svg>
