<svg width="80" height="80" viewBox="0 0 80 80" fill="none" xmlns="http://www.w3.org/2000/svg">
<path d="M40 80C62.0914 80 80 62.0914 80 40C80 17.9086 62.0914 0 40 0C17.9086 0 0 17.9086 0 40C0 62.0914 17.9086 80 40 80Z" fill="#FFE381"/>
<mask id="mask0" mask-type="alpha" maskUnits="userSpaceOnUse" x="0" y="0" width="80" height="80">
<path d="M40 80C62.0914 80 80 62.0914 80 40C80 17.9086 62.0914 0 40 0C17.9086 0 0 17.9086 0 40C0 62.0914 17.9086 80 40 80Z" fill="#FDE180"/>
</mask>
<g mask="url(#mask0)">
<path d="M3.7998 38.5L9.89981 45.5L7.7998 48.9C6.9998 50.3 7.39983 52 8.69983 52.9L8.7998 53C10.1998 53.8 11.8998 53.4 12.7998 52.1L11.6998 53.9C10.7998 55.4 11.1998 57.4 12.6998 58.3L12.8998 58.4C14.3998 59.3 16.3998 58.9 17.2998 57.4L17.1998 57.6C16.2998 59 16.7998 60.9 18.1998 61.8L18.3998 61.9C19.7998 62.8 21.6998 62.3 22.5998 60.9L24.3998 57.9L22.8998 60.3C21.9998 61.7 22.3998 63.6 23.8998 64.5L24.0998 64.6C25.4998 65.5 27.3998 65.1 28.2998 63.6L29.4998 61.7C44.7998 69.1 43.8998 64.9 45.7998 61.9C47.2998 62.4 49.2998 62.7 50.5998 61.5C50.5998 61.5 52.8998 59.2 50.7998 57.2H50.9998C52.5998 58.3 54.8998 57.8 55.9998 56.1C55.9998 56.1 58.2998 53.1 55.0998 51.1L56.7998 52.2C58.6998 53.5 61.2998 52.9 62.4998 51.1C63.7998 49.2 63.1998 46.6 61.3998 45.4L68.0998 36.8L70.0998 40L56.4998 18.3L57.7998 20.4C57.7998 20.4 57.0998 20.8 55.0998 21.8C53.0998 22.8 46.5998 20.2 44.0998 19.4C41.5998 18.5 34.2998 18.4 30.9998 18.9C29.1998 19.2 27.6998 20.4 26.1998 22.3C24.5998 22 23.1998 22.4 21.4998 22.3C19.7998 22.2 15.8998 19.4 15.8998 19.4L5.89981 13L-5.2002 31.1L3.7998 38.5Z" fill="#FFC400"/>
<path d="M57.6004 20.3003C57.6004 20.3003 57.2004 20.6003 56.0004 21.1003C55.7004 21.3003 55.3004 21.4003 54.9004 21.6003C52.9004 22.6003 46.4004 20.0003 43.9004 19.2003C41.8004 18.5003 36.4004 18.3003 32.7004 18.5003C32.0004 18.5003 31.3004 18.6003 30.7004 18.7003C30.5004 18.7003 30.3004 18.8003 30.1004 18.8003C30.0004 18.8003 30.0004 18.8003 30.0004 18.9003C29.8004 19.0003 29.7004 19.0003 29.5004 19.1003C29.4004 19.1003 29.4004 19.2003 29.3004 19.2003C29.1004 19.3003 29.0004 19.3003 28.8004 19.4003L28.7004 19.5003C28.5004 19.6003 28.4004 19.7003 28.2004 19.8003L28.1004 19.9003C27.9004 20.0003 27.8004 20.1003 27.6004 20.3003L27.5004 20.4003C27.3004 20.6003 27.2004 20.7003 27.0004 20.9003C27.0004 20.9003 27.0004 20.9003 26.9004 21.0003C26.7004 21.2003 26.6004 21.4003 26.4004 21.6003C26.2004 21.8003 26.0004 22.0003 25.9004 22.3003C24.6004 24.0003 23.3004 26.4003 21.9004 29.0003C19.0004 34.6003 25.7004 34.2003 27.4004 33.5003C29.1004 32.8003 29.3004 31.6003 30.4004 30.2003C31.5004 28.8003 32.0004 28.4003 33.7004 28.4003C35.4004 28.4003 35.9004 28.3003 37.4004 29.4003L61.0004 45.4003L67.7004 36.8003L57.6004 20.3003Z" fill="#FF991E"/>
<path d="M40.7998 50.5L50.8998 57.2C52.4998 58.3 54.7998 57.8 55.8998 56.1C55.8998 56.1 58.1998 53.1 54.9998 51.1L44.2998 44" stroke="#FFE381" stroke-miterlimit="10" stroke-linecap="round" stroke-linejoin="round"/>
<path d="M72.6999 43.0004C72.4999 43.0004 72.2999 43.0004 72.0999 42.9004C71.3999 42.7004 70.8998 42.4004 70.4998 41.8004L54.5999 16.4004C54.4999 16.2004 54.4998 15.9004 54.7998 15.7004C54.9998 15.6004 55.2998 15.6004 55.4998 15.9004L71.3998 41.3004C71.5998 41.6004 71.9998 41.9004 72.2998 42.0004C72.6998 42.1004 73.0998 42.0004 73.3998 41.8004L80.5999 37.3004C80.7999 37.2004 81.0998 37.2004 81.2998 37.5004C81.3998 37.7004 81.3999 38.0004 81.0999 38.2004L73.8998 42.7004C73.6998 42.9004 73.1999 43.0004 72.6999 43.0004Z" fill="#FF991E"/>
<path d="M38 57.1002L44.3 61.3002C45.5 62.0002 48.7 63.2002 50.5 61.6002C50.5 61.6002 53.2 58.8002 50 56.7002L41 50.7002" stroke="#FFE381" stroke-miterlimit="10" stroke-linecap="round" stroke-linejoin="round"/>
<path d="M45.8 61.9002C43.9 64.9002 44.8 69.1002 29.5 61.7002" stroke="#FFE381" stroke-miterlimit="10" stroke-linecap="round" stroke-linejoin="round"/>
<path d="M74.1 36.7996C75.2598 36.7996 76.2 35.8594 76.2 34.6996C76.2 33.5398 75.2598 32.5996 74.1 32.5996C72.9402 32.5996 72 33.5398 72 34.6996C72 35.8594 72.9402 36.7996 74.1 36.7996Z" fill="#FF991E"/>
<path d="M9.2995 53.2995L8.19953 52.5995C7.09953 51.8995 6.79951 50.4995 7.39951 49.3995L10.8995 43.6995C11.5995 42.5995 12.9995 42.2995 14.0995 42.8995L15.1995 43.5995C16.2995 44.2995 16.5995 45.6995 15.9995 46.7995L12.4995 52.4995C11.7995 53.6995 10.2995 53.9995 9.2995 53.2995Z" fill="#FF991E"/>
<path d="M12.2006 58L13.4006 58.7C14.6006 59.5 16.2006 59.1 17.0006 57.9L23.4006 47.6C24.2006 46.4 23.8006 44.8 22.6006 44L21.4006 43.3C20.2006 42.5 18.6006 42.9 17.8006 44.1L11.4006 54.4C10.6006 55.6 11.0006 57.2 12.2006 58Z" fill="#FF991E"/>
<path d="M18.8 62.1004L17.7 61.4004C16.6 60.7004 16.2 59.2004 16.9 58.0004L21.8 50.1004C22.5 49.0004 24 48.6004 25.2 49.3004L26.3 50.0004C27.4 50.7004 27.8 52.2004 27.1 53.4004L22.2 61.3004C21.5 62.4004 20 62.8004 18.8 62.1004Z" fill="#FF991E"/>
<path d="M23.3006 64.2002L24.5006 64.9002C25.7006 65.6002 27.2006 65.3002 27.9006 64.1002L31.4006 58.5002C32.1006 57.3002 31.8006 55.8002 30.6006 55.1002L29.4006 54.4002C28.2006 53.7002 26.7006 54.0002 26.0006 55.2002L22.5006 60.8002C21.8006 61.9002 22.2006 63.4002 23.3006 64.2002Z" fill="#FF991E"/>
</g>
</svg>
