<svg width="80" height="80" viewBox="0 0 80 80" fill="none" xmlns="http://www.w3.org/2000/svg">
<path d="M40 80C62.0914 80 80 62.0914 80 40C80 17.9086 62.0914 0 40 0C17.9086 0 0 17.9086 0 40C0 62.0914 17.9086 80 40 80Z" fill="#79F2C0"/>
<mask id="mask0" mask-type="alpha" maskUnits="userSpaceOnUse" x="0" y="0" width="80" height="80">
<path d="M40 80C62.0914 80 80 62.0914 80 40C80 17.9086 62.0914 0 40 0C17.9086 0 0 17.9086 0 40C0 62.0914 17.9086 80 40 80Z" fill="#77F0BE"/>
</mask>
<g mask="url(#mask0)">
<path d="M66.6 48.0996L63.5 42.6996C63.1 41.9996 62.9 41.1996 62.9 40.2996V34.0996C62.9 32.3996 62 30.8996 60.5 29.9996L55.1 26.8996C54.4 26.4996 53.8 25.8996 53.4 25.1996L50.3 19.7996C49.5 18.2996 47.9 17.3996 46.2 17.3996H40C39.2 17.3996 38.4 17.1996 37.6 16.7996L32.2 13.6996C30.7 12.8996 28.9 12.8996 27.5 13.6996L22.1 16.7996C21.4 17.1996 20.6 17.3996 19.7 17.3996H13.5C11.8 17.3996 10.3 18.2996 9.4 19.7996L6.3 25.1996C5.9 25.8996 5.3 26.4996 4.6 26.8996L-0.799994 29.9996C-2.29999 30.7996 -3.2 32.3996 -3.2 34.0996V40.2996C-3.2 41.0996 -3.39999 41.8996 -3.79999 42.6996L-6.9 48.0996C-7.7 49.5996 -7.7 51.3996 -6.9 52.7996L-3.79999 58.1996C-3.39999 58.8996 -3.2 59.6996 -3.2 60.5996V66.7996C-3.2 68.4996 -2.29999 69.9996 -0.799994 70.8996L4.6 73.9996C5.3 74.3996 5.9 74.9996 6.3 75.6996L9.4 81.0996C10.2 82.5996 11.8 83.4996 13.5 83.4996H19.7C20.5 83.4996 21.3 83.6996 22.1 84.0996L27.5 87.1996C29 87.9996 30.8 87.9996 32.2 87.1996L37.6 84.0996C38.3 83.6996 39.1 83.4996 40 83.4996H46.2C47.9 83.4996 49.4 82.5996 50.3 81.0996L53.4 75.6996C53.8 74.9996 54.4 74.3996 55.1 73.9996L60.5 70.8996C62 70.0996 62.9 68.4996 62.9 66.7996V60.5996C62.9 59.7996 63.1 58.9996 63.5 58.1996L66.6 52.7996C67.4 51.2996 67.4 49.4996 66.6 48.0996Z" fill="#57D9A3"/>
<path d="M29.8002 77.4998C44.7671 77.4998 56.9002 65.3667 56.9002 50.3998C56.9002 35.4329 44.7671 23.2998 29.8002 23.2998C14.8333 23.2998 2.7002 35.4329 2.7002 50.3998C2.7002 65.3667 14.8333 77.4998 29.8002 77.4998Z" fill="#00875A"/>
<path d="M25.7 60.4996C25.3 60.4996 24.9 60.3996 24.6 60.0996L16.2 51.6996C15.6 51.0996 15.6 50.1996 16.2 49.5996C16.8 48.9996 17.7 48.9996 18.3 49.5996L25.6 56.8996L39.2 43.2996C39.8 42.6996 40.7 42.6996 41.3 43.2996C41.9 43.8996 41.9 44.7996 41.3 45.3996L26.7 59.9996C26.5 60.2996 26.1 60.4996 25.7 60.4996Z" fill="#79F2C0"/>
</g>
</svg>
